<?xml version="1.0" encoding="UTF-8"?>
<!-- Generator: https://ezgif.com/png-to-svg -->
<svg version="1.1" xmlns="http://www.w3.org/2000/svg" width="1024" height="1024">
<path d="M0 0 C337.92 0 675.84 0 1024 0 C1024 246.18 1024 492.36 1024 746 C940.84 746 857.68 746 772 746 C777.52 761.81 777.52 761.81 783.19 777.56 C783.83 779.31 784.47 781.07 785.11 782.82 C786.07 785.46 787.04 788.1 788.01 790.75 C789.92 795.97 791.78 801.21 793.59 806.47 C796.11 813.79 798.74 821 801.8 828.11 C803.72 832.73 805.34 837.44 806.98 842.16 C807.9 844.9 807.9 844.9 809 847 C828.14 847.33 847.28 847.66 867 848 C867 860.54 867 873.08 867 886 C632.7 886 398.4 886 157 886 C157 873.46 157 860.92 157 848 C185.71 847.5 185.71 847.5 215 847 C217.38 841.65 219.48 836.82 221.24 831.33 C222.63 827.06 224.21 822.85 225.75 818.62 C226.1 817.67 226.44 816.72 226.8 815.74 C228.5 811.08 230.21 806.42 231.94 801.77 C232.54 800.14 233.15 798.51 233.75 796.88 C234.04 796.09 234.33 795.31 234.63 794.5 C236.21 790.21 237.72 785.91 239.12 781.56 C240.75 776.57 242.72 771.78 244.77 766.95 C247.64 760.08 249.95 753.17 252 746 C168.84 746 85.68 746 0 746 C0 499.82 0 253.64 0 0 Z M38 38 C38 211.58 38 385.16 38 564 C202.6 564.03 202.6 564.03 367.2 564.05 C391.74 564.05 416.27 564.05 440.81 564.05 C442.97 564.05 445.13 564.06 447.29 564.06 C480.35 564.06 513.41 564.06 546.47 564.07 C547.54 564.07 547.54 564.07 548.63 564.07 C560.1 564.07 571.57 564.07 583.04 564.08 C616.07 564.08 649.09 564.09 682.12 564.09 C682.79 564.09 683.47 564.09 684.17 564.09 C699.07 564.09 713.96 564.09 728.86 564.09 C734.85 564.09 740.84 564.09 746.84 564.09 C748.15 564.09 749.46 564.1 750.81 564.1 C771.96 564.1 793.11 564.1 814.26 564.11 C835.5 564.11 856.74 564.11 877.98 564.11 C890.61 564.11 903.25 564.11 915.88 564.12 C924.3 564.12 932.73 564.12 941.15 564.12 C945.96 564.12 950.77 564.12 955.58 564.12 C959.95 564.13 964.31 564.13 968.68 564.12 C970.26 564.12 971.84 564.12 973.42 564.13 C975.54 564.13 977.67 564.13 979.8 564.12 C980.98 564.12 982.16 564.12 983.38 564.12 C985.93 564.3 985.93 564.3 987 563 C987.1 560.22 987.13 557.46 987.12 554.68 C987.12 553.79 987.13 552.9 987.13 551.99 C987.13 548.97 987.12 545.96 987.12 542.95 C987.12 540.79 987.12 538.63 987.12 536.47 C987.13 530.48 987.12 524.5 987.12 518.52 C987.11 512.66 987.11 506.8 987.11 500.94 C987.11 489.01 987.11 477.09 987.11 465.16 C987.1 449.04 987.1 432.91 987.09 416.79 C987.09 378 987.08 339.22 987.06 300.44 C987.04 213.83 987.02 127.23 987 38 C673.83 38 360.66 38 38 38 Z M37 604 C37.33 637.66 37.66 671.32 38 706 C68.11 706.01 68.11 706.01 98.21 706.01 C99.26 706.01 100.31 706.01 101.39 706.01 C170.72 706.02 240.05 706.04 309.38 706.04 C310.73 706.04 312.08 706.04 313.44 706.04 C341.8 706.05 370.16 706.05 398.52 706.05 C412.76 706.05 427.01 706.05 441.25 706.05 C443.4 706.05 445.55 706.06 447.7 706.06 C480.8 706.06 513.91 706.06 547.01 706.07 C547.72 706.07 548.44 706.07 549.17 706.07 C560.65 706.07 572.13 706.07 583.62 706.08 C616.68 706.08 649.74 706.09 682.79 706.09 C683.81 706.09 683.81 706.09 684.85 706.09 C699.76 706.09 714.68 706.09 729.59 706.09 C735.59 706.09 741.59 706.09 747.58 706.09 C748.9 706.09 750.21 706.1 751.56 706.1 C772.74 706.1 793.91 706.1 815.08 706.11 C836.34 706.11 857.6 706.11 878.86 706.11 C891.51 706.11 904.16 706.11 916.81 706.12 C925.24 706.12 933.67 706.12 942.1 706.12 C946.92 706.12 951.73 706.12 956.55 706.12 C960.92 706.13 965.29 706.13 969.66 706.12 C971.24 706.12 972.82 706.12 974.4 706.13 C976.53 706.13 978.66 706.13 980.79 706.12 C982.57 706.12 982.57 706.12 984.38 706.12 C986.93 706.3 986.93 706.3 988 705 C988 671.67 988 638.34 988 604 C674.17 604 360.34 604 37 604 Z M297 743 C296.21 744.89 295.42 746.79 294.62 748.68 C294.18 749.74 293.74 750.79 293.29 751.88 C291.49 756.23 289.79 760.6 288.12 765 C287.78 765.9 287.44 766.79 287.09 767.72 C284.5 774.57 282.05 781.46 279.65 788.39 C277.42 794.82 275.13 801.23 272.81 807.62 C272.49 808.51 272.17 809.4 271.84 810.32 C270.28 814.59 268.68 818.84 266.96 823.05 C265.04 827.81 263.36 832.63 261.75 837.5 C261.48 838.3 261.21 839.09 260.94 839.91 C259.52 843.87 259.52 843.87 259 848 C425.98 848 592.96 848 765 848 C763.63 841.84 762.43 837.15 760.06 831.5 C758.13 826.81 756.29 822.14 754.76 817.31 C753.94 814.83 753.06 812.37 752.16 809.92 C751.63 808.47 751.63 808.47 751.09 806.99 C750.73 806 750.37 805.02 750 804 C749.33 802.17 748.67 800.33 748 798.5 C747.67 797.59 747.34 796.68 747 795.75 C744 787.5 744 787.5 743.01 784.77 C742.31 782.86 741.62 780.95 740.93 779.05 C740.58 778.09 740.23 777.13 739.87 776.14 C739.4 774.84 739.4 774.84 738.92 773.53 C737.98 770.96 737.05 768.38 736.12 765.81 C734.37 760.99 732.6 756.18 730.81 751.38 C730.55 750.66 730.29 749.95 730.02 749.22 C728.95 745.85 728.95 745.85 727 743 C724.72 742.9 722.44 742.88 720.16 742.88 C719.43 742.88 718.71 742.87 717.96 742.87 C715.49 742.87 713.02 742.88 710.56 742.88 C708.78 742.88 707.01 742.88 705.23 742.88 C700.33 742.87 695.43 742.88 690.53 742.88 C685.26 742.89 679.98 742.89 674.7 742.89 C665.56 742.89 656.41 742.89 647.26 742.89 C634.03 742.9 620.81 742.9 607.58 742.91 C586.12 742.91 564.67 742.92 543.21 742.92 C522.36 742.93 501.51 742.94 480.66 742.95 C478.73 742.95 478.73 742.95 476.77 742.95 C470.33 742.95 463.89 742.95 457.44 742.95 C403.96 742.96 350.48 742.98 297 743 Z " fill="#5F5F5F" transform="translate(0,69)"/>
<path d="M0 0 C5.19 0 8.37 2.39 12.44 5.25 C15.26 7.18 18.16 8.87 21.12 10.56 C25.63 13.15 29.85 15.89 34 19 C33.67 20.98 33.34 22.96 33 25 C32.34 25 31.68 25 31 25 C30.88 25.57 30.76 26.14 30.63 26.73 C29.97 29.1 29.06 31.07 27.94 33.25 C27.58 33.96 27.21 34.66 26.84 35.39 C26.56 35.92 26.29 36.45 26 37 C25.34 37 24.68 37 24 37 C23.69 37.95 23.38 38.9 23.06 39.88 C22 43 22 43 21 45 C20.34 45 19.68 45 19 45 C18.88 45.57 18.76 46.14 18.63 46.73 C17.97 49.1 17.06 51.07 15.94 53.25 C15.58 53.96 15.21 54.66 14.84 55.39 C14.56 55.92 14.29 56.45 14 57 C13.34 57 12.68 57 12 57 C11.69 57.95 11.38 58.9 11.06 59.88 C10 63 10 63 9 65 C8.34 65 7.68 65 7 65 C6.88 65.57 6.76 66.14 6.63 66.73 C5.97 69.1 5.06 71.07 3.94 73.25 C3.58 73.96 3.21 74.66 2.84 75.39 C2.56 75.92 2.29 76.45 2 77 C1.34 77 0.68 77 0 77 C-0.31 77.95 -0.62 78.9 -0.94 79.88 C-2 83 -2 83 -3 85 C-3.66 85 -4.32 85 -5 85 C-5.12 85.57 -5.24 86.14 -5.37 86.73 C-6.03 89.1 -6.94 91.07 -8.06 93.25 C-8.42 93.96 -8.79 94.66 -9.16 95.39 C-9.44 95.92 -9.71 96.45 -10 97 C-10.66 97 -11.32 97 -12 97 C-12.31 97.95 -12.62 98.9 -12.94 99.88 C-14 103 -14 103 -15 105 C-15.66 105 -16.32 105 -17 105 C-17.18 105.87 -17.18 105.87 -17.37 106.76 C-18.02 109.06 -18.88 110.82 -20.07 112.89 C-20.47 113.6 -20.87 114.31 -21.29 115.04 C-21.71 115.77 -22.13 116.5 -22.56 117.25 C-22.99 118 -23.41 118.74 -23.85 119.51 C-24.9 121.34 -25.95 123.17 -27 125 C-27.66 125 -28.32 125 -29 125 C-29.18 125.87 -29.18 125.87 -29.37 126.76 C-30.02 129.06 -30.88 130.82 -32.07 132.89 C-32.47 133.6 -32.87 134.31 -33.29 135.04 C-33.71 135.77 -34.13 136.5 -34.56 137.25 C-34.99 138 -35.41 138.74 -35.85 139.51 C-36.9 141.34 -37.95 143.17 -39 145 C-39.66 145 -40.32 145 -41 145 C-41.18 145.87 -41.18 145.87 -41.37 146.76 C-42.02 149.06 -42.88 150.82 -44.07 152.89 C-44.47 153.6 -44.87 154.31 -45.29 155.04 C-45.71 155.77 -46.13 156.5 -46.56 157.25 C-46.99 158 -47.41 158.74 -47.85 159.51 C-48.9 161.34 -49.95 163.17 -51 165 C-51.66 165 -52.32 165 -53 165 C-53.08 165.68 -53.16 166.36 -53.25 167.06 C-54.22 170.87 -55.96 173.64 -58 177 C-58.66 177 -59.32 177 -60 177 C-60.31 177.95 -60.62 178.9 -60.94 179.88 C-62 183 -62 183 -63 185 C-63.66 185 -64.32 185 -65 185 C-65.12 185.57 -65.24 186.15 -65.36 186.74 C-66.04 189.14 -66.98 191 -68.21 193.17 C-68.66 193.96 -69.11 194.75 -69.58 195.56 C-71.87 199.5 -74.21 203.41 -76.56 207.31 C-77.63 209.08 -78.69 210.85 -79.75 212.61 C-80.29 213.51 -80.83 214.4 -81.39 215.32 C-83.93 219.54 -86.47 223.77 -89 228 C-92.04 233.07 -95.09 238.15 -98.14 243.21 C-102.58 250.58 -107.01 257.95 -111.25 265.44 C-114.29 270.81 -117.48 276.07 -120.73 281.32 C-123.55 285.87 -126.31 290.47 -129.06 295.06 C-129.58 295.93 -130.1 296.79 -130.63 297.68 C-133.42 302.33 -136.17 306.99 -138.88 311.69 C-141.3 315.87 -143.87 319.9 -146.64 323.87 C-148.31 326.48 -149.63 329.22 -151 332 C-154.15 337.65 -157.41 343.22 -161.06 348.56 C-163.85 352.65 -166.16 356.92 -168.48 361.28 C-170.39 364.71 -172.55 367.91 -174.8 371.12 C-176.17 373.09 -176.17 373.09 -177 376 C-181.87 375.48 -184.97 374.08 -189.06 371.44 C-190.2 370.71 -191.33 369.99 -192.47 369.27 C-193.34 368.71 -193.34 368.71 -194.22 368.13 C-197.14 366.27 -200.1 364.48 -203.06 362.69 C-206.5 360.59 -209.82 358.48 -213 356 C-211.55 352.21 -209.85 348.61 -208 345 C-207.34 345 -206.68 345 -206 345 C-205.69 344.05 -205.38 343.1 -205.06 342.12 C-204 339 -204 339 -203 337 C-202.34 337 -201.68 337 -201 337 C-200.89 336.26 -200.78 335.52 -200.67 334.76 C-199.97 331.86 -199.05 330.27 -197.31 327.88 C-195.06 324.62 -193.05 321.37 -191.19 317.88 C-188.42 312.69 -185.44 307.66 -182.39 302.63 C-179.99 298.65 -177.63 294.65 -175.31 290.62 C-173.29 287.14 -171.21 283.76 -168.94 280.44 C-166.14 276.34 -163.83 272.06 -161.5 267.69 C-159.68 264.43 -157.61 261.39 -155.5 258.31 C-153.85 255.77 -152.42 253.17 -151 250.5 C-148.73 246.24 -146.23 242.29 -143.5 238.31 C-141.85 235.77 -140.42 233.17 -139 230.5 C-136.73 226.24 -134.23 222.29 -131.5 218.31 C-129.85 215.77 -128.42 213.17 -127 210.5 C-124.73 206.24 -122.23 202.29 -119.5 198.31 C-117.28 194.89 -115.43 191.3 -113.51 187.71 C-111.66 184.39 -109.58 181.28 -107.39 178.17 C-105.71 175.54 -104.39 172.79 -103 170 C-101.77 167.94 -100.52 165.9 -99.25 163.88 C-95.93 158.54 -92.73 153.14 -89.58 147.7 C-87.88 144.8 -86.11 141.96 -84.31 139.12 C-82.67 136.47 -81.12 133.77 -79.56 131.06 C-76.99 126.62 -74.29 122.34 -71.36 118.13 C-69.69 115.52 -68.37 112.78 -67 110 C-63.85 104.35 -60.59 98.78 -56.94 93.44 C-54.14 89.34 -51.83 85.06 -49.5 80.69 C-47.68 77.43 -45.61 74.39 -43.5 71.31 C-41.85 68.77 -40.42 66.17 -39 63.5 C-36.73 59.24 -34.23 55.29 -31.5 51.31 C-29.85 48.77 -28.42 46.17 -27 43.5 C-25.15 40.03 -23.22 36.74 -21 33.5 C-18.15 29.35 -15.75 25.02 -13.39 20.58 C-10.94 16.04 -8.19 11.68 -5.44 7.31 C-4.84 6.36 -4.24 5.41 -3.62 4.43 C-2 2 -2 2 0 0 Z " fill="#DE2156" transform="translate(601,183)"/>
<path d="M0 0 C6.42 1.99 10.99 8.13 15.14 13.18 C16.56 14.78 18.03 16.09 19.7 17.43 C22.52 19.75 24.67 21.68 26.58 24.8 C26.33 28.11 26.33 28.11 25.58 30.8 C24.59 31.13 23.6 31.46 22.58 31.8 C21.37 33.8 21.37 33.8 20.58 35.8 C19.92 35.8 19.26 35.8 18.58 35.8 C17.92 37.12 17.26 38.44 16.58 39.8 C15.92 39.8 15.26 39.8 14.58 39.8 C13.92 41.12 13.26 42.44 12.58 43.8 C11.92 43.8 11.26 43.8 10.58 43.8 C9.92 45.12 9.26 46.44 8.58 47.8 C7.92 47.8 7.26 47.8 6.58 47.8 C5.92 49.12 5.26 50.44 4.58 51.8 C3.92 51.8 3.26 51.8 2.58 51.8 C1.92 53.12 1.26 54.44 0.58 55.8 C-0.08 55.8 -0.74 55.8 -1.42 55.8 C-1.68 56.39 -1.93 56.98 -2.19 57.59 C-3.56 60.04 -4.96 61.38 -7.11 63.18 C-8.18 64.08 -8.18 64.08 -9.28 65.01 C-9.99 65.6 -10.69 66.19 -11.42 66.8 C-12.59 67.8 -13.76 68.8 -14.92 69.8 C-15.48 70.28 -16.05 70.76 -16.62 71.25 C-17.94 72.38 -19.24 73.54 -20.53 74.7 C-21.24 75.33 -21.94 75.96 -22.67 76.61 C-23.32 77.2 -23.96 77.78 -24.62 78.38 C-26.42 79.8 -26.42 79.8 -29.42 80.8 C-29.92 82.29 -29.92 82.29 -30.42 83.8 C-32.05 85.53 -33.71 87.16 -35.42 88.8 C-36.66 90.04 -37.89 91.28 -39.12 92.52 C-42.91 96.32 -46.69 100.12 -50.48 103.91 C-52.11 105.55 -53.74 107.18 -55.37 108.82 C-57.73 111.19 -60.09 113.56 -62.45 115.93 C-63.18 116.66 -63.9 117.39 -64.65 118.14 C-71.59 125.09 -71.59 125.09 -75.42 127.8 C-76.08 127.8 -76.74 127.8 -77.42 127.8 C-78.08 129.12 -78.74 130.44 -79.42 131.8 C-80.08 131.8 -80.74 131.8 -81.42 131.8 C-82.08 133.12 -82.74 134.44 -83.42 135.8 C-84.08 135.8 -84.74 135.8 -85.42 135.8 C-85.42 137.12 -85.42 138.44 -85.42 139.8 C-84.1 140.46 -82.78 141.12 -81.42 141.8 C-81.42 142.46 -81.42 143.12 -81.42 143.8 C-80.1 144.46 -78.78 145.12 -77.42 145.8 C-77.42 146.46 -77.42 147.12 -77.42 147.8 C-75.44 148.79 -75.44 148.79 -73.42 149.8 C-73.42 150.46 -73.42 151.12 -73.42 151.8 C-71.44 152.79 -71.44 152.79 -69.42 153.8 C-69.42 154.46 -69.42 155.12 -69.42 155.8 C-67.44 156.79 -67.44 156.79 -65.42 157.8 C-65.42 158.46 -65.42 159.12 -65.42 159.8 C-63.44 160.79 -63.44 160.79 -61.42 161.8 C-61.42 162.46 -61.42 163.12 -61.42 163.8 C-59.44 164.79 -59.44 164.79 -57.42 165.8 C-57.42 166.46 -57.42 167.12 -57.42 167.8 C-55.44 168.79 -55.44 168.79 -53.42 169.8 C-53.42 170.46 -53.42 171.12 -53.42 171.8 C-51.44 172.79 -51.44 172.79 -49.42 173.8 C-49.42 174.46 -49.42 175.12 -49.42 175.8 C-47.44 176.79 -47.44 176.79 -45.42 177.8 C-45.42 178.46 -45.42 179.12 -45.42 179.8 C-44.84 180.07 -44.27 180.34 -43.67 180.61 C-41.37 181.83 -39.4 183.1 -37.42 184.8 C-37.42 185.46 -37.42 186.12 -37.42 186.8 C-36.87 186.86 -36.31 186.92 -35.73 186.99 C-32.53 188.12 -30.74 190.41 -28.42 192.8 C-27.2 194.03 -25.97 195.25 -24.74 196.47 C-20.96 200.23 -17.19 203.99 -13.42 207.75 C-11.8 209.36 -10.18 210.98 -8.55 212.59 C-6.2 214.94 -3.84 217.29 -1.49 219.64 C-0.41 220.71 -0.41 220.71 0.69 221.8 C4.41 225.52 7.97 229.31 11.34 233.36 C12.94 235.22 14.69 236.8 16.58 238.36 C23.71 244.49 23.71 244.49 26.58 247.8 C26.2 251.31 24.75 252.82 22.22 255.2 C20.15 257.21 18.25 259.34 16.33 261.49 C15.55 262.34 14.78 263.2 13.98 264.08 C12.35 265.92 10.76 267.8 9.21 269.71 C8.44 270.62 7.68 271.54 6.89 272.49 C6.21 273.34 5.52 274.19 4.82 275.06 C2.58 276.8 2.58 276.8 -0.62 276.69 C-3.42 275.8 -3.42 275.8 -4.55 273.86 C-4.84 273.18 -5.12 272.5 -5.42 271.8 C-7.46 270.53 -7.46 270.53 -9.42 269.8 C-9.42 269.14 -9.42 268.48 -9.42 267.8 C-10.74 267.14 -12.06 266.48 -13.42 265.8 C-13.42 265.14 -13.42 264.48 -13.42 263.8 C-14.74 263.14 -16.06 262.48 -17.42 261.8 C-17.42 261.14 -17.42 260.48 -17.42 259.8 C-18.74 259.14 -20.06 258.48 -21.42 257.8 C-21.42 257.14 -21.42 256.48 -21.42 255.8 C-21.99 255.72 -22.55 255.65 -23.14 255.56 C-26.21 254.54 -27.69 252.88 -29.96 250.58 C-30.85 249.68 -31.74 248.78 -32.66 247.85 C-33.13 247.37 -33.6 246.89 -34.09 246.39 C-35.58 244.87 -37.07 243.36 -38.57 241.85 C-41.22 239.18 -43.86 236.5 -46.5 233.82 C-50.7 229.55 -54.91 225.28 -59.12 221.03 C-60.58 219.55 -62.04 218.07 -63.49 216.58 C-68.22 211.8 -72.98 207.44 -78.36 203.41 C-81.67 200.83 -84.57 197.88 -87.5 194.88 C-88.44 193.94 -88.44 193.94 -89.39 192.98 C-91.34 191.01 -93.29 189.03 -95.23 187.05 C-97.2 185.06 -99.17 183.07 -101.14 181.08 C-102.35 179.85 -103.57 178.62 -104.78 177.38 C-107.05 175.08 -109.22 172.95 -111.82 171.03 C-112.35 170.62 -112.88 170.22 -113.42 169.8 C-113.42 169.14 -113.42 168.48 -113.42 167.8 C-114.74 167.14 -116.06 166.48 -117.42 165.8 C-117.42 165.14 -117.42 164.48 -117.42 163.8 C-118.74 163.14 -120.06 162.48 -121.42 161.8 C-121.42 161.14 -121.42 160.48 -121.42 159.8 C-122.74 159.14 -124.06 158.48 -125.42 157.8 C-125.42 157.14 -125.42 156.48 -125.42 155.8 C-125.98 155.56 -126.54 155.32 -127.11 155.07 C-129.92 153.53 -132.05 151.64 -134.42 149.49 C-135.27 148.73 -136.11 147.97 -136.98 147.19 C-139.37 144.85 -141.47 142.51 -143.42 139.8 C-143.32 136.45 -141.61 134.25 -139.42 131.8 C-138.76 131.8 -138.1 131.8 -137.42 131.8 C-136.43 129.82 -136.43 129.82 -135.42 127.8 C-134.76 127.8 -134.1 127.8 -133.42 127.8 C-132.76 126.48 -132.1 125.16 -131.42 123.8 C-130.76 123.8 -130.1 123.8 -129.42 123.8 C-128.76 122.48 -128.1 121.16 -127.42 119.8 C-126.76 119.8 -126.1 119.8 -125.42 119.8 C-124.76 118.48 -124.1 117.16 -123.42 115.8 C-122.76 115.8 -122.1 115.8 -121.42 115.8 C-121.22 115.24 -121.02 114.68 -120.81 114.1 C-118.59 110.42 -115.01 108.31 -111.56 105.86 C-108.39 103.53 -105.74 101.13 -103.2 98.12 C-99.5 93.84 -95.59 89.82 -91.58 85.83 C-90.86 85.1 -90.13 84.37 -89.38 83.63 C-87.86 82.1 -86.33 80.58 -84.81 79.06 C-82.49 76.74 -80.18 74.43 -77.87 72.11 C-76.38 70.62 -74.89 69.13 -73.39 67.64 C-72.71 66.96 -72.03 66.28 -71.33 65.57 C-66.86 61.12 -62.22 56.91 -57.42 52.8 C-56.84 52.29 -56.26 51.78 -55.67 51.26 C-51.66 47.8 -51.66 47.8 -49.42 47.8 C-48.76 46.48 -48.1 45.16 -47.42 43.8 C-46.76 43.8 -46.1 43.8 -45.42 43.8 C-44.76 42.48 -44.1 41.16 -43.42 39.8 C-42.76 39.8 -42.1 39.8 -41.42 39.8 C-40.76 38.48 -40.1 37.16 -39.42 35.8 C-38.76 35.8 -38.1 35.8 -37.42 35.8 C-36.76 34.48 -36.1 33.16 -35.42 31.8 C-34.76 31.8 -34.1 31.8 -33.42 31.8 C-32.76 30.48 -32.1 29.16 -31.42 27.8 C-30.76 27.8 -30.1 27.8 -29.42 27.8 C-28.76 26.48 -28.1 25.16 -27.42 23.8 C-26.76 23.8 -26.1 23.8 -25.42 23.8 C-24.76 22.48 -24.1 21.16 -23.42 19.8 C-22.76 19.8 -22.1 19.8 -21.42 19.8 C-20.76 18.48 -20.1 17.16 -19.42 15.8 C-18.76 15.8 -18.1 15.8 -17.42 15.8 C-16.76 14.48 -16.1 13.16 -15.42 11.8 C-14.76 11.8 -14.1 11.8 -13.42 11.8 C-12.76 10.48 -12.1 9.16 -11.42 7.8 C-10.76 7.8 -10.1 7.8 -9.42 7.8 C-9.19 7.22 -8.97 6.65 -8.73 6.05 C-6.67 2.52 -4.32 -0.36 0 0 Z " fill="#5E5E5E" transform="translate(345.421875,232.19921875)"/>
<path d="M0 0 C4.02 1.05 6.87 3.62 9.62 6.69 C9.62 7.35 9.62 8.01 9.62 8.69 C10.95 9.35 12.26 10.01 13.62 10.69 C13.62 11.35 13.62 12.01 13.62 12.69 C14.95 13.35 16.26 14.01 17.62 14.69 C17.62 15.35 17.62 16.01 17.62 16.69 C18.95 17.35 20.26 18.01 21.62 18.69 C21.62 19.35 21.62 20.01 21.62 20.69 C22.95 21.35 24.26 22.01 25.62 22.69 C25.62 23.35 25.62 24.01 25.62 24.69 C26.95 25.35 28.26 26.01 29.62 26.69 C29.62 27.35 29.62 28.01 29.62 28.69 C30.95 29.35 32.26 30.01 33.62 30.69 C33.62 31.35 33.62 32.01 33.62 32.69 C34.95 33.35 36.26 34.01 37.62 34.69 C37.62 35.35 37.62 36.01 37.62 36.69 C38.94 37.35 40.26 38.01 41.62 38.69 C41.62 39.35 41.62 40.01 41.62 40.69 C42.94 41.35 44.26 42.01 45.62 42.69 C45.62 43.35 45.62 44.01 45.62 44.69 C46.94 45.35 48.26 46.01 49.62 46.69 C49.62 47.35 49.62 48.01 49.62 48.69 C50.94 49.35 52.26 50.01 53.62 50.69 C53.62 51.35 53.62 52.01 53.62 52.69 C55.61 53.18 55.61 53.18 57.62 53.69 C57.62 54.35 57.62 55.01 57.62 55.69 C58.2 55.94 58.78 56.18 59.37 56.44 C61.96 57.87 63.67 59.52 65.74 61.64 C66.51 62.43 67.29 63.21 68.08 64.02 C68.88 64.84 69.68 65.66 70.5 66.5 C76.53 72.76 76.53 72.76 83.01 78.54 C85.19 80.33 86.88 81.99 88.62 84.19 C90.53 86.49 92.23 88.19 94.56 90.12 C97.05 92.2 98.93 94.12 101 96.56 C103.89 99.95 106.95 102.88 110.34 105.75 C111.09 106.39 111.85 107.03 112.62 107.69 C113.43 108.37 113.43 108.37 114.26 109.07 C119.93 113.94 125.28 119.12 130.57 124.4 C132.08 125.89 133.59 127.37 135.11 128.86 C136.07 129.81 137.03 130.77 138 131.73 C138.86 132.59 139.73 133.44 140.62 134.32 C142.54 136.59 143.38 137.76 143.62 140.69 C139.9 148.12 133.18 153.66 125.62 156.69 C125.33 157.29 125.03 157.9 124.73 158.53 C123.43 161.07 121.96 162.32 119.75 164.12 C116.62 166.75 114.16 169.47 111.62 172.69 C110.97 172.69 110.31 172.69 109.62 172.69 C108.97 174.01 108.31 175.33 107.62 176.69 C106.97 176.69 106.31 176.69 105.62 176.69 C104.97 178.01 104.31 179.33 103.62 180.69 C102.97 180.69 102.31 180.69 101.62 180.69 C100.97 182.01 100.31 183.33 99.62 184.69 C98.97 184.69 98.31 184.69 97.62 184.69 C96.97 186.01 96.31 187.33 95.62 188.69 C94.97 188.69 94.31 188.69 93.62 188.69 C92.97 190.01 92.31 191.33 91.62 192.69 C90.97 192.69 90.31 192.69 89.62 192.69 C88.97 194.01 88.31 195.33 87.62 196.69 C86.97 196.69 86.31 196.69 85.62 196.69 C84.97 198.01 84.31 199.33 83.62 200.69 C82.97 200.69 82.31 200.69 81.62 200.69 C81.38 201.29 81.14 201.89 80.89 202.51 C79.37 205.13 77.91 206.02 75.31 207.56 C71.24 210.15 68.63 212.89 65.62 216.69 C64.48 217.71 63.31 218.71 62.12 219.69 C59.8 221.61 58.09 223.34 56.12 225.69 C54.16 228.04 52.45 229.77 50.12 231.69 C46.83 234.42 44.32 237.36 41.62 240.69 C39.07 243.37 36.51 245.78 33.62 248.12 C31.39 250.03 29.83 251.57 28.06 253.81 C24.95 257.48 22.15 259.18 17.62 260.69 C16.42 262.69 16.42 262.69 15.62 264.69 C14.97 264.69 14.3 264.69 13.62 264.69 C12.97 266.01 12.3 267.33 11.62 268.69 C10.97 268.69 10.3 268.69 9.62 268.69 C8.97 270.01 8.3 271.33 7.62 272.69 C6.97 272.69 6.3 272.69 5.62 272.69 C4.63 274.67 4.63 274.67 3.62 276.69 C2.97 276.69 2.3 276.69 1.62 276.69 C1.62 277.35 1.62 278.01 1.62 278.69 C-4.38 277.83 -7.62 272.3 -11.38 267.98 C-13.59 265.45 -15.82 262.94 -18.06 260.44 C-18.79 259.63 -19.51 258.82 -20.26 257.98 C-22.32 255.65 -22.32 255.65 -24.71 253.7 C-26.38 251.69 -26.38 251.69 -26.45 249.25 C-25.02 245.83 -23.05 244.16 -20.25 241.75 C-19.75 241.31 -19.25 240.88 -18.74 240.43 C-16.03 238.06 -13.26 235.75 -10.5 233.44 C-8.34 231.62 -6.77 229.96 -4.94 227.75 C-3 225.43 -1.41 223.8 0.87 221.91 C7.71 216 13.95 209.43 20.31 203 C22.9 200.39 25.48 197.78 28.07 195.18 C28.66 194.58 29.24 193.99 29.84 193.38 C32.95 190.26 36.04 187.27 39.62 184.69 C40.28 184.69 40.94 184.69 41.62 184.69 C42.28 183.37 42.94 182.05 43.62 180.69 C44.28 180.69 44.94 180.69 45.62 180.69 C46.28 179.37 46.94 178.05 47.62 176.69 C48.28 176.69 48.94 176.69 49.62 176.69 C50.28 175.37 50.94 174.05 51.62 172.69 C52.28 172.69 52.94 172.69 53.62 172.69 C54.28 171.37 54.94 170.05 55.62 168.69 C56.28 168.69 56.94 168.69 57.62 168.69 C58.28 167.37 58.94 166.05 59.62 164.69 C60.28 164.69 60.94 164.69 61.62 164.69 C62.28 163.37 62.94 162.05 63.62 160.69 C64.28 160.69 64.94 160.69 65.62 160.69 C66.28 159.37 66.94 158.05 67.62 156.69 C68.28 156.69 68.94 156.69 69.62 156.69 C70.28 155.37 70.94 154.05 71.62 152.69 C72.28 152.69 72.94 152.69 73.62 152.69 C74.28 151.37 74.94 150.05 75.62 148.69 C76.28 148.69 76.94 148.69 77.62 148.69 C78.28 147.37 78.94 146.05 79.62 144.69 C80.28 144.69 80.94 144.69 81.62 144.69 C82.28 143.37 82.94 142.05 83.62 140.69 C84.28 140.69 84.94 140.69 85.62 140.69 C84.22 136.12 82.01 133.87 78.44 130.75 C77.45 129.88 76.47 129.01 75.45 128.11 C73.23 126.21 71 124.32 68.75 122.44 C65.65 119.82 63.23 116.81 60.62 113.69 C58.95 112.16 57.23 110.71 55.47 109.28 C51.32 105.7 47.59 101.64 43.74 97.75 C41.16 95.14 38.57 92.54 35.98 89.93 C34.63 88.57 33.27 87.2 31.92 85.83 C23.24 76.89 23.24 76.89 13.77 68.82 C6.38 63.15 -0.04 56.36 -6.6 49.78 C-8.95 47.42 -11.32 45.08 -13.69 42.73 C-15.19 41.24 -16.69 39.74 -18.19 38.23 C-18.9 37.54 -19.61 36.84 -20.33 36.12 C-20.98 35.46 -21.63 34.81 -22.3 34.14 C-22.87 33.56 -23.44 32.99 -24.03 32.41 C-25.54 30.47 -26.06 29.11 -26.38 26.69 C-26.04 26.03 -25.72 25.37 -25.38 24.69 C-24.72 24.69 -24.05 24.69 -23.38 24.69 C-23.15 24.13 -22.92 23.57 -22.69 23 C-21.38 20.7 -19.9 19.12 -18 17.3 C-15.86 15.18 -13.88 12.94 -11.88 10.69 C-10.71 9.39 -10.71 9.39 -9.52 8.07 C-8.29 6.7 -7.06 5.32 -5.86 3.93 C-4.02 1.89 -2.66 0.77 0 0 Z " fill="#5E5E5F" transform="translate(678.375,231.3125)"/>
<path d="M0 0 C313.83 0 627.66 0 951 0 C951 1.32 951 2.64 951 4 C950.67 3.34 950.34 2.68 950 2 C636.83 2 323.66 2 1 2 C0.67 1.34 0.34 0.68 0 0 Z " fill="#444545" transform="translate(37,105)"/>
<path d="M0 0 C1.69 0 3.37 0.01 5.06 0.02 C6.39 0.02 6.39 0.02 7.75 0.02 C10.59 0.03 13.43 0.04 16.28 0.05 C18.2 0.06 20.12 0.06 22.04 0.06 C26.77 0.08 31.49 0.09 36.21 0.11 C37.48 3.9 37.23 7.35 37.09 11.28 C37.06 12.47 37.06 12.47 37.02 13.69 C36.95 16.23 36.86 18.76 36.78 21.3 C36.72 23.02 36.67 24.74 36.62 26.46 C36.49 30.68 36.35 34.9 36.21 39.11 C30.54 39.14 24.86 39.16 19.18 39.17 C17.25 39.17 15.31 39.18 13.38 39.19 C10.61 39.2 7.83 39.21 5.06 39.21 C3.76 39.22 3.76 39.22 2.43 39.23 C0.36 39.23 -1.72 39.18 -3.79 39.11 C-5.6 37.3 -4.91 34.8 -4.92 32.38 C-4.92 31.58 -4.92 30.78 -4.92 29.96 C-4.92 29.14 -4.92 28.32 -4.92 27.48 C-4.92 25.75 -4.92 24.02 -4.92 22.28 C-4.91 19.62 -4.92 16.96 -4.92 14.3 C-4.92 12.63 -4.92 10.95 -4.92 9.27 C-4.92 8.47 -4.92 7.67 -4.92 6.84 C-4.9 0.15 -4.9 0.15 0 0 Z " fill="#DB2257" transform="translate(424.785400390625,704.886474609375)"/>
<path d="M0 0 C0.82 0 1.65 0 2.49 0.01 C3.33 0.01 4.17 0 5.04 0 C6.82 0 8.6 0 10.37 0.01 C13.11 0.01 15.84 0.01 18.57 0 C20.3 0 22.02 0 23.74 0.01 C24.57 0 25.39 0 26.24 0 C32 0.02 32 0.02 33.12 1.14 C33.21 4.02 33.23 6.88 33.22 9.77 C33.21 10.63 33.21 11.5 33.21 12.39 C33.21 15.16 33.19 17.93 33.18 20.7 C33.18 22.58 33.17 24.45 33.17 26.32 C33.16 30.93 33.14 35.53 33.12 40.14 C27.58 40.16 22.05 40.18 16.51 40.19 C14.63 40.2 12.74 40.21 10.86 40.21 C8.15 40.23 5.45 40.23 2.75 40.24 C1.9 40.24 1.05 40.25 0.18 40.25 C-1.84 40.25 -3.86 40.2 -5.88 40.14 C-7.72 38.3 -7.01 35.71 -7.02 33.26 C-7.02 32.43 -7.02 31.61 -7.01 30.76 C-7.02 29.92 -7.02 29.08 -7.02 28.22 C-7.02 26.44 -7.02 24.66 -7.01 22.88 C-7.01 20.15 -7.01 17.42 -7.02 14.69 C-7.02 12.96 -7.02 11.24 -7.01 9.51 C-7.02 8.69 -7.02 7.87 -7.02 7.02 C-6.99 0.2 -6.82 0.03 0 0 Z " fill="#DB2358" transform="translate(569.88134765625,703.8610534667969)"/>
<path d="M0 0 C0 0.66 0 1.32 0 2 C128.7 1.67 257.4 1.34 390 1 C390 1.66 390 2.32 390 3 C76.17 3 -237.66 3 -561 3 C-557.54 0.69 -556.24 0.75 -552.16 0.74 C-550.93 0.73 -549.7 0.72 -548.44 0.72 C-547.06 0.72 -545.69 0.72 -544.32 0.72 C-542.87 0.72 -541.42 0.71 -539.96 0.7 C-535.95 0.69 -531.95 0.68 -527.94 0.68 C-523.61 0.68 -519.28 0.66 -514.95 0.65 C-506.42 0.63 -497.88 0.61 -489.35 0.6 C-479.24 0.59 -469.13 0.56 -459.02 0.54 C-440.76 0.49 -422.5 0.45 -404.23 0.42 C-386.93 0.39 -369.62 0.36 -352.32 0.32 C-350.76 0.31 -350.76 0.31 -349.16 0.31 C-344.96 0.3 -340.76 0.29 -336.55 0.28 C-234.84 0.04 -133.12 -0.05 0 0 Z " fill="#474748" transform="translate(598,632)"/>
<path d="M0 0 C0.77 0 1.54 0 2.33 0 C3.96 0 5.59 0.01 7.21 0.02 C9.71 0.04 12.21 0.05 14.7 0.04 C16.28 0.05 17.86 0.06 19.44 0.06 C20.56 0.06 20.56 0.06 21.71 0.07 C26.97 0.11 26.97 0.11 28.09 1.23 C28.17 4.11 28.2 6.98 28.18 9.86 C28.18 10.72 28.18 11.59 28.18 12.48 C28.17 15.25 28.16 18.02 28.15 20.79 C28.14 22.67 28.14 24.54 28.13 26.42 C28.12 31.02 28.1 35.63 28.09 40.23 C15.55 40.23 3.01 40.23 -9.91 40.23 C-10.92 36.21 -11.09 32.57 -11.12 28.47 C-11.13 27.36 -11.13 27.36 -11.13 26.22 C-11.14 24.65 -11.15 23.08 -11.15 21.51 C-11.16 19.11 -11.2 16.7 -11.23 14.3 C-11.23 12.77 -11.24 11.25 -11.24 9.72 C-11.25 9 -11.27 8.28 -11.28 7.54 C-11.27 5.52 -11.27 5.52 -10.91 2.23 C-7.19 -0.25 -4.31 -0.04 0 0 Z " fill="#DC2458" transform="translate(502.9140625,703.76953125)"/>
<path d="M0 0 C0.33 0 0.66 0 1 0 C1 1.65 1 3.3 1 5 C2.07 5 3.14 5 4.24 5 C51.27 4.96 98.31 4.93 145.35 4.92 C146.06 4.92 146.77 4.91 147.51 4.91 C162.97 4.91 178.44 4.9 193.9 4.9 C201.48 4.9 209.07 4.89 216.65 4.89 C217.4 4.89 218.16 4.89 218.94 4.89 C243.42 4.88 267.9 4.87 292.37 4.85 C317.52 4.83 342.67 4.82 367.81 4.81 C371.36 4.81 374.91 4.81 378.46 4.81 C379.51 4.81 379.51 4.81 380.57 4.81 C391.84 4.81 403.1 4.8 414.36 4.79 C425.67 4.77 436.98 4.77 448.29 4.77 C454.42 4.77 460.55 4.77 466.69 4.76 C472.29 4.75 477.9 4.75 483.5 4.76 C485.54 4.76 487.58 4.76 489.61 4.75 C492.36 4.74 495.12 4.75 497.87 4.75 C498.67 4.75 499.48 4.74 500.31 4.74 C505.77 4.77 505.77 4.77 508 7 C340.03 7 172.06 7 -1 7 C-1.33 6.34 -1.66 5.68 -2 5 C-1.06 2.38 -1.06 2.38 0 0 Z " fill="#474747" transform="translate(258,912)"/>
<path d="M0 0 C1.1 0 2.2 0 3.34 0 C5.11 0.02 5.11 0.02 6.92 0.03 C8.13 0.03 9.35 0.04 10.6 0.04 C14.48 0.05 18.37 0.08 22.25 0.1 C24.88 0.11 27.51 0.12 30.14 0.13 C36.59 0.15 43.05 0.19 49.5 0.23 C49.17 12.44 48.84 24.65 48.5 37.23 C-185.14 37.23 -418.78 37.23 -659.5 37.23 C-659.5 25.35 -659.5 13.47 -659.5 1.23 C-640.69 1.23 -621.88 1.23 -602.5 1.23 C-602.5 1.56 -602.5 1.89 -602.5 2.23 C-620.98 2.23 -639.46 2.23 -658.5 2.23 C-658.5 13.45 -658.5 24.67 -658.5 36.23 C-425.85 36.23 -193.2 36.23 46.5 36.23 C46.83 25.01 47.16 13.79 47.5 2.23 C28.69 2.23 9.88 2.23 -9.5 2.23 C-5.57 0.26 -4.2 -0.02 0 0 Z " fill="#414242" transform="translate(817.5029296875,916.77294921875)"/>
<path d="M0 0 C0 3 0 3 -2.19 5.48 C-3.12 6.37 -4.04 7.27 -5 8.19 C-5.93 9.09 -6.86 9.99 -7.81 10.92 C-8.53 11.61 -9.26 12.29 -10 13 C-10.66 12.67 -11.32 12.34 -12 12 C-11.67 11.67 -11.34 11.34 -11 11 C-11.66 10.34 -12.32 9.68 -13 9 C-12.38 8.75 -11.76 8.5 -11.12 8.25 C-8.65 6.79 -8.05 5.62 -7 3 C-6.34 3.33 -5.68 3.66 -5 4 C-3.64 4.12 -3.64 4.12 -1.94 2 C-1.3 1.34 -0.66 0.68 0 0 Z " fill="#707070" transform="translate(233,341)"/>
<path d="M0 0 C3.16 1.37 3.99 1.99 6 5 C5.88 7.06 5.88 7.06 5 9 C2.94 10.25 2.94 10.25 1 11 C1.21 9.93 1.41 8.86 1.62 7.75 C1.99 4.12 1.98 2.92 0 0 Z " fill="#4D4E4D" transform="translate(761,364)"/>
<path d="M0 0 C2.36 2.36 3.04 4.31 4.19 7.44 C4.55 8.41 4.92 9.37 5.29 10.37 C6 13 6 13 5 16 C-0.74 5.63 -0.74 5.63 0 0 Z " fill="#4E4E4E" transform="translate(761,900)"/>
<path d="M0 0 C1.32 0.33 2.64 0.66 4 1 C3.38 1.25 2.76 1.5 2.12 1.75 C-0.35 3.21 -0.95 4.38 -2 7 C-2.66 7 -3.32 7 -4 7 C-4.33 7.66 -4.66 8.32 -5 9 C-5.33 8.01 -5.66 7.02 -6 6 C-4.62 4.5 -4.62 4.5 -3 3 C-2.34 3 -1.68 3 -1 3 C-0.67 2.01 -0.34 1.02 0 0 Z " fill="#717275" transform="translate(356,273)"/>
<path d="M0 0 C0.66 0.33 1.32 0.66 2 1 C-1.62 6.75 -1.62 6.75 -5 9 C-5 7.68 -5 6.36 -5 5 C-4.01 4.67 -3.02 4.34 -2 4 C-0.79 2 -0.79 2 0 0 Z " fill="#797A7A" transform="translate(210,360)"/>
<path d="M0 0 C0.62 1.81 0.62 1.81 1 4 C0.01 5.49 0.01 5.49 -1 7 C-1.66 7 -2.32 7 -3 7 C-3.33 7.66 -3.66 8.32 -4 9 C-4.33 8.01 -4.66 7.02 -5 6 C-4.55 5.57 -4.09 5.13 -3.62 4.69 C-1.8 2.89 -1.8 2.89 0 0 Z " fill="#7B7B7B" transform="translate(371,257)"/>
<path d="M0 0 C0.66 0.33 1.32 0.66 2 1 C0.42 4.17 -0.45 5.73 -3.69 7.31 C-4.45 7.54 -5.21 7.77 -6 8 C-5.34 6.68 -4.68 5.36 -4 4 C-3.34 4 -2.68 4 -2 4 C-1.34 2.68 -0.68 1.36 0 0 Z " fill="#7A7C7C" transform="translate(762,372)"/>
<path d="M0 0 C0.99 0.33 1.98 0.66 3 1 C0.69 3.31 -1.62 5.62 -4 8 C-4 4.09 -2.49 2.88 0 0 Z " fill="#4E4F4F" transform="translate(231,340)"/>
<path d="M0 0 C0 3.15 -0.28 4.42 -2 7 C-4.12 7.75 -4.12 7.75 -6 8 C-5.34 6.68 -4.68 5.36 -4 4 C-3.34 4 -2.68 4 -2 4 C-1.34 2.68 -0.68 1.36 0 0 Z " fill="#8F9091" transform="translate(218,352)"/>
</svg>
