<?xml version="1.0" encoding="UTF-8"?>
<!-- Generator: https://ezgif.com/png-to-svg -->
<svg version="1.1" xmlns="http://www.w3.org/2000/svg" width="1024" height="1024">
<path d="M0 0 C1.7 -0.02 1.7 -0.02 3.43 -0.04 C7.11 -0.07 10.78 -0.09 14.46 -0.1 C15.71 -0.11 16.95 -0.11 18.24 -0.12 C41.68 -0.15 65.62 0.62 88.27 7.27 C89.87 7.57 91.47 7.84 93.08 8.09 C111.53 11.31 129.75 17.64 146.96 24.91 C149.19 25.83 151.44 26.72 153.71 27.58 C169.35 33.54 183.84 41.85 198.27 50.27 C198.27 50.93 198.27 51.59 198.27 52.27 C198.82 52.37 199.38 52.47 199.95 52.57 C202.82 53.44 204.94 54.82 207.46 56.46 C208.42 57.09 209.38 57.71 210.36 58.36 C211.32 58.99 212.28 59.62 213.27 60.27 C214.17 60.84 215.06 61.41 215.99 62 C217.21 62.79 217.21 62.79 218.46 63.59 C219.56 64.29 219.56 64.29 220.69 65.01 C221.47 65.64 221.47 65.64 222.27 66.27 C222.27 66.93 222.27 67.59 222.27 68.27 C222.85 68.36 223.42 68.44 224.02 68.52 C226.27 69.27 226.27 69.27 228.02 71.03 C231.12 74.12 234.64 76.56 238.2 79.09 C239.59 80.11 240.93 81.19 242.27 82.27 C242.27 82.93 242.27 83.59 242.27 84.27 C243.14 84.68 243.14 84.68 244.02 85.09 C246.33 86.3 248.29 87.58 250.27 89.27 C250.27 89.93 250.27 90.59 250.27 91.27 C250.85 91.54 251.43 91.8 252.03 92.07 C257.99 95.26 262.65 100.5 266.91 105.66 C268.12 107.1 269.44 108.44 270.77 109.77 C273.3 112.31 275.57 114.96 277.84 117.72 C279.38 119.52 279.38 119.52 282.27 121.27 C282.27 122.26 282.27 123.25 282.27 124.27 C282.83 124.48 283.39 124.69 283.97 124.9 C287.09 126.77 288.92 129.38 291.02 132.27 C291.43 132.82 291.84 133.37 292.27 133.93 C295.27 138 295.27 138 295.27 140.27 C296.26 140.6 297.25 140.93 298.27 141.27 C298.27 142.26 298.27 143.25 298.27 144.27 C298.93 144.27 299.59 144.27 300.27 144.27 C301.59 146.03 302.83 147.86 304.02 149.71 C304.73 150.81 305.45 151.91 306.18 153.05 C306.87 154.11 307.56 155.18 308.27 156.27 C309.31 157.8 310.35 159.32 311.39 160.84 C314.13 164.94 316.47 169.2 318.78 173.55 C320.13 176.02 321.58 178.39 323.08 180.77 C330.96 193.79 336.64 208.2 342.42 222.24 C343.23 224.19 344.07 226.13 344.91 228.07 C346.61 232.08 347.95 236.13 349.27 240.27 C349.65 241.45 350.04 242.63 350.43 243.84 C356.09 261.44 360.18 279.29 362.83 297.59 C363 298.77 363 298.77 363.18 299.99 C363.56 302.75 363.92 305.51 364.27 308.27 C364.53 310.2 364.53 310.2 364.79 312.16 C366.35 324.35 366.67 336.43 366.64 348.71 C366.64 349.73 366.65 350.74 366.65 351.79 C366.63 365.58 366.09 379.2 364.46 392.9 C364.33 393.95 364.33 393.95 364.21 395.02 C363.24 402.94 361.86 410.67 359.93 418.41 C359.27 421.26 358.81 424.07 358.39 426.96 C356.46 439.04 352.62 450.78 348.39 462.23 C347.44 464.81 346.55 467.4 345.71 470.02 C344.43 473.9 342.96 477.67 341.41 481.44 C340.59 483.47 339.8 485.52 339.03 487.57 C333.58 501.86 326.4 515.28 318.22 528.18 C316.8 530.43 315.42 532.68 314.07 534.96 C313.7 535.56 313.34 536.17 312.97 536.8 C311.95 538.49 310.94 540.19 309.93 541.89 C309.38 542.67 308.84 543.46 308.27 544.27 C307.61 544.27 306.95 544.27 306.27 544.27 C305.94 545.59 305.61 546.91 305.27 548.27 C304.61 548.27 303.95 548.27 303.27 548.27 C303.27 549.26 303.27 550.25 303.27 551.27 C304.17 551.28 304.17 551.28 305.1 551.29 C336.82 551.66 360.06 561.36 382.46 584.15 C383.42 585.11 384.38 586.07 385.34 587.02 C392.27 594.01 392.27 594.01 392.27 596.27 C392.93 596.27 393.59 596.27 394.27 596.27 C395.64 597.67 395.64 597.67 397.27 599.65 C401.03 604.1 405.13 608.13 409.33 612.17 C411.27 614.27 411.27 614.27 411.27 616.27 C412.26 616.6 413.25 616.93 414.27 617.27 C415.47 618.7 416.66 620.14 417.82 621.6 C419.35 623.36 420.97 624.79 422.77 626.27 C426.07 629.01 428.58 631.94 431.27 635.27 C432.16 636.14 433.04 637.01 433.96 637.9 C436.27 640.27 436.27 640.27 437.33 642.46 C438.54 644.8 439.87 645.31 442.27 646.27 C442.27 646.93 442.27 647.59 442.27 648.27 C443.59 648.93 444.91 649.59 446.27 650.27 C446.27 650.93 446.27 651.59 446.27 652.27 C447.59 652.93 448.91 653.59 450.27 654.27 C450.27 654.93 450.27 655.59 450.27 656.27 C451.59 656.93 452.91 657.59 454.27 658.27 C454.27 658.93 454.27 659.59 454.27 660.27 C455.59 660.93 456.91 661.59 458.27 662.27 C458.27 662.93 458.27 663.59 458.27 664.27 C458.87 664.53 459.47 664.8 460.08 665.06 C462.43 666.36 463.57 667.55 465.24 669.62 C468.39 673.34 471.72 676.81 475.18 680.24 C475.71 680.77 476.24 681.3 476.79 681.84 C478.45 683.49 480.11 685.13 481.77 686.77 C483.97 688.95 486.17 691.13 488.36 693.3 C488.85 693.79 489.34 694.27 489.84 694.76 C492.56 697.45 495.12 700.23 497.62 703.12 C501.41 707.51 505.48 711.57 509.61 715.64 C511.18 717.2 512.75 718.76 514.33 720.32 C516.78 722.75 519.24 725.18 521.7 727.61 C524.09 729.97 526.48 732.34 528.86 734.7 C529.6 735.43 530.35 736.16 531.11 736.92 C531.79 737.59 532.47 738.27 533.17 738.96 C533.77 739.55 534.37 740.15 534.99 740.76 C536.27 742.27 536.27 742.27 536.27 744.27 C536.93 744.27 537.59 744.27 538.27 744.27 C539.57 745.63 539.57 745.63 541.02 747.46 C543.02 749.89 544.83 751.74 547.27 753.77 C550.17 756.19 552.37 758.69 554.77 761.59 C556.41 763.52 556.41 763.52 559.27 765.77 C561.62 767.73 563.35 769.45 565.27 771.77 C567.17 774.07 568.88 775.78 571.21 777.71 C573.63 779.73 575.44 781.55 577.45 783.92 C581.24 788.3 585.27 792.37 589.39 796.42 C590.92 797.94 592.44 799.45 593.97 800.96 C596.35 803.32 598.74 805.68 601.13 808.04 C603.45 810.33 605.76 812.62 608.08 814.92 C608.8 815.63 609.52 816.34 610.27 817.07 C610.92 817.72 611.58 818.38 612.26 819.05 C612.84 819.63 613.43 820.2 614.03 820.8 C615.27 822.27 615.27 822.27 615.27 824.27 C616.26 824.6 617.25 824.93 618.27 825.27 C620.17 827.57 620.17 827.57 622.21 830.46 C622.88 831.4 623.55 832.35 624.23 833.32 C625.24 834.78 625.24 834.78 626.27 836.27 C626.96 837.13 627.65 837.99 628.37 838.87 C630.86 843.34 630.81 846.71 630.74 851.74 C630.74 852.67 630.74 853.6 630.75 854.57 C630.75 857.64 630.72 860.71 630.7 863.79 C630.69 865.93 630.69 868.07 630.69 870.21 C630.68 874.68 630.66 879.16 630.63 883.63 C630.59 889.38 630.57 895.12 630.56 900.87 C630.55 906.34 630.53 911.82 630.51 917.29 C630.5 918.34 630.5 919.39 630.5 920.47 C630.49 923.42 630.47 926.37 630.45 929.33 C630.44 930.65 630.44 930.65 630.44 932 C630.38 938.04 630.38 938.04 629.27 940.27 C628.61 940.27 627.95 940.27 627.27 940.27 C627.04 941.14 626.82 942.01 626.58 942.9 C625.01 946.94 623.25 949.15 620.27 952.27 C619.61 952.27 618.95 952.27 618.27 952.27 C618.19 952.85 618.1 953.43 618.02 954.02 C617.04 956.95 615.63 958.33 613.27 960.27 C612.28 960.27 611.29 960.27 610.27 960.27 C610.03 960.86 609.8 961.44 609.55 962.04 C602.73 973.91 582.01 980.16 569.61 983.58 C541.8 989.33 514.37 984.5 490.35 969.67 C486.1 966.82 482.48 963.41 478.85 959.82 C476.98 957.97 475.16 956.32 473.13 954.67 C470.86 952.77 469.06 951.04 467.21 948.77 C463.38 944.27 459.2 940.15 454.98 936.02 C452.38 933.46 449.9 930.89 447.59 928.06 C445.73 925.82 444.03 924.07 441.77 922.27 C438.51 919.57 435.98 916.54 433.27 913.27 C432.28 912.45 431.29 911.62 430.27 910.77 C427.09 908.12 424.76 905.57 422.27 902.27 C422.27 901.61 422.27 900.95 422.27 900.27 C420.95 899.61 419.63 898.95 418.27 898.27 C418.27 897.61 418.27 896.95 418.27 896.27 C416.95 895.61 415.63 894.95 414.27 894.27 C414.27 893.61 414.27 892.95 414.27 892.27 C412.95 891.61 411.63 890.95 410.27 890.27 C410.27 889.61 410.27 888.95 410.27 888.27 C408.95 887.61 407.63 886.95 406.27 886.27 C406.27 885.61 406.27 884.95 406.27 884.27 C404.95 883.61 403.63 882.95 402.27 882.27 C402.27 881.61 402.27 880.95 402.27 880.27 C401.28 879.94 400.29 879.61 399.27 879.27 C397.94 877.92 397.94 877.92 396.46 876.09 C392.94 871.92 389.15 868.1 385.27 864.27 C381.08 860.13 377.05 855.97 373.25 851.47 C369.77 847.61 366.04 844 362.33 840.37 C359.64 837.72 357.04 835.08 354.65 832.16 C352.33 829.34 349.88 826.82 347.27 824.27 C345.1 822.13 342.93 819.98 340.77 817.84 C340.21 817.29 339.66 816.74 339.09 816.18 C336.45 813.56 333.93 810.92 331.57 808.04 C329.75 805.85 328.12 804.14 325.89 802.4 C321.24 798.53 316.21 794.11 314.27 788.27 C312.27 787.06 312.27 787.06 310.27 786.27 C310.27 785.61 310.27 784.95 310.27 784.27 C308.95 783.61 307.63 782.95 306.27 782.27 C306.27 781.61 306.27 780.95 306.27 780.27 C304.95 779.61 303.63 778.95 302.27 778.27 C302.27 777.61 302.27 776.95 302.27 776.27 C300.95 775.61 299.63 774.95 298.27 774.27 C298.27 773.61 298.27 772.95 298.27 772.27 C296.95 771.61 295.63 770.95 294.27 770.27 C294.27 769.61 294.27 768.95 294.27 768.27 C293.67 768.02 293.08 767.76 292.46 767.49 C290.07 766.17 288.86 764.88 287.14 762.77 C282.8 757.65 278.05 752.98 273.27 748.27 C268.01 743.1 262.89 737.91 258.08 732.31 C254.44 728.22 250.48 724.43 246.58 720.59 C244.91 718.94 243.24 717.29 241.57 715.64 C240.84 714.92 240.11 714.2 239.36 713.46 C233.27 707.09 233.27 707.09 233.27 704.27 C232.28 703.94 231.29 703.61 230.27 703.27 C227.95 699.79 226.18 695.99 224.27 692.27 C223.83 691.5 223.4 690.72 222.95 689.92 C214.44 674.34 212.95 657.75 213.27 640.27 C212.72 640.64 212.18 641 211.62 641.38 C210.02 642.44 208.43 643.5 206.83 644.56 C205.23 645.63 203.64 646.71 202.05 647.8 C196.33 651.71 190.4 655.03 184.27 658.27 C182.8 659.07 181.34 659.87 179.87 660.66 C170.19 665.89 160.56 670.37 150.27 674.27 C148.25 675.12 146.22 675.97 144.21 676.84 C114.08 689.34 81.67 696.18 49.27 699.27 C48.29 699.37 47.31 699.46 46.29 699.56 C-2.41 703.81 -55.09 698.42 -100.73 680.27 C-102.43 679.62 -102.43 679.62 -104.16 678.95 C-119.71 672.79 -134.84 665.9 -149.73 658.27 C-149.73 657.61 -149.73 656.95 -149.73 656.27 C-150.76 656.14 -150.76 656.14 -151.81 656 C-155.38 655.11 -158.28 653.5 -161.42 651.65 C-162.35 651.1 -162.35 651.1 -163.3 650.55 C-168.65 647.39 -173.71 643.93 -178.73 640.27 C-180.12 639.29 -181.5 638.31 -182.89 637.33 C-195.24 628.58 -206.66 619.2 -217.8 608.95 C-219.63 607.22 -219.63 607.22 -221.73 606.27 C-221.73 605.61 -221.73 604.95 -221.73 604.27 C-223.05 603.61 -224.37 602.95 -225.73 602.27 C-225.73 601.61 -225.73 600.95 -225.73 600.27 C-227.05 599.61 -228.37 598.95 -229.73 598.27 C-229.73 597.61 -229.73 596.95 -229.73 596.27 C-231.05 595.61 -232.37 594.95 -233.73 594.27 C-233.73 593.61 -233.73 592.95 -233.73 592.27 C-234.33 592.01 -234.92 591.75 -235.54 591.48 C-242.17 587.83 -246.76 579.73 -251.27 573.75 C-252.93 571.56 -254.56 569.44 -256.53 567.51 C-257.73 566.27 -257.73 566.27 -257.73 564.27 C-258.39 564.27 -259.05 564.27 -259.73 564.27 C-261.46 562.16 -261.46 562.16 -263.36 559.4 C-264.3 558.04 -264.3 558.04 -265.27 556.66 C-266.73 554.27 -266.73 554.27 -266.73 552.27 C-267.39 552.27 -268.05 552.27 -268.73 552.27 C-270.25 550.18 -270.25 550.18 -271.98 547.34 C-274.19 543.76 -276.41 540.23 -278.79 536.77 C-281.49 532.77 -283.8 528.61 -286.04 524.34 C-287.47 521.74 -288.98 519.24 -290.54 516.71 C-294.04 510.91 -296.91 504.87 -299.73 498.71 C-300.25 497.57 -300.78 496.43 -301.32 495.26 C-305.33 486.4 -308.68 477.5 -311.73 468.27 C-312.2 467 -312.68 465.73 -313.17 464.46 C-319.64 447.37 -324.79 429.63 -327.24 411.5 C-327.5 409.77 -327.78 408.04 -328.17 406.33 C-330.18 397.46 -330.69 388.45 -331.36 379.4 C-331.42 378.52 -331.49 377.65 -331.55 376.75 C-333.14 355.29 -332.67 334.72 -330.73 313.27 C-330.66 312.44 -330.59 311.61 -330.52 310.75 C-328.97 292.28 -324.88 274.06 -319.73 256.27 C-319.52 255.52 -319.31 254.77 -319.09 254 C-315.83 242.48 -312.01 231.35 -307.52 220.26 C-306.39 217.41 -305.35 214.53 -304.29 211.65 C-297.9 195.06 -288.54 179.66 -279.73 164.27 C-279.07 164.27 -278.41 164.27 -277.73 164.27 C-277.62 163.7 -277.5 163.13 -277.38 162.54 C-276.67 160.06 -275.66 158.21 -274.29 156.02 C-273.86 155.32 -273.43 154.61 -272.98 153.88 C-272.36 153.09 -272.36 153.09 -271.73 152.27 C-271.07 152.27 -270.41 152.27 -269.73 152.27 C-269.65 151.73 -269.57 151.18 -269.48 150.62 C-268.47 147.46 -266.75 145.34 -264.73 142.71 C-264.33 142.19 -263.93 141.66 -263.52 141.12 C-260.07 136.64 -256.49 132.25 -252.88 127.9 C-250.2 124.62 -247.66 121.25 -245.14 117.86 C-244.44 117.07 -244.44 117.07 -243.73 116.27 C-243.07 116.27 -242.41 116.27 -241.73 116.27 C-240.74 114.29 -240.74 114.29 -239.73 112.27 C-239.07 112.27 -238.41 112.27 -237.73 112.27 C-236.74 110.29 -236.74 110.29 -235.73 108.27 C-235.07 108.27 -234.41 108.27 -233.73 108.27 C-233.36 107.41 -233.36 107.41 -232.98 106.52 C-231.55 103.94 -229.95 102.21 -227.73 100.27 C-227.07 100.27 -226.41 100.27 -225.73 100.27 C-224.74 98.29 -224.74 98.29 -223.73 96.27 C-223.07 96.27 -222.41 96.27 -221.73 96.27 C-220.74 94.29 -220.74 94.29 -219.73 92.27 C-219.07 92.27 -218.41 92.27 -217.73 92.27 C-217.24 90.79 -217.24 90.79 -216.73 89.27 C-214.72 87.54 -212.72 85.93 -210.61 84.34 C-209.33 83.35 -208.05 82.37 -206.77 81.39 C-206.1 80.88 -205.44 80.37 -204.75 79.84 C-202.1 77.79 -199.5 75.68 -196.89 73.57 C-186.33 65.02 -175.27 57.63 -163.71 50.5 C-162.35 49.66 -161 48.81 -159.65 47.96 C-155.92 45.59 -152.21 43.4 -148.23 41.46 C-144.75 39.76 -141.28 38.05 -137.82 36.29 C-130.9 32.77 -123.99 29.39 -116.77 26.5 C-113.88 25.33 -111.01 24.11 -108.14 22.88 C-102 20.32 -95.77 18.2 -89.42 16.21 C-88.32 15.87 -87.23 15.52 -86.11 15.17 C-64.3 8.34 -42.32 4.49 -19.73 1.27 C-18.53 1.1 -17.33 0.92 -16.09 0.74 C-10.74 0.08 -5.39 0.05 0 0 Z M-56.61 44.69 C-58.57 45.23 -60.55 45.72 -62.52 46.2 C-70.37 48.14 -77.97 50.64 -85.61 53.27 C-87.05 53.77 -87.05 53.77 -88.52 54.28 C-94.4 56.35 -100.07 58.68 -105.73 61.27 C-107.08 61.86 -108.44 62.44 -109.79 63.02 C-121.82 68.39 -133.4 74.57 -144.73 81.27 C-145.35 81.64 -145.96 82 -146.6 82.37 C-148.44 83.45 -150.27 84.55 -152.11 85.65 C-153.73 86.62 -153.73 86.62 -155.38 87.61 C-156.15 88.16 -156.93 88.71 -157.73 89.27 C-157.73 89.93 -157.73 90.59 -157.73 91.27 C-158.44 91.52 -159.15 91.77 -159.88 92.02 C-163.1 93.44 -165.56 95.2 -168.36 97.34 C-168.88 97.73 -169.4 98.13 -169.94 98.54 C-175.3 102.66 -180.52 106.95 -185.73 111.27 C-186.79 112.13 -187.85 112.99 -188.91 113.85 C-189.98 114.72 -191.04 115.59 -192.11 116.46 C-193.06 117.24 -194.02 118.02 -195 118.82 C-197.03 120.65 -198.66 122.31 -200.37 124.39 C-202.22 126.65 -203.84 128.37 -206.11 130.15 C-210.76 134.02 -215.79 138.44 -217.73 144.27 C-218.39 144.27 -219.05 144.27 -219.73 144.27 C-221.11 145.99 -222.41 147.78 -223.67 149.59 C-227.46 155 -227.46 155 -229.48 157 C-230.96 158.21 -230.96 158.21 -230.73 160.27 C-231.39 160.27 -232.05 160.27 -232.73 160.27 C-234.78 163.12 -236.6 166.05 -238.36 169.09 C-239.73 171.27 -239.73 171.27 -241.73 172.27 C-242.7 173.91 -243.61 175.58 -244.48 177.27 C-246.41 180.91 -248.4 184.38 -250.73 187.77 C-257.05 197.05 -261.86 207.29 -266.79 217.35 C-267.63 219.07 -268.48 220.78 -269.33 222.48 C-273.97 232.11 -277.37 242.15 -280.73 252.27 C-280.97 253 -281.21 253.73 -281.46 254.48 C-296.81 301.11 -300.37 351.76 -292.73 400.27 C-292.59 401.16 -292.45 402.05 -292.31 402.97 C-285.21 446.21 -267.75 489.27 -242.73 525.27 C-242.04 526.29 -241.34 527.3 -240.62 528.34 C-231.83 541.02 -221.98 552.92 -211.54 564.27 C-210.01 565.96 -208.58 567.68 -207.17 569.46 C-204.54 572.49 -201.71 575 -198.66 577.59 C-196.97 579.07 -195.41 580.59 -193.86 582.21 C-191.98 584.51 -191.98 584.51 -189.73 584.27 C-189.73 584.93 -189.73 585.59 -189.73 586.27 C-188.23 587.67 -186.65 588.99 -185.04 590.27 C-184.05 591.07 -183.05 591.87 -182.02 592.69 C-180.92 593.55 -179.83 594.41 -178.73 595.27 C-178.17 595.71 -177.61 596.15 -177.03 596.61 C-168.08 604.94 -168.08 604.94 -157.73 609.27 C-157.73 609.93 -157.73 610.59 -157.73 611.27 C-155.97 612.43 -154.14 613.5 -152.29 614.52 C-148.37 616.73 -144.6 618.99 -140.92 621.59 C-137.25 624.1 -134.07 625.35 -129.73 626.27 C-129.73 626.93 -129.73 627.59 -129.73 628.27 C-129.09 628.56 -128.44 628.86 -127.78 629.16 C-126.43 629.77 -126.43 629.77 -125.04 630.4 C-124.03 630.86 -123.02 631.31 -121.98 631.79 C-119.87 632.75 -117.76 633.73 -115.67 634.73 C-109.01 637.89 -102.3 640.66 -95.37 643.18 C-92.24 644.32 -89.16 645.52 -86.1 646.83 C-74.77 651.68 -62.58 654.01 -50.59 656.63 C-48.63 657.07 -46.67 657.53 -44.72 658.02 C-36.08 660.12 -27.43 661.45 -18.61 662.46 C-17.85 662.55 -17.1 662.63 -16.33 662.72 C7.3 665.35 30.6 665.15 54.21 662.46 C55.3 662.34 55.3 662.34 56.41 662.21 C64.33 661.29 72.05 660.03 79.76 657.94 C82.13 657.31 84.48 656.83 86.89 656.4 C114.73 650.95 141.41 639.81 166.24 626.36 C170.2 624.24 174.23 622.25 178.27 620.27 C178.27 619.61 178.27 618.95 178.27 618.27 C179.05 618.09 179.84 617.9 180.64 617.71 C186.86 615.25 192.03 611.08 197.21 606.9 C199.27 605.27 199.27 605.27 202.27 604.27 C202.27 603.61 202.27 602.95 202.27 602.27 C202.97 602.04 203.68 601.8 204.41 601.55 C207.77 600.05 210.24 598.12 213.08 595.77 C214.06 594.98 215.03 594.19 216.04 593.37 C216.78 592.68 217.51 591.99 218.27 591.27 C218.27 590.61 218.27 589.95 218.27 589.27 C218.87 589.17 219.48 589.07 220.1 588.97 C222.68 588.14 223.39 587.28 225.02 585.15 C227.19 582.48 229.39 580.19 232.02 577.96 C238.39 572.53 244.37 566.62 249.77 560.21 C252.27 557.27 252.27 557.27 254.27 556.27 C254.6 555.28 254.93 554.29 255.27 553.27 C256.4 552.18 257.53 551.09 258.67 550.01 C261.62 546.81 264.01 543.16 266.5 539.6 C268.27 537.27 268.27 537.27 270.27 536.27 C271.26 534.55 272.25 532.83 273.2 531.09 C274.27 529.27 274.27 529.27 276.21 526.9 C279.66 522.5 282.5 517.59 284.27 512.27 C284.93 512.27 285.59 512.27 286.27 512.27 C286.59 511.63 286.9 510.98 287.23 510.32 C289.69 505.35 292.18 500.42 294.79 495.53 C295.23 494.7 295.67 493.88 296.12 493.02 C296.99 491.39 297.87 489.76 298.75 488.13 C301.35 483.26 303.4 478.46 305.27 473.27 C306.06 471.49 306.87 469.72 307.71 467.96 C311.26 460.24 314.07 452.32 316.43 444.16 C317.07 441.96 317.74 439.76 318.43 437.57 C321.83 426.6 324.38 415.6 326.27 404.27 C326.55 402.64 326.55 402.64 326.83 400.97 C332.87 363.94 333.65 323.36 323.94 286.88 C323.3 284.4 322.79 281.92 322.33 279.4 C321.31 274.08 319.8 268.93 318.27 263.73 C317.39 260.67 316.57 257.61 315.77 254.52 C314.34 249.25 312.4 244.3 310.27 239.27 C309.91 238.4 309.55 237.52 309.18 236.61 C301.96 218.58 301.96 218.58 292.7 201.56 C291.1 199 289.69 196.38 288.27 193.71 C285.97 189.45 283.45 185.46 280.71 181.48 C278.76 178.49 277.09 175.38 275.45 172.22 C274.35 170.22 274.35 170.22 272.69 168.7 C271.27 167.27 271.27 167.27 270.27 164.27 C268.95 162.93 267.61 161.6 266.27 160.27 C264.68 158.25 263.12 156.21 261.58 154.15 C257.09 148.24 252.33 142.71 247.27 137.27 C246.14 136.04 245.01 134.8 243.88 133.57 C237.95 127.12 232.1 120.77 225.27 115.27 C219.36 110.46 219.36 110.46 218.27 108.27 C217.28 107.94 216.29 107.61 215.27 107.27 C213.59 105.62 211.92 103.95 210.27 102.27 C203.87 97.08 197.14 92.4 190.13 88.07 C187.73 86.56 185.38 85.01 183.03 83.42 C166.71 72.52 149.45 64.54 131.27 57.27 C130.37 56.91 129.47 56.54 128.54 56.16 C117.35 51.64 106.02 48.01 94.27 45.27 C92.79 44.89 91.31 44.51 89.83 44.12 C43.04 32.29 -9.99 31.79 -56.61 44.69 Z M281.27 593.27 C280.62 593.62 279.96 593.97 279.29 594.33 C265.02 602.58 255.95 615.06 250.27 630.27 C247.04 647.37 249.33 664.31 258.08 679.4 C258.8 680.35 259.53 681.3 260.27 682.27 C260.92 683.12 261.56 683.98 262.23 684.85 C265.15 688.65 265.15 688.65 268.27 692.27 C268.93 692.27 269.59 692.27 270.27 692.27 C270.93 693.59 271.59 694.91 272.27 696.27 C272.93 696.27 273.59 696.27 274.27 696.27 C274.93 697.59 275.59 698.91 276.27 700.27 C276.93 700.27 277.59 700.27 278.27 700.27 C278.93 701.59 279.59 702.91 280.27 704.27 C280.93 704.27 281.59 704.27 282.27 704.27 C282.93 705.59 283.59 706.91 284.27 708.27 C284.93 708.27 285.59 708.27 286.27 708.27 C286.93 709.59 287.59 710.91 288.27 712.27 C288.93 712.27 289.59 712.27 290.27 712.27 C290.49 712.82 290.7 713.36 290.93 713.92 C292.72 717.06 295.15 719.39 297.72 721.89 C298.53 722.69 298.53 722.69 299.35 723.5 C301.07 725.2 302.79 726.89 304.52 728.59 C306.78 730.81 309.03 733.03 311.29 735.26 C312.09 736.06 312.09 736.06 312.91 736.87 C316.58 740.52 319.96 744.31 323.27 748.27 C324.26 749.1 325.25 749.92 326.27 750.77 C329.18 753.2 331.43 755.69 333.84 758.59 C335.08 760.05 336.42 761.42 337.77 762.77 C339.7 764.7 341.41 766.62 343.14 768.71 C345.72 771.78 348.53 774.27 351.62 776.81 C354.13 779.04 356.12 781.7 358.27 784.27 C359.38 785.25 360.5 786.21 361.64 787.15 C364.19 789.25 366.36 791.44 368.5 793.97 C372.22 798.28 376.2 802.28 380.27 806.27 C384.89 810.81 389.31 815.41 393.54 820.32 C396.39 823.53 399.45 826.52 402.52 829.52 C408.88 835.75 408.88 835.75 411.07 838.7 C411.66 839.48 411.66 839.48 412.27 840.27 C412.93 840.27 413.59 840.27 414.27 840.27 C414.93 841.59 415.59 842.91 416.27 844.27 C416.93 844.27 417.59 844.27 418.27 844.27 C418.63 845.13 418.63 845.13 419 846 C420.51 848.7 422.29 850.45 424.52 852.59 C427.31 855.31 429.98 858.02 432.46 861.02 C434.32 863.26 435.99 864.88 438.27 866.77 C440.62 868.73 442.35 870.45 444.27 872.77 C446.17 875.07 447.88 876.78 450.21 878.71 C454.61 882.39 458.16 886.71 461.8 891.13 C464.82 894.76 467.97 897.8 471.62 900.81 C474.13 903.04 476.12 905.7 478.27 908.27 C479.42 909.29 480.59 910.29 481.77 911.27 C485.03 913.97 487.55 917.02 490.27 920.27 C491.42 921.29 492.59 922.29 493.77 923.27 C497.07 926.01 499.59 928.94 502.27 932.27 C504.72 934.94 505.81 936.12 509.27 937.27 C510.27 938.27 511.27 939.27 512.27 940.27 C525.29 950.36 542.68 950.51 558.41 948.96 C567.26 947.39 574.9 943.26 582.27 938.27 C582.93 937.86 583.59 937.44 584.27 937.01 C590.39 932.85 594.23 927.4 598.27 921.27 C598.68 920.66 599.09 920.06 599.52 919.43 C600.55 917.78 601.41 916.02 602.27 914.27 C602.64 913.53 603.01 912.79 603.39 912.02 C608.59 899.6 608.4 883 604.14 870.34 C602.1 865.55 599.6 861.22 596.5 857.04 C595.27 855.27 595.27 855.27 594.27 852.27 C592.8 850.82 592.8 850.82 591.02 849.46 C587.66 846.69 585.06 843.62 582.27 840.27 C581.12 839.25 579.95 838.25 578.77 837.27 C575.51 834.57 572.98 831.53 570.27 828.27 C569.16 827.29 568.04 826.34 566.89 825.4 C564.34 823.29 562.17 821.1 560.03 818.57 C556.37 814.33 552.49 810.37 548.52 806.42 C547.41 805.31 547.41 805.31 546.27 804.18 C544.68 802.59 543.08 801 541.48 799.41 C538.95 796.89 536.42 794.37 533.89 791.84 C528.52 786.48 523.14 781.13 517.77 775.77 C511.54 769.56 505.31 763.35 499.08 757.14 C496.6 754.66 494.11 752.19 491.62 749.71 C490.09 748.18 488.56 746.65 487.02 745.12 C486.34 744.44 485.65 743.77 484.95 743.07 C481.09 739.21 477.41 735.24 473.86 731.09 C471.17 728.01 468.26 725.16 465.35 722.29 C464.72 721.67 464.09 721.04 463.45 720.4 C461.47 718.44 459.5 716.48 457.52 714.52 C454.9 711.93 452.28 709.33 449.66 706.73 C449.06 706.14 448.47 705.55 447.85 704.94 C445.55 702.66 443.42 700.48 441.5 697.87 C440.89 697.08 440.89 697.08 440.27 696.27 C439.61 696.27 438.95 696.27 438.27 696.27 C437.61 694.95 436.95 693.63 436.27 692.27 C435.61 692.27 434.95 692.27 434.27 692.27 C434.02 691.69 433.76 691.11 433.5 690.51 C432.13 688.02 430.6 686.39 428.57 684.41 C427.83 683.69 427.1 682.97 426.34 682.22 C425.19 681.1 425.19 681.1 424.02 679.96 C419.33 675.38 414.72 670.83 410.57 665.74 C409.09 663.99 409.09 663.99 406.21 661.77 C403.81 659.73 402.52 658.36 400.83 655.84 C398.6 652.52 396.04 650.24 392.96 647.74 C390.41 645.53 388.42 642.86 386.27 640.27 C385.16 639.29 384.04 638.34 382.89 637.4 C379.74 634.77 377.13 631.92 374.47 628.8 C356.42 607.35 356.42 607.35 333.52 592.09 C332.76 591.73 332 591.38 331.21 591.01 C325.88 588.63 321.09 587.56 315.27 587.27 C314.18 587.22 313.09 587.16 311.97 587.11 C301.02 587.03 291.02 588.02 281.27 593.27 Z " fill="#696B6B" transform="translate(393.73046875,3.7265625)"/>
<path d="M0 0 C0.93 0.01 1.86 0.01 2.82 0.02 C30.87 0.33 59.35 7.22 85.24 17.88 C87.34 18.73 89.45 19.56 91.57 20.38 C99.38 23.39 106.74 26.8 114 31 C115.11 31.62 116.22 32.24 117.37 32.88 C128.34 39 138.64 45.91 148.75 53.38 C149.82 54.16 149.82 54.16 150.92 54.96 C152.65 56.26 154.33 57.62 156 59 C156 59.66 156 60.32 156 61 C157.32 61.33 158.64 61.66 160 62 C160 62.66 160 63.32 160 64 C160.55 64.23 161.09 64.46 161.66 64.7 C178.31 73.97 192.99 94 204 109 C205.09 110.49 205.09 110.49 206.21 112 C208.15 114.66 210.08 117.33 212 120 C212.46 120.63 212.92 121.26 213.39 121.91 C215.23 124.55 216 125.7 216 129 C216.66 129 217.32 129 218 129 C219.69 131.99 221.35 134.99 223 138 C223.34 138.62 223.69 139.24 224.04 139.89 C229.08 149.06 233.46 158.13 237 168 C237.7 169.8 238.41 171.59 239.12 173.38 C239.45 174.18 239.77 174.99 240.1 175.82 C240.86 177.66 241.68 179.49 242.5 181.31 C256.62 216.03 259.85 255.94 257 293 C256.91 294.31 256.91 294.31 256.81 295.64 C255.11 318.7 249.85 341.26 242 363 C241.77 363.64 241.54 364.29 241.31 364.95 C236.9 377.23 231.28 388.58 225 400 C224.35 401.19 223.71 402.38 223.06 403.57 C222.07 405.41 221.07 407.24 220.06 409.07 C219.35 410.36 218.66 411.68 218 413 C217.34 413 216.68 413 216 413 C215.89 413.57 215.77 414.14 215.65 414.73 C214.94 417.21 213.93 419.06 212.56 421.25 C211.91 422.31 211.91 422.31 211.25 423.39 C210.84 423.92 210.43 424.45 210 425 C209.34 425 208.68 425 208 425 C207.93 425.53 207.85 426.06 207.78 426.61 C206.69 429.95 204.67 432.49 202.56 435.25 C202.15 435.8 201.75 436.36 201.33 436.93 C200.27 438.33 199.14 439.67 198 441 C197.34 441 196.68 441 196 441 C195.94 441.56 195.88 442.11 195.81 442.69 C194.9 445.28 193.61 446.56 191.62 448.41 C189.64 450.35 187.83 452.42 186 454.5 C182.23 458.71 178.35 462.79 174.38 466.81 C173.85 467.35 173.32 467.89 172.78 468.45 C170.08 471.15 167.37 473.52 164.23 475.7 C160.88 477.8 160.88 477.8 159 481 C158.01 481 157.02 481 156 481 C155.77 481.58 155.54 482.17 155.3 482.77 C153.66 485.58 151.81 486.85 149.12 488.69 C148.26 489.29 147.4 489.89 146.51 490.51 C144 492 144 492 141.74 492.52 C140.88 492.76 140.88 492.76 140 493 C139.67 493.99 139.34 494.98 139 496 C137.26 497.39 137.26 497.39 135.12 498.69 C134.43 499.12 133.73 499.56 133.01 500.01 C131 501 131 501 128 501 C128 501.66 128 502.32 128 503 C125.01 504.69 122.01 506.35 119 508 C118.11 508.49 118.11 508.49 117.21 508.99 C81.13 528.91 40.38 541.37 -1 542 C-1.93 542.02 -2.86 542.03 -3.82 542.05 C-10.88 542.14 -17.94 542.11 -25 542 C-25.87 541.99 -26.74 541.97 -27.63 541.96 C-56.53 541.41 -85.61 534.71 -112.12 523.21 C-114.35 522.27 -116.56 521.43 -118.83 520.62 C-123.18 519.01 -127.18 516.91 -131.25 514.69 C-132.73 513.89 -134.22 513.09 -135.7 512.3 C-136.42 511.91 -137.15 511.52 -137.89 511.12 C-142.55 508.65 -147.27 506.32 -152 504 C-152 503.34 -152 502.68 -152 502 C-152.78 501.81 -153.57 501.63 -154.38 501.44 C-159.52 499.4 -163.57 496.29 -168 493 C-168.6 492.56 -169.2 492.12 -169.82 491.66 C-189.39 477.28 -189.39 477.28 -196 471 C-196 470.34 -196 469.68 -196 469 C-197.32 468.34 -198.64 467.68 -200 467 C-200 466.34 -200 465.68 -200 465 C-200.86 464.63 -200.86 464.63 -201.73 464.25 C-204.35 462.81 -206.15 461.12 -208.25 459 C-208.96 458.3 -209.66 457.6 -210.39 456.88 C-212 455 -212 455 -212 453 C-213.32 452.34 -214.64 451.68 -216 451 C-216 450.34 -216 449.68 -216 449 C-216.66 449 -217.32 449 -218 449 C-219.28 447.65 -219.28 447.65 -220.72 445.74 C-221.52 444.69 -221.52 444.69 -222.34 443.62 C-222.91 442.86 -223.48 442.1 -224.06 441.31 C-224.65 440.54 -225.23 439.77 -225.83 438.97 C-239.34 420.97 -252.1 402.12 -260.67 381.23 C-261.89 378.27 -263.2 375.39 -264.56 372.5 C-269.49 361.72 -272.96 350.43 -276 339 C-276.33 337.82 -276.66 336.64 -277 335.43 C-287.06 296.66 -288.89 250.35 -277.71 211.61 C-277.02 209.09 -276.51 206.59 -276.04 204.02 C-274.96 198.42 -273.26 193.09 -271.44 187.69 C-270.91 186.12 -270.91 186.12 -270.37 184.53 C-263.52 164.57 -254.9 141.95 -242 125 C-241.34 125 -240.68 125 -240 125 C-239.89 124.43 -239.77 123.86 -239.65 123.27 C-238.94 120.79 -237.93 118.94 -236.56 116.75 C-236.13 116.04 -235.7 115.34 -235.25 114.61 C-234.63 113.81 -234.63 113.81 -234 113 C-233.34 113 -232.68 113 -232 113 C-231.89 112.42 -231.79 111.84 -231.68 111.24 C-230.9 108.67 -229.82 107.19 -228.13 105.11 C-227.55 104.4 -226.98 103.69 -226.39 102.96 C-225.79 102.23 -225.18 101.5 -224.56 100.75 C-223.96 100 -223.36 99.26 -222.75 98.49 C-219.41 94.41 -219.41 94.41 -218 93 C-217.34 93 -216.68 93 -216 93 C-215.96 92.44 -215.92 91.89 -215.88 91.31 C-214.79 88.44 -213.05 87.26 -210.68 85.42 C-208.89 83.91 -207.48 82.3 -206 80.5 C-203.27 77.21 -200.34 74.67 -197 72 C-196.42 71.4 -195.84 70.8 -195.25 70.19 C-194 69 -194 69 -192 69 C-191.72 68.19 -191.72 68.19 -191.43 67.36 C-189.31 63.87 -186.33 61.78 -183.12 59.31 C-182.5 58.81 -181.87 58.32 -181.23 57.8 C-176.48 54.1 -176.48 54.1 -173.85 53.54 C-173.24 53.36 -172.63 53.18 -172 53 C-171.67 52.01 -171.34 51.02 -171 50 C-168.81 48.39 -168.81 48.39 -166 46.69 C-162.38 44.47 -158.81 42.22 -155.31 39.81 C-145.14 33 -145.14 33 -140 33 C-140 32.34 -140 31.68 -140 31 C-133.74 27.82 -127.5 24.67 -121 22 C-120.11 21.62 -119.22 21.24 -118.3 20.85 C-108.36 16.65 -98.37 12.96 -88 10 C-87.35 9.81 -86.69 9.62 -86.02 9.42 C-77.37 6.87 -68.88 4.58 -59.92 3.4 C-57.2 3.03 -54.56 2.5 -51.88 1.94 C-34.96 -1.14 -17.11 -0.22 0 0 Z M-66 42 C-66.74 42.18 -67.48 42.36 -68.24 42.55 C-72.22 43.53 -76.11 44.7 -80 46 C-81.28 46.41 -82.56 46.81 -83.84 47.22 C-90.76 49.43 -97.43 51.9 -104 55 C-105.35 55.58 -106.71 56.17 -108.06 56.75 C-118.97 61.6 -129.59 67.18 -140 73 C-140 73.66 -140 74.32 -140 75 C-140.67 75.22 -141.34 75.43 -142.02 75.65 C-145.99 77.45 -149.19 79.92 -152.62 82.56 C-153.33 83.1 -154.03 83.63 -154.76 84.19 C-156.85 85.78 -158.93 87.39 -161 89 C-161.57 89.44 -162.15 89.89 -162.73 90.35 C-168.12 94.56 -172.74 98.68 -177 104 C-178.11 104.98 -179.23 105.94 -180.38 106.88 C-184.39 110.24 -187.66 113.98 -191 118 C-191.49 118.58 -191.98 119.16 -192.48 119.76 C-201.32 130.27 -201.32 130.27 -208.75 141.79 C-210.05 144.08 -211.49 146.21 -213 148.38 C-216.56 153.64 -219.24 159.29 -222 165 C-223.04 167.08 -224.08 169.17 -225.12 171.25 C-225.62 172.24 -226.11 173.23 -226.62 174.25 C-227.45 175.91 -228.3 177.57 -229.16 179.21 C-231.22 183.17 -232.82 187.09 -234.16 191.35 C-234.79 193.34 -235.46 195.33 -236.16 197.31 C-248.76 233.62 -250.98 272.17 -245 310 C-240.82 305.99 -240.82 305.99 -238 301 C-237.34 301 -236.68 301 -236 301 C-235.5 299.02 -235.5 299.02 -235 297 C-234.34 297 -233.68 297 -233 297 C-231.02 294.7 -231.02 294.7 -229 291.81 C-228.3 290.85 -227.6 289.89 -226.88 288.89 C-224.93 286.12 -224.93 286.12 -223.94 283.2 C-223.63 282.47 -223.32 281.75 -223 281 C-222.01 280.67 -221.02 280.34 -220 280 C-218.94 278.37 -217.95 276.7 -217 275 C-216.44 274.28 -215.89 273.56 -215.31 272.81 C-213.8 271.1 -213.8 271.1 -214 269 C-213.34 269 -212.68 269 -212 269 C-211.67 267.68 -211.34 266.36 -211 265 C-210.34 265 -209.68 265 -209 265 C-208.03 263.59 -207.06 262.17 -206.15 260.72 C-204.98 258.97 -203.7 257.45 -202.31 255.88 C-199.77 252.73 -199.77 252.73 -199 249 C-199.81 246.74 -200.88 244.73 -201.99 242.61 C-206.29 231.48 -205.71 213.71 -201.07 202.82 C-196.88 194.47 -189.12 184.04 -180 181 C-180 180.34 -180 179.68 -180 179 C-178.25 178.52 -176.5 178.04 -174.75 177.56 C-173.78 177.3 -172.8 177.03 -171.8 176.75 C-170.87 176.51 -169.95 176.26 -169 176 C-168.37 175.82 -167.73 175.65 -167.08 175.47 C-153.8 172.48 -140.22 175.29 -128.62 181.94 C-117.28 189.2 -110.55 198.25 -107.25 211.38 C-104.39 225.18 -106.55 239.83 -114 252 C-114.66 252.33 -115.32 252.66 -116 253 C-117.53 257.14 -116.92 259.74 -115.19 263.62 C-114.33 265.38 -113.45 267.13 -112.56 268.88 C-112.1 269.8 -111.64 270.73 -111.17 271.69 C-109.79 274.47 -108.4 277.23 -107 280 C-106.28 281.46 -105.55 282.91 -104.83 284.37 C-103.23 287.61 -101.61 290.84 -99.98 294.06 C-98.27 297.45 -96.57 300.85 -94.88 304.25 C-94.21 305.58 -93.55 306.9 -92.89 308.23 C-85 324 -85 324 -83.78 327.28 C-82.21 330.35 -82.21 330.35 -78.64 330.8 C-76.75 330.84 -76.75 330.84 -74.81 330.88 C-73.54 330.91 -72.27 330.95 -70.96 330.99 C-69.98 330.99 -69.01 331 -68 331 C-67.64 330.38 -67.27 329.77 -66.9 329.13 C-64.37 324.86 -61.8 320.66 -59 316.56 C-56.91 313.47 -55.06 310.35 -53.31 307.06 C-48.5 298.05 -43.07 289.33 -37.55 280.74 C-37.09 280.03 -36.63 279.31 -36.16 278.57 C-35.75 277.93 -35.33 277.29 -34.9 276.64 C-33.84 275.02 -33.84 275.02 -34 273 C-33.34 273 -32.68 273 -32 273 C-31.64 272.31 -31.27 271.62 -30.9 270.91 C-28.44 266.31 -25.95 261.81 -23 257.5 C-20.78 254.26 -18.85 250.97 -17 247.5 C-14.73 243.24 -12.23 239.29 -9.5 235.31 C-7.85 232.77 -6.42 230.17 -5 227.5 C-2.73 223.24 -0.23 219.29 2.5 215.31 C4.15 212.77 5.58 210.17 7 207.5 C8.85 204.03 10.78 200.74 13 197.5 C15.83 193.36 18.27 189.08 20.59 184.63 C22 182 22 182 23.44 179.84 C24.72 177.83 25.57 176.34 26 174 C25.12 171.49 23.91 169.52 22.45 167.3 C16.24 157.44 15.77 144.6 17.58 133.43 C19.83 124.29 24.07 117.18 30 110 C30.66 109.67 31.32 109.34 32 109 C32 108.34 32 107.68 32 107 C32.57 106.73 33.13 106.46 33.71 106.18 C36.11 104.94 38.3 103.53 40.56 102.06 C52.21 95.15 65.48 94.29 78.66 96.66 C88.91 99.49 97.57 104.49 104 113 C104.66 113 105.32 113 106 113 C106.37 114.02 106.37 114.02 106.75 115.06 C107.97 118.12 107.97 118.12 109.94 121.25 C114.18 128.59 115.56 135.77 115.5 144.19 C115.49 145.11 115.49 146.02 115.48 146.97 C115.19 157.89 112.43 166.24 105.44 174.81 C102.6 178.21 102.6 178.21 102.24 182.36 C103.3 184.74 104.58 186.82 106 189 C106.67 190.45 107.32 191.9 107.94 193.38 C109.88 197.74 111.86 202.09 113.85 206.44 C114.76 208.47 115.64 210.51 116.5 212.56 C118.11 216.24 119.89 219.8 121.72 223.38 C124.36 228.79 126.56 234.39 128.75 240 C132.66 249.9 137.21 259.49 142 269 C146.5 269.67 150.53 269.92 155 269 C158.32 265.85 159.99 262.07 162 258 C163.29 255.97 164.6 253.94 165.94 251.94 C168.27 248.71 168.27 248.71 169 245 C169.66 245 170.32 245 171 245 C172.36 243 173.6 241.02 174.81 238.94 C179.2 231.59 179.2 231.59 181.69 228.25 C185.06 223.5 188.15 218.54 190 213 C190.66 213 191.32 213 192 213 C192.35 212.32 192.7 211.64 193.07 210.95 C196.2 205.03 199.58 199.56 203.58 194.19 C205.01 191.98 205.59 190.57 206 188 C204.18 182.35 201.72 176.99 199.19 171.62 C198.84 170.88 198.49 170.14 198.13 169.37 C195.83 164.58 193.38 159.96 190.52 155.47 C189.17 153.27 187.95 151.05 186.72 148.78 C184.04 143.92 180.92 139.47 177.62 135 C177.05 134.21 176.48 133.43 175.89 132.62 C168.72 122.66 168.72 122.66 160.55 113.54 C158.64 111.64 156.75 109.72 154.86 107.79 C153.35 106.26 151.83 104.72 150.31 103.19 C149.54 102.4 148.77 101.61 147.97 100.8 C146.87 99.68 146.87 99.68 145.74 98.54 C144.73 97.52 144.73 97.52 143.71 96.48 C142.12 94.78 142.12 94.78 140 95 C140 94.34 140 93.68 140 93 C138.64 91.65 138.64 91.65 136.81 90.31 C136.12 89.78 135.43 89.25 134.72 88.71 C133.59 87.86 133.59 87.86 132.44 87 C131.67 86.42 130.89 85.84 130.1 85.24 C118.57 76.61 106.67 68.88 93.98 62.07 C92.69 61.37 91.41 60.67 90.12 59.96 C59.16 42.86 22.28 36.15 -12.75 36.44 C-14.38 36.44 -14.38 36.44 -16.03 36.45 C-33.18 36.52 -49.34 37.68 -66 42 Z M57 135 C54.24 138.2 53.11 140.24 52.5 144.44 C53.13 148.95 54.43 151.25 57 155 C60.61 157.41 63.74 158.04 68 158 C72.37 156.84 75.01 155.54 77.44 151.75 C79.23 148.06 79.6 145.11 79 141 C77.25 137.9 75.51 135.51 73 133 C67.1 131.59 62.05 131.28 57 135 Z M59 193 C54.67 198.9 50.89 204.86 47.48 211.33 C46.03 213.94 44.45 216.36 42.75 218.81 C40.49 222.1 39 225.1 38 229 C37.34 229 36.68 229 36 229 C35.45 230.03 35.45 230.03 34.9 231.09 C32.44 235.69 29.95 240.19 27 244.5 C24.24 248.52 21.93 252.7 19.69 257.03 C18.29 259.49 16.82 261.79 15.24 264.13 C11.66 269.44 8.38 274.92 5.12 280.44 C4.53 281.43 3.94 282.42 3.33 283.44 C2.49 284.86 2.49 284.86 1.63 286.31 C1.13 287.16 0.62 288.02 0.1 288.9 C-1.15 290.9 -1.15 290.9 -1 293 C-1.66 293 -2.32 293 -3 293 C-5.2 296.8 -5.2 296.8 -6 301 C-6.66 301 -7.32 301 -8 301 C-8.36 301.69 -8.73 302.38 -9.1 303.09 C-11.56 307.69 -14.05 312.19 -17 316.5 C-19.22 319.74 -21.15 323.03 -23 326.5 C-26.12 332.34 -29.71 337.76 -33.52 343.16 C-36.23 347.04 -36.23 347.04 -37.06 351.56 C-35.94 354.15 -34.63 356.57 -33.13 358.96 C-29.9 364.78 -28.46 369.58 -28.19 376.19 C-28.15 376.93 -28.12 377.68 -28.09 378.45 C-27.63 392.45 -31.49 405.38 -41 416 C-52.67 425.87 -64.77 430.58 -80.11 430.25 C-94.6 428.98 -106.52 423.37 -116.31 412.56 C-124.25 402.72 -127.88 389.52 -127 377 C-125.75 367.35 -122.57 358.98 -117 351 C-115.42 348.92 -115.42 348.92 -115 346 C-116.02 342.6 -117.63 339.53 -119.25 336.38 C-119.71 335.45 -120.17 334.52 -120.64 333.57 C-124.5 325.82 -128.54 318.17 -132.61 310.53 C-134.94 306.13 -137.21 301.7 -139.44 297.25 C-139.76 296.62 -140.07 295.99 -140.4 295.34 C-142.42 291.28 -144.23 287.17 -146 283 C-146.69 281.53 -147.4 280.07 -148.12 278.62 C-148.46 277.96 -148.79 277.29 -149.13 276.6 C-149.9 275.01 -149.9 275.01 -151 274 C-152.84 273.69 -154.7 273.41 -156.56 273.23 C-159 273 -159 273 -161.66 272.52 C-164.79 272.15 -166.96 272.13 -170 273 C-173.24 276.06 -175.54 279.54 -177.91 283.31 C-179.63 285.98 -181.57 288.48 -183.5 291 C-184.25 292 -184.99 292.99 -185.76 294.02 C-192.31 302.75 -192.31 302.75 -194.55 305.74 C-196.33 308.11 -198.11 310.48 -199.88 312.86 C-204.63 319.21 -209.4 325.54 -214.25 331.81 C-218.61 337.46 -222.84 343.2 -227 349 C-227.53 349.74 -228.06 350.48 -228.61 351.24 C-229.74 352.82 -230.87 354.41 -232 356 C-223.93 373.85 -215.52 390.95 -203.66 406.66 C-202.19 408.73 -201.13 410.74 -200 413 C-199.24 413.76 -198.47 414.53 -197.69 415.31 C-195.54 417.46 -194 419.34 -192.31 421.81 C-191.55 422.86 -190.79 423.92 -190 425 C-189.34 425 -188.68 425 -188 425 C-187.76 425.57 -187.51 426.14 -187.26 426.72 C-184.67 431.4 -180.39 434.94 -176.62 438.69 C-175.72 439.59 -174.82 440.48 -173.9 441.41 C-164.26 452.09 -164.26 452.09 -152 458 C-151.5 459.49 -151.5 459.49 -151 461 C-148.99 462.48 -148.99 462.48 -146.5 463.81 C-143.13 465.75 -139.88 467.72 -136.69 469.94 C-100.67 494.16 -55.75 505.92 -12.75 505.56 C-11.16 505.56 -11.16 505.56 -9.54 505.55 C7.46 505.48 23.48 504.26 40 500 C40.76 499.81 41.51 499.63 42.29 499.44 C46.25 498.45 50.13 497.29 54 496 C54.91 495.73 55.82 495.46 56.75 495.18 C84.05 486.75 109.41 472.26 132 455 C134.06 453.49 136.12 451.98 138.18 450.48 C140.63 448.48 142.79 446.25 145 444 C145.98 443.03 146.96 442.06 147.94 441.1 C148.96 440.09 149.98 439.07 151 438.06 C151.51 437.56 152.02 437.06 152.54 436.55 C155.08 434.02 157.49 431.47 159.75 428.68 C162 426 162 426 164 425 C164.33 424.01 164.66 423.02 165 422 C166.65 420.32 168.32 418.65 170 417 C175.9 409.72 181.14 402.01 186 394 C186.44 393.28 186.87 392.57 187.32 391.83 C189.35 388.63 189.35 388.63 190 385 C190.66 385 191.32 385 192 385 C200.26 368.18 207.55 351.4 212.96 333.45 C213.59 331.35 214.27 329.26 215.01 327.2 C223.06 301.23 224.2 267.8 220 241 C219.34 240.34 218.68 239.68 218 239 C218 239.66 218 240.32 218 241 C217.34 241 216.68 241 216 241 C215.18 242.44 214.37 243.87 213.56 245.31 C212.88 246.51 212.88 246.51 212.19 247.74 C210.89 250.06 210.89 250.06 210 253 C209.34 253 208.68 253 208 253 C207.18 254.44 206.37 255.87 205.56 257.31 C204.88 258.51 204.88 258.51 204.19 259.74 C202.89 262.06 202.89 262.06 202 265 C201.34 265 200.68 265 200 265 C199.18 266.44 198.37 267.87 197.56 269.31 C196.88 270.51 196.88 270.51 196.19 271.74 C194.89 274.06 194.89 274.06 194 277 C193.34 277 192.68 277 192 277 C191.21 278.42 190.42 279.83 189.62 281.25 C188.96 282.43 188.96 282.43 188.29 283.64 C187.86 284.42 187.44 285.2 187 286 C186.56 286.66 186.12 287.31 185.67 287.99 C184.73 290.08 184.73 290.08 186.01 292.34 C186.56 293.2 187.12 294.05 187.69 294.94 C194.86 307.22 195.09 319.69 192.04 333.24 C190.52 338.74 188.11 343.25 185 348 C184.55 348.73 184.1 349.46 183.63 350.21 C177.84 358.78 168.12 365.01 158.15 367.6 C143.6 370.31 129.32 368.97 116.81 360.96 C109.37 355.75 109.37 355.75 108 353 C107.34 353 106.68 353 106 353 C105.77 352.34 105.55 351.68 105.31 351 C103.9 347.77 102.16 344.99 100.22 342.06 C93.79 331.18 94.05 316.4 96.95 304.44 C98.78 298.44 101.68 294.46 105.81 289.88 C108.45 286.41 108.44 285.26 108 281 C106.71 277.76 106.71 277.76 104.88 274.5 C104.22 273.26 103.58 272.03 102.93 270.79 C102.44 269.84 102.44 269.84 101.94 268.88 C99.91 264.82 98.22 260.6 96.45 256.41 C94.63 252.13 92.67 247.91 90.7 243.69 C88.57 239.1 86.51 234.49 84.44 229.88 C81.66 223.68 78.87 217.5 76.05 211.32 C74.98 208.95 73.92 206.57 72.88 204.19 C72.55 203.47 72.22 202.75 71.88 202.01 C71.09 200.21 70.44 198.36 69.81 196.5 C68.28 193.83 68.28 193.83 65.81 193.41 C63.53 193.15 61.3 193.01 59 193 Z M-165 214 C-165.33 214.99 -165.66 215.98 -166 217 C-166.66 217 -167.32 217 -168 217 C-168.92 222.33 -169.4 225.96 -167 231 C-163.76 234.76 -161.24 236.88 -156.19 237.38 C-151.81 237.25 -149.32 235.93 -146 233 C-142.71 228.54 -142.58 224.67 -143.28 219.34 C-144.48 215.43 -146.59 214.16 -150 212 C-155.2 209.4 -160.36 211.02 -165 214 Z M134 311 C134 311.66 134 312.32 134 313 C133.34 313 132.68 313 132 313 C131.04 320.48 131.04 320.48 133.5 327.36 C136.72 330.4 139.63 332.4 144.12 332.69 C149.3 331.77 152.33 329.67 156 326 C157.13 321.29 157.39 317.18 155.88 312.56 C153.7 309.59 152.44 308.35 149 307 C142.77 306.07 138.76 306.85 134 311 Z M-87.25 372.5 C-90.13 376.62 -90.69 380.02 -90 385 C-88.3 388.48 -88.3 388.48 -86 391 C-85.34 391 -84.68 391 -84 391 C-84 391.66 -84 392.32 -84 393 C-77.84 394.16 -73.58 394.39 -68 391 C-65.11 387.81 -63.75 385.26 -63.5 381 C-63.75 376.74 -65.11 374.19 -68 371 C-75 367.18 -81.55 366.17 -87.25 372.5 Z " fill="#696A6A" transform="translate(424,83)"/>
<path d="M0 0 C2.05 1.68 2.05 1.68 3.05 4.68 C5.05 5.89 5.05 5.89 7.05 6.68 C7.05 7.34 7.05 8 7.05 8.68 C7.71 8.68 8.37 8.68 9.05 8.68 C18.39 19.26 19.97 31.99 19.49 45.54 C18.84 55.31 15.69 62.89 9.48 70.5 C6.65 73.89 6.65 73.89 6.29 78.05 C7.35 80.43 8.62 82.5 10.05 84.68 C10.72 86.13 11.37 87.59 11.98 89.06 C13.92 93.43 15.91 97.78 17.89 102.12 C18.81 104.15 19.68 106.2 20.55 108.25 C22.15 111.93 23.93 115.49 25.77 119.06 C28.41 124.48 30.61 130.07 32.8 135.68 C35.21 141.79 37.86 147.75 40.69 153.67 C42.26 156.97 43.73 160.27 45.05 163.68 C49.52 164.28 53.6 164.52 58.05 163.68 C61.08 160.89 62.36 157.4 64.05 153.68 C65.4 151.27 66.84 148.91 68.3 146.56 C68.96 145.44 69.63 144.33 70.31 143.18 C70.88 142.35 71.46 141.53 72.05 140.68 C72.71 140.68 73.37 140.68 74.05 140.68 C74.41 139.65 74.41 139.65 74.79 138.59 C76.25 135.21 78.14 132.24 80.17 129.18 C82.62 125.45 85.05 121.71 87.35 117.88 C87.71 117.28 88.07 116.68 88.44 116.06 C89.44 114.39 90.43 112.71 91.42 111.04 C92.22 109.87 92.22 109.87 93.05 108.68 C93.71 108.68 94.37 108.68 95.05 108.68 C95.14 108.14 95.24 107.59 95.34 107.02 C96.23 104.06 97.68 101.84 99.36 99.25 C99.95 98.32 100.55 97.39 101.16 96.44 C106.66 88.41 106.66 88.41 111.05 86.68 C124.03 119.8 124.03 119.8 122.05 134.68 C121.72 135.34 121.39 136 121.05 136.68 C120.39 136.68 119.73 136.68 119.05 136.68 C118.93 137.26 118.82 137.83 118.7 138.42 C117.99 140.9 116.97 142.75 115.61 144.93 C115.18 145.64 114.75 146.35 114.3 147.07 C113.89 147.61 113.47 148.14 113.05 148.68 C112.39 148.68 111.73 148.68 111.05 148.68 C110.93 149.26 110.82 149.83 110.7 150.42 C109.99 152.9 108.97 154.75 107.61 156.93 C107.18 157.64 106.75 158.35 106.3 159.07 C105.89 159.61 105.47 160.14 105.05 160.68 C104.39 160.68 103.73 160.68 103.05 160.68 C102.93 161.26 102.82 161.83 102.7 162.42 C101.99 164.9 100.97 166.75 99.61 168.93 C99.18 169.64 98.75 170.35 98.3 171.07 C97.89 171.61 97.47 172.14 97.05 172.68 C96.39 172.68 95.73 172.68 95.05 172.68 C94.94 173.26 94.84 173.84 94.73 174.43 C93.95 177.01 92.7 178.58 91.11 180.75 C89.64 183.08 89.64 183.08 89.05 185.68 C90.1 188.69 91.62 191.04 93.34 193.72 C99.63 204.63 98.75 217.12 96.09 228.93 C94.56 234.44 92.2 238.94 89.05 243.68 C88.52 244.49 88 245.29 87.45 246.11 C80.79 255.45 70.43 262.56 59.05 264.68 C41.43 266.61 28.45 264.21 14.09 253.55 C12.05 251.68 12.05 251.68 11.05 248.68 C10.39 248.68 9.73 248.68 9.05 248.68 C6.74 245.89 4.91 242.78 3.05 239.68 C2.65 239.03 2.25 238.38 1.84 237.71 C-4.66 225.42 -3.91 209.62 0.05 196.68 C2 192.32 4.69 189.08 7.86 185.56 C10.5 182.09 10.49 180.94 10.05 176.68 C8.75 173.44 8.75 173.44 6.92 170.18 C6.27 168.95 5.62 167.71 4.98 166.47 C4.65 165.84 4.33 165.21 3.99 164.57 C1.95 160.5 0.26 156.28 -1.5 152.09 C-3.33 147.81 -5.28 143.59 -7.25 139.37 C-9.38 134.78 -11.44 130.17 -13.52 125.56 C-15.92 120.2 -18.33 114.84 -20.77 109.5 C-21.49 107.89 -22.22 106.29 -22.95 104.68 C-23.32 103.88 -23.69 103.07 -24.07 102.24 C-25.94 98.11 -27.62 94.03 -28.95 89.68 C-32.11 89.12 -34.82 88.95 -37.95 89.68 C-40.69 92.26 -42.24 95.37 -43.95 98.68 C-44.95 100.52 -45.95 102.35 -46.95 104.18 C-47.44 105.11 -47.94 106.03 -48.44 106.98 C-50.32 110.34 -52.45 113.49 -54.63 116.67 C-56.33 119.25 -57.66 121.88 -58.95 124.68 C-59.61 124.68 -60.27 124.68 -60.95 124.68 C-61.04 125.21 -61.13 125.73 -61.22 126.27 C-62.22 129.57 -63.91 132.41 -65.64 135.37 C-66.19 136.32 -66.19 136.32 -66.74 137.28 C-69.09 141.31 -71.58 145.2 -74.21 149.05 C-76.61 152.67 -78.88 156.36 -81.14 160.06 C-81.84 161.2 -81.84 161.2 -82.55 162.37 C-85.11 166.57 -87.61 170.8 -90.04 175.07 C-90.54 175.95 -91.04 176.82 -91.55 177.73 C-92.52 179.43 -93.47 181.13 -94.42 182.84 C-95.07 183.99 -95.07 183.99 -95.74 185.16 C-96.12 185.84 -96.5 186.52 -96.89 187.23 C-97.24 187.71 -97.59 188.19 -97.95 188.68 C-98.61 188.68 -99.27 188.68 -99.95 188.68 C-100.26 189.63 -100.57 190.58 -100.89 191.56 C-101.95 194.68 -101.95 194.68 -102.95 196.68 C-103.61 196.68 -104.27 196.68 -104.95 196.68 C-105.04 197.21 -105.13 197.73 -105.22 198.27 C-106.22 201.57 -107.91 204.41 -109.64 207.37 C-110 208 -110.37 208.63 -110.74 209.28 C-113.08 213.29 -115.55 217.16 -118.18 220.99 C-121.31 225.74 -124.22 230.62 -127.17 235.48 C-127.63 236.23 -128.09 236.99 -128.56 237.77 C-128.97 238.45 -129.39 239.13 -129.81 239.83 C-130.82 241.47 -131.88 243.08 -132.95 244.68 C-132.74 248.58 -131.13 251.37 -129.09 254.64 C-125.85 260.47 -124.42 265.27 -124.14 271.87 C-124.11 272.62 -124.07 273.36 -124.04 274.13 C-123.56 288.87 -127.89 301.67 -137.95 312.68 C-149.57 322.58 -161.75 327.27 -177.06 326.94 C-191.97 325.63 -203.67 319.73 -213.77 308.75 C-222.05 298.8 -225.86 285.53 -224.95 272.68 C-223.7 263.03 -220.52 254.66 -214.95 246.68 C-213.38 244.61 -213.38 244.61 -212.95 241.68 C-213.97 238.28 -215.58 235.21 -217.2 232.06 C-217.66 231.13 -218.12 230.21 -218.59 229.25 C-222.45 221.51 -226.49 213.85 -230.56 206.21 C-232.9 201.81 -235.16 197.39 -237.39 192.93 C-237.71 192.3 -238.03 191.67 -238.35 191.02 C-240.76 186.2 -242.97 181.34 -244.84 176.29 C-245.69 174.18 -246.53 172.47 -247.95 170.68 C-251.05 169.82 -252.85 169.66 -255.95 169.68 C-256.84 169.54 -257.72 169.41 -258.64 169.26 C-261.72 168.9 -263.95 168.87 -266.95 169.68 C-270.36 172.88 -272.53 176.72 -274.95 180.68 C-276.41 182.68 -277.89 184.66 -279.39 186.62 C-280.15 187.63 -280.9 188.63 -281.68 189.66 C-282.43 190.66 -283.18 191.66 -283.95 192.68 C-285.39 194.6 -286.83 196.52 -288.27 198.43 C-289.01 199.42 -289.75 200.41 -290.51 201.42 C-292.29 203.79 -294.06 206.17 -295.84 208.54 C-300.59 214.89 -305.35 221.22 -310.2 227.5 C-313.29 231.49 -316.31 235.52 -319.27 239.62 C-322.03 243.44 -324.76 247.21 -327.95 250.68 C-328.61 250.68 -329.27 250.68 -329.95 250.68 C-333.8 240.88 -337.32 231.1 -339.89 220.87 C-340.1 220.04 -340.31 219.21 -340.53 218.36 C-343.1 207.7 -343.1 207.7 -340.49 203.13 C-339.86 202.36 -339.23 201.6 -338.58 200.81 C-337.95 200.03 -337.33 199.25 -336.68 198.44 C-336.11 197.86 -335.54 197.28 -334.95 196.68 C-334.29 196.68 -333.63 196.68 -332.95 196.68 C-332.46 194.7 -332.46 194.7 -331.95 192.68 C-331.29 192.68 -330.63 192.68 -329.95 192.68 C-329.69 192.13 -329.43 191.57 -329.17 191 C-327.8 188.39 -326.21 186.04 -324.52 183.62 C-323.92 182.76 -323.32 181.91 -322.71 181.02 C-321.22 179.05 -319.71 177.4 -317.95 175.68 C-316.93 174.03 -315.93 172.36 -314.95 170.68 C-313.68 168.64 -312.36 166.63 -310.95 164.68 C-310.29 164.68 -309.63 164.68 -308.95 164.68 C-308.62 163.36 -308.29 162.04 -307.95 160.68 C-307.29 160.68 -306.63 160.68 -305.95 160.68 C-305.64 159.66 -305.64 159.66 -305.33 158.62 C-303.77 155.29 -301.8 153.08 -299.29 150.43 C-297.76 148.43 -297.2 147.19 -296.95 144.68 C-297.76 142.43 -298.84 140.42 -299.95 138.29 C-304.24 127.16 -303.67 109.39 -299.02 98.5 C-294.73 89.95 -287.73 82.24 -279.95 76.68 C-278.96 76.68 -277.97 76.68 -276.95 76.68 C-276.95 76.02 -276.95 75.36 -276.95 74.68 C-275.2 74.04 -273.45 73.39 -271.7 72.75 C-270.73 72.39 -269.75 72.03 -268.75 71.66 C-256.87 67.53 -242.24 68.25 -230.95 73.68 C-226.06 76.29 -221.21 79.11 -216.95 82.68 C-216.95 83.34 -216.95 84 -216.95 84.68 C-215.47 85.18 -215.47 85.18 -213.95 85.68 C-205.93 95.76 -201.13 107.81 -201.6 120.89 C-202.85 130.8 -205.3 140.35 -210.95 148.68 C-211.61 148.68 -212.27 148.68 -212.95 148.68 C-212.95 157.41 -209.05 164.07 -205.07 171.57 C-203.31 174.91 -201.63 178.3 -199.95 181.68 C-199.29 183 -198.63 184.32 -197.97 185.64 C-196.57 188.45 -195.17 191.26 -193.78 194.07 C-193.42 194.79 -193.06 195.51 -192.69 196.25 C-192.01 197.62 -191.33 199 -190.65 200.37 C-188.89 203.91 -187 207.3 -184.95 210.68 C-183.92 213 -182.92 215.34 -181.95 217.68 C-181.39 219 -180.83 220.31 -180.27 221.62 C-179.83 222.63 -179.4 223.64 -178.95 224.68 C-178.11 224.74 -177.27 224.8 -176.4 224.87 C-175.3 224.95 -174.21 225.03 -173.08 225.12 C-171.44 225.24 -171.44 225.24 -169.77 225.37 C-166.95 225.68 -166.95 225.68 -164.95 226.68 C-164.69 225.97 -164.43 225.26 -164.16 224.53 C-162.88 221.51 -161.33 218.9 -159.58 216.12 C-158.86 214.97 -158.14 213.83 -157.43 212.68 C-157.04 212.05 -156.64 211.42 -156.24 210.77 C-153.77 206.77 -151.37 202.72 -148.95 198.68 C-144.88 191.87 -140.75 185.09 -136.58 178.34 C-134.63 175.16 -132.77 171.94 -130.95 168.68 C-130.29 168.68 -129.63 168.68 -128.95 168.68 C-128.86 168.16 -128.78 167.64 -128.68 167.1 C-127.69 163.8 -126 160.96 -124.27 158 C-123.91 157.37 -123.55 156.75 -123.17 156.1 C-120.74 151.92 -118.13 147.89 -115.38 143.89 C-113.19 140.5 -111.35 136.93 -109.45 133.37 C-107.63 130.11 -105.56 127.07 -103.45 124 C-101.81 121.46 -100.38 118.85 -98.95 116.18 C-96.68 111.93 -94.18 107.97 -91.45 104 C-89.23 100.57 -87.37 96.97 -85.45 93.37 C-84.07 90.89 -82.57 88.58 -80.95 86.25 C-75.55 78.41 -75.55 78.41 -71.95 69.68 C-72.67 66.91 -73.77 65.17 -75.43 62.84 C-82.01 53.49 -82.12 39.91 -80.38 29.11 C-78.14 20.04 -74.05 12.73 -67.95 5.68 C-66.47 5.19 -66.47 5.19 -64.95 4.68 C-64.95 4.02 -64.95 3.36 -64.95 2.68 C-47.07 -14.37 -19.5 -12.65 0 0 Z M-39.95 30.68 C-42.72 33.88 -43.84 35.93 -44.45 40.12 C-43.82 44.63 -42.53 46.93 -39.95 50.68 C-36.34 53.09 -33.22 53.72 -28.95 53.68 C-24.58 52.52 -21.95 51.22 -19.52 47.43 C-17.72 43.74 -17.36 40.79 -17.95 36.68 C-19.71 33.58 -21.44 31.2 -23.95 28.68 C-29.85 27.27 -34.91 26.96 -39.95 30.68 Z M-261.95 109.68 C-262.28 110.67 -262.61 111.66 -262.95 112.68 C-263.61 112.68 -264.27 112.68 -264.95 112.68 C-265.87 118.01 -266.36 121.65 -263.95 126.68 C-260.72 130.44 -258.19 132.56 -253.14 133.06 C-248.77 132.93 -246.27 131.61 -242.95 128.68 C-239.66 124.22 -239.53 120.35 -240.23 115.03 C-241.44 111.11 -243.54 109.84 -246.95 107.68 C-252.15 105.08 -257.32 106.7 -261.95 109.68 Z M37.05 206.68 C37.05 207.34 37.05 208 37.05 208.68 C36.39 208.68 35.73 208.68 35.05 208.68 C34.09 216.17 34.09 216.17 36.55 223.04 C39.76 226.08 42.68 228.08 47.17 228.37 C52.35 227.45 55.38 225.35 59.05 221.68 C60.17 216.97 60.43 212.86 58.92 208.25 C56.74 205.27 55.49 204.03 52.05 202.68 C45.82 201.75 41.81 202.54 37.05 206.68 Z M-184.2 268.18 C-187.08 272.3 -187.64 275.71 -186.95 280.68 C-185.25 284.16 -185.25 284.16 -182.95 286.68 C-182.29 286.68 -181.63 286.68 -180.95 286.68 C-180.95 287.34 -180.95 288 -180.95 288.68 C-174.8 289.84 -170.53 290.07 -164.95 286.68 C-162.06 283.49 -160.71 280.94 -160.45 276.68 C-160.71 272.43 -162.06 269.87 -164.95 266.68 C-171.95 262.87 -178.5 261.85 -184.2 268.18 Z " fill="#D1184A" transform="translate(520.953125,187.31640625)"/>
<path d="M0 0 C4.25 -0.41 6.34 -0.46 9.89 2.05 C10.81 2.99 11.73 3.92 12.68 4.89 C13.18 5.39 13.68 5.89 14.19 6.41 C15.23 7.47 16.27 8.53 17.3 9.61 C18.87 11.25 20.47 12.86 22.08 14.47 C30.99 23.55 30.99 23.55 31 27 C28.3 32.73 23.48 36.96 19.08 41.4 C17.62 42.88 16.19 44.37 14.76 45.87 C13.84 46.8 12.92 47.72 11.98 48.68 C10.72 49.96 10.72 49.96 9.45 51.27 C7 53 7 53 4.32 52.88 C1.42 51.78 -0.03 50.33 -2.12 48.06 C-4.39 45.64 -6.22 43.85 -9 42 C-9 41.34 -9 40.68 -9 40 C-10.32 39.34 -11.64 38.68 -13 38 C-13 37.34 -13 36.68 -13 36 C-13.58 35.75 -14.15 35.5 -14.75 35.25 C-17.43 33.76 -19.11 32.43 -21 30 C-21.73 26.79 -21.52 24.92 -19.89 22.05 C-16.89 17.82 -13.48 14.44 -9.42 11.23 C-7.86 10.04 -7.86 10.04 -7 8 C-6.34 8 -5.68 8 -5 8 C-4.34 6.68 -3.68 5.36 -3 4 C-2.34 4 -1.68 4 -1 4 C-0.67 2.68 -0.34 1.36 0 0 Z " fill="#CF1749" transform="translate(861,792)"/>
<path d="M0 0 C1.96 1.6 1.96 1.6 3.81 3.62 C6.46 6.42 9.12 9.02 12.06 11.5 C22.73 20.76 22.73 20.76 23.3 25.57 C22.88 28.97 21.35 30.58 19 33 C18.34 33 17.68 33 17 33 C16.34 34.32 15.68 35.64 15 37 C14.34 37 13.68 37 13 37 C12.34 38.32 11.68 39.64 11 41 C10.34 41 9.68 41 9 41 C8.74 41.58 8.48 42.16 8.21 42.76 C6.93 45.13 5.54 46.86 3.69 48.81 C3.11 49.44 2.54 50.06 1.95 50.71 C0 52 0 52 -2.3 52.11 C-6.36 50.44 -8.84 47.54 -11.81 44.38 C-13.05 43.09 -14.29 41.81 -15.54 40.54 C-16.43 39.62 -16.43 39.62 -17.34 38.68 C-19.93 36.06 -22.7 33.67 -25.55 31.33 C-27 30 -27 30 -29 27 C-28.82 24 -28.45 22.49 -26.4 20.26 C-25.4 19.48 -25.4 19.48 -24.38 18.69 C-20.08 15.15 -16.56 11.26 -13 7 C-11.9 5.69 -10.79 4.37 -9.69 3.06 C-9.22 2.5 -8.75 1.93 -8.26 1.35 C-5.56 -1.54 -3.59 -1.08 0 0 Z " fill="#D0194C" transform="translate(823,747)"/>
<path d="M0 0 C0.66 0.33 1.32 0.66 2 1 C2 1.66 2 2.32 2 3 C3.32 3.66 4.64 4.32 6 5 C6 5.66 6 6.32 6 7 C7.32 7.66 8.64 8.32 10 9 C10 9.66 10 10.32 10 11 C10.57 11.26 11.15 11.53 11.74 11.8 C17 14.59 21.34 17.94 23.19 23.69 C22.99 27.25 22.6 28.59 20 31 C19.34 31 18.68 31 18 31 C17.34 32.32 16.68 33.64 16 35 C15.34 35 14.68 35 14 35 C13.34 36.32 12.68 37.64 12 39 C11.34 39 10.68 39 10 39 C9.34 40.32 8.68 41.64 8 43 C7.34 43 6.68 43 6 43 C5.75 43.58 5.5 44.15 5.25 44.75 C3.32 48.22 1.53 50.56 -2.38 51.69 C-5.97 50.75 -7.15 48.8 -9.39 45.93 C-10.99 44.01 -12.63 42.52 -14.56 40.94 C-17.84 38.23 -20.33 35.31 -23 32 C-23.95 31.15 -24.9 30.31 -25.88 29.44 C-28 27 -28 27 -28.19 24.62 C-25.89 19.54 -22.04 15.75 -17.75 12.25 C-14.86 10.11 -14.86 10.11 -13 7 C-12.34 7 -11.68 7 -11 7 C-10.73 6.4 -10.46 5.8 -10.19 5.19 C-7.53 0.29 -5.63 -0.48 0 0 Z " fill="#CF1A4B" transform="translate(778,701)"/>
<path d="M0 0 C0.98 -0.03 1.95 -0.06 2.96 -0.09 C10.23 -0.15 14.43 0.97 19.99 5.84 C22.48 8.94 23.9 11.33 24.25 15.31 C25.9 14.98 27.55 14.65 29.25 14.31 C25.73 17.29 22.24 19.55 18.12 21.62 C17.09 22.16 16.06 22.69 14.99 23.24 C12.25 24.31 12.25 24.31 9.25 23.31 C9.25 20.01 9.25 16.71 9.25 13.31 C7.93 13.31 6.61 13.31 5.25 13.31 C5.25 17.27 5.25 21.23 5.25 25.31 C4.26 25.31 3.27 25.31 2.25 25.31 C2.19 24.6 2.13 23.89 2.07 23.16 C1.94 21.78 1.94 21.78 1.81 20.38 C1.73 19.46 1.65 18.54 1.57 17.6 C1.49 15.35 1.49 15.35 0.25 14.31 C-1.27 14.24 -2.79 14.23 -4.31 14.25 C-5.14 14.26 -5.97 14.27 -6.82 14.28 C-7.45 14.29 -8.09 14.3 -8.75 14.31 C-6.85 16.66 -6.85 16.66 -3.62 16.44 C-2.68 16.4 -1.73 16.36 -0.75 16.31 C-0.75 16.97 -0.75 17.63 -0.75 18.31 C-3.06 18.64 -5.37 18.97 -7.75 19.31 C-8.53 21.61 -8.53 21.61 -8.75 24.31 C-7.42 26.62 -7.42 26.62 -5.75 28.31 C-8.91 29.25 -11.72 29.42 -15 29.38 C-15.89 29.37 -16.78 29.36 -17.7 29.35 C-18.38 29.34 -19.05 29.32 -19.75 29.31 C-23.44 23.89 -24.71 19.87 -23.75 13.31 C-21.94 7.87 -18.37 4.53 -13.75 1.31 C-9.22 -0.2 -4.74 0.05 0 0 Z " fill="#B2B2B2" transform="translate(967.75,956.6875)"/>
<path d="M0 0 C2 2 2 2 2.2 4.38 C2.17 5.29 2.15 6.19 2.12 7.12 C2.11 8.04 2.09 8.95 2.07 9.88 C2.05 10.58 2.02 11.28 2 12 C2.99 12 3.98 12 5 12 C5 8.04 5 4.08 5 0 C6.32 0 7.64 0 9 0 C9.33 3.96 9.66 7.92 10 12 C-0.19 15.77 -9.12 18.32 -20 19 C-19.5 17.51 -19.5 17.51 -19 16 C-15.04 15.34 -11.08 14.68 -7 14 C-7.99 13.01 -8.98 12.02 -10 11 C-9.58 6.58 -9.58 6.58 -8 5 C-5.67 4.96 -3.33 4.96 -1 5 C-1 4.34 -1 3.68 -1 3 C-3.31 3.33 -5.62 3.66 -8 4 C-8.33 3.01 -8.66 2.02 -9 1 C-5.99 -0.51 -3.32 -0.18 0 0 Z " fill="#989999" transform="translate(968,970)"/>
<path d="M0 0 C0.66 0 1.32 0 2 0 C2.19 7.19 2.37 14.38 2.54 21.57 C2.6 24.02 2.66 26.46 2.72 28.91 C2.82 32.42 2.9 35.94 2.98 39.45 C3.01 40.55 3.04 41.64 3.07 42.77 C3.09 43.79 3.11 44.81 3.14 45.86 C3.16 46.76 3.18 47.66 3.2 48.58 C2.98 51.21 2.26 52.71 1 55 C0.4 57.59 -0.14 60.14 -0.62 62.75 C-0.83 63.8 -0.83 63.8 -1.03 64.86 C-1.36 66.57 -1.68 68.29 -2 70 C-2.33 70 -2.66 70 -3 70 C-3.21 62.62 -3.04 55.59 -2.03 48.28 C-0.77 38.35 -0.55 28.44 -0.38 18.44 C-0.34 16.64 -0.3 14.83 -0.26 13.03 C-0.16 8.69 -0.08 4.34 0 0 Z " fill="#585B5A" transform="translate(724,337)"/>
<path d="M0 0 C4.25 -0.41 6.34 -0.46 9.89 2.05 C10.81 2.99 11.73 3.92 12.68 4.89 C13.18 5.39 13.68 5.89 14.19 6.41 C15.23 7.47 16.27 8.53 17.3 9.61 C18.87 11.25 20.47 12.86 22.08 14.47 C30.86 23.42 30.86 23.42 31 27 C30.34 27.99 29.68 28.98 29 30 C28.65 28.99 28.3 27.98 27.94 26.94 C25.96 22.3 22.66 19.36 19 16 C16.57 13.63 14.24 11.29 12.09 8.66 C11.4 7.82 10.71 6.99 10 6.12 C9.36 5.32 8.72 4.52 8.06 3.7 C6.12 1.73 6.12 1.73 3.46 2.01 C0.61 3.16 -0.53 4.29 -2.44 6.69 C-5.45 10.35 -8.6 13.69 -12 17 C-12.99 16.67 -13.98 16.34 -15 16 C-14.51 15.59 -14.01 15.18 -13.5 14.76 C-12.86 14.22 -12.22 13.68 -11.56 13.12 C-10.92 12.59 -10.29 12.06 -9.63 11.51 C-7.89 10.08 -7.89 10.08 -7 8 C-6.34 8 -5.68 8 -5 8 C-4.34 6.68 -3.68 5.36 -3 4 C-2.34 4 -1.68 4 -1 4 C-0.67 2.68 -0.34 1.36 0 0 Z " fill="#D42956" transform="translate(861,792)"/>
<path d="M0 0 C2 2 2 2 2.2 4.6 C2.17 5.6 2.15 6.6 2.12 7.62 C2.11 8.63 2.09 9.63 2.07 10.66 C2.04 11.82 2.04 11.82 2 13 C-0.97 12.5 -0.97 12.5 -4 12 C-3.34 10.68 -2.68 9.36 -2 8 C-3.32 7.34 -4.64 6.68 -6 6 C-4.35 5.67 -2.7 5.34 -1 5 C-1 4.34 -1 3.68 -1 3 C-3.31 3.33 -5.62 3.66 -8 4 C-8.33 3.01 -8.66 2.02 -9 1 C-5.99 -0.51 -3.32 -0.18 0 0 Z " fill="#6F7070" transform="translate(968,970)"/>
<path d="M0 0 C0.84 -0.01 1.67 -0.02 2.54 -0.03 C3.33 -0.02 4.12 -0.02 4.94 -0.02 C5.65 -0.01 6.36 -0.01 7.09 -0.01 C9 0.25 9 0.25 12 2.25 C10.08 2.34 10.08 2.34 8.12 2.43 C-1.93 2.92 -11.97 3.47 -22 4.25 C-21 2.25 -21 2.25 -19.16 1.62 C-12.76 0.38 -6.5 0.04 0 0 Z " fill="#575B5A" transform="translate(704,588.75)"/>
<path d="M0 0 C7.71 1.48 15.36 3.2 23 5 C23 5.33 23 5.66 23 6 C15.9 6.35 6.81 6.36 1.18 1.39 C0.79 0.93 0.4 0.47 0 0 Z " fill="#565857" transform="translate(338,613)"/>
<path d="M0 0 C0.33 0.99 0.66 1.98 1 3 C-0.22 4.83 -0.22 4.83 -2.06 6.81 C-2.7 7.51 -3.35 8.21 -4.01 8.93 C-6.63 11.66 -9.29 14.35 -12 17 C-12.99 16.67 -13.98 16.34 -15 16 C-14.51 15.59 -14.01 15.18 -13.5 14.76 C-12.86 14.22 -12.22 13.68 -11.56 13.12 C-10.92 12.59 -10.29 12.06 -9.63 11.51 C-7.89 10.08 -7.89 10.08 -7 8 C-6.34 8 -5.68 8 -5 8 C-4.34 6.68 -3.68 5.36 -3 4 C-2.34 4 -1.68 4 -1 4 C-0.67 2.68 -0.34 1.36 0 0 Z " fill="#DA416A" transform="translate(861,792)"/>
<path d="M0 0 C0.99 0 1.98 0 3 0 C3 3.63 3 7.26 3 11 C2.01 11.33 1.02 11.66 0 12 C0 8.04 0 4.08 0 0 Z " fill="#6B6C6C" transform="translate(973,970)"/>
<path d="M0 0 C3.26 0.24 4.73 1.52 6.81 3.88 C7.53 4.91 8.26 5.94 9 7 C8.67 7.99 8.34 8.98 8 10 C7.59 9.51 7.18 9.01 6.76 8.5 C6.22 7.86 5.68 7.22 5.12 6.56 C4.59 5.92 4.06 5.29 3.51 4.63 C2.08 2.89 2.08 2.89 0 2 C0 1.34 0 0.68 0 0 Z " fill="#7D7E7F" transform="translate(821,910)"/>
<path d="M0 0 C5.07 0.65 9.42 2.85 14 5 C14 5.33 14 5.66 14 6 C9.04 5.5 5.3 4.56 1 2 C0.67 1.34 0.34 0.68 0 0 Z " fill="#575858" transform="translate(494,133)"/>
<path d="M0 0 C0.66 0 1.32 0 2 0 C1.94 2.19 1.94 2.19 1 5 C-1.17 6.93 -3.53 8.48 -6 10 C-5 8 -4 6 -3 4 C-2.34 4 -1.68 4 -1 4 C-0.67 2.68 -0.34 1.36 0 0 Z " fill="#D43562" transform="translate(189,380)"/>
<path d="M0 0 C4.57 0.55 8.67 1.42 13 3 C13 3.33 13 3.66 13 4 C7.74 4.32 4.55 3.67 0 1 C0 0.67 0 0.34 0 0 Z " fill="#595A5A" transform="translate(465,124)"/>
<path d="M0 0 C0.33 0.66 0.66 1.32 1 2 C0 4.38 0 4.38 -1.44 7.12 C-1.91 8.04 -2.38 8.95 -2.87 9.88 C-3.24 10.58 -3.62 11.28 -4 12 C-4.66 12 -5.32 12 -6 12 C-4.43 7.69 -2.32 3.94 0 0 Z " fill="#585B5B" transform="translate(646,483)"/>
<path d="M0 0 C9.59 1.74 9.59 1.74 13 5 C7.86 4.56 4.25 4.18 0 1 C0 0.67 0 0.34 0 0 Z " fill="#565757" transform="translate(480,128)"/>
<path d="M0 0 C2.96 2.81 5.44 5.18 7 9 C5.02 9 3.04 9 1 9 C0.67 6.03 0.34 3.06 0 0 Z " fill="#D9325A" transform="translate(305,272)"/>
<path d="M0 0 C0.99 0.5 0.99 0.5 2 1 C2.81 4.38 2.81 4.38 3 8 C2.01 8.99 1.02 9.98 0 11 C0 7.37 0 3.74 0 0 Z " fill="#DC486F" transform="translate(798,720)"/>
<path d="M0 0 C0.66 0.33 1.32 0.66 2 1 C0.73 3.04 -0.61 5.04 -2 7 C-2.66 7 -3.32 7 -4 7 C-4.33 7.99 -4.66 8.98 -5 10 C-5.33 9.34 -5.66 8.68 -6 8 C-2.25 2.25 -2.25 2.25 0 0 Z " fill="#575A5B" transform="translate(656,549)"/>
<path d="M0 0 C0.81 1.62 0.81 1.62 1 4 C-1.31 7.25 -1.31 7.25 -4 10 C-4.66 10 -5.32 10 -6 10 C-4.35 6.42 -2.22 3.25 0 0 Z " fill="#DA3563" transform="translate(210,352)"/>
<path d="M0 0 C1.49 0.99 1.49 0.99 3 2 C3 2.66 3 3.32 3 4 C4.32 4.66 5.64 5.32 7 6 C3.89 6 2.65 5.46 0 4 C0 2.68 0 1.36 0 0 Z " fill="#858786" transform="translate(889,928)"/>
<path d="M0 0 C-0.33 0.99 -0.66 1.98 -1 3 C-3.07 3.95 -3.07 3.95 -5.56 4.69 C-6.39 4.94 -7.22 5.19 -8.07 5.45 C-8.7 5.63 -9.34 5.81 -10 6 C-7.24 3.13 -4.18 0 0 0 Z " fill="#575B5C" transform="translate(549,585)"/>
<path d="M0 0 C0.33 0.66 0.66 1.32 1 2 C1.66 2 2.32 2 3 2 C3 5.63 3 9.26 3 13 C1.26 9.53 0.7 7.92 0.38 4.25 C0.3 3.45 0.23 2.65 0.15 1.83 C0.1 1.22 0.05 0.62 0 0 Z " fill="#808181" transform="translate(716,283)"/>
<path d="M0 0 C2.1 2.1 2.65 3.38 3.62 6.12 C4.02 7.21 4.02 7.21 4.41 8.32 C4.7 9.15 4.7 9.15 5 10 C3.68 9.67 2.36 9.34 1 9 C0.3 5.85 0 3.27 0 0 Z " fill="#D73761" transform="translate(550,316)"/>
<path d="M0 0 C4.45 2.97 4.45 2.97 9 6 C7.68 6.33 6.36 6.66 5 7 C2.25 4.69 2.25 4.69 0 2 C0 1.34 0 0.68 0 0 Z " fill="#DD3862" transform="translate(295,264)"/>
<path d="M0 0 C-0.66 0 -1.32 0 -2 0 C-2 0.66 -2 1.32 -2 2 C-4.31 2.33 -6.62 2.66 -9 3 C-8 1 -8 1 -5.62 -0.19 C-3 -1 -3 -1 0 0 Z " fill="#585B5B" transform="translate(331,133)"/>
</svg>
