<?xml version="1.0" encoding="UTF-8"?>
<!-- Generator: https://ezgif.com/png-to-svg -->
<svg version="1.1" xmlns="http://www.w3.org/2000/svg" width="1024" height="1024">
<path d="M0 0 C1.33 0 1.33 0 2.69 0 C16.11 0.02 29.31 0.46 42.62 2.19 C44.46 2.41 46.29 2.63 48.12 2.85 C82.05 7.06 116.02 15.63 147.11 30.03 C149.24 31.01 151.37 31.95 153.53 32.86 C166.91 38.51 179.93 45.08 192.27 52.75 C196.23 55.17 200.3 57.41 204.35 59.67 C205.1 60.17 205.85 60.67 206.62 61.19 C206.62 61.85 206.62 62.51 206.62 63.19 C207.49 63.44 208.36 63.68 209.25 63.94 C212.84 65.27 215.59 66.87 218.62 69.19 C218.62 69.85 218.62 70.51 218.62 71.19 C219.31 71.41 219.99 71.64 220.69 71.88 C224.32 73.5 227.65 75.52 230.62 78.19 C230.62 78.85 230.62 79.51 230.62 80.19 C231.95 80.52 233.26 80.85 234.62 81.19 C234.62 81.85 234.62 82.51 234.62 83.19 C235.18 83.44 235.74 83.69 236.32 83.95 C240.85 86.38 244.66 89.94 248.62 93.19 C249.28 93.7 249.93 94.22 250.61 94.75 C251.99 95.85 253.31 97.01 254.62 98.19 C254.62 98.85 254.62 99.51 254.62 100.19 C255.2 100.45 255.78 100.71 256.38 100.98 C261.4 103.67 265.71 107.89 269.25 112.31 C271.56 115.29 271.56 115.29 274.62 117.69 C277.81 120.34 280.13 122.89 282.62 126.19 C282.62 126.85 282.62 127.51 282.62 128.19 C283.18 128.39 283.74 128.59 284.31 128.8 C287.53 130.73 289.46 133.48 291.69 136.44 C292.67 137.71 293.65 138.99 294.62 140.27 C295.12 140.92 295.62 141.57 296.13 142.24 C297.55 144.09 298.99 145.92 300.44 147.73 C305.15 153.64 309.73 159.61 314.12 165.75 C314.53 166.32 314.94 166.89 315.37 167.48 C317.6 170.64 319.66 173.85 321.62 177.19 C322.96 179.24 324.29 181.28 325.64 183.32 C326.62 185.19 326.62 185.19 326.62 188.19 C327.28 188.19 327.95 188.19 328.62 188.19 C338.63 205.66 347.13 223.55 354.78 242.17 C355.55 244.01 356.36 245.84 357.16 247.67 C367 271.34 372.82 297.28 376.94 322.5 C377.11 323.51 377.28 324.53 377.46 325.57 C378.86 334.7 378.62 342.64 378.62 352.19 C399.75 352.19 420.87 352.19 442.62 352.19 C443.28 350.87 443.95 349.55 444.62 348.19 C445.28 348.19 445.95 348.19 446.62 348.19 C447.28 346.87 447.95 345.55 448.62 344.19 C449.28 344.19 449.95 344.19 450.62 344.19 C451.28 342.87 451.95 341.55 452.62 340.19 C453.28 340.19 453.95 340.19 454.62 340.19 C455.28 338.87 455.95 337.55 456.62 336.19 C457.28 336.19 457.95 336.19 458.62 336.19 C459.02 335.32 459.02 335.32 459.42 334.43 C462.76 328.19 468.26 323.64 473.62 319.19 C475.17 317.45 476.64 315.67 478.12 313.88 C480.37 311.35 483.03 309.35 485.62 307.19 C486.65 306.04 487.65 304.87 488.62 303.69 C491.33 300.42 494.37 297.9 497.62 295.19 C499.71 292.92 501.68 290.58 503.62 288.19 C507.55 288.88 508.84 290.44 511.28 293.58 C512.77 295.45 512.77 295.45 515.56 297.62 C518.49 300.07 520.71 302.56 523.1 305.5 C524.62 307.18 526.17 308.42 528 309.75 C530.62 312.19 530.62 312.19 531 315.5 C530.81 316.83 530.81 316.83 530.62 318.19 C530.01 318.44 529.39 318.68 528.75 318.94 C526.27 320.39 525.67 321.57 524.62 324.19 C523.97 324.19 523.3 324.19 522.62 324.19 C521.97 325.51 521.3 326.83 520.62 328.19 C519.97 328.19 519.3 328.19 518.62 328.19 C517.97 329.51 517.3 330.83 516.62 332.19 C515.97 332.19 515.3 332.19 514.62 332.19 C513.97 333.51 513.3 334.83 512.62 336.19 C511.97 336.19 511.3 336.19 510.62 336.19 C509.97 337.51 509.3 338.83 508.62 340.19 C507.97 340.19 507.3 340.19 506.62 340.19 C505.97 341.51 505.3 342.83 504.62 344.19 C503.97 344.19 503.3 344.19 502.62 344.19 C501.97 345.51 501.3 346.83 500.62 348.19 C499.97 348.19 499.3 348.19 498.62 348.19 C498.29 349.18 497.97 350.17 497.62 351.19 C501.79 351.42 505.95 351.56 510.12 351.69 C511.3 351.75 512.47 351.82 513.68 351.89 C520.17 352.1 520.17 352.1 526.01 349.65 C528.09 347.6 529.83 345.49 531.62 343.19 C536.95 336.81 542.74 330.95 548.64 325.11 C549.59 324.16 550.54 323.21 551.49 322.27 C554.47 319.3 557.45 316.34 560.44 313.38 C563.44 310.39 566.44 307.41 569.44 304.43 C571.3 302.58 573.16 300.73 575.02 298.88 C575.86 298.04 576.7 297.21 577.56 296.35 C578.3 295.62 579.04 294.88 579.8 294.13 C581.79 292.12 581.79 292.12 583.62 289.19 C590.53 290.48 594.88 296.35 599.16 301.54 C600.77 303.44 600.77 303.44 603.62 305.69 C607.07 308.55 609.81 311.72 612.62 315.19 C611.26 318.25 609.73 320.32 607.32 322.65 C606.68 323.29 606.03 323.92 605.36 324.58 C604.69 325.23 604.01 325.89 603.31 326.56 C597.88 331.82 597.88 331.82 592.86 337.47 C591.04 339.69 589.34 341.46 587.12 343.25 C584.04 345.76 581.49 348.32 578.62 351.19 C598.92 351.68 598.92 351.68 619.62 352.19 C619.62 366.71 619.62 381.23 619.62 396.19 C599.33 396.68 599.33 396.68 578.62 397.19 C582.65 402.13 582.65 402.13 587.12 406.19 C590.39 408.89 592.91 411.93 595.62 415.19 C596.77 416.21 597.94 417.21 599.12 418.19 C602.42 420.92 604.94 423.85 607.62 427.19 C608.41 427.89 609.19 428.59 610 429.31 C610.54 429.93 611.07 430.55 611.62 431.19 C611.26 434.64 609.87 436.29 607.42 438.65 C606.77 439.29 606.12 439.92 605.45 440.58 C604.76 441.23 604.08 441.89 603.38 442.56 C598.85 446.94 594.59 451.3 590.62 456.19 C588.56 458.12 588.56 458.12 586.62 459.19 C584.37 458.88 584.37 458.88 582.62 458.19 C582.62 457.53 582.62 456.87 582.62 456.19 C581.3 455.53 579.99 454.87 578.62 454.19 C578.62 453.53 578.62 452.87 578.62 452.19 C577.3 451.53 575.99 450.87 574.62 450.19 C574.62 449.53 574.62 448.87 574.62 448.19 C573.63 447.86 572.64 447.53 571.62 447.19 C570.12 445.69 570.12 445.69 568.5 443.75 C567.88 443.02 567.27 442.3 566.63 441.55 C565.97 440.77 565.31 439.99 564.62 439.19 C559.51 433.39 554.29 427.7 548.97 422.1 C546.66 419.66 544.37 417.21 542.15 414.69 C530.96 401.69 530.96 401.69 515.44 395.91 C509.1 395.71 502.89 396.19 496.62 397.19 C497.96 398.52 497.96 398.52 499.32 399.88 C523.42 423.98 523.42 423.98 525.1 425.67 C526.4 426.96 527.72 428.22 529.05 429.47 C530.62 431.19 530.62 431.19 530.75 433.62 C529.47 436.54 527.84 437.86 525.35 439.76 C523.48 441.31 522 442.96 520.44 444.81 C515.82 450.25 510.71 455.19 505.62 460.19 C504.3 459.53 502.99 458.87 501.62 458.19 C501.62 457.53 501.62 456.87 501.62 456.19 C500.63 455.86 499.64 455.53 498.62 455.19 C497.43 453.76 496.24 452.32 495.08 450.86 C493.55 449.1 491.93 447.67 490.12 446.19 C486.86 443.49 484.34 440.45 481.62 437.19 C480.48 436.17 479.31 435.17 478.12 434.19 C474.86 431.49 472.34 428.45 469.62 425.19 C468.48 424.17 467.31 423.17 466.12 422.19 C462.86 419.49 460.34 416.45 457.62 413.19 C456.48 412.17 455.31 411.17 454.12 410.19 C450.83 407.46 448.31 404.52 445.62 401.19 C443.39 398.46 442.3 397.31 438.79 396.67 C437.7 396.66 436.61 396.65 435.48 396.64 C434.24 396.62 433 396.6 431.72 396.58 C430.37 396.58 429.02 396.58 427.67 396.58 C426.29 396.56 424.9 396.55 423.52 396.53 C419.88 396.48 416.25 396.46 412.61 396.45 C408.9 396.43 405.18 396.39 401.47 396.35 C394.19 396.27 386.91 396.22 379.62 396.19 C379.63 397.38 379.63 397.38 379.64 398.61 C379.64 399.67 379.64 400.73 379.65 401.82 C379.65 403.39 379.65 403.39 379.66 404.99 C379.6 409.97 379.2 414.91 378.75 419.88 C378.67 420.84 378.59 421.81 378.51 422.81 C378.05 428.06 377.31 433.07 376.08 438.2 C375.46 440.92 375.14 443.66 374.81 446.44 C372.82 460.93 368.84 475.2 364.62 489.19 C364.32 490.23 364.01 491.26 363.7 492.33 C356.9 515.01 347.96 536.5 336.64 557.29 C335.79 558.88 334.98 560.49 334.18 562.11 C331.96 566.51 329.52 570.78 327.06 575.06 C326.57 575.94 326.07 576.82 325.56 577.73 C325.09 578.56 324.61 579.39 324.12 580.24 C323.69 581 323.26 581.76 322.81 582.54 C322.42 583.08 322.03 583.63 321.62 584.19 C320.97 584.19 320.3 584.19 319.62 584.19 C319.38 584.87 319.13 585.55 318.88 586.25 C317.38 589.76 315.56 592.9 313.62 596.19 C312.97 596.19 312.3 596.19 311.62 596.19 C311.4 596.87 311.17 597.55 310.94 598.25 C309.31 601.89 307.3 605.22 304.62 608.19 C303.97 608.19 303.3 608.19 302.62 608.19 C302.29 609.51 301.97 610.83 301.62 612.19 C300.97 612.19 300.3 612.19 299.62 612.19 C299.39 612.89 299.15 613.6 298.91 614.32 C297.4 617.69 295.47 620.16 293.12 623 C291.93 624.46 291.93 624.46 290.72 625.96 C289.68 627.06 289.68 627.06 288.62 628.19 C287.97 628.19 287.3 628.19 286.62 628.19 C285.97 629.51 285.3 630.83 284.62 632.19 C283.97 632.19 283.3 632.19 282.62 632.19 C282.23 633.06 282.23 633.06 281.83 633.94 C279.14 638.96 274.93 643.27 270.5 646.81 C267.52 649.12 267.52 649.12 265.12 652.19 C262.47 655.37 259.92 657.7 256.62 660.19 C255.97 660.19 255.3 660.19 254.62 660.19 C254.42 660.74 254.22 661.3 254.02 661.87 C252.08 665.09 249.33 667.03 246.38 669.25 C245.1 670.22 243.83 671.2 242.56 672.18 C241.91 672.67 241.26 673.17 240.59 673.68 C238.08 675.6 235.61 677.57 233.15 679.53 C224.08 686.73 214.76 693.2 204.85 699.21 C201.89 701.03 198.97 702.91 196.06 704.81 C191.36 707.82 186.52 710.33 181.5 712.77 C174.64 715.84 174.64 715.84 168.62 720.19 C168.52 721.55 168.49 722.91 168.49 724.28 C168.48 725.16 168.48 726.05 168.47 726.96 C168.47 727.95 168.47 728.94 168.47 729.95 C168.46 731.51 168.46 731.51 168.45 733.1 C168.44 736.6 168.43 740.11 168.42 743.62 C168.41 746.12 168.4 748.62 168.39 751.13 C168.37 756.53 168.35 761.93 168.33 767.33 C168.31 775.14 168.28 782.96 168.25 790.77 C168.21 803.44 168.16 816.11 168.12 828.78 C168.08 841.1 168.04 853.41 168 865.72 C167.99 866.86 167.99 866.86 167.99 868.02 C167.98 871.82 167.96 875.63 167.95 879.43 C167.83 911.02 167.73 942.6 167.62 974.19 C168.62 974.18 169.61 974.18 170.64 974.17 C174.32 974.15 177.99 974.14 181.67 974.13 C183.26 974.13 184.86 974.12 186.45 974.11 C188.74 974.1 191.02 974.09 193.31 974.09 C194.03 974.08 194.74 974.08 195.48 974.07 C197.2 974.07 198.91 974.13 200.62 974.19 C208.65 982.22 202.28 996.84 202.62 1008.19 C167.98 1008.19 133.33 1008.19 97.62 1008.19 C97.62 975.19 97.62 975.19 98.62 974.19 C101 974.1 103.35 974.07 105.72 974.09 C107.67 974.09 107.67 974.09 109.65 974.1 C111.31 974.11 112.98 974.12 114.69 974.12 C119.95 974.15 125.21 974.17 130.62 974.19 C130.62 955.05 130.62 935.91 130.62 916.19 C45.49 916.19 -39.65 916.19 -127.38 916.19 C-127.38 935.33 -127.38 954.47 -127.38 974.19 C-117.14 974.19 -106.92 974.19 -96.38 974.19 C-96.05 985.41 -95.71 996.63 -95.38 1008.19 C-129.37 1008.19 -163.36 1008.19 -198.38 1008.19 C-198.38 975.19 -198.38 975.19 -197.38 974.19 C-186.81 974.19 -176.25 974.19 -165.38 974.19 C-165.71 890.37 -166.03 806.55 -166.38 720.19 C-171.88 717.03 -171.88 717.03 -177.46 714.04 C-184.39 710.45 -191.17 706.89 -197.57 702.41 C-200.06 700.72 -202.65 699.45 -205.38 698.19 C-205.38 697.53 -205.38 696.87 -205.38 696.19 C-205.95 696.08 -206.53 695.98 -207.12 695.87 C-209.72 695.08 -211.26 693.94 -213.38 692.25 C-215.95 690.2 -218.39 688.57 -221.38 687.19 C-221.38 686.53 -221.38 685.87 -221.38 685.19 C-222.06 684.96 -222.74 684.73 -223.44 684.5 C-227.07 682.88 -230.4 680.86 -233.38 678.19 C-233.38 677.53 -233.38 676.87 -233.38 676.19 C-233.95 675.92 -234.52 675.65 -235.11 675.38 C-237.45 674.15 -239.5 672.76 -241.62 671.19 C-242.33 670.67 -243.04 670.16 -243.77 669.62 C-244.56 668.91 -244.56 668.91 -245.38 668.19 C-245.38 667.53 -245.38 666.87 -245.38 666.19 C-245.92 665.96 -246.46 665.74 -247.02 665.51 C-250.12 663.77 -252.56 661.48 -255.12 659.06 C-255.68 658.54 -256.24 658.02 -256.82 657.48 C-266.96 647.93 -277.09 638.33 -285.68 627.32 C-287.3 625.19 -287.3 625.19 -289.11 623.52 C-290.38 622.19 -290.38 622.19 -290.38 620.19 C-291.37 619.86 -292.36 619.53 -293.38 619.19 C-293.38 618.2 -293.38 617.21 -293.38 616.19 C-293.93 615.99 -294.49 615.8 -295.07 615.6 C-298.35 613.59 -300.13 610.68 -302.25 607.56 C-303.13 606.29 -304.02 605.02 -304.9 603.75 C-305.33 603.13 -305.75 602.52 -306.19 601.89 C-308.08 599.17 -310.1 596.55 -312.12 593.93 C-313.68 591.76 -315.01 589.49 -316.38 587.19 C-317.39 585.6 -318.41 584.02 -319.44 582.44 C-327.21 570.2 -334.22 557.87 -340.28 544.69 C-342.1 540.73 -344.06 536.87 -346.06 533 C-351.67 521.88 -355.57 510.02 -359.38 498.19 C-359.72 497.15 -359.72 497.15 -360.06 496.08 C-363.61 485.22 -366.9 474.35 -369.38 463.19 C-369.54 462.46 -369.7 461.73 -369.87 460.98 C-371.22 454.75 -372.33 448.48 -373.38 442.19 C-373.56 441.13 -373.75 440.08 -373.94 438.99 C-381 397.63 -380.05 353.38 -372.38 312.19 C-372.03 310.17 -371.68 308.16 -371.33 306.14 C-369.37 295.31 -366.52 284.73 -363.38 274.19 C-363.02 273 -362.67 271.82 -362.31 270.6 C-361.35 267.45 -360.37 264.32 -359.38 261.19 C-359.06 260.18 -358.74 259.18 -358.41 258.14 C-356.4 251.93 -354.09 245.92 -351.52 239.91 C-350.61 237.74 -349.78 235.59 -349 233.38 C-342.5 215.82 -332.73 199.34 -323.38 183.19 C-322.04 180.86 -320.71 178.52 -319.38 176.19 C-318.72 176.19 -318.06 176.19 -317.38 176.19 C-317.26 175.62 -317.15 175.04 -317.03 174.45 C-316.31 171.97 -315.3 170.12 -313.94 167.94 C-313.51 167.23 -313.07 166.52 -312.63 165.8 C-312.01 165 -312.01 165 -311.38 164.19 C-310.72 164.19 -310.06 164.19 -309.38 164.19 C-309.3 163.66 -309.23 163.13 -309.15 162.58 C-308.06 159.23 -306.05 156.7 -303.94 153.94 C-303.53 153.38 -303.12 152.83 -302.7 152.26 C-301.65 150.86 -300.52 149.52 -299.38 148.19 C-298.72 148.19 -298.06 148.19 -297.38 148.19 C-297.05 146.87 -296.72 145.55 -296.38 144.19 C-295.72 144.19 -295.06 144.19 -294.38 144.19 C-294.14 143.64 -293.9 143.09 -293.65 142.53 C-292.07 139.63 -290.12 137.28 -288 134.75 C-284.54 130.59 -284.54 130.59 -281.21 126.34 C-280.61 125.63 -280 124.92 -279.38 124.19 C-278.72 124.19 -278.06 124.19 -277.38 124.19 C-276.38 122.21 -276.38 122.21 -275.38 120.19 C-274.72 120.19 -274.06 120.19 -273.38 120.19 C-272.38 118.21 -272.38 118.21 -271.38 116.19 C-270.72 116.19 -270.06 116.19 -269.38 116.19 C-268.38 114.21 -268.38 114.21 -267.38 112.19 C-266.72 112.19 -266.06 112.19 -265.38 112.19 C-264.38 110.21 -264.38 110.21 -263.38 108.19 C-262.72 108.19 -262.06 108.19 -261.38 108.19 C-260.38 106.21 -260.38 106.21 -259.38 104.19 C-258.72 104.19 -258.06 104.19 -257.38 104.19 C-257.14 103.61 -256.91 103.04 -256.68 102.44 C-255.04 99.61 -253.14 98.14 -250.56 96.12 C-249.57 95.34 -248.58 94.55 -247.56 93.74 C-247.04 93.32 -246.51 92.91 -245.97 92.48 C-243.85 90.76 -241.78 88.97 -239.72 87.19 C-232.25 80.74 -224.4 74.92 -216.38 69.19 C-215.74 68.73 -215.11 68.28 -214.46 67.81 C-211.17 65.45 -207.87 63.23 -204.38 61.19 C-203.72 60.76 -203.07 60.33 -202.39 59.89 C-201.33 59.2 -201.33 59.2 -200.25 58.5 C-199.59 58.06 -198.92 57.63 -198.24 57.18 C-196.38 56.19 -196.38 56.19 -193.38 56.19 C-193.38 55.53 -193.38 54.87 -193.38 54.19 C-192.91 53.93 -192.45 53.67 -191.97 53.41 C-191.28 53.03 -190.59 52.64 -189.88 52.25 C-189.05 51.79 -188.22 51.33 -187.36 50.86 C-185.2 49.65 -183.06 48.42 -180.92 47.17 C-171.14 41.48 -161.1 36.73 -150.73 32.22 C-148.61 31.29 -146.5 30.33 -144.39 29.35 C-132.73 23.97 -120.59 20.1 -108.38 16.19 C-107.1 15.77 -105.82 15.35 -104.55 14.93 C-95.94 12.18 -87.2 10.11 -78.38 8.19 C-76.62 7.8 -76.62 7.8 -74.82 7.41 C-65.49 5.52 -56.07 4.29 -46.62 3.06 C-45.96 2.98 -45.3 2.89 -44.61 2.8 C-29.67 0.87 -15.06 -0.02 0 0 Z M-19.43 39.21 C-66.21 39.75 -114.4 56.03 -155.57 77.26 C-158.5 78.76 -161.44 80.22 -164.38 81.69 C-165.34 82.17 -166.31 82.66 -167.31 83.16 C-167.99 83.5 -168.67 83.84 -169.38 84.19 C-169.38 84.85 -169.38 85.51 -169.38 86.19 C-170.32 86.5 -171.27 86.81 -172.25 87.12 C-175.24 88.06 -175.24 88.06 -177.38 89.19 C-177.38 89.85 -177.38 90.51 -177.38 91.19 C-178.03 91.41 -178.69 91.64 -179.38 91.88 C-186.51 95 -192.65 99.78 -198.86 104.42 C-201 105.92 -203.05 107.03 -205.38 108.19 C-206.14 108.95 -206.9 109.71 -207.69 110.5 C-209.83 112.65 -211.71 114.19 -214.19 115.88 C-215.24 116.64 -216.29 117.4 -217.38 118.19 C-217.38 118.85 -217.38 119.51 -217.38 120.19 C-217.93 120.43 -218.49 120.67 -219.07 120.92 C-221.86 122.45 -223.92 124.34 -226.25 126.5 C-228.99 129.02 -231.71 131.5 -234.62 133.81 C-237.38 136.19 -239.56 138.7 -241.87 141.5 C-243.38 143.19 -243.38 143.19 -246.44 145.69 C-249.31 148.14 -251.08 150.42 -253.17 153.51 C-254.96 156 -257.21 158.02 -259.38 160.19 C-264.77 165.59 -264.77 165.59 -267.38 172.19 C-268.03 172.19 -268.69 172.19 -269.38 172.19 C-269.48 172.83 -269.58 173.47 -269.69 174.12 C-269.91 174.81 -270.14 175.49 -270.38 176.19 C-271.37 176.52 -272.36 176.85 -273.38 177.19 C-274.99 179.47 -274.99 179.47 -276.44 182.19 C-279.17 187.09 -279.17 187.09 -281.38 188.19 C-282.35 189.82 -283.25 191.5 -284.12 193.19 C-286.02 196.75 -287.96 200.17 -290.25 203.5 C-311.77 235.11 -325.94 273.89 -333.38 311.19 C-333.54 312.03 -333.71 312.87 -333.89 313.73 C-343.96 364.52 -342.16 419.53 -327.91 469.31 C-327.17 471.9 -326.5 474.51 -325.81 477.12 C-320.68 495.58 -313.19 513.3 -304.36 530.27 C-303.34 532.26 -302.35 534.26 -301.38 536.27 C-295.91 547.51 -289.75 558.07 -282.38 568.19 C-281.67 569.37 -281.67 569.37 -280.95 570.57 C-275.83 579.07 -269.41 586.72 -263.12 594.35 C-259.88 598.3 -256.77 602.3 -253.78 606.44 C-251.63 609.12 -249.06 611.05 -246.38 613.19 C-245.38 614.67 -245.38 614.67 -244.38 616.19 C-243.72 616.19 -243.06 616.19 -242.38 616.19 C-242.12 616.77 -241.87 617.35 -241.61 617.94 C-238.77 623.11 -233.71 627.16 -229.19 630.88 C-226.37 633.19 -226.37 633.19 -224.2 635.41 C-220.75 638.8 -217.11 641.87 -213.38 644.94 C-212.25 645.86 -212.25 645.86 -211.1 646.81 C-204.75 651.98 -198.18 656.63 -191.38 661.19 C-189.66 662.41 -187.96 663.64 -186.25 664.88 C-181.98 667.88 -177.54 670.4 -172.92 672.83 C-170.35 674.2 -167.87 675.67 -165.38 677.19 C-156.96 682.19 -148.76 687.04 -139.53 690.36 C-137.16 691.27 -134.91 692.34 -132.62 693.44 C-114.27 701.89 -94.05 707.71 -74.38 712.19 C-73.64 712.36 -72.9 712.53 -72.14 712.7 C-57.68 715.96 -43.12 717.74 -28.38 719.19 C-27.66 719.26 -26.94 719.33 -26.19 719.41 C-21.92 719.83 -17.66 720.05 -13.38 720.19 C-12.52 720.22 -11.67 720.25 -10.79 720.29 C4.59 720.8 19.7 719.85 35 718.38 C36.32 718.25 36.32 718.25 37.66 718.12 C46.92 717.24 55.93 716.17 64.95 713.86 C67.6 713.19 70.24 712.7 72.94 712.25 C101.74 707.09 129.31 695.82 155.69 683.44 C156.7 682.96 156.7 682.96 157.73 682.48 C159.36 681.72 160.99 680.95 162.62 680.19 C162.62 679.53 162.62 678.87 162.62 678.19 C163.59 677.98 164.56 677.77 165.56 677.56 C169.61 676.4 172.62 674.35 176.05 671.95 C178.97 669.95 181.97 668.14 185 666.31 C190.31 663.08 195.33 659.59 200.29 655.85 C202.35 654.38 204.36 653.31 206.62 652.19 C207.74 651.04 208.84 649.9 209.94 648.74 C212.19 646.67 214.63 644.96 217.12 643.19 C221 640.42 224.34 637.64 227.62 634.19 C229.12 632.85 230.62 631.51 232.12 630.19 C240.84 622.38 249.09 614.14 256.62 605.19 C257.28 604.86 257.95 604.53 258.62 604.19 C258.96 603.2 259.28 602.21 259.62 601.19 C260.75 600.07 261.87 598.95 263.02 597.85 C269.45 591.76 269.45 591.76 272.62 584.19 C273.28 584.19 273.95 584.19 274.62 584.19 C274.96 582.87 275.28 581.55 275.62 580.19 C276.28 580.19 276.95 580.19 277.62 580.19 C279.24 578.02 279.24 578.02 280.88 575.25 C283.09 571.66 285.32 568.11 287.69 564.62 C293.67 556.92 293.67 556.92 296.62 548.19 C297.28 548.19 297.95 548.19 298.62 548.19 C298.86 547.68 299.1 547.17 299.34 546.65 C307.16 529.87 307.16 529.87 311.31 522.5 C316.43 513.2 319.73 503.12 322.98 493.04 C323.58 491.31 324.32 489.62 325.06 487.94 C329.62 477.56 332.09 466.2 334.62 455.19 C334.88 454.08 334.88 454.08 335.14 452.96 C337.53 442.44 339.16 431.9 340.38 421.19 C340.5 420.08 340.63 418.97 340.76 417.83 C340.88 416.75 340.99 415.67 341.11 414.56 C341.21 413.62 341.31 412.68 341.41 411.71 C341.72 406.55 341.62 401.36 341.62 396.19 C322.15 396.19 302.68 396.19 282.62 396.19 C279.98 412.42 279.98 412.42 277.62 428.69 C275.72 442.22 271.87 455.23 267.62 468.19 C267.28 469.27 266.94 470.35 266.59 471.47 C264.71 477.35 262.51 482.94 259.87 488.52 C258.94 490.51 258.06 492.52 257.2 494.54 C248.78 514.01 238 532.55 224.92 549.23 C223.15 551.52 221.45 553.81 219.81 556.19 C217.62 559.19 215.26 561.57 212.62 564.19 C210.87 566.1 209.12 568.01 207.38 569.94 C194.2 584.4 194.2 584.4 190.62 586.19 C190.62 586.85 190.62 587.51 190.62 588.19 C190.07 588.41 189.51 588.64 188.94 588.88 C186.41 590.17 186.41 590.17 184.06 592.75 C181.62 595.19 181.62 595.19 178.62 596.19 C177.9 596.91 177.18 597.63 176.44 598.38 C172.4 602.41 168.09 606.37 162.62 608.19 C162.62 608.85 162.62 609.51 162.62 610.19 C161.94 610.43 161.26 610.68 160.56 610.94 C157.06 612.43 153.91 614.26 150.62 616.19 C150.62 616.85 150.62 617.51 150.62 618.19 C149.73 618.45 148.84 618.72 147.91 619 C144.8 620.12 142.68 621.35 140 623.25 C131.76 628.65 122.65 632.3 113.62 636.19 C112.52 636.67 111.41 637.16 110.27 637.66 C87.33 647.51 63.82 653.28 39.26 657.32 C38.39 657.46 37.52 657.61 36.63 657.75 C29.2 658.83 21.91 659.37 14.41 659.46 C13.44 659.47 12.48 659.49 11.49 659.5 C-18.4 659.81 -46.63 657.99 -75.38 649.19 C-76.58 648.84 -77.78 648.49 -79.02 648.12 C-103.71 640.77 -127.3 630.11 -149.14 616.46 C-151.24 615.02 -151.24 615.02 -153.38 615.19 C-153.38 614.53 -153.38 613.87 -153.38 613.19 C-155.38 611.74 -155.38 611.74 -158 610.25 C-163.57 606.83 -168.63 602.96 -173.69 598.83 C-176.25 596.77 -178.23 595.24 -181.38 594.19 C-181.38 593.53 -181.38 592.87 -181.38 592.19 C-183.68 589.56 -185.01 588.31 -188.38 587.19 C-189.77 585.73 -189.77 585.73 -191.19 583.94 C-193.17 581.53 -194.95 579.71 -197.38 577.69 C-200.37 575.19 -202.66 572.59 -205.08 569.54 C-205.51 569.1 -205.93 568.65 -206.38 568.19 C-207.03 568.19 -207.69 568.19 -208.38 568.19 C-208.44 567.63 -208.5 567.07 -208.56 566.5 C-209.71 563.23 -211.92 561.61 -214.38 559.19 C-216.17 557.19 -217.9 555.13 -219.62 553.06 C-220.07 552.54 -220.52 552.01 -220.98 551.47 C-223.01 549.04 -224.36 547.22 -225.38 544.19 C-226.35 543.17 -227.35 542.17 -228.38 541.19 C-230.02 538.85 -231.62 536.51 -233.19 534.12 C-233.63 533.45 -234.08 532.77 -234.54 532.07 C-235.83 530.11 -237.1 528.15 -238.38 526.19 C-238.93 525.35 -239.48 524.51 -240.05 523.64 C-262.21 488.46 -274.78 445.36 -278.38 404.19 C-278.49 402.95 -278.6 401.71 -278.71 400.44 C-279.96 384.61 -279.55 369.1 -278.06 353.31 C-277.94 352.03 -277.83 350.75 -277.71 349.43 C-276.95 341.9 -275.75 334.62 -274.06 327.25 C-273.43 324.42 -272.91 321.61 -272.44 318.75 C-268.55 297.31 -260.55 275.46 -250.38 256.19 C-249.79 255.06 -249.2 253.94 -248.59 252.79 C-240.79 237.96 -232.25 223.94 -222.31 210.44 C-221.71 209.61 -221.11 208.79 -220.5 207.94 C-217.37 203.69 -214.21 199.84 -210.38 196.19 C-209.03 194.7 -207.7 193.2 -206.38 191.69 C-201.07 185.75 -195.45 180.15 -189.77 174.57 C-188.55 173.36 -187.36 172.12 -186.18 170.87 C-184.38 169.19 -184.38 169.19 -181.38 168.19 C-179.68 166.55 -178.02 164.88 -176.38 163.19 C-174.37 161.39 -172.32 159.66 -170.25 157.94 C-169.73 157.49 -169.2 157.05 -168.66 156.59 C-166.23 154.56 -164.41 153.2 -161.38 152.19 C-161.38 151.53 -161.38 150.87 -161.38 150.19 C-160.69 149.94 -160.01 149.69 -159.31 149.44 C-155.81 147.95 -152.66 146.12 -149.38 144.19 C-149.38 143.53 -149.38 142.87 -149.38 142.19 C-148.55 141.96 -147.72 141.73 -146.88 141.5 C-144.08 140.45 -142.17 139.51 -139.72 137.91 C-127.63 130.23 -114.76 124.21 -101.38 119.19 C-99.77 118.52 -98.17 117.86 -96.56 117.19 C-80.14 110.65 -63.3 106.16 -45.94 103 C-45.05 102.83 -44.15 102.67 -43.23 102.49 C-28.95 100.01 -14.39 100 0.06 100.06 C0.83 100.07 1.59 100.07 2.38 100.07 C7.46 100.09 12.54 100.13 17.62 100.19 C18.59 100.19 19.55 100.2 20.54 100.21 C40.91 100.45 61.22 105.28 80.62 111.19 C82.04 111.59 82.04 111.59 83.48 111.99 C90.37 113.94 96.98 116.56 103.62 119.19 C104.98 119.7 104.98 119.7 106.36 120.22 C111.35 122.14 115.93 124.38 120.56 127.04 C122.83 128.3 125.18 129.28 127.58 130.27 C142.31 136.89 156.17 145.92 168.76 155.96 C171.63 158.19 174.6 160.18 177.62 162.19 C178.62 163.19 179.62 164.19 180.62 165.19 C181.28 165.19 181.95 165.19 182.62 165.19 C182.96 166.18 183.28 167.17 183.62 168.19 C185.38 170.04 185.38 170.04 187.5 171.81 C188.2 172.42 188.9 173.03 189.62 173.66 C191.65 175.37 191.65 175.37 194.62 176.19 C194.96 177.18 195.28 178.17 195.62 179.19 C197.19 180.74 197.19 180.74 199.06 182.19 C201.51 184.15 202.84 185.51 204.62 188.19 C205.28 188.19 205.95 188.19 206.62 188.19 C206.88 188.76 207.14 189.33 207.41 189.92 C208.74 192.4 210.28 194.32 212.12 196.44 C212.73 197.14 213.34 197.85 213.97 198.58 C215.48 200.42 215.48 200.42 217.62 200.19 C217.75 201.05 217.75 201.05 217.88 201.94 C218.84 204.83 220.45 206.05 222.62 208.19 C223.88 209.69 225.11 211.21 226.31 212.75 C226.91 213.51 227.52 214.28 228.14 215.07 C229.62 217.19 229.62 217.19 230.62 220.19 C231.27 220.82 231.27 220.82 231.92 221.47 C234.34 223.9 236.05 226.74 237.88 229.62 C238.23 230.18 238.59 230.73 238.96 231.3 C245.34 241.3 250.92 251.51 255.81 262.31 C256.32 263.41 256.83 264.52 257.35 265.65 C261.33 274.36 265.14 283.04 267.78 292.25 C268.43 294.5 269.1 296.73 269.78 298.96 C275.15 316.56 278.12 333.79 280.62 352.19 C300.75 352.19 320.88 352.19 341.62 352.19 C339.54 326.69 339.54 326.69 335.62 312.19 C335.34 310.5 335.05 308.81 334.75 307.06 C332.15 292.08 327.01 277.43 321.74 263.21 C320.92 260.98 320.11 258.75 319.32 256.5 C312.73 238.1 302.98 221.29 293.62 204.19 C292.97 204.19 292.3 204.19 291.62 204.19 C291.4 203.53 291.17 202.87 290.94 202.19 C287.81 195.05 283.04 188.92 278.39 182.7 C276.63 180.19 276.63 180.19 275.64 178.11 C274.35 175.66 272.6 174.13 270.62 172.19 C269.04 170.16 267.47 168.13 265.94 166.06 C258.38 155.95 249.6 146.98 240.69 138.06 C239.3 136.66 239.3 136.66 237.88 135.22 C232.75 130.08 227.51 125.35 221.77 120.9 C219.19 118.84 216.93 116.54 214.62 114.19 C210.72 111.06 206.67 108.13 202.62 105.19 C201.66 104.48 200.69 103.78 199.69 103.05 C195.53 99.6 195.53 99.6 190.62 98.19 C190.62 97.53 190.62 96.87 190.62 96.19 C189.94 95.82 189.25 95.46 188.54 95.09 C183.94 92.63 179.47 90.16 175.19 87.19 C171 84.33 166.63 82.11 162.07 79.89 C157.27 77.52 152.56 74.98 147.85 72.43 C139.24 67.82 130.28 64.18 121.19 60.62 C120.21 60.24 119.24 59.85 118.24 59.46 C112.11 57.05 105.96 55 99.62 53.19 C98.27 52.77 96.92 52.36 95.56 51.94 C81.09 47.53 66.57 44.39 51.62 42 C50.61 41.83 49.59 41.67 48.54 41.49 C33.19 39.15 17.68 39 2.19 39.06 C1.38 39.07 0.57 39.07 -0.27 39.07 C-4.99 39.09 -9.7 39.12 -14.42 39.17 C-16.09 39.18 -17.76 39.2 -19.43 39.21 Z M-31.88 138.56 C-32.85 138.68 -33.83 138.79 -34.84 138.91 C-40.65 139.65 -46.15 140.83 -51.78 142.46 C-54.13 143.12 -56.47 143.66 -58.86 144.16 C-64.22 145.32 -69.41 146.96 -74.62 148.62 C-75.59 148.92 -76.56 149.22 -77.55 149.53 C-82.19 151.01 -86.31 152.45 -90.38 155.19 C-93.33 156.5 -96.31 157.75 -99.3 158.98 C-113.82 165.21 -127.22 173.42 -140.07 182.55 C-141.55 183.6 -143.05 184.65 -144.55 185.67 C-146.2 186.79 -147.79 187.98 -149.38 189.19 C-149.38 189.85 -149.38 190.51 -149.38 191.19 C-150.21 191.28 -150.21 191.28 -151.06 191.38 C-154.33 192.52 -155.96 194.71 -158.38 197.19 C-160.28 198.95 -162.2 200.7 -164.12 202.44 C-176.73 213.95 -187.28 226.41 -197.38 240.19 C-198.25 241.37 -198.25 241.37 -199.14 242.57 C-208.49 255.48 -216.58 269.71 -222.35 284.57 C-223.45 287.38 -224.63 290.16 -225.81 292.94 C-230.53 304.29 -234.43 315.66 -236.87 327.72 C-237.21 329.39 -237.57 331.07 -237.94 332.74 C-251.04 393.9 -236.45 458.24 -203.46 510.45 C-202.59 511.85 -201.75 513.27 -200.92 514.69 C-192.35 528.52 -181.22 540.39 -169.81 551.88 C-169.1 552.59 -168.4 553.3 -167.67 554.04 C-159.45 562.22 -150.74 569.35 -141.38 576.19 C-140.53 576.81 -139.68 577.43 -138.8 578.07 C-128.8 586.13 -128.8 586.13 -117.38 590.19 C-117.38 590.85 -117.38 591.51 -117.38 592.19 C-106.93 597.66 -96.49 602.26 -85.38 606.19 C-83.31 606.94 -81.25 607.69 -79.19 608.44 C-78.37 608.73 -77.55 609.03 -76.71 609.33 C-75.08 609.93 -73.47 610.56 -71.88 611.21 C-67.18 613.04 -62.28 614.07 -57.38 615.19 C-56.5 615.39 -55.62 615.59 -54.71 615.8 C-51.67 616.48 -48.62 617.15 -45.56 617.81 C-44.59 618.03 -43.62 618.25 -42.62 618.47 C-29.16 621.34 -15.53 621.35 -1.83 621.32 C0.62 621.31 3.08 621.32 5.53 621.32 C19.02 621.33 32.16 621.01 45.36 617.94 C48.26 617.27 51.13 616.73 54.06 616.25 C65.71 614.16 76.69 610.65 87.62 606.19 C88.91 605.69 90.19 605.19 91.48 604.7 C106.23 598.93 121.25 592.1 133.88 582.43 C135.62 581.19 135.62 581.19 138.62 580.19 C138.62 579.53 138.62 578.87 138.62 578.19 C139.33 577.94 140.04 577.69 140.76 577.44 C143.99 576.03 146.59 574.26 149.44 572.19 C150.41 571.49 151.39 570.79 152.39 570.06 C153.5 569.13 153.5 569.13 154.62 568.19 C154.62 567.53 154.62 566.87 154.62 566.19 C155.16 565.96 155.69 565.73 156.23 565.5 C159.41 563.75 162.1 561.51 164.88 559.19 C165.43 558.74 165.98 558.29 166.55 557.82 C167.95 556.66 169.29 555.43 170.62 554.19 C170.62 553.53 170.62 552.87 170.62 552.19 C171.94 551.53 173.26 550.87 174.62 550.19 C174.62 549.53 174.62 548.87 174.62 548.19 C175.51 547.8 175.51 547.8 176.42 547.41 C178.83 546.07 180.16 544.73 181.94 542.62 C182.83 541.57 182.83 541.57 183.75 540.49 C186.29 537.37 188.73 534.19 191.14 530.97 C192.62 529.19 192.62 529.19 194.62 528.19 C195.65 526.54 196.65 524.87 197.62 523.19 C199.05 521.12 200.49 519.05 201.94 517 C205.19 512.34 208.28 507.64 211.14 502.72 C212.07 501.13 213.03 499.55 214.01 497.99 C218.17 491.32 221.42 484.41 224.5 477.19 C224.89 476.28 224.89 476.28 225.28 475.36 C236.31 449.42 242.21 424.46 243.62 396.19 C224.82 396.19 206 396.19 186.62 396.19 C185.06 403.13 185.06 403.13 183.73 410.1 C179.3 435.1 170.64 457.39 157.62 479.19 C157.13 480.02 156.64 480.85 156.13 481.7 C152.88 487.06 152.88 487.06 150.62 488.19 C150.3 489.18 149.96 490.17 149.62 491.19 C148.65 492.21 147.64 493.21 146.62 494.19 C145.28 495.85 143.95 497.51 142.62 499.19 C135.96 507.37 128.79 515.12 119.99 521.07 C119.54 521.44 119.09 521.81 118.62 522.19 C118.62 522.85 118.62 523.51 118.62 524.19 C117.99 524.31 117.35 524.43 116.69 524.56 C115.67 524.87 115.67 524.87 114.62 525.19 C114.3 525.85 113.96 526.51 113.62 527.19 C112.63 527.52 111.64 527.85 110.62 528.19 C110.16 528.65 109.7 529.11 109.23 529.58 C107.31 531.5 105.33 532.59 102.94 533.88 C102.13 534.31 101.32 534.75 100.49 535.2 C99.87 535.53 99.26 535.85 98.62 536.19 C98.62 536.85 98.62 537.51 98.62 538.19 C97.78 538.43 96.93 538.68 96.06 538.94 C91.45 540.62 87.48 543 83.36 545.64 C80.18 547.44 76.92 548.75 73.5 550 C72.8 550.26 72.11 550.51 71.39 550.77 C69.14 551.59 66.88 552.39 64.62 553.19 C63.89 553.45 63.15 553.71 62.4 553.98 C29.9 565.42 -9.89 568.53 -43.38 559.19 C-44.82 558.78 -44.82 558.78 -46.29 558.37 C-79.71 548.7 -111.7 530.97 -134.38 504.19 C-136.52 501.79 -136.52 501.79 -138.38 500.19 C-139.03 500.19 -139.69 500.19 -140.38 500.19 C-140.44 499.63 -140.5 499.07 -140.56 498.5 C-141.26 495.96 -141.26 495.96 -143.68 493.9 C-146.34 491.23 -148.27 488.6 -150.31 485.44 C-153.07 481.17 -153.07 481.17 -155.94 476.97 C-182.05 439.98 -187.52 389.83 -180.31 346.2 C-176.27 323.58 -167.92 300.98 -154.7 282.12 C-153.73 280.7 -152.81 279.25 -151.93 277.77 C-150.32 275.09 -148.6 272.51 -146.81 269.94 C-146.21 269.07 -145.61 268.19 -145 267.3 C-143.37 265.19 -143.37 265.19 -141.38 264.19 C-140.88 262.7 -140.88 262.7 -140.38 261.19 C-138.22 258.91 -135.98 256.76 -133.71 254.6 C-132.23 253.16 -130.8 251.68 -129.38 250.19 C-129.38 249.53 -129.38 248.87 -129.38 248.19 C-128.82 247.95 -128.27 247.72 -127.7 247.47 C-124.81 245.87 -122.66 243.87 -120.25 241.62 C-115.57 237.28 -115.57 237.28 -113.38 236.19 C-113.38 235.53 -113.38 234.87 -113.38 234.19 C-112.3 233.81 -112.3 233.81 -111.21 233.43 C-108.1 232.07 -105.75 230.38 -103.06 228.31 C-98.65 225.02 -94.38 222.46 -89.38 220.19 C-89.38 219.53 -89.38 218.87 -89.38 218.19 C-87.83 217.79 -87.83 217.79 -86.25 217.38 C-82.69 216.37 -79.68 214.86 -76.44 213.06 C-70.11 209.76 -63.57 207.3 -56.81 205 C-55.9 204.68 -54.99 204.36 -54.05 204.03 C-35.95 198.04 -18.01 196.47 0.94 196.62 C2.01 196.63 3.08 196.63 4.19 196.63 C19.84 196.7 34.6 197.43 49.62 202.19 C50.82 202.53 52.01 202.88 53.24 203.23 C56.09 204.12 58.85 205.11 61.62 206.19 C62.65 206.55 63.67 206.92 64.73 207.3 C72.06 209.99 78.92 213.23 85.82 216.83 C88.41 218.33 88.41 218.33 90.62 218.19 C90.62 218.85 90.62 219.51 90.62 220.19 C91.23 220.47 91.84 220.75 92.46 221.04 C99.77 224.53 107.02 228.5 112.73 234.34 C114.58 236.42 114.58 236.42 117.62 237.19 C119.29 238.85 120.96 240.52 122.62 242.19 C124.79 243.48 124.79 243.48 126.62 244.19 C126.62 244.85 126.62 245.51 126.62 246.19 C128.04 247.58 128.04 247.58 129.94 249.06 C139.94 257.62 149.69 268.33 155.62 280.19 C156.29 280.19 156.94 280.19 157.62 280.19 C157.89 280.87 158.16 281.55 158.44 282.25 C159.79 285.58 161.2 288.88 162.62 292.19 C163.29 292.19 163.94 292.19 164.62 292.19 C165.03 293.77 165.03 293.77 165.44 295.38 C166.51 298.83 167.73 301.16 169.62 304.19 C170.69 306.51 171.68 308.82 172.62 311.19 C173.01 312.13 173.39 313.07 173.79 314.04 C178.77 326.57 181.79 338.97 184.62 352.19 C203.76 352.19 222.9 352.19 242.62 352.19 C242 345.3 241.38 339.06 239.81 332.44 C239.55 331.29 239.55 331.29 239.28 330.12 C229.86 289.63 212.02 254.49 185.54 222.53 C184.3 221.02 183.12 219.47 182 217.88 C181.54 217.32 181.09 216.76 180.62 216.19 C179.96 216.19 179.31 216.19 178.62 216.19 C178.4 215.64 178.18 215.1 177.96 214.54 C176.19 211.42 173.84 209.06 171.31 206.56 C170.79 206.04 170.27 205.52 169.73 204.98 C165.35 200.7 160.67 196.93 155.73 193.31 C151.71 190.36 151.71 190.36 150.62 188.19 C149.63 187.86 148.64 187.53 147.62 187.19 C146.62 186.19 145.62 185.19 144.62 184.19 C140.37 181.07 136 178.13 131.62 175.19 C130.7 174.56 129.77 173.93 128.82 173.29 C121.72 168.63 114.27 164.84 106.62 161.19 C105.59 160.68 104.55 160.18 103.48 159.66 C60.7 139.35 14.99 133 -31.88 138.56 Z M-18.24 234.9 C-20.12 235.15 -22.01 235.38 -23.9 235.59 C-35.85 237.13 -47.59 240.85 -58.38 246.19 C-59.43 246.69 -60.48 247.19 -61.57 247.71 C-75.71 253.63 -75.71 253.63 -86.38 263.19 C-87.37 263.52 -88.36 263.85 -89.38 264.19 C-91.07 265.82 -92.73 267.49 -94.38 269.19 C-96.29 270.9 -98.2 272.61 -100.12 274.31 C-108.87 282.22 -115.84 291.4 -122.38 301.19 C-123.27 302.52 -123.27 302.52 -124.19 303.87 C-130.46 313.4 -134.54 323.27 -138.26 334.02 C-138.91 335.88 -139.6 337.72 -140.39 339.52 C-151.53 369.6 -146.83 408.02 -134.44 436.81 C-133.76 438.27 -133.07 439.73 -132.38 441.19 C-132.04 441.92 -131.71 442.65 -131.36 443.4 C-128.68 449.06 -125.52 454.41 -122.25 459.75 C-121.82 460.47 -121.39 461.18 -120.94 461.92 C-118.51 466.05 -118.51 466.05 -114.38 468.19 C-114.25 468.76 -114.13 469.34 -114 469.94 C-113.25 472.63 -111.88 473.8 -109.9 475.7 C-108.24 477.32 -106.64 478.97 -105.03 480.64 C-94.42 491.53 -83.4 500.28 -70.38 508.19 C-69.72 508.59 -69.06 508.99 -68.38 509.4 C-64.51 511.68 -60.54 513.53 -56.38 515.19 C-55.46 515.57 -54.55 515.95 -53.61 516.34 C-20.03 529.92 21.03 530.85 54.61 516.79 C57.3 515.63 59.96 514.4 62.62 513.19 C63.43 512.88 64.24 512.57 65.07 512.26 C68.41 510.86 71.5 509.07 74.62 507.25 C75.23 506.9 75.83 506.56 76.45 506.2 C78.18 505.2 79.9 504.19 81.62 503.19 C82.51 502.69 83.4 502.19 84.31 501.68 C86.78 500.09 88.58 498.29 90.62 496.19 C92.15 494.96 93.69 493.75 95.25 492.56 C100.76 488.2 105.99 483.49 110.62 478.19 C110.62 477.53 110.62 476.87 110.62 476.19 C111.62 475.86 112.61 475.53 113.62 475.19 C115.45 472.9 115.45 472.9 117.19 470.19 C120.42 465.29 120.42 465.29 122.62 464.19 C123.66 462.47 124.63 460.71 125.56 458.94 C127.49 455.29 129.49 451.72 131.62 448.19 C136.45 439.36 140.16 429.98 143.31 420.44 C143.71 419.25 144.1 418.06 144.51 416.83 C146.13 410.06 146.76 403.09 147.62 396.19 C127.5 396.19 107.37 396.19 86.62 396.19 C83.16 406.09 83.16 406.09 79.62 416.19 C73.28 428.75 63.62 442.69 50.62 449.19 C50.62 449.85 50.62 450.51 50.62 451.19 C49.75 451.46 48.87 451.73 47.97 452.01 C44.8 453.12 42.07 454.47 39.12 456.06 C29.15 461.12 18.79 463.82 7.62 464.19 C6.62 464.23 5.62 464.27 4.58 464.31 C-17.5 464.77 -39.8 458.43 -56.38 443.19 C-58.04 441.38 -59.62 439.54 -61.15 437.61 C-62.34 436.05 -62.34 436.05 -64.38 435.19 C-64.7 434.2 -65.03 433.21 -65.38 432.19 C-65.98 431.58 -66.59 430.98 -67.22 430.35 C-79.99 417.53 -83.65 397.62 -83.81 380.31 C-83.67 358.08 -75.74 338.71 -60.69 322.25 C-58.32 320.14 -55.86 318.17 -53.38 316.19 C-52.65 315.4 -51.93 314.62 -51.19 313.81 C-38.02 301.52 -19.32 296.46 -1.75 296.61 C0.43 296.62 2.59 296.59 4.77 296.55 C24.57 296.45 42.58 304.43 57.62 317.19 C58.66 318.3 59.67 319.44 60.62 320.62 C62.34 322.73 64.08 324.63 66.03 326.52 C68.75 329.31 70.91 332.18 73.12 335.38 C73.86 336.42 74.59 337.47 75.34 338.54 C78.08 342.91 80.32 347.58 82.62 352.19 C103.41 352.19 124.2 352.19 145.62 352.19 C143.09 342.03 140.85 333.47 136.62 324.19 C136.32 323.45 136.01 322.71 135.7 321.94 C132.67 314.68 128.61 307.96 124.62 301.19 C123.82 299.74 123.82 299.74 123 298.27 C122.55 297.58 122.09 296.89 121.62 296.19 C120.96 296.19 120.31 296.19 119.62 296.19 C119.39 295.48 119.15 294.78 118.91 294.05 C117.4 290.68 115.47 288.22 113.12 285.38 C111.93 283.91 111.93 283.91 110.72 282.42 C110.03 281.68 109.34 280.95 108.62 280.19 C107.97 280.19 107.31 280.19 106.62 280.19 C105.63 278.21 105.63 278.21 104.62 276.19 C103.97 276.19 103.31 276.19 102.62 276.19 C102.62 275.53 102.62 274.87 102.62 274.19 C70.01 243.78 25.89 228.97 -18.24 234.9 Z M-35.38 350.19 C-35.38 350.85 -35.38 351.51 -35.38 352.19 C-36.04 352.19 -36.69 352.19 -37.38 352.19 C-45.13 365.47 -48.68 377.15 -45.16 392.68 C-42.15 402.35 -36.02 412.59 -27.38 418.19 C-26.71 418.19 -26.06 418.19 -25.38 418.19 C-25.38 418.85 -25.38 419.51 -25.38 420.19 C-13.24 427.27 -0.01 429.75 13.64 426.46 C25.51 422.96 35.46 416.38 42.62 406.19 C43.88 403.01 43.88 403.01 44.62 400.19 C45.28 400.19 45.94 400.19 46.62 400.19 C46.62 398.87 46.62 397.55 46.62 396.19 C21.88 395.69 21.88 395.69 -3.38 395.19 C-3.38 381.33 -3.38 367.47 -3.38 353.19 C10.49 352.86 24.35 352.53 38.62 352.19 C28.62 340.51 19.26 334.5 3.83 332.9 C-12 332.4 -24.68 338.82 -35.38 350.19 Z M125.26 736.69 C102.59 744.57 79.7 750.33 55.95 753.82 C54.33 754.07 52.72 754.37 51.12 754.7 C16.93 761.39 -26.03 760.08 -59.98 752.9 C-63.17 752.23 -66.33 751.75 -69.56 751.31 C-89.19 748.35 -108.58 742.45 -127.38 736.19 C-127.38 782.72 -127.38 829.25 -127.38 877.19 C-42.24 877.19 42.9 877.19 130.62 877.19 C130.62 830.33 130.62 783.47 130.62 735.19 C128.76 735.19 127 736.08 125.26 736.69 Z " fill="#E51A53" transform="translate(389.375,15.8125)"/>
<path d="M0 0 C1.33 0 1.33 0 2.69 0 C16.11 0.02 29.31 0.46 42.62 2.19 C44.46 2.41 46.29 2.63 48.12 2.85 C82.05 7.06 116.02 15.63 147.11 30.03 C149.24 31.01 151.37 31.95 153.53 32.86 C166.91 38.51 179.93 45.08 192.27 52.75 C196.23 55.17 200.3 57.41 204.35 59.67 C205.1 60.17 205.85 60.67 206.62 61.19 C206.62 61.85 206.62 62.51 206.62 63.19 C207.49 63.44 208.36 63.68 209.25 63.94 C212.84 65.27 215.59 66.87 218.62 69.19 C218.62 69.85 218.62 70.51 218.62 71.19 C219.31 71.41 219.99 71.64 220.69 71.88 C224.32 73.5 227.65 75.52 230.62 78.19 C230.62 78.85 230.62 79.51 230.62 80.19 C231.95 80.52 233.26 80.85 234.62 81.19 C234.62 81.85 234.62 82.51 234.62 83.19 C235.18 83.44 235.74 83.69 236.32 83.95 C240.85 86.38 244.66 89.94 248.62 93.19 C249.28 93.7 249.93 94.22 250.61 94.75 C251.99 95.85 253.31 97.01 254.62 98.19 C254.62 98.85 254.62 99.51 254.62 100.19 C255.2 100.45 255.78 100.71 256.38 100.98 C261.4 103.67 265.71 107.89 269.25 112.31 C271.56 115.29 271.56 115.29 274.62 117.69 C277.81 120.34 280.13 122.89 282.62 126.19 C282.62 126.85 282.62 127.51 282.62 128.19 C283.18 128.39 283.74 128.59 284.31 128.8 C287.53 130.73 289.46 133.48 291.69 136.44 C292.67 137.71 293.65 138.99 294.62 140.27 C295.12 140.92 295.62 141.57 296.13 142.24 C297.55 144.09 298.99 145.92 300.44 147.73 C305.15 153.64 309.73 159.61 314.12 165.75 C314.53 166.32 314.94 166.89 315.37 167.48 C317.6 170.64 319.66 173.85 321.62 177.19 C322.96 179.24 324.29 181.28 325.64 183.32 C326.62 185.19 326.62 185.19 326.62 188.19 C327.28 188.19 327.95 188.19 328.62 188.19 C338.63 205.66 347.13 223.55 354.78 242.17 C355.55 244.01 356.36 245.84 357.16 247.67 C369.97 278.48 381.39 318.56 378.62 352.19 C376.63 354.18 372.67 353.38 369.94 353.39 C369.17 353.4 368.4 353.4 367.61 353.41 C365.97 353.42 364.34 353.42 362.71 353.43 C360.2 353.44 357.7 353.47 355.19 353.5 C353.61 353.51 352.03 353.51 350.44 353.52 C349.31 353.53 349.31 353.53 348.16 353.55 C346.05 353.54 346.05 353.54 342.62 353.19 C340.46 349.94 340.25 348.44 339.88 344.63 C339.76 343.52 339.65 342.41 339.53 341.27 C339.3 338.96 339.08 336.65 338.86 334.34 C338.16 327.66 337.08 321.32 335.31 314.84 C334.64 312.25 334.16 309.7 333.75 307.06 C331.15 292.08 326.01 277.43 320.74 263.21 C319.92 260.98 319.11 258.75 318.32 256.5 C312.88 241.32 305.33 227.44 297.49 213.37 C296.99 212.47 296.48 211.56 295.97 210.63 C295.52 209.82 295.07 209.01 294.6 208.18 C293.62 206.19 293.62 206.19 293.62 204.19 C292.97 204.19 292.3 204.19 291.62 204.19 C290.53 202.48 289.53 200.72 288.56 198.94 C285.29 193.13 281.58 188 277.45 182.78 C275.76 180.37 275.31 178.94 274.62 176.19 C273.63 175.86 272.64 175.53 271.62 175.19 C269.76 172.89 269.76 172.89 267.75 170 C265.47 166.77 263.22 163.61 260.62 160.62 C258.62 158.19 258.62 158.19 258.62 156.19 C258.03 155.93 257.44 155.67 256.82 155.41 C254.42 154.07 253.19 152.77 251.45 150.65 C247.34 145.79 242.89 141.31 238.38 136.81 C237.57 136.01 236.77 135.2 235.95 134.37 C235.17 133.6 234.4 132.83 233.61 132.04 C232.57 131 232.57 131 231.51 129.94 C229.54 128.02 229.54 128.02 226.62 126.19 C226.62 125.53 226.62 124.87 226.62 124.19 C225.76 123.79 225.76 123.79 224.88 123.38 C222.57 122.16 220.6 120.88 218.62 119.19 C218.62 118.53 218.62 117.87 218.62 117.19 C218.08 116.94 217.53 116.7 216.97 116.45 C214.11 114.91 211.69 113.04 209.12 111.06 C203.84 107.04 198.44 103.38 192.83 99.82 C191.74 99.01 191.74 99.01 190.62 98.19 C190.62 97.53 190.62 96.87 190.62 96.19 C190.05 96.08 189.47 95.97 188.88 95.86 C186.34 95.1 184.71 94.03 182.56 92.5 C177.44 89 172.11 86.08 166.62 83.19 C165.14 82.39 163.65 81.59 162.16 80.8 C153.1 75.97 144.03 71.32 134.62 67.19 C133.46 66.67 132.3 66.16 131.11 65.63 C121.74 61.55 112.33 57.88 102.52 55.03 C100.29 54.38 98.07 53.71 95.85 53.03 C81.28 48.59 66.67 45.4 51.62 43 C50.61 42.83 49.59 42.67 48.54 42.49 C33.19 40.15 17.68 40 2.19 40.06 C0.97 40.07 0.97 40.07 -0.27 40.07 C-4.99 40.09 -9.7 40.12 -14.42 40.17 C-16.09 40.18 -17.76 40.2 -19.43 40.21 C-68.67 40.78 -122.62 58.26 -164.68 83.38 C-166.38 84.19 -166.38 84.19 -169.38 84.19 C-169.38 84.85 -169.38 85.51 -169.38 86.19 C-175.12 89.19 -175.12 89.19 -177.38 89.19 C-177.38 89.85 -177.38 90.51 -177.38 91.19 C-179.08 92.28 -180.84 93.28 -182.62 94.25 C-188.43 97.52 -193.56 101.23 -198.78 105.37 C-201.38 107.19 -201.38 107.19 -203.59 107.7 C-204.18 107.86 -204.77 108.02 -205.38 108.19 C-206.08 109.5 -206.74 110.84 -207.38 112.19 C-209.25 113.89 -209.25 113.89 -211.38 115.44 C-212.08 115.96 -212.78 116.48 -213.5 117.02 C-215.38 118.19 -215.38 118.19 -217.38 118.19 C-217.38 118.85 -217.38 119.51 -217.38 120.19 C-219.07 121.42 -220.77 122.64 -222.5 123.82 C-224.61 125.29 -224.61 125.29 -227.06 127.88 C-229.38 130.19 -229.38 130.19 -231.56 131.25 C-233.9 132.46 -234.42 133.79 -235.38 136.19 C-236.03 136.19 -236.69 136.19 -237.38 136.19 C-238.03 137.51 -238.69 138.83 -239.38 140.19 C-240.03 140.19 -240.69 140.19 -241.38 140.19 C-242.03 141.51 -242.69 142.83 -243.38 144.19 C-244.03 144.19 -244.69 144.19 -245.38 144.19 C-246.03 145.51 -246.69 146.83 -247.38 148.19 C-248.03 148.19 -248.69 148.19 -249.38 148.19 C-249.64 148.76 -249.91 149.34 -250.19 149.94 C-251.4 152.24 -252.68 154.21 -254.38 156.19 C-255.03 156.19 -255.69 156.19 -256.38 156.19 C-256.61 156.72 -256.85 157.25 -257.09 157.8 C-258.75 160.88 -260.78 163.64 -262.88 166.44 C-263.28 166.99 -263.68 167.55 -264.1 168.12 C-265.14 169.51 -266.25 170.86 -267.38 172.19 C-268.03 172.19 -268.69 172.19 -269.38 172.19 C-269.48 172.79 -269.58 173.38 -269.69 174 C-270.38 176.19 -270.38 176.19 -271.73 177.53 C-274.3 180.12 -276.04 183.24 -277.97 186.32 C-278.44 186.94 -278.9 187.55 -279.38 188.19 C-280.03 188.19 -280.69 188.19 -281.38 188.19 C-281.52 189 -281.52 189 -281.66 189.83 C-282.59 192.88 -284.1 195.19 -285.81 197.88 C-286.54 199.04 -287.27 200.2 -288 201.37 C-288.38 201.99 -288.77 202.6 -289.17 203.24 C-309.68 236.3 -324.75 272.96 -332.38 311.19 C-332.54 312.03 -332.71 312.87 -332.89 313.73 C-342.96 364.52 -341.16 419.53 -326.91 469.31 C-326.17 471.9 -325.5 474.51 -324.81 477.12 C-319.68 495.58 -312.19 513.3 -303.36 530.27 C-302.34 532.26 -301.35 534.26 -300.38 536.27 C-294.91 547.51 -288.75 558.07 -281.38 568.19 C-280.67 569.37 -280.67 569.37 -279.95 570.57 C-273.2 581.78 -264.41 592.05 -255.87 601.93 C-252.38 605.99 -252.38 605.99 -252.38 608.19 C-251.38 608.52 -250.39 608.85 -249.38 609.19 C-248.13 610.63 -246.88 612.09 -245.69 613.58 C-243.75 615.96 -241.57 618.05 -239.38 620.19 C-238.84 620.73 -238.3 621.28 -237.75 621.84 C-234.22 625.44 -230.59 628.77 -226.66 631.93 C-226.24 632.34 -225.81 632.76 -225.38 633.19 C-225.38 633.85 -225.38 634.51 -225.38 635.19 C-224.79 635.46 -224.21 635.73 -223.6 636 C-221.37 637.19 -219.65 638.49 -217.72 640.13 C-217.04 640.71 -216.35 641.29 -215.64 641.88 C-214.91 642.5 -214.19 643.12 -213.44 643.75 C-206.33 649.69 -199.07 655.04 -191.38 660.19 C-189.66 661.41 -187.96 662.64 -186.25 663.88 C-181.98 666.88 -177.54 669.4 -172.92 671.83 C-170.35 673.2 -167.87 674.67 -165.38 676.19 C-156.96 681.19 -148.76 686.04 -139.53 689.36 C-137.16 690.27 -134.91 691.34 -132.62 692.44 C-114.27 700.89 -94.05 706.71 -74.38 711.19 C-73.64 711.36 -72.9 711.53 -72.14 711.7 C-57.68 714.96 -43.12 716.74 -28.38 718.19 C-27.66 718.26 -26.94 718.33 -26.19 718.41 C-21.92 718.83 -17.66 719.05 -13.38 719.19 C-12.52 719.22 -11.67 719.25 -10.79 719.29 C4.59 719.8 19.7 718.85 35 717.38 C36.32 717.25 36.32 717.25 37.66 717.12 C46.92 716.24 55.93 715.17 64.95 712.86 C67.6 712.19 70.24 711.7 72.94 711.25 C102.03 706.04 130.88 695.01 157.02 681.36 C159.62 680.19 159.62 680.19 162.62 680.19 C162.62 679.53 162.62 678.87 162.62 678.19 C163.73 677.66 164.84 677.13 165.98 676.58 C171.15 673.99 176.03 670.99 180.94 667.94 C181.86 667.36 182.79 666.79 183.74 666.2 C189.56 662.57 195.16 658.8 200.57 654.58 C202.62 653.19 202.62 653.19 204.78 652.73 C205.39 652.55 206 652.37 206.62 652.19 C206.91 651.6 207.19 651.01 207.48 650.4 C209.15 647.16 211.95 645.67 214.94 643.75 C219.33 640.9 222.95 637.97 226.62 634.19 C227.35 633.84 228.07 633.49 228.81 633.12 C230.78 632.34 230.78 632.34 231.52 630.33 C232.77 627.9 234.08 626.73 236.19 625 C241.56 620.45 247.12 615.65 251.26 609.92 C251.71 609.35 252.16 608.78 252.62 608.19 C253.28 608.19 253.95 608.19 254.62 608.19 C255.28 606.87 255.95 605.55 256.62 604.19 C257.28 604.19 257.95 604.19 258.62 604.19 C258.69 603.63 258.75 603.07 258.81 602.5 C259.73 599.9 261.03 598.73 263.02 596.89 C266.02 593.71 268.38 590.01 270.86 586.42 C271.44 585.68 272.02 584.95 272.62 584.19 C273.28 584.19 273.95 584.19 274.62 584.19 C274.96 582.87 275.28 581.55 275.62 580.19 C276.28 580.19 276.95 580.19 277.62 580.19 C277.89 579.46 278.16 578.72 278.43 577.97 C279.62 575.2 280.97 573.1 282.75 570.69 C287.85 563.57 292.86 556.11 296.62 548.19 C297.28 548.19 297.95 548.19 298.62 548.19 C298.81 547.08 298.81 547.08 298.99 545.96 C299.61 543.25 300.45 541.26 301.77 538.82 C302.41 537.62 302.41 537.62 303.07 536.38 C303.52 535.56 303.97 534.73 304.44 533.88 C311.18 521.35 311.18 521.35 316.69 508.25 C317.07 507.2 317.07 507.2 317.47 506.14 C319.07 501.8 320.57 497.44 321.98 493.04 C322.58 491.31 323.32 489.62 324.06 487.94 C328.33 478.23 330.72 467.62 333.12 457.32 C333.45 455.93 333.78 454.54 334.12 453.15 C338.65 434.5 339.8 415.23 341.62 396.19 C354.16 396.19 366.71 396.19 379.62 396.19 C379.62 404.2 379.47 411.93 378.75 419.88 C378.67 420.84 378.59 421.81 378.51 422.81 C378.05 428.06 377.31 433.07 376.08 438.2 C375.46 440.92 375.14 443.66 374.81 446.44 C372.82 460.93 368.84 475.2 364.62 489.19 C364.32 490.23 364.01 491.26 363.7 492.33 C356.9 515.01 347.96 536.5 336.64 557.29 C335.79 558.88 334.98 560.49 334.18 562.11 C331.96 566.51 329.52 570.78 327.06 575.06 C326.57 575.94 326.07 576.82 325.56 577.73 C325.09 578.56 324.61 579.39 324.12 580.24 C323.69 581 323.26 581.76 322.81 582.54 C322.42 583.08 322.03 583.63 321.62 584.19 C320.97 584.19 320.3 584.19 319.62 584.19 C319.38 584.87 319.13 585.55 318.88 586.25 C317.38 589.76 315.56 592.9 313.62 596.19 C312.97 596.19 312.3 596.19 311.62 596.19 C311.4 596.87 311.17 597.55 310.94 598.25 C309.31 601.89 307.3 605.22 304.62 608.19 C303.97 608.19 303.3 608.19 302.62 608.19 C302.29 609.51 301.97 610.83 301.62 612.19 C300.97 612.19 300.3 612.19 299.62 612.19 C299.39 612.89 299.15 613.6 298.91 614.32 C297.4 617.69 295.47 620.16 293.12 623 C291.93 624.46 291.93 624.46 290.72 625.96 C289.68 627.06 289.68 627.06 288.62 628.19 C287.97 628.19 287.3 628.19 286.62 628.19 C285.97 629.51 285.3 630.83 284.62 632.19 C283.97 632.19 283.3 632.19 282.62 632.19 C282.23 633.06 282.23 633.06 281.83 633.94 C279.14 638.96 274.93 643.27 270.5 646.81 C267.52 649.12 267.52 649.12 265.12 652.19 C262.47 655.37 259.92 657.7 256.62 660.19 C255.97 660.19 255.3 660.19 254.62 660.19 C254.42 660.74 254.22 661.3 254.02 661.87 C252.08 665.09 249.33 667.03 246.38 669.25 C245.1 670.22 243.83 671.2 242.56 672.18 C241.91 672.67 241.26 673.17 240.59 673.68 C238.08 675.6 235.61 677.57 233.15 679.53 C224.08 686.73 214.76 693.2 204.85 699.21 C201.89 701.03 198.97 702.91 196.06 704.81 C191.36 707.82 186.52 710.33 181.5 712.77 C174.64 715.84 174.64 715.84 168.62 720.19 C168.52 721.55 168.49 722.91 168.49 724.28 C168.48 725.16 168.48 726.05 168.47 726.96 C168.47 727.95 168.47 728.94 168.47 729.95 C168.46 731.51 168.46 731.51 168.45 733.1 C168.44 736.6 168.43 740.11 168.42 743.62 C168.41 746.12 168.4 748.62 168.39 751.13 C168.37 756.53 168.35 761.93 168.33 767.33 C168.31 775.14 168.28 782.96 168.25 790.77 C168.21 803.44 168.16 816.11 168.12 828.78 C168.08 841.1 168.04 853.41 168 865.72 C167.99 866.86 167.99 866.86 167.99 868.02 C167.98 871.82 167.96 875.63 167.95 879.43 C167.83 911.02 167.73 942.6 167.62 974.19 C168.62 974.18 169.61 974.18 170.64 974.17 C174.32 974.15 177.99 974.14 181.67 974.13 C183.26 974.13 184.86 974.12 186.45 974.11 C188.74 974.1 191.02 974.09 193.31 974.09 C194.03 974.08 194.74 974.08 195.48 974.07 C197.2 974.07 198.91 974.13 200.62 974.19 C208.65 982.22 202.28 996.84 202.62 1008.19 C167.98 1008.19 133.33 1008.19 97.62 1008.19 C97.62 975.19 97.62 975.19 98.62 974.19 C101 974.1 103.35 974.07 105.72 974.09 C107.67 974.09 107.67 974.09 109.65 974.1 C111.31 974.11 112.98 974.12 114.69 974.12 C119.95 974.15 125.21 974.17 130.62 974.19 C130.62 955.05 130.62 935.91 130.62 916.19 C45.49 916.19 -39.65 916.19 -127.38 916.19 C-127.38 935.33 -127.38 954.47 -127.38 974.19 C-117.14 974.19 -106.92 974.19 -96.38 974.19 C-96.05 985.41 -95.71 996.63 -95.38 1008.19 C-129.37 1008.19 -163.36 1008.19 -198.38 1008.19 C-198.38 975.19 -198.38 975.19 -197.38 974.19 C-186.81 974.19 -176.25 974.19 -165.38 974.19 C-165.71 890.37 -166.03 806.55 -166.38 720.19 C-171.88 717.03 -171.88 717.03 -177.46 714.04 C-184.39 710.45 -191.17 706.89 -197.57 702.41 C-200.06 700.72 -202.65 699.45 -205.38 698.19 C-205.38 697.53 -205.38 696.87 -205.38 696.19 C-205.95 696.08 -206.53 695.98 -207.12 695.87 C-209.72 695.08 -211.26 693.94 -213.38 692.25 C-215.95 690.2 -218.39 688.57 -221.38 687.19 C-221.38 686.53 -221.38 685.87 -221.38 685.19 C-222.06 684.96 -222.74 684.73 -223.44 684.5 C-227.07 682.88 -230.4 680.86 -233.38 678.19 C-233.38 677.53 -233.38 676.87 -233.38 676.19 C-233.95 675.92 -234.52 675.65 -235.11 675.38 C-237.45 674.15 -239.5 672.76 -241.62 671.19 C-242.33 670.67 -243.04 670.16 -243.77 669.62 C-244.56 668.91 -244.56 668.91 -245.38 668.19 C-245.38 667.53 -245.38 666.87 -245.38 666.19 C-245.92 665.96 -246.46 665.74 -247.02 665.51 C-250.12 663.77 -252.56 661.48 -255.12 659.06 C-255.68 658.54 -256.24 658.02 -256.82 657.48 C-266.96 647.93 -277.09 638.33 -285.68 627.32 C-287.3 625.19 -287.3 625.19 -289.11 623.52 C-290.38 622.19 -290.38 622.19 -290.38 620.19 C-291.37 619.86 -292.36 619.53 -293.38 619.19 C-293.38 618.2 -293.38 617.21 -293.38 616.19 C-293.93 615.99 -294.49 615.8 -295.07 615.6 C-298.35 613.59 -300.13 610.68 -302.25 607.56 C-303.13 606.29 -304.02 605.02 -304.9 603.75 C-305.33 603.13 -305.75 602.52 -306.19 601.89 C-308.08 599.17 -310.1 596.55 -312.12 593.93 C-313.68 591.76 -315.01 589.49 -316.38 587.19 C-317.39 585.6 -318.41 584.02 -319.44 582.44 C-327.21 570.2 -334.22 557.87 -340.28 544.69 C-342.1 540.73 -344.06 536.87 -346.06 533 C-351.67 521.88 -355.57 510.02 -359.38 498.19 C-359.72 497.15 -359.72 497.15 -360.06 496.08 C-363.61 485.22 -366.9 474.35 -369.38 463.19 C-369.54 462.46 -369.7 461.73 -369.87 460.98 C-371.22 454.75 -372.33 448.48 -373.38 442.19 C-373.56 441.13 -373.75 440.08 -373.94 438.99 C-381 397.63 -380.05 353.38 -372.38 312.19 C-372.03 310.17 -371.68 308.16 -371.33 306.14 C-369.37 295.31 -366.52 284.73 -363.38 274.19 C-363.02 273 -362.67 271.82 -362.31 270.6 C-361.35 267.45 -360.37 264.32 -359.38 261.19 C-359.06 260.18 -358.74 259.18 -358.41 258.14 C-356.4 251.93 -354.09 245.92 -351.52 239.91 C-350.61 237.74 -349.78 235.59 -349 233.38 C-342.5 215.82 -332.73 199.34 -323.38 183.19 C-322.04 180.86 -320.71 178.52 -319.38 176.19 C-318.72 176.19 -318.06 176.19 -317.38 176.19 C-317.26 175.62 -317.15 175.04 -317.03 174.45 C-316.31 171.97 -315.3 170.12 -313.94 167.94 C-313.51 167.23 -313.07 166.52 -312.63 165.8 C-312.01 165 -312.01 165 -311.38 164.19 C-310.72 164.19 -310.06 164.19 -309.38 164.19 C-309.3 163.66 -309.23 163.13 -309.15 162.58 C-308.06 159.23 -306.05 156.7 -303.94 153.94 C-303.53 153.38 -303.12 152.83 -302.7 152.26 C-301.65 150.86 -300.52 149.52 -299.38 148.19 C-298.72 148.19 -298.06 148.19 -297.38 148.19 C-297.05 146.87 -296.72 145.55 -296.38 144.19 C-295.72 144.19 -295.06 144.19 -294.38 144.19 C-294.14 143.64 -293.9 143.09 -293.65 142.53 C-292.07 139.63 -290.12 137.28 -288 134.75 C-284.54 130.59 -284.54 130.59 -281.21 126.34 C-280.61 125.63 -280 124.92 -279.38 124.19 C-278.72 124.19 -278.06 124.19 -277.38 124.19 C-276.38 122.21 -276.38 122.21 -275.38 120.19 C-274.72 120.19 -274.06 120.19 -273.38 120.19 C-272.38 118.21 -272.38 118.21 -271.38 116.19 C-270.72 116.19 -270.06 116.19 -269.38 116.19 C-268.38 114.21 -268.38 114.21 -267.38 112.19 C-266.72 112.19 -266.06 112.19 -265.38 112.19 C-264.38 110.21 -264.38 110.21 -263.38 108.19 C-262.72 108.19 -262.06 108.19 -261.38 108.19 C-260.38 106.21 -260.38 106.21 -259.38 104.19 C-258.72 104.19 -258.06 104.19 -257.38 104.19 C-257.14 103.61 -256.91 103.04 -256.68 102.44 C-255.04 99.61 -253.14 98.14 -250.56 96.12 C-249.57 95.34 -248.58 94.55 -247.56 93.74 C-247.04 93.32 -246.51 92.91 -245.97 92.48 C-243.85 90.76 -241.78 88.97 -239.72 87.19 C-232.25 80.74 -224.4 74.92 -216.38 69.19 C-215.74 68.73 -215.11 68.28 -214.46 67.81 C-211.17 65.45 -207.87 63.23 -204.38 61.19 C-203.72 60.76 -203.07 60.33 -202.39 59.89 C-201.33 59.2 -201.33 59.2 -200.25 58.5 C-199.59 58.06 -198.92 57.63 -198.24 57.18 C-196.38 56.19 -196.38 56.19 -193.38 56.19 C-193.38 55.53 -193.38 54.87 -193.38 54.19 C-192.91 53.93 -192.45 53.67 -191.97 53.41 C-191.28 53.03 -190.59 52.64 -189.88 52.25 C-189.05 51.79 -188.22 51.33 -187.36 50.86 C-185.2 49.65 -183.06 48.42 -180.92 47.17 C-171.14 41.48 -161.1 36.73 -150.73 32.22 C-148.61 31.29 -146.5 30.33 -144.39 29.35 C-132.73 23.97 -120.59 20.1 -108.38 16.19 C-107.1 15.77 -105.82 15.35 -104.55 14.93 C-95.94 12.18 -87.2 10.11 -78.38 8.19 C-76.62 7.8 -76.62 7.8 -74.82 7.41 C-65.49 5.52 -56.07 4.29 -46.62 3.06 C-45.96 2.98 -45.3 2.89 -44.61 2.8 C-29.67 0.87 -15.06 -0.02 0 0 Z M125.26 736.69 C102.59 744.57 79.7 750.33 55.95 753.82 C54.33 754.07 52.72 754.37 51.12 754.7 C16.93 761.39 -26.03 760.08 -59.98 752.9 C-63.17 752.23 -66.33 751.75 -69.56 751.31 C-89.19 748.35 -108.58 742.45 -127.38 736.19 C-127.38 782.72 -127.38 829.25 -127.38 877.19 C-42.24 877.19 42.9 877.19 130.62 877.19 C130.62 830.33 130.62 783.47 130.62 735.19 C128.76 735.19 127 736.08 125.26 736.69 Z " fill="#7C7C7D" transform="translate(389.375,15.8125)"/>
<path d="M0 0 C0.77 0 1.53 0.01 2.32 0.01 C7.4 0.03 12.48 0.07 17.56 0.12 C18.52 0.13 19.49 0.14 20.48 0.15 C40.85 0.39 61.15 5.22 80.56 11.12 C81.98 11.52 81.98 11.52 83.42 11.93 C90.31 13.88 96.91 16.5 103.56 19.12 C104.46 19.47 105.37 19.81 106.3 20.16 C111.29 22.07 115.87 24.32 120.5 26.98 C122.77 28.24 125.12 29.21 127.52 30.21 C142.27 36.83 156.14 45.89 168.77 55.93 C171.09 57.75 173.44 59.46 175.88 61.12 C176.76 61.78 177.65 62.44 178.56 63.12 C178.56 63.78 178.56 64.44 178.56 65.12 C179.4 65.22 179.4 65.22 180.25 65.31 C183.54 66.47 185.16 68.61 187.56 71.12 C188.72 72.14 189.89 73.14 191.06 74.12 C196.1 78.4 200.34 83.06 204.56 88.12 C205.37 88.93 206.17 89.73 207 90.56 C209.53 93.1 211.84 95.73 214.13 98.48 C215.55 100.17 215.55 100.17 217.24 101.71 C218.56 103.12 218.56 103.12 218.56 105.12 C219.55 105.45 220.54 105.78 221.56 106.12 C223.57 108.49 223.57 108.49 225.69 111.44 C226.39 112.4 227.1 113.37 227.82 114.36 C229.56 117.12 229.56 117.12 230.12 119.42 C230.26 119.98 230.41 120.54 230.56 121.12 C231.55 121.45 232.54 121.78 233.56 122.12 C235.81 125.03 237.62 128.22 239.5 131.37 C240.59 133.17 241.7 134.95 242.82 136.72 C253.56 154.09 263.07 173.52 268.72 193.19 C269.36 195.43 270.04 197.67 270.72 199.9 C275.9 216.9 281.19 235.2 280.56 253.12 C279.56 254.12 279.56 254.12 275.96 254.24 C274.36 254.24 272.76 254.23 271.15 254.22 C270.31 254.22 269.47 254.22 268.6 254.22 C265.9 254.21 263.2 254.2 260.5 254.19 C258.67 254.18 256.85 254.18 255.02 254.17 C250.54 254.16 246.05 254.15 241.56 254.12 C241.59 252.55 241.59 252.55 241.62 250.95 C241.57 247.74 241.3 245.05 240.61 241.94 C240.4 241 240.2 240.06 239.99 239.09 C239.77 238.11 239.54 237.13 239.31 236.12 C239.09 235.11 238.86 234.09 238.62 233.04 C230.27 196.06 215.28 161.9 191.56 132.12 C190.8 131.16 190.03 130.2 189.24 129.21 C184.22 122.99 179.01 116.97 173.56 111.12 C172.88 110.39 172.19 109.65 171.49 108.89 C166.42 103.61 160.93 99.13 155.08 94.75 C153.54 93.59 152.05 92.36 150.56 91.12 C150.56 90.47 150.56 89.81 150.56 89.12 C149.24 88.8 147.92 88.47 146.56 88.12 C146.56 87.47 146.56 86.81 146.56 86.12 C145.83 85.86 145.1 85.6 144.35 85.32 C141.55 84.12 139.39 82.73 136.94 80.94 C127.24 74.03 117.3 68.26 106.56 63.12 C105.52 62.62 104.48 62.12 103.41 61.6 C60.64 41.29 14.93 34.93 -31.94 40.5 C-32.92 40.61 -33.9 40.73 -34.9 40.84 C-40.72 41.58 -46.21 42.77 -51.84 44.39 C-54.19 45.06 -56.53 45.6 -58.92 46.1 C-64.28 47.25 -69.47 48.9 -74.69 50.56 C-75.65 50.86 -76.62 51.16 -77.62 51.47 C-82.26 52.94 -86.37 54.39 -90.44 57.12 C-93.4 58.43 -96.37 59.68 -99.36 60.92 C-113.92 67.16 -127.32 75.41 -140.21 84.56 C-142.08 85.87 -143.96 87.13 -145.88 88.38 C-148.41 89.99 -148.41 89.99 -150.19 91.88 C-150.81 92.49 -150.81 92.49 -151.44 93.12 C-152.1 93.12 -152.76 93.12 -153.44 93.12 C-153.93 94.61 -153.93 94.61 -154.44 96.12 C-155.97 97.48 -157.57 98.76 -159.19 100 C-173.86 111.74 -185.37 126.02 -196.44 141.12 C-197.02 141.91 -197.61 142.7 -198.21 143.51 C-207.55 156.42 -215.65 170.65 -221.41 185.51 C-222.51 188.32 -223.69 191.1 -224.88 193.88 C-229.59 205.23 -233.5 216.59 -235.94 228.65 C-236.28 230.33 -236.63 232.01 -237 233.68 C-250.1 294.83 -235.52 359.19 -202.52 411.39 C-201.65 412.78 -200.83 414.19 -200.02 415.6 C-197.21 420.1 -193.87 424.22 -190.64 428.42 C-189.86 429.45 -189.86 429.45 -189.05 430.51 C-188.58 431.13 -188.1 431.75 -187.6 432.4 C-186.44 434.12 -186.44 434.12 -185.44 437.12 C-184.12 437.81 -182.78 438.48 -181.44 439.12 C-179.97 440.61 -179.97 440.61 -178.5 442.44 C-175.1 446.46 -171.47 450.21 -167.75 453.94 C-167.19 454.5 -166.63 455.06 -166.06 455.64 C-163.79 457.9 -161.62 459.99 -159.04 461.89 C-158.51 462.3 -157.98 462.7 -157.44 463.12 C-157.44 463.79 -157.44 464.44 -157.44 465.12 C-156.89 465.37 -156.35 465.61 -155.79 465.86 C-152.89 467.42 -150.42 469.31 -147.81 471.31 C-138.04 478.71 -128.14 485.19 -117.44 491.12 C-117.44 491.79 -117.44 492.44 -117.44 493.12 C-116.35 493.29 -116.35 493.29 -115.24 493.46 C-112.25 494.17 -110.25 495.24 -107.62 496.81 C-100.54 500.8 -93.07 503.41 -85.44 506.12 C-83.37 506.87 -81.31 507.62 -79.25 508.38 C-78.43 508.67 -77.61 508.96 -76.77 509.27 C-75.15 509.86 -73.54 510.5 -71.94 511.15 C-67.24 512.98 -62.34 514.01 -57.44 515.12 C-56.56 515.33 -55.68 515.53 -54.78 515.73 C-51.73 516.42 -48.68 517.09 -45.62 517.75 C-44.65 517.97 -43.68 518.19 -42.68 518.41 C-29.22 521.27 -15.6 521.29 -1.89 521.26 C0.56 521.25 3.01 521.26 5.47 521.26 C18.96 521.27 32.1 520.95 45.3 517.88 C48.2 517.21 51.07 516.67 54 516.19 C65.65 514.1 76.63 510.59 87.56 506.12 C88.85 505.63 90.13 505.13 91.41 504.64 C106.16 498.87 121.29 492.07 133.82 482.27 C135.56 481.12 135.56 481.12 138.56 481.12 C138.56 480.46 138.56 479.81 138.56 479.12 C140.43 477.72 142.36 476.4 144.31 475.12 C145.38 474.42 146.45 473.72 147.55 473 C149.86 471.56 152.1 470.27 154.56 469.12 C154.56 468.46 154.56 467.81 154.56 467.12 C156.07 465.77 157.65 464.49 159.25 463.25 C160.12 462.57 160.99 461.89 161.89 461.2 C162.77 460.51 163.65 459.83 164.56 459.12 C168.48 456.09 171.42 452.97 174.56 449.12 C176.23 447.46 177.89 445.79 179.56 444.12 C181.28 442.28 182.99 440.43 184.69 438.56 C185.54 437.63 186.38 436.7 187.26 435.75 C189.54 433.24 189.54 433.24 191.24 430.79 C191.68 430.24 192.11 429.69 192.56 429.12 C193.22 429.12 193.88 429.12 194.56 429.12 C194.63 428.6 194.7 428.08 194.77 427.54 C195.91 424.06 198.08 421.4 200.25 418.5 C203.78 413.67 207.12 408.82 210.1 403.63 C211.02 402.05 211.97 400.48 212.94 398.93 C217.1 392.26 220.36 385.35 223.44 378.12 C223.82 377.22 223.82 377.22 224.22 376.3 C235.12 350.64 241.19 324.81 243.56 297.12 C256.1 297.12 268.64 297.12 281.56 297.12 C282.48 301.7 282.49 304.28 281.89 308.79 C281.72 310.08 281.55 311.36 281.38 312.69 C281.28 313.36 281.19 314.03 281.09 314.72 C280.82 316.72 280.56 318.73 280.3 320.74 C279.37 327.59 278.21 334.18 276.23 340.8 C275.56 343.13 275.1 345.43 274.69 347.81 C273.42 354.43 271.27 360.8 269.19 367.2 C268.62 368.94 268.07 370.69 267.52 372.43 C265.65 378.3 263.44 383.88 260.81 389.46 C259.88 391.45 259 393.46 258.14 395.48 C249.74 414.9 239 433.45 225.93 450.09 C223.44 453.28 221.06 456.53 218.72 459.83 C218.34 460.26 217.96 460.69 217.56 461.12 C216.9 461.12 216.24 461.12 215.56 461.12 C215.34 461.67 215.11 462.21 214.88 462.77 C213.17 465.82 210.93 468.22 208.56 470.75 C207.84 471.53 207.84 471.53 207.1 472.33 C196.59 483.56 196.59 483.56 192.56 487.12 C191.9 487.12 191.24 487.12 190.56 487.12 C190.56 487.79 190.56 488.44 190.56 489.12 C189.1 490.31 189.1 490.31 187.19 491.56 C184.48 493.34 183.43 494.32 181.56 497.12 C180.57 497.12 179.58 497.12 178.56 497.12 C178.23 498.12 177.9 499.11 177.56 500.12 C175.2 502.13 175.2 502.13 172.25 504.25 C171.28 504.95 170.32 505.66 169.32 506.38 C166.93 507.89 165.31 508.69 162.56 509.12 C162.56 509.79 162.56 510.44 162.56 511.12 C160.7 512.63 160.7 512.63 158.25 514.25 C157.45 514.79 156.65 515.33 155.82 515.88 C153.56 517.12 153.56 517.12 150.56 517.12 C150.56 517.78 150.56 518.45 150.56 519.12 C147.57 520.8 144.56 522.46 141.56 524.12 C140.72 524.59 139.88 525.06 139.01 525.55 C107.48 542.95 74.66 553.42 39.2 559.26 C38.33 559.4 37.46 559.54 36.57 559.69 C29.14 560.76 21.84 561.31 14.34 561.4 C13.38 561.41 12.42 561.42 11.42 561.44 C-18.47 561.75 -46.69 559.93 -75.44 551.12 C-76.64 550.77 -77.84 550.42 -79.08 550.06 C-102.9 542.97 -125.03 532.63 -146.44 520.12 C-148.77 518.79 -151.1 517.46 -153.44 516.12 C-153.44 515.47 -153.44 514.8 -153.44 514.12 C-154.16 513.87 -154.88 513.61 -155.62 513.35 C-158.61 512.05 -160.89 510.51 -163.5 508.56 C-164.45 507.86 -165.39 507.15 -166.37 506.43 C-167.38 505.67 -168.39 504.91 -169.44 504.12 C-170.56 503.3 -171.69 502.49 -172.82 501.67 C-173.92 500.86 -175.02 500.06 -176.12 499.25 C-177.14 498.51 -178.15 497.77 -179.2 497.01 C-179.94 496.39 -180.68 495.77 -181.44 495.12 C-181.44 494.46 -181.44 493.81 -181.44 493.12 C-182.76 492.46 -184.08 491.81 -185.44 491.12 C-185.44 490.46 -185.44 489.81 -185.44 489.12 C-185.99 489.08 -186.55 489.04 -187.12 489 C-189.99 487.91 -191.18 486.18 -193.02 483.8 C-194.53 482.02 -196.13 480.61 -197.94 479.12 C-201.23 476.4 -203.77 473.46 -206.44 470.12 C-207.33 469.26 -207.33 469.26 -208.25 468.38 C-209.44 467.12 -209.44 467.12 -209.44 465.12 C-209.98 464.94 -210.52 464.75 -211.08 464.55 C-214.57 462.44 -216.66 459.45 -219.12 456.25 C-219.87 455.31 -219.87 455.31 -220.63 454.36 C-224.33 449.61 -224.33 449.61 -224.9 446.98 C-225.16 446.06 -225.16 446.06 -225.44 445.12 C-226.43 444.8 -227.42 444.46 -228.44 444.12 C-230.05 441.94 -230.05 441.94 -231.75 439.12 C-233.93 435.57 -236.13 432.06 -238.5 428.62 C-251.87 408.63 -261.85 385.17 -268.44 362.12 C-268.82 360.83 -269.21 359.53 -269.59 358.23 C-274.69 340.82 -277.86 323.19 -279.44 305.12 C-279.61 303.27 -279.61 303.27 -279.78 301.38 C-281.02 285.55 -280.61 270.04 -279.12 254.25 C-279.01 252.97 -278.89 251.68 -278.77 250.36 C-278.01 242.84 -276.82 235.56 -275.13 228.19 C-274.49 225.36 -273.97 222.54 -273.5 219.69 C-269.62 198.24 -261.61 176.4 -251.44 157.12 C-250.85 156 -250.26 154.88 -249.66 153.72 C-241.81 138.81 -233.2 124.73 -223.25 111.12 C-222.63 110.27 -222.02 109.41 -221.38 108.53 C-220.49 107.31 -220.49 107.31 -219.58 106.06 C-219.05 105.33 -218.52 104.6 -217.97 103.84 C-216.44 102.12 -216.44 102.12 -213.44 101.12 C-212.74 99.81 -212.08 98.47 -211.44 97.12 C-204.96 89.05 -197.3 81.85 -189.92 74.61 C-188.65 73.34 -187.42 72.03 -186.21 70.71 C-184.44 69.12 -184.44 69.12 -181.44 69.12 C-181.16 68.31 -181.16 68.31 -180.87 67.48 C-178.75 64 -175.77 61.9 -172.56 59.44 C-171.94 58.94 -171.31 58.44 -170.67 57.93 C-167.59 55.53 -165.33 53.89 -161.44 53.12 C-161.44 52.47 -161.44 51.81 -161.44 51.12 C-159.57 49.62 -159.57 49.62 -157.12 48 C-156.32 47.46 -155.52 46.92 -154.7 46.37 C-152.44 45.12 -152.44 45.12 -149.44 45.12 C-149.44 44.47 -149.44 43.81 -149.44 43.12 C-133.76 34.2 -118.34 25.52 -101.44 19.12 C-99.83 18.46 -98.23 17.8 -96.62 17.12 C-80.21 10.59 -63.36 6.1 -46 2.94 C-45.11 2.77 -44.22 2.6 -43.3 2.43 C-29.01 -0.05 -14.46 -0.06 0 0 Z " fill="#7C7C7C" transform="translate(389.4375,114.875)"/>
<path d="M0 0 C1.07 0 2.15 0.01 3.25 0.01 C18.91 0.08 33.66 0.8 48.69 5.56 C49.88 5.91 51.07 6.25 52.3 6.61 C55.15 7.49 57.91 8.49 60.69 9.56 C61.69 9.92 62.69 10.27 63.72 10.64 C72.74 13.93 81.18 18.16 89.69 22.56 C89.69 23.22 89.69 23.88 89.69 24.56 C90.39 24.65 91.1 24.74 91.82 24.83 C95.31 25.72 97.6 27.26 100.56 29.31 C102.13 30.39 102.13 30.39 103.73 31.49 C104.7 32.18 105.68 32.86 106.69 33.56 C107.84 34.34 107.84 34.34 109.02 35.13 C110.62 36.22 112.16 37.38 113.69 38.56 C113.69 39.22 113.69 39.88 113.69 40.56 C115.01 40.89 116.33 41.22 117.69 41.56 C117.69 42.22 117.69 42.88 117.69 43.56 C118.55 43.96 118.55 43.96 119.44 44.38 C121.74 45.59 123.71 46.87 125.69 48.56 C125.69 49.22 125.69 49.88 125.69 50.56 C126.27 50.82 126.85 51.07 127.45 51.34 C136.93 56.53 151.14 72.63 154.45 82.92 C154.53 83.46 154.61 84 154.69 84.56 C155.35 84.56 156.01 84.56 156.69 84.56 C157.53 86 158.36 87.43 159.19 88.88 C159.65 89.68 160.12 90.48 160.59 91.3 C161.69 93.56 161.69 93.56 161.69 96.56 C162.35 96.56 163.01 96.56 163.69 96.56 C170.2 109.4 170.2 109.4 172.69 115.56 C173.07 116.49 173.45 117.42 173.84 118.38 C178.95 131.24 181.96 143.92 184.69 157.56 C171.82 157.56 158.95 157.56 145.69 157.56 C141.53 148.2 141.53 148.2 140.31 142.79 C138.94 137.87 136.72 133.23 134.69 128.56 C134.38 127.81 134.07 127.06 133.75 126.29 C131.44 120.77 128.54 115.66 125.5 110.52 C123.6 107.28 121.98 104.1 120.69 100.56 C120.03 100.56 119.37 100.56 118.69 100.56 C117.76 99.19 116.85 97.82 115.97 96.42 C113.94 93.48 111.5 90.92 109.08 88.3 C107.69 86.56 107.69 86.56 107.69 84.56 C107.03 84.56 106.37 84.56 105.69 84.56 C103.56 82.69 103.56 82.69 101.69 80.56 C101.69 79.9 101.69 79.24 101.69 78.56 C101.15 78.34 100.62 78.12 100.07 77.89 C96.87 76.11 94.29 73.72 91.56 71.31 C86.24 66.71 80.84 62.99 74.69 59.56 C73.92 59.07 73.16 58.59 72.38 58.08 C65.23 53.51 57.64 50.43 49.69 47.56 C49.05 47.33 48.41 47.1 47.76 46.86 C26.14 39.18 3.47 37.24 -19.18 40.28 C-21.06 40.53 -22.95 40.75 -24.84 40.97 C-36.79 42.5 -48.52 46.22 -59.31 51.56 C-60.39 52.08 -61.47 52.59 -62.58 53.12 C-69.41 56.42 -75.9 60.03 -82.2 64.28 C-84.31 65.56 -84.31 65.56 -86.31 65.56 C-86.81 67.05 -86.81 67.05 -87.31 68.56 C-88.3 68.56 -89.29 68.56 -90.31 68.56 C-90.81 70.05 -90.81 70.05 -91.31 71.56 C-92.89 72.93 -94.52 74.24 -96.19 75.5 C-106.86 84.06 -114.86 94.15 -122.31 105.56 C-123.27 106.99 -123.27 106.99 -124.25 108.44 C-130.48 117.88 -134.5 127.74 -138.2 138.4 C-138.85 140.25 -139.54 142.09 -140.32 143.89 C-151.47 173.98 -146.76 212.39 -134.38 241.19 C-133.69 242.65 -133.01 244.11 -132.31 245.56 C-131.98 246.29 -131.64 247.02 -131.3 247.78 C-128.63 253.41 -125.47 258.71 -122.19 264 C-121.76 264.7 -121.32 265.4 -120.88 266.12 C-120.25 267.11 -120.25 267.11 -119.62 268.12 C-119.06 269.01 -119.06 269.01 -118.49 269.91 C-117.33 271.64 -117.33 271.64 -115.67 273.15 C-114.31 274.56 -114.31 274.56 -114.31 276.56 C-113.32 276.89 -112.33 277.22 -111.31 277.56 C-109.84 279.06 -109.84 279.06 -108.25 281 C-97.56 293.52 -85.35 303.04 -71.31 311.56 C-70.65 311.96 -70 312.36 -69.32 312.78 C-65.45 315.06 -61.47 316.9 -57.31 318.56 C-56.4 318.94 -55.48 319.33 -54.54 319.72 C-20.97 333.3 20.09 334.23 53.67 320.17 C56.36 319 59.02 317.78 61.69 316.56 C62.49 316.26 63.3 315.95 64.12 315.64 C67.53 314.21 70.68 312.4 73.88 310.56 C74.5 310.21 75.13 309.85 75.78 309.48 C78.35 308.01 80.58 306.67 82.69 304.56 C83.68 304.56 84.67 304.56 85.69 304.56 C86.02 303.57 86.35 302.58 86.69 301.56 C88.8 299.91 88.8 299.91 91.56 298.06 C102.62 290.23 112.17 279.84 119.69 268.56 C120.35 268.56 121.01 268.56 121.69 268.56 C121.8 267.99 121.9 267.41 122.02 266.82 C122.78 264.26 123.88 262.65 125.44 260.5 C128.9 255.45 131.31 250.18 133.69 244.56 C134.1 243.64 134.51 242.71 134.93 241.76 C140.09 229.91 143.86 218.11 145.33 205.26 C145.69 202.56 145.69 202.56 146.69 200.56 C159.23 200.56 171.77 200.56 184.69 200.56 C184.69 210.71 184.69 210.71 183.99 214.47 C183.83 215.31 183.68 216.15 183.52 217.01 C183.35 217.87 183.18 218.73 183 219.62 C182.73 221 182.73 221 182.45 222.4 C177.53 246.56 167.39 273.31 151.69 292.56 C151.03 292.56 150.37 292.56 149.69 292.56 C149.36 293.88 149.03 295.2 148.69 296.56 C148.03 296.56 147.37 296.56 146.69 296.56 C146.49 297.24 146.29 297.92 146.09 298.61 C144.15 302.68 141.35 305.52 138.25 308.75 C137.63 309.41 137.01 310.06 136.37 310.74 C131.09 316.26 125.7 321.83 119.69 326.56 C119.03 326.56 118.37 326.56 117.69 326.56 C117.69 327.22 117.69 327.88 117.69 328.56 C117.05 328.67 116.41 328.77 115.75 328.88 C114.73 329.22 114.73 329.22 113.69 329.56 C113.36 330.55 113.03 331.54 112.69 332.56 C111.7 332.56 110.71 332.56 109.69 332.56 C109.36 333.55 109.03 334.54 108.69 335.56 C106.95 336.95 106.95 336.95 104.81 338.25 C104.11 338.69 103.42 339.12 102.7 339.57 C100.69 340.56 100.69 340.56 97.69 340.56 C97.69 341.22 97.69 341.88 97.69 342.56 C95.54 343.76 93.38 344.95 91.23 346.14 C89.69 347 88.16 347.88 86.65 348.8 C79.42 353.1 71.6 355.81 63.69 358.56 C62.96 358.82 62.23 359.08 61.48 359.35 C28.97 370.79 -10.82 373.9 -44.31 364.56 C-45.76 364.16 -45.76 364.16 -47.23 363.75 C-77.72 354.93 -105.35 339.55 -128.31 317.56 C-129.03 316.89 -129.74 316.22 -130.47 315.52 C-134.07 312.05 -134.07 312.05 -135.31 310.56 C-135.31 309.9 -135.31 309.24 -135.31 308.56 C-136.3 308.23 -137.29 307.9 -138.31 307.56 C-142.31 303.11 -142.31 303.11 -142.31 300.56 C-143.3 300.23 -144.29 299.9 -145.31 299.56 C-146.84 297.63 -148.21 295.73 -149.56 293.69 C-149.96 293.1 -150.36 292.51 -150.77 291.9 C-151.96 290.13 -153.14 288.34 -154.31 286.56 C-154.92 285.67 -155.52 284.77 -156.14 283.85 C-183.06 242.97 -190.65 193.27 -181.31 145.56 C-176.7 124.65 -168.97 104.09 -156.64 86.49 C-155.67 85.09 -154.77 83.65 -153.9 82.18 C-152.14 79.27 -150.23 76.52 -148.25 73.75 C-147.56 72.77 -146.87 71.8 -146.15 70.79 C-145.55 70.06 -144.94 69.32 -144.31 68.56 C-143.65 68.56 -142.99 68.56 -142.31 68.56 C-142.25 68.01 -142.19 67.45 -142.12 66.88 C-140.97 63.58 -138.83 61.97 -136.31 59.56 C-135.36 58.45 -134.43 57.32 -133.5 56.19 C-130.13 52.21 -126.3 48.91 -122.31 45.56 C-121.73 45.05 -121.14 44.54 -120.54 44.01 C-116.56 40.56 -116.56 40.56 -114.31 40.56 C-114.31 39.9 -114.31 39.24 -114.31 38.56 C-112.55 37.24 -110.73 36 -108.88 34.81 C-107.78 34.11 -106.69 33.4 -105.57 32.67 C-104.5 31.98 -103.42 31.28 -102.31 30.56 C-99.92 28.91 -97.53 27.26 -95.15 25.59 C-93.31 24.56 -93.31 24.56 -90.31 24.56 C-90.31 23.9 -90.31 23.24 -90.31 22.56 C-79.57 17.07 -68.75 12.07 -57.31 8.19 C-56.43 7.88 -55.54 7.57 -54.63 7.25 C-36.66 1.38 -18.8 -0.15 0 0 Z " fill="#7C7C7C" transform="translate(390.3125,211.4375)"/>
<path d="M0 0 C2.17 0.01 4.34 -0.02 6.51 -0.06 C19.49 -0.13 32.15 2.81 43.37 9.58 C44.27 10.11 45.16 10.65 46.08 11.21 C53.73 15.95 59.66 20.55 65.37 27.58 C66.18 28.36 66.98 29.14 67.81 29.95 C71.03 33.25 73.69 36.83 76.37 40.58 C77.05 41.5 77.73 42.43 78.43 43.39 C80.21 46.3 81.6 49.17 82.99 52.28 C83.44 53.27 83.89 54.26 84.35 55.28 C84.68 56.04 85.02 56.8 85.37 57.58 C79.39 57.75 73.42 57.88 67.44 57.96 C65.41 58 63.38 58.04 61.35 58.1 C58.42 58.19 55.49 58.23 52.56 58.26 C51.66 58.3 50.76 58.33 49.83 58.37 C43.56 58.37 40.5 56.76 36.06 52.35 C35.5 51.76 34.94 51.18 34.37 50.58 C24.99 41.86 12.95 37.87 0.16 38.29 C-13.28 39.67 -23.2 45.05 -32.63 54.58 C-33.12 55.57 -33.12 55.57 -33.63 56.58 C-34.29 56.58 -34.95 56.58 -35.63 56.58 C-35.73 57.13 -35.83 57.68 -35.94 58.25 C-36.77 61.07 -38.15 63.28 -39.63 65.83 C-44.83 76.08 -45.04 88.64 -41.63 99.58 C-37.93 109.08 -32.38 117.24 -23.63 122.58 C-23.63 123.24 -23.63 123.9 -23.63 124.58 C-23.08 124.7 -22.52 124.83 -21.95 124.96 C-19.37 125.65 -16.94 126.56 -14.44 127.51 C-0.8 132.46 10.83 132.48 24.37 126.58 C33.96 121.63 42.2 114.74 46.37 104.58 C47.03 104.58 47.69 104.58 48.37 104.58 C48.37 103.26 48.37 101.94 48.37 100.58 C61.57 100.58 74.77 100.58 88.37 100.58 C83.67 121.74 73.03 141.49 54.37 153.58 C53.71 153.58 53.05 153.58 52.37 153.58 C52.37 154.24 52.37 154.9 52.37 155.58 C38.76 162.87 25.1 169.26 9.37 169.58 C8.37 169.62 7.37 169.65 6.34 169.69 C-16.56 170.19 -38.62 163.34 -55.63 147.58 C-57.39 145.64 -59 143.64 -60.63 141.58 C-62.11 140.59 -62.11 140.59 -63.63 139.58 C-63.63 138.59 -63.63 137.6 -63.63 136.58 C-64.21 136.38 -64.78 136.18 -65.38 135.98 C-68.53 134.01 -69.9 131.26 -71.63 128.08 C-71.98 127.44 -72.33 126.81 -72.69 126.16 C-83.51 106.23 -86.49 82.24 -80.02 60.31 C-75.81 49.01 -70.16 39.02 -62.63 29.58 C-61.94 28.7 -61.26 27.82 -60.56 26.92 C-58.47 24.38 -56.31 22.48 -53.63 20.58 C-52.97 20.58 -52.31 20.58 -51.63 20.58 C-51.39 19.98 -51.15 19.38 -50.9 18.76 C-48.47 14.59 -43.77 12.83 -39.63 10.58 C-38.68 10.06 -37.73 9.53 -36.76 9 C-24.75 2.69 -13.5 -0.12 0 0 Z " fill="#7C7C7C" transform="translate(387.628173828125,311.423583984375)"/>
<path d="M0 0 C1.88 0.31 1.88 0.31 4 1 C4.74 1.19 5.49 1.37 6.25 1.56 C6.83 1.71 7.4 1.85 8 2 C8 2.66 8 3.32 8 4 C7.34 4.33 6.68 4.66 6 5 C6.5 5.99 6.5 5.99 7 7 C3.21 8.26 -0.24 8.02 -4.17 7.88 C-4.96 7.86 -5.76 7.83 -6.58 7.81 C-9.11 7.73 -11.65 7.65 -14.19 7.56 C-15.91 7.51 -17.63 7.46 -19.35 7.4 C-23.57 7.28 -27.78 7.14 -32 7 C-32 6.67 -32 6.34 -32 6 C-24.74 5.67 -17.48 5.34 -10 5 C-10.33 4.01 -10.66 3.02 -11 2 C-8 2 -5 2 -2 2 C-1.34 1.34 -0.68 0.68 0 0 Z " fill="#D2315E" transform="translate(667,405)"/>
<path d="M0 0 C6.62 -0.25 6.62 -0.25 10 2 C10 2.66 10 3.32 10 4 C11.32 4.33 12.64 4.66 14 5 C0.47 5 -13.06 5 -27 5 C-27 4.67 -27 4.34 -27 4 C-18.75 4 -10.5 4 -2 4 C-2 3.34 -2 2.68 -2 2 C-1.34 2 -0.68 2 0 2 C0 1.34 0 0.68 0 0 Z " fill="#CF345E" transform="translate(465,407)"/>
<path d="M0 0 C0.33 0 0.66 0 1 0 C1 4.29 1 8.58 1 13 C0.34 13 -0.32 13 -1 13 C-1.33 13.99 -1.66 14.98 -2 16 C-1.86 14.27 -1.71 12.54 -1.56 10.81 C-1.48 9.85 -1.4 8.89 -1.32 7.89 C-1.02 5.21 -0.57 2.63 0 0 Z " fill="#6B6C6B" transform="translate(667,433)"/>
<path d="M0 0 C1.79 3.12 2.34 5.68 2.62 9.25 C2.7 10.14 2.77 11.03 2.85 11.95 C2.93 12.97 2.93 12.97 3 14 C1.51 12.86 1.51 12.86 0 11 C-0.29 8.3 -0.29 8.3 -0.19 5.31 C-0.16 4.32 -0.13 3.32 -0.11 2.3 C-0.07 1.54 -0.04 0.78 0 0 Z " fill="#6A6A6A" transform="translate(209,424)"/>
<path d="M0 0 C2.5 2.5 2.36 3.67 2.62 7.12 C2.7 8.04 2.77 8.95 2.85 9.88 C2.93 10.93 2.93 10.93 3 12 C2.69 11.36 2.38 10.72 2.06 10.06 C1.17 8.06 1.17 8.06 0 7 C-0.04 4.67 -0.04 2.33 0 0 Z " fill="#6C6C6C" transform="translate(628,340)"/>
<path d="M0 0 C0.33 0.66 0.66 1.32 1 2 C1.66 2 2.32 2 3 2 C3 4.64 3 7.28 3 10 C0.7 6.56 0.46 4.06 0 0 Z " fill="#6A6A6A" transform="translate(153,454)"/>
</svg>
