<?xml version="1.0" encoding="UTF-8"?>
<!-- Generator: https://ezgif.com/png-to-svg -->
<svg version="1.1" xmlns="http://www.w3.org/2000/svg" width="1024" height="1024">
<path d="M0 0 C55.44 0 110.88 0 168 0 C167.67 55.11 167.34 110.22 167 167 C147.32 176.84 123 168 101 168 C101 231.36 101 294.72 101 360 C126.74 360 152.48 360 179 360 C179 316.44 179 272.88 179 228 C282.29 228 385.58 228 492 228 C492 207.54 492 187.08 492 166 C488.37 165.01 484.74 164.02 481 163 C480.34 162.34 479.68 161.68 479 161 C478.05 160.61 477.1 160.22 476.12 159.81 C470.48 157.48 465.01 154.48 460 151 C459.67 150.01 459.34 149.02 459 148 C457.67 147.33 456.33 146.66 455 146 C451.13 142.53 447.56 138.78 444 135 C443.4 134.37 442.81 133.74 442.2 133.09 C429.12 117.55 426.12 94.51 427 75 C427.64 67.7 428.73 60.74 431.32 53.87 C432.02 51.93 432.53 50 433 48 C433.66 48 434.32 48 435 48 C435.12 47.28 435.23 46.57 435.35 45.83 C436.03 42.87 437.03 40.47 438.38 37.75 C439.01 36.44 439.01 36.44 439.65 35.11 C441 33 441 33 444 32 C445.21 30 445.21 30 446 28 C446.66 28 447.32 28 448 28 C448.1 27.41 448.19 26.81 448.29 26.2 C450.98 17.83 465.89 9.43 473.31 5.56 C476.77 3.98 480.32 2.97 484 2 C485.19 1.48 485.19 1.48 486.4 0.96 C489.13 -0.05 491.08 -0.24 493.97 -0.23 C495.41 -0.23 495.41 -0.23 496.88 -0.23 C497.91 -0.22 498.93 -0.21 499.99 -0.2 C501.58 -0.19 501.58 -0.19 503.2 -0.19 C506.57 -0.18 509.94 -0.15 513.31 -0.12 C515.6 -0.11 517.89 -0.11 520.18 -0.1 C525.79 -0.08 531.39 -0.04 537 0 C537 0.66 537 1.32 537 2 C537.8 2.1 538.61 2.21 539.44 2.31 C543.78 3.15 547.83 4.53 552 6 C552 6.66 552 7.32 552 8 C552.78 8.08 553.57 8.16 554.38 8.25 C555.24 8.5 556.11 8.74 557 9 C557.68 10.32 558.35 11.66 559 13 C561.39 14.11 561.39 14.11 564 15 C566.31 16.5 566.31 16.5 568 18 C568 18.66 568 19.32 568 20 C569.32 20.66 570.64 21.32 572 22 C572 22.66 572 23.32 572 24 C573.32 24.66 574.64 25.32 576 26 C576 26.66 576 27.32 576 28 C576.88 28.34 576.88 28.34 577.79 28.69 C584.64 32.75 588.86 43.94 592 51 C592.99 54.96 593.98 58.92 595 63 C681.13 63.33 767.26 63.66 856 64 C856 42.88 856 21.76 856 0 C911.44 0 966.88 0 1024 0 C1024 55.44 1024 110.88 1024 168 C982.98 168.06 982.98 168.06 941.12 168.12 C932.48 168.14 923.83 168.16 914.92 168.18 C904.39 168.19 904.39 168.19 899.47 168.19 C896.02 168.19 892.56 168.2 889.11 168.21 C884.72 168.22 880.32 168.23 875.93 168.23 C874.31 168.23 872.69 168.23 871.07 168.24 C868.9 168.25 866.72 168.25 864.54 168.24 C863.32 168.24 862.1 168.24 860.84 168.25 C858 168 858 168 856 166 C856 144.55 856 123.1 856 101 C769.54 101 683.08 101 594 101 C593.67 102.98 593.34 104.96 593 107 C592.55 108.68 592.07 110.34 591.56 112 C591.17 113.28 591.17 113.28 590.77 114.59 C589.87 117.4 588.96 120.21 588 123 C587.34 123 586.68 123 586 123 C585.77 123.85 585.55 124.69 585.31 125.56 C582.89 131.91 578.82 136.29 574 141 C573.12 142.12 572.25 143.25 571.38 144.38 C566.99 149.59 560.85 153.18 554.73 156.07 C552.82 156.88 552.82 156.88 552 159 C550.33 159.78 550.33 159.78 548.25 160.5 C547.52 160.76 546.8 161.01 546.05 161.28 C545.37 161.52 544.7 161.75 544 162 C543.15 162.35 542.31 162.7 541.44 163.06 C538.36 164.25 535.17 165.09 532 166 C532 186.13 532 206.26 532 227 C635.29 227.33 738.58 227.66 845 228 C845 327.33 845 426.66 845 529 C690.07 529.5 690.07 529.5 532 530 C532 544.52 532 559.04 532 574 C662.35 574.33 792.7 574.66 927 575 C927.93 578.72 928.12 581.53 928.11 585.33 C928.11 586.61 928.11 587.89 928.11 589.21 C928.11 590.6 928.1 592 928.1 593.39 C928.1 594.82 928.09 596.25 928.09 597.68 C928.09 601.43 928.08 605.19 928.07 608.94 C928.06 612.78 928.05 616.61 928.05 620.45 C928.04 627.96 928.02 635.48 928 643 C929.24 643.2 929.24 643.2 930.52 643.4 C931.6 643.58 932.69 643.76 933.8 643.94 C935.42 644.2 935.42 644.2 937.07 644.47 C940.2 645.04 943.02 645.9 946 647 C947.79 647.55 949.58 648.09 951.38 648.62 C952.25 648.89 953.12 649.15 954.02 649.41 C954.68 649.61 955.33 649.8 956 650 C956 650.66 956 651.32 956 652 C956.78 652.06 957.57 652.12 958.38 652.19 C963.35 653.3 967.52 655.6 972 658 C972 658.66 972 659.32 972 660 C972.58 660.29 973.15 660.58 973.75 660.88 C974.49 661.25 975.24 661.62 976 662 C976.68 662.31 977.36 662.62 978.06 662.94 C980.14 664.07 981.34 665.32 983 667 C984.94 668.71 986.9 670.4 988.87 672.09 C1005.2 686.74 1015.86 704.55 1022.39 725.29 C1022.86 727.01 1022.86 727.01 1024 728 C1024.1 729.92 1024.13 731.85 1024.13 733.77 C1024.13 735.63 1024.13 735.63 1024.14 737.51 C1024.14 738.87 1024.14 740.23 1024.13 741.59 C1024.13 742.97 1024.13 744.36 1024.14 745.74 C1024.14 748.65 1024.14 751.55 1024.13 754.45 C1024.12 758.18 1024.13 761.91 1024.13 765.64 C1024.14 768.5 1024.14 771.35 1024.13 774.21 C1024.13 775.59 1024.13 776.96 1024.14 778.34 C1024.14 780.26 1024.13 782.18 1024.13 784.1 C1024.13 785.74 1024.13 785.74 1024.13 787.41 C1024 790 1024 790 1023 792 C1022.34 792 1021.68 792 1021 792 C1020.92 793.13 1020.84 794.26 1020.75 795.43 C1020.11 800.5 1018.19 804.64 1015.94 809.19 C1015.34 810.43 1015.34 810.43 1014.73 811.69 C1011.7 817.86 1008.31 823.69 1004.53 829.43 C1003.17 831.71 1002.44 833.41 1002 836 C1001.34 836 1000.68 836 1000 836 C999.89 836.57 999.78 837.13 999.67 837.72 C998.9 840.34 997.73 842.21 996.25 844.5 C993.33 849.23 991.19 854.06 989.18 859.24 C988 862 988 862 986.52 864.31 C984.46 867.97 983.46 871.71 982.38 875.75 C982.16 876.51 981.94 877.27 981.72 878.05 C980.42 882.79 979.63 887.37 979.23 892.26 C979 894 979 894 978 895 C977.77 896.51 977.59 898.04 977.44 899.56 C977.35 900.39 977.27 901.22 977.18 902.07 C977.12 902.7 977.06 903.34 977 904 C977.93 903.99 978.87 903.99 979.83 903.98 C983.28 903.97 986.74 903.95 990.19 903.95 C991.69 903.94 993.18 903.93 994.68 903.92 C996.83 903.91 998.97 903.91 1001.12 903.9 C1002.41 903.9 1003.71 903.89 1005.04 903.89 C1008 904 1008 904 1009 905 C1009.11 906.54 1009.15 908.09 1009.16 909.64 C1009.17 910.64 1009.18 911.64 1009.19 912.67 C1009.19 913.78 1009.2 914.89 1009.21 916.04 C1009.22 917.22 1009.23 918.4 1009.24 919.61 C1009.27 923.45 1009.29 927.29 1009.32 931.13 C1009.33 933.49 1009.35 935.85 1009.37 938.21 C1009.44 947 1009.5 955.78 1009.56 964.56 C1009.71 984.18 1009.85 1003.79 1010 1024 C942.68 1024 875.36 1024 806 1024 C806.14 1004.39 806.29 984.77 806.44 964.56 C806.48 958.36 806.52 952.16 806.57 945.76 C806.63 938.21 806.63 938.21 806.66 934.69 C806.68 932.21 806.69 929.73 806.71 927.26 C806.73 923.52 806.76 919.78 806.79 916.04 C806.8 914.93 806.81 913.81 806.81 912.67 C806.82 911.67 806.83 910.67 806.84 909.64 C806.85 908.32 806.85 908.32 806.86 906.98 C807 905 807 905 808 904 C810.29 903.91 812.59 903.89 814.88 903.9 C815.57 903.9 816.25 903.91 816.96 903.91 C819.16 903.91 821.36 903.92 823.56 903.94 C825.05 903.94 826.54 903.95 828.03 903.95 C831.69 903.96 835.34 903.98 839 904 C838.89 902.06 838.76 900.12 838.62 898.19 C838.56 897.11 838.49 896.03 838.41 894.92 C838.19 891.81 838.19 891.81 836 889 C835.69 886.98 835.69 886.98 835.56 884.75 C835.17 880.35 833.81 877.04 832 873 C831.68 871.59 831.39 870.17 831.12 868.75 C829.95 863.09 827.54 858.17 825 853 C824.57 852.12 824.57 852.12 824.13 851.23 C820.45 843.59 820.45 843.59 816.29 836.21 C815 834 815 834 815 832 C814.34 832 813.68 832 813 832 C812.35 830.75 811.7 829.5 811.06 828.25 C810.52 827.21 810.52 827.21 809.97 826.14 C809.04 824.1 808.47 822.19 808 820 C807.34 820 806.68 820 806 820 C804.71 817.44 803.41 814.88 802.12 812.31 C801.76 811.59 801.4 810.87 801.02 810.13 C798.46 805.04 796.12 800.18 795 794.56 C794.45 791.92 793.84 789.55 792.94 787 C790.27 778.47 790.81 769.2 790.81 760.34 C790.81 758.07 790.79 755.8 790.78 753.53 C790.75 745.83 790.97 738.48 793 731 C793.33 729.78 793.66 728.57 794 727.31 C794.33 726.22 794.66 725.13 795 724 C795.29 722.89 795.58 721.77 795.88 720.62 C798.12 713.41 801.58 706.72 805 700 C805.66 700 806.32 700 807 700 C807.23 699.13 807.45 698.27 807.69 697.38 C809.26 693.33 811.02 691.13 814 688 C814.66 688 815.32 688 816 688 C816.03 687.32 816.05 686.64 816.08 685.94 C817.46 681.54 820.41 679.09 823.69 675.94 C824.3 675.33 824.91 674.71 825.54 674.08 C829.13 670.57 832.72 667.66 837 665 C837.79 664.47 838.57 663.95 839.38 663.4 C844.79 659.77 849.92 656.4 856 654 C856.99 653.34 857.98 652.68 859 652 C861.69 651.88 861.69 651.88 864 652 C864.33 651.01 864.66 650.02 865 649 C867.51 648.12 867.51 648.12 870.69 647.44 C874.89 646.48 878.93 645.43 883 644 C884.32 643.67 885.64 643.34 887 643 C887.33 633.43 887.66 623.86 888 614 C661.62 614 435.24 614 202 614 C202 628.52 202 643.04 202 658 C211.83 658.29 211.83 658.29 221.66 658.57 C222.87 658.61 224.09 658.64 225.34 658.68 C226.59 658.72 227.84 658.76 229.13 658.79 C232 659 232 659 233 660 C233.16 662.96 233.26 665.89 233.32 668.85 C233.34 669.73 233.36 670.62 233.38 671.53 C233.44 674.38 233.5 677.22 233.56 680.06 C233.61 681.99 233.65 683.91 233.69 685.83 C233.8 690.55 233.9 695.28 234 700 C238.96 702.58 238.96 702.58 244.38 703.69 C246.17 703.84 246.17 703.84 248 704 C248.66 702.68 249.32 701.36 250 700 C250.66 700 251.32 700 252 700 C252.66 698.68 253.32 697.36 254 696 C254.66 696 255.32 696 256 696 C256.25 695.41 256.51 694.82 256.77 694.21 C258.14 691.76 259.53 690.46 261.69 688.69 C264.58 686.27 267.15 683.78 269.69 681 C272.63 678.03 272.63 678.03 275.62 677.81 C280.03 680.02 283.03 682.97 286.2 686.68 C289.8 690.82 293.59 694.73 297.47 698.61 C298.16 699.29 298.84 699.98 299.55 700.69 C300.99 702.13 302.43 703.56 303.87 705 C306.06 707.19 308.25 709.38 310.44 711.58 C311.85 712.98 313.25 714.39 314.66 715.79 C315.63 716.77 315.63 716.77 316.62 717.76 C320.27 721.39 324.02 724.74 328 728 C329.04 729.13 330.05 730.3 331 731.5 C332.97 733.89 334.95 735.88 337.38 737.81 C338.24 738.53 339.11 739.26 340 740 C340 740.66 340 741.32 340 742 C340.6 742.27 341.2 742.54 341.81 742.81 C344.07 744.04 345.47 744.94 347 747 C347.56 749.38 347.56 749.38 347 752 C344.38 754.37 344.38 754.37 342.73 755.6 C340.21 757.64 338.31 760.11 336.3 762.64 C335.87 763.09 335.44 763.54 335 764 C334.34 764 333.68 764 333 764 C332.34 765.32 331.68 766.64 331 768 C330.34 768 329.68 768 329 768 C328.69 768.8 328.69 768.8 328.38 769.62 C327.01 771.98 325.85 773.02 323.81 774.75 C321.93 776.55 321.07 777.41 320.76 780.02 C321.2 783.92 322.21 786.42 324 790 C337.53 790.33 351.06 790.66 365 791 C365 824.66 365 858.32 365 893 C351.14 893 337.28 893 323 893 C322.34 896.3 321.68 899.6 321 903 C320.67 904.65 320.34 906.3 320 908 C321.32 908.66 322.64 909.32 324 910 C324 910.66 324 911.32 324 912 C325.32 912.66 326.64 913.32 328 914 C328 914.66 328 915.32 328 916 C329.32 916.66 330.64 917.32 332 918 C332 918.66 332 919.32 332 920 C333.32 920.66 334.64 921.32 336 922 C336 922.66 336 923.32 336 924 C337.32 924.66 338.64 925.32 340 926 C340 926.66 340 927.32 340 928 C341.32 928.66 342.64 929.32 344 930 C344 930.66 344 931.32 344 932 C344.99 932.33 345.98 932.66 347 933 C347.81 934.88 347.81 934.88 348 937 C347.34 937.99 346.68 938.98 346 940 C345.34 940 344.68 940 344 940 C343.34 941.32 342.68 942.64 342 944 C341.34 944 340.68 944 340 944 C339.34 945.32 338.68 946.64 338 948 C337.34 948 336.68 948 336 948 C335.34 949.32 334.68 950.64 334 952 C333.34 952 332.68 952 332 952 C331.34 953.32 330.68 954.64 330 956 C329.34 956 328.68 956 328 956 C327.34 957.32 326.68 958.64 326 960 C325.34 960 324.68 960 324 960 C323.34 961.32 322.68 962.64 322 964 C321.34 964 320.68 964 320 964 C319.34 965.32 318.68 966.64 318 968 C317.34 968 316.68 968 316 968 C315.34 969.32 314.68 970.64 314 972 C313.34 972 312.68 972 312 972 C311.34 973.32 310.68 974.64 310 976 C309.34 976 308.68 976 308 976 C307.34 977.32 306.68 978.64 306 980 C305.34 980 304.68 980 304 980 C303.34 981.32 302.68 982.64 302 984 C301.34 984 300.68 984 300 984 C299.34 985.32 298.68 986.64 298 988 C297.34 988 296.68 988 296 988 C295.34 989.32 294.68 990.64 294 992 C293.34 992 292.68 992 292 992 C291.34 993.32 290.68 994.64 290 996 C289.34 996 288.68 996 288 996 C287.34 997.32 286.68 998.64 286 1000 C285.34 1000 284.68 1000 284 1000 C283.34 1001.32 282.68 1002.64 282 1004 C281.34 1004 280.68 1004 280 1004 C279.67 1004.99 279.34 1005.98 279 1007 C273.12 1007.7 273.12 1007.7 270.33 1005.95 C268.6 1004.4 267 1002.79 265.41 1001.09 C264.82 1000.49 264.23 999.9 263.62 999.28 C261.75 997.37 259.91 995.43 258.06 993.5 C256.8 992.2 255.53 990.9 254.26 989.6 C251.15 986.42 248.07 983.21 245 980 C244.3 980.29 243.6 980.58 242.88 980.88 C239.95 982.02 236.98 983.01 234 984 C234 997.2 234 1010.4 234 1024 C199.68 1024 165.36 1024 130 1024 C130.33 1011.13 130.66 998.26 131 985 C124.55 982.83 124.55 982.83 118 981 C115.85 982.9 115.85 982.9 114 985 C113.34 985 112.68 985 112 985 C111.73 985.6 111.46 986.19 111.18 986.81 C110.02 988.97 108.88 990.35 107.14 992.06 C106.58 992.61 106.02 993.16 105.45 993.73 C104.58 994.57 104.58 994.57 103.69 995.44 C103.12 996 102.55 996.56 101.96 997.13 C100.84 998.24 99.71 999.34 98.58 1000.43 C97.12 1001.88 95.72 1003.38 94.32 1004.89 C92 1007 92 1007 88.19 1007.31 C86.61 1007.16 86.61 1007.16 85 1007 C84.5 1005.51 84.5 1005.51 84 1004 C82 1002.79 82 1002.79 80 1002 C80 1001.34 80 1000.68 80 1000 C78.68 999.34 77.36 998.68 76 998 C76 997.34 76 996.68 76 996 C74.68 995.34 73.36 994.68 72 994 C72 993.34 72 992.68 72 992 C70.68 991.34 69.36 990.68 68 990 C68 989.34 68 988.68 68 988 C66.68 987.34 65.36 986.68 64 986 C64 985.34 64 984.68 64 984 C62.68 983.34 61.36 982.68 60 982 C60 981.34 60 980.68 60 980 C58.68 979.34 57.36 978.68 56 978 C56 977.34 56 976.68 56 976 C54.68 975.34 53.36 974.68 52 974 C52 973.34 52 972.68 52 972 C50.68 971.34 49.36 970.68 48 970 C48 969.34 48 968.68 48 968 C46.68 967.34 45.36 966.68 44 966 C44 965.34 44 964.68 44 964 C42.68 963.34 41.36 962.68 40 962 C40 961.34 40 960.68 40 960 C38.68 959.34 37.36 958.68 36 958 C36 957.34 36 956.68 36 956 C34.68 955.34 33.36 954.68 32 954 C32 953.34 32 952.68 32 952 C30.68 951.34 29.36 950.68 28 950 C28 949.34 28 948.68 28 948 C26.68 947.34 25.36 946.68 24 946 C24 945.34 24 944.68 24 944 C22.68 943.34 21.36 942.68 20 942 C20 941.34 20 940.68 20 940 C19.34 940 18.68 940 18 940 C17.19 937.38 17.19 937.38 17 934 C18.39 931.52 19.93 930.02 22 928 C22.66 928 23.32 928 24 928 C24.66 926.68 25.32 925.36 26 924 C26.66 924 27.32 924 28 924 C28.66 922.68 29.32 921.36 30 920 C30.66 920 31.32 920 32 920 C32.66 918.68 33.32 917.36 34 916 C34.66 916 35.32 916 36 916 C36.66 914.68 37.32 913.36 38 912 C38.66 912 39.32 912 40 912 C40.66 910.68 41.32 909.36 42 908 C42.66 908 43.32 908 44 908 C44.35 903.79 43.62 902.22 41 899 C40.01 896.53 40.01 896.53 39 894 C26.13 894 13.26 894 0 894 C0 859.68 0 825.36 0 790 C12.54 790.33 25.08 790.66 38 791 C38.66 789.68 39.32 788.36 40 787 C40.56 786.2 41.11 785.39 41.69 784.56 C43.31 781.39 43.01 780.35 42 777 C38.65 772.09 34.18 768.18 29.62 764.43 C27.11 762.22 25.14 759.56 23 757 C21.74 755.96 20.47 754.94 19.19 753.94 C16.1 751.34 16.1 751.34 15.25 748.44 C16.32 744.95 18.24 743.31 21 741 C21.99 740.67 22.98 740.34 24 740 C25.21 738 25.21 738 26 736 C26.66 736 27.32 736 28 736 C28.66 734.68 29.32 733.36 30 732 C30.66 732 31.32 732 32 732 C32.66 730.68 33.32 729.36 34 728 C34.66 728 35.32 728 36 728 C36.66 726.68 37.32 725.36 38 724 C38.66 724 39.32 724 40 724 C40.66 722.68 41.32 721.36 42 720 C42.66 720 43.32 720 44 720 C44.66 718.68 45.32 717.36 46 716 C46.66 716 47.32 716 48 716 C48.66 714.68 49.32 713.36 50 712 C50.66 712 51.32 712 52 712 C52.66 710.68 53.32 709.36 54 708 C54.66 708 55.32 708 56 708 C56.66 706.68 57.32 705.36 58 704 C58.66 704 59.32 704 60 704 C60.66 702.68 61.32 701.36 62 700 C62.66 700 63.32 700 64 700 C64.66 698.68 65.32 697.36 66 696 C66.66 696 67.32 696 68 696 C68.66 694.68 69.32 693.36 70 692 C70.66 692 71.32 692 72 692 C72.66 690.68 73.32 689.36 74 688 C74.66 688 75.32 688 76 688 C76.66 686.68 77.32 685.36 78 684 C78.66 684 79.32 684 80 684 C80.66 682.68 81.32 681.36 82 680 C82.66 680 83.32 680 84 680 C84.33 679.01 84.66 678.02 85 677 C86.98 677 88.96 677 91 677 C91.5 678.49 91.5 678.49 92 680 C94 681.21 94 681.21 96 682 C96 682.66 96 683.32 96 684 C97.32 684.66 98.64 685.32 100 686 C100 686.66 100 687.32 100 688 C101.32 688.66 102.64 689.32 104 690 C104 690.66 104 691.32 104 692 C105.32 692.66 106.64 693.32 108 694 C108 694.66 108 695.32 108 696 C109.32 696.66 110.64 697.32 112 698 C112 698.66 112 699.32 112 700 C113.32 700.66 114.64 701.32 116 702 C116 702.66 116 703.32 116 704 C117.38 703.71 118.75 703.42 120.12 703.12 C120.89 702.96 121.66 702.8 122.45 702.63 C125.34 701.92 128.17 700.94 131 700 C131 686.47 131 672.94 131 659 C135.2 658.16 138.19 657.94 142.39 658.12 C144.2 658.19 144.2 658.19 146.04 658.27 C147.28 658.32 148.53 658.38 149.81 658.44 C151.08 658.49 152.34 658.54 153.65 658.6 C156.76 658.73 159.88 658.86 163 659 C163 657.96 163 656.92 162.99 655.86 C162.97 646.1 162.96 636.34 162.95 626.59 C162.94 621.57 162.94 616.55 162.92 611.54 C162.91 606.7 162.91 601.86 162.91 597.03 C162.9 595.18 162.9 593.33 162.89 591.48 C162.89 588.9 162.89 586.31 162.89 583.73 C162.88 582.96 162.88 582.19 162.88 581.39 C162.89 576.11 162.89 576.11 164 575 C165.75 574.9 167.5 574.88 169.25 574.88 C170.96 574.87 170.96 574.87 172.71 574.87 C174.62 574.88 174.62 574.88 176.57 574.88 C177.93 574.88 179.28 574.88 180.63 574.88 C184.37 574.87 188.11 574.88 191.85 574.88 C195.87 574.89 199.89 574.89 203.92 574.89 C210.9 574.89 217.87 574.89 224.85 574.89 C234.94 574.9 245.03 574.9 255.11 574.91 C271.48 574.91 287.85 574.92 304.21 574.92 C320.11 574.93 336.02 574.94 351.92 574.95 C352.9 574.95 353.88 574.95 354.89 574.95 C359.8 574.95 364.71 574.95 369.63 574.95 C410.42 574.96 451.21 574.98 492 575 C492 560.48 492 545.96 492 531 C388.71 531 285.42 531 179 531 C179 487.44 179 443.88 179 399 C141.9 399.41 141.9 399.41 104.8 399.84 C97.64 399.91 97.64 399.91 94.29 399.94 C91.94 399.97 89.59 399.99 87.25 400.02 C83.7 400.07 80.15 400.1 76.6 400.14 C75.55 400.15 74.5 400.17 73.41 400.19 C72.46 400.19 71.51 400.2 70.53 400.2 C69.28 400.22 69.28 400.22 68.01 400.23 C66 400 66 400 64 398 C63.81 394.98 63.74 392.05 63.76 389.03 C63.76 388.09 63.76 387.15 63.75 386.18 C63.75 383 63.76 379.83 63.77 376.66 C63.77 374.39 63.77 372.13 63.77 369.86 C63.77 363.69 63.78 357.52 63.8 351.35 C63.81 344.91 63.81 338.47 63.81 332.03 C63.82 321.21 63.83 310.4 63.85 299.58 C63.87 288.44 63.88 277.3 63.89 266.16 C63.89 265.13 63.89 265.13 63.89 264.08 C63.89 260.63 63.9 257.19 63.9 253.75 C63.92 225.16 63.96 196.58 64 168 C42.88 168 21.76 168 0 168 C0 112.56 0 57.12 0 0 Z M35 36 C34.98 48.24 34.96 60.48 34.95 72.72 C34.94 78.4 34.94 84.08 34.92 89.76 C34.91 95.24 34.91 100.72 34.91 106.2 C34.9 108.3 34.9 110.39 34.89 112.49 C34.89 115.41 34.89 118.33 34.89 121.26 C34.88 122.13 34.88 123.01 34.88 123.91 C34.5 127.77 34.5 127.77 36 131 C38.84 131.1 41.67 131.14 44.51 131.13 C45.4 131.13 46.3 131.13 47.22 131.13 C50.18 131.14 53.15 131.14 56.12 131.13 C58.17 131.13 60.23 131.13 62.28 131.14 C66.59 131.14 70.9 131.14 75.22 131.13 C80.75 131.12 86.29 131.13 91.82 131.13 C96.06 131.14 100.31 131.14 104.55 131.13 C106.59 131.13 108.63 131.13 110.68 131.14 C113.53 131.14 116.38 131.13 119.23 131.13 C120.5 131.13 120.5 131.13 121.8 131.14 C125.12 131.12 127.83 131.06 131 130 C131 98.98 131 67.96 131 36 C127.1 34.7 123.4 34.86 119.34 34.87 C118.45 34.87 117.57 34.87 116.66 34.87 C113.73 34.86 110.8 34.86 107.87 34.87 C105.84 34.87 103.81 34.87 101.78 34.86 C97.52 34.86 93.26 34.86 89 34.87 C83.54 34.88 78.07 34.87 72.6 34.87 C68.41 34.86 64.22 34.86 60.02 34.87 C58.01 34.87 55.99 34.87 53.97 34.86 C51.16 34.86 48.35 34.87 45.53 34.87 C44.27 34.87 44.27 34.87 42.99 34.86 C38.86 34.77 38.86 34.77 35 36 Z M893 36 C892.9 38.95 892.87 41.88 892.89 44.83 C892.89 45.78 892.89 46.72 892.89 47.69 C892.89 50.75 892.89 53.82 892.9 56.88 C892.9 58.76 892.9 60.65 892.91 62.54 C892.91 69.54 892.92 76.55 892.94 83.56 C892.96 99.22 892.98 114.87 893 131 C924.35 131 955.7 131 988 131 C988.68 127.61 989.12 125.28 989.08 121.98 C989.07 120.84 989.07 120.84 989.06 119.67 C989.05 118.84 989.04 118.02 989.02 117.17 C989.01 116.29 989 115.41 988.99 114.51 C988.96 111.61 988.92 108.72 988.88 105.82 C988.85 103.81 988.83 101.8 988.81 99.79 C988.74 94.51 988.68 89.22 988.61 83.94 C988.53 78.54 988.47 73.14 988.4 67.75 C988.28 57.17 988.14 46.58 988 36 C978.99 35.87 969.98 35.74 960.98 35.61 C956.79 35.55 952.61 35.49 948.42 35.43 C925.57 35.08 925.57 35.08 902.73 34.91 C901.38 34.9 901.38 34.9 900.01 34.89 C896.2 34.51 896.2 34.51 893 36 Z M492 40 C490.91 40.49 490.91 40.49 489.8 40.99 C480.31 45.54 471.69 54.12 468 64 C467.22 67.32 467.22 67.32 467 70 C466.34 70 465.68 70 465 70 C465 77.59 465 85.18 465 93 C465.66 93.33 466.32 93.66 467 94 C467.23 95.3 467.45 96.6 467.69 97.94 C469.76 108.25 478.34 116.55 486.62 122.5 C494.59 127.53 502.81 128.64 512.06 128.5 C513.07 128.52 514.09 128.53 515.13 128.55 C523.41 128.5 530.09 126.61 537 122 C537 121.34 537 120.68 537 120 C537.59 119.89 538.17 119.78 538.78 119.67 C543.48 118.25 547.08 114.38 549.75 110.38 C550.16 109.59 550.58 108.81 551 108 C551.84 106.98 551.84 106.98 552.69 105.94 C554.37 103.84 554.37 103.84 554 100 C554.66 100 555.32 100 556 100 C556.46 98.3 556.46 98.3 556.94 96.56 C558 93 558 93 559 92 C559.25 88.88 559.19 85.75 559.19 82.62 C559.2 81.75 559.21 80.87 559.22 79.97 C559.23 79.13 559.23 78.28 559.23 77.41 C559.23 76.64 559.24 75.87 559.24 75.07 C559.12 72.69 559.12 72.69 557 70 C556.73 68.95 556.46 67.9 556.19 66.81 C553.64 58.63 548.16 51.87 542 46 C541.34 46 540.68 46 540 46 C540 45.34 540 44.68 540 44 C537.56 42.85 535.13 41.71 532.69 40.56 C531.65 40.07 531.65 40.07 530.6 39.58 C518.87 34.08 503.51 33.47 492 40 Z M217 267 C217 341.25 217 415.5 217 492 C411.7 492 606.4 492 807 492 C807 417.75 807 343.5 807 267 C612.3 267 417.6 267 217 267 Z M863 694 C862.25 694.49 861.5 694.98 860.72 695.49 C852.4 701.06 845.34 706.85 841 716 C839.85 717.94 838.68 719.88 837.5 721.81 C834.14 727.53 831 733.24 831 740 C830.34 740 829.68 740 829 740 C826.86 762.98 826.86 762.98 832 785 C832.43 785.97 832.86 786.93 833.31 787.93 C834.52 790.63 835.75 793.32 837 796 C837.66 796 838.32 796 839 796 C839.22 797.14 839.22 797.14 839.44 798.31 C839.96 801.08 839.96 801.08 841 804 C841.66 804 842.32 804 843 804 C843.21 804.83 843.41 805.65 843.62 806.5 C844.83 809.57 845.81 811.19 847.81 813.69 C850.72 817.43 852.59 821.14 854.45 825.48 C855.71 828.34 857.03 831.15 858.39 833.95 C862.88 843.16 867.22 852.12 870 862 C870.37 863.22 870.74 864.43 871.12 865.69 C872.04 869.13 872.81 872.59 873.54 876.08 C873.94 878.07 873.94 878.07 875 880 C875.18 882.48 875.33 884.95 875.44 887.44 C875.79 894.1 876.64 900.45 878 907 C881.3 907 884.6 907 888 907 C888 870.04 888 833.08 888 795 C878.1 795 868.2 795 858 795 C849.03 786.03 856.34 769.68 856 757 C889.66 757 923.32 757 958 757 C958.33 769.54 958.66 782.08 959 795 C948.44 795 937.88 795 927 795 C926.98 809.46 926.96 823.91 926.95 838.37 C926.94 845.08 926.94 851.79 926.92 858.5 C926.91 864.97 926.91 871.44 926.91 877.91 C926.9 880.39 926.9 882.86 926.89 885.34 C926.89 888.79 926.89 892.24 926.89 895.7 C926.88 897.25 926.88 897.25 926.88 898.83 C926.88 900.23 926.88 900.23 926.88 901.67 C926.88 902.48 926.88 903.3 926.88 904.14 C926.8 906.02 926.8 906.02 928 907 C929.85 907.07 931.71 907.08 933.56 907.06 C934.57 907.05 935.59 907.04 936.63 907.04 C937.41 907.02 938.19 907.01 939 907 C940.3 898.7 941.26 890.55 941.66 882.16 C942.02 878.85 942.88 876.12 944 873 C944.36 871.51 944.69 870.01 945 868.5 C945.78 864.89 946.74 861.47 948 858 C948.23 857.36 948.45 856.72 948.69 856.07 C949.86 852.83 951.09 849.82 952.69 846.75 C954.29 843.91 954.29 843.91 954 840 C954.66 840 955.32 840 956 840 C956.4 838.85 956.8 837.7 957.21 836.52 C958.91 831.98 961.17 827.92 963.62 823.75 C964.43 822.37 965.24 820.99 966.04 819.61 C966.39 819.01 966.74 818.41 967.11 817.8 C968.06 815.89 968.56 814.08 969 812 C969.66 812 970.32 812 971 812 C971.25 811.49 971.51 810.98 971.77 810.46 C972.11 809.77 972.46 809.08 972.81 808.38 C973.17 807.65 973.54 806.92 973.91 806.17 C974.84 804.32 975.79 802.47 976.75 800.62 C978.14 798.18 978.14 798.18 978 796 C978.66 796 979.32 796 980 796 C980.2 795.36 980.41 794.72 980.62 794.07 C980.89 793.24 981.16 792.41 981.44 791.56 C981.7 790.74 981.97 789.92 982.25 789.07 C983 787 983 787 984 786 C984.54 783.54 985.04 781.1 985.5 778.62 C986.88 771.37 986.88 771.37 988 768 C989.03 752.54 989.03 752.54 985 738 C984.54 736.36 984.08 734.72 983.64 733.08 C982.37 728.95 980.65 724.99 979 721 C978.34 721 977.68 721 977 721 C976.75 720.32 976.5 719.64 976.25 718.94 C973.66 712.86 970.88 708.45 966 704 C964.94 702.98 964.94 702.98 963.86 701.95 C963.08 701.22 962.3 700.5 961.5 699.75 C960.77 699.06 960.04 698.38 959.28 697.67 C956.8 695.85 955.03 695.36 952 695 C951.5 693.51 951.5 693.51 951 692 C926.1 671.25 887.63 676.76 863 694 Z M167 695 C167.03 697.28 167.07 699.55 167.11 701.89 C167.13 704.1 167.15 706.3 167.16 708.51 C167.18 710.04 167.2 711.57 167.23 713.1 C167.26 715.3 167.28 717.5 167.29 719.71 C167.31 720.39 167.32 721.08 167.34 721.78 C167.34 724.64 167.33 726.54 165.65 728.91 C163.32 730.45 161.19 730.69 158.44 731.06 C154.24 731.52 154.24 731.52 151 734 C149.17 734.46 149.17 734.46 146.96 734.82 C141.63 735.92 137.34 738.17 132.62 740.81 C130.96 741.71 129.3 742.61 127.63 743.51 C126.84 743.94 126.05 744.37 125.23 744.81 C113.61 751 113.61 751 109 751 C108.67 750.01 108.34 749.02 108 748 C107.34 748 106.68 748 106 748 C106 747.34 106 746.68 106 746 C105.34 746 104.68 746 104 746 C104 745.34 104 744.68 104 744 C102.61 742.63 102.61 742.63 100.81 741.25 C98.38 739.25 96.31 737.29 94.38 734.81 C91.9 731.57 91.9 731.57 87 729 C80.73 735.27 74.46 741.54 68 748 C69.8 751.59 71.06 753.29 73.84 756 C74.6 756.74 75.35 757.49 76.12 758.25 C76.91 759.01 77.69 759.78 78.5 760.56 C80.05 762.08 81.61 763.6 83.16 765.13 C84.19 766.14 84.19 766.14 85.24 767.16 C87 769 87 769 89 772 C89.66 772 90.32 772 91 772 C90.15 773.71 89.29 775.42 88.44 777.12 C87.63 778.75 87.63 778.75 86.8 780.41 C85.56 782.89 84.3 785.37 83.04 787.84 C82.72 788.47 82.4 789.1 82.07 789.75 C81.16 791.56 80.24 793.36 79.32 795.16 C77.86 797.78 77.86 797.78 78 800 C77.34 800 76.68 800 76 800 C75.82 800.92 75.82 800.92 75.63 801.86 C75.47 802.67 75.3 803.48 75.12 804.31 C74.96 805.11 74.8 805.91 74.63 806.74 C74 809 74 809 72 812 C71.4 814.38 70.86 816.78 70.38 819.19 C70.11 820.46 69.85 821.73 69.59 823.04 C69.39 824.02 69.2 824.99 69 826 C68.01 826.03 67.01 826.05 65.99 826.08 C62.31 826.17 58.63 826.27 54.96 826.37 C53.36 826.42 51.77 826.46 50.17 826.5 C47.89 826.55 45.6 826.62 43.32 826.68 C42.24 826.71 42.24 826.71 41.14 826.73 C37.78 826.55 37.78 826.55 35 828 C34.91 830.07 34.89 832.15 34.9 834.22 C34.9 835.36 34.91 836.49 34.91 837.66 C34.92 839.11 34.93 840.57 34.94 842.06 C34.96 846.66 34.98 851.26 35 856 C51.83 856.5 51.83 856.5 69 857 C69.99 861.95 70.98 866.9 72 872 C73.48 874.48 73.48 874.48 75 877 C75.46 878.61 75.92 880.22 76.34 881.84 C78.22 887.99 80.81 894.4 84 900 C84.66 900.33 85.32 900.66 86 901 C87.05 903.31 88.04 905.65 89 908 C89.65 909.34 90.31 910.68 91 912 C90.5 912.62 90.01 913.24 89.5 913.88 C87.81 915.84 87.81 915.84 88 918 C87.4 918.26 86.8 918.52 86.18 918.79 C83.87 920.07 82.75 921.25 81.12 923.31 C79.15 925.73 77.23 927.72 74.75 929.62 C71.96 932.03 71 933.51 70 937 C73.49 941.32 77.11 945.1 81.39 948.64 C83.38 950.32 85.2 952.13 87 954 C91.11 952.82 92.97 951.05 95.55 947.71 C97.8 945.06 100.43 942.92 103.08 940.68 C105.21 938.88 105.21 938.88 107.69 936.06 C110 934 110 934 112.39 933.71 C115.41 934.05 116.65 934.82 119.06 936.62 C126.64 941.95 134.64 945.88 143.57 948.29 C146.13 949.04 148.49 950.01 150.94 951.06 C156.85 953.5 156.85 953.5 167 955 C167 965.89 167 976.78 167 988 C176.9 988 186.8 988 197 988 C197 977.11 197 966.22 197 955 C201.62 954.01 206.24 953.02 211 952 C213.69 951.07 216.37 950.08 219 949 C221 948.32 223 947.65 225 947 C225 946.34 225 945.68 225 945 C226.2 944.65 227.39 944.3 228.62 943.94 C233.71 942.26 238.4 939.9 243.13 937.43 C246.76 935.54 249.87 934 254 934 C254.37 934.86 254.37 934.86 254.75 935.73 C256.21 938.38 257.93 940.19 260.06 942.33 C260.86 943.13 261.66 943.93 262.48 944.75 C263.31 945.58 264.14 946.4 265 947.25 C265.83 948.09 266.67 948.93 267.52 949.8 C268.32 950.59 269.12 951.38 269.94 952.2 C271.03 953.3 271.03 953.3 272.15 954.41 C273.85 956.22 273.85 956.22 276 956 C278.17 954.17 278.17 954.17 280 952 C280 951.34 280 950.68 280 950 C280.6 949.74 281.2 949.48 281.81 949.21 C284.15 947.92 285.34 946.69 287 944.62 C289.21 941.93 291.49 939.42 294 937 C292.78 932.37 290.37 930.42 286.8 927.54 C285.12 926.1 283.76 924.66 282.38 922.94 C280.07 919.95 280.07 919.95 277.31 917.44 C274.59 914.57 273 912.02 273 908 C273.66 908 274.32 908 275 908 C280.3 897.5 285.34 886.98 289.06 875.81 C289.65 874.04 290.29 872.29 291 870.56 C292.1 867.87 292.1 867.87 293 864.44 C294 861 294 861 296 857 C306.89 856.67 317.78 856.34 329 856 C329 847.09 329 838.18 329 829 C312.17 828.5 312.17 828.5 295 828 C293.33 824.66 292.61 822.62 292 819.06 C291.33 815.47 290.39 812.39 289 809 C288.48 806.67 288 804.34 287.56 801.99 C287.12 799.79 287.12 799.79 285 798 C284.35 796.19 283.7 794.38 283.06 792.57 C279.45 783.68 279.45 783.68 274 776 C273.56 772.75 273.56 772.75 274 769 C276.62 766.5 276.62 766.5 278.29 765.31 C280.16 763.87 281.51 762.33 283 760.5 C284.93 758.15 286.86 756.2 289.25 754.31 C292.3 752.06 292.3 752.06 294 748 C288.06 742.06 282.12 736.12 276 730 C272.67 731.66 271.06 732.68 268.55 735.19 C267.62 736.11 267.62 736.11 266.67 737.05 C265.72 738.02 265.72 738.02 264.75 739 C264.1 739.64 263.45 740.28 262.78 740.95 C261.86 741.87 261.86 741.87 260.92 742.81 C260.36 743.38 259.8 743.94 259.22 744.52 C257.79 745.94 257.79 745.94 258 748 C254.76 750.3 251.91 750.2 248.06 749.61 C245.26 748.78 243.27 747.06 240.96 745.33 C237.61 743.05 233.96 741.53 230.25 739.94 C229.46 739.59 228.66 739.25 227.85 738.89 C219.39 735.25 211.23 731.95 202.09 730.49 C200 730 200 730 197 728 C196.66 725.45 196.51 723.14 196.49 720.59 C196.47 719.86 196.45 719.13 196.43 718.37 C196.38 716.04 196.35 713.71 196.31 711.38 C196.28 709.79 196.24 708.21 196.21 706.63 C196.12 702.76 196.06 698.88 196 695 C186.43 695 176.86 695 167 695 Z M845 943 C845 957.85 845 972.7 845 988 C887.24 988.33 929.48 988.66 973 989 C973 973.82 973 958.64 973 943 C930.76 943 888.52 943 845 943 Z M981.94 966.5 C977.1 972.74 977.75 980.49 978 988 C981.39 988.31 983.33 988.46 986.19 986.5 C989.28 982.23 991.08 978.13 990.88 972.81 C989.94 969.8 988.92 967.51 987 965 C983.98 964.71 983.98 964.71 981.94 966.5 Z " fill="#727272" transform="translate(0,0)"/>
<path d="M0 0 C55.44 0 110.88 0 168 0 C168 55.44 168 110.88 168 168 C126.98 168.06 126.98 168.06 85.12 168.12 C76.48 168.14 67.83 168.16 58.92 168.18 C48.39 168.19 48.39 168.19 43.47 168.19 C40.02 168.19 36.56 168.2 33.11 168.21 C28.72 168.22 24.32 168.23 19.93 168.23 C18.31 168.23 16.69 168.23 15.07 168.24 C12.9 168.25 10.72 168.25 8.54 168.24 C7.32 168.24 6.1 168.24 4.84 168.25 C2 168 2 168 0 166 C-0.24 163.33 -0.24 163.33 -0.23 159.9 C-0.23 158.62 -0.23 157.34 -0.23 156.02 C-0.22 154.61 -0.21 153.21 -0.2 151.8 C-0.19 150.37 -0.19 148.94 -0.19 147.51 C-0.18 143.74 -0.16 139.97 -0.14 136.19 C-0.12 132.35 -0.11 128.5 -0.1 124.65 C-0.08 117.1 -0.04 109.55 0 102 C0.66 102 1.32 102 2 102 C2 90.12 2 78.24 2 66 C1.01 66 0.02 66 -1 66 C-0.67 44.22 -0.34 22.44 0 0 Z M37 36 C36.9 38.95 36.87 41.88 36.89 44.83 C36.89 45.78 36.89 46.72 36.89 47.69 C36.89 50.75 36.89 53.82 36.9 56.88 C36.9 58.76 36.9 60.65 36.91 62.54 C36.91 69.54 36.92 76.55 36.94 83.56 C36.96 99.22 36.98 114.87 37 131 C68.35 131 99.7 131 132 131 C132.68 127.61 133.12 125.28 133.08 121.98 C133.07 120.84 133.07 120.84 133.06 119.67 C133.05 118.84 133.04 118.02 133.02 117.17 C133.01 116.29 133 115.41 132.99 114.51 C132.96 111.61 132.92 108.72 132.88 105.82 C132.85 103.81 132.83 101.8 132.81 99.79 C132.74 94.51 132.68 89.22 132.61 83.94 C132.53 78.54 132.47 73.14 132.4 67.75 C132.28 57.17 132.14 46.58 132 36 C122.99 35.87 113.98 35.74 104.98 35.61 C100.79 35.55 96.61 35.49 92.42 35.43 C69.57 35.08 69.57 35.08 46.73 34.91 C45.38 34.9 45.38 34.9 44.01 34.89 C40.2 34.51 40.2 34.51 37 36 Z " fill="#FE0047" transform="translate(856,0)"/>
<path d="M0 0 C55.44 0 110.88 0 168 0 C167.67 55.11 167.34 110.22 167 167 C164.27 168.37 162.1 168.13 159.04 168.13 C157.79 168.13 156.53 168.14 155.25 168.14 C153.87 168.14 152.5 168.14 151.13 168.13 C149.73 168.13 148.32 168.13 146.92 168.14 C143.98 168.14 141.04 168.14 138.1 168.13 C134.33 168.12 130.56 168.13 126.79 168.13 C123.89 168.14 120.99 168.14 118.09 168.13 C116.7 168.13 115.31 168.13 113.92 168.14 C111.98 168.14 110.04 168.13 108.09 168.13 C106.43 168.13 106.43 168.13 104.74 168.13 C102 168 102 168 99 167 C66 167 33 167.5 0 168 C0 112.56 0 57.12 0 0 Z M35 36 C34.98 48.24 34.96 60.48 34.95 72.72 C34.94 78.4 34.94 84.08 34.92 89.76 C34.91 95.24 34.91 100.72 34.91 106.2 C34.9 108.3 34.9 110.39 34.89 112.49 C34.89 115.41 34.89 118.33 34.89 121.26 C34.88 122.13 34.88 123.01 34.88 123.91 C34.5 127.77 34.5 127.77 36 131 C38.84 131.1 41.67 131.14 44.51 131.13 C45.4 131.13 46.3 131.13 47.22 131.13 C50.18 131.14 53.15 131.14 56.12 131.13 C58.17 131.13 60.23 131.13 62.28 131.14 C66.59 131.14 70.9 131.14 75.22 131.13 C80.75 131.12 86.29 131.13 91.82 131.13 C96.06 131.14 100.31 131.14 104.55 131.13 C106.59 131.13 108.63 131.13 110.68 131.14 C113.53 131.14 116.38 131.13 119.23 131.13 C120.5 131.13 120.5 131.13 121.8 131.14 C125.12 131.12 127.83 131.06 131 130 C131 98.98 131 67.96 131 36 C127.1 34.7 123.4 34.86 119.34 34.87 C118.45 34.87 117.57 34.87 116.66 34.87 C113.73 34.86 110.8 34.86 107.87 34.87 C105.84 34.87 103.81 34.87 101.78 34.86 C97.52 34.86 93.26 34.86 89 34.87 C83.54 34.88 78.07 34.87 72.6 34.87 C68.41 34.86 64.22 34.86 60.02 34.87 C58.01 34.87 55.99 34.87 53.97 34.86 C51.16 34.86 48.35 34.87 45.53 34.87 C44.27 34.87 44.27 34.87 42.99 34.86 C38.86 34.77 38.86 34.77 35 36 Z " fill="#FE0145" transform="translate(0,0)"/>
<path d="M0 0 C2.5 0.12 2.5 0.12 3.5 1.12 C5.17 1.2 6.84 1.27 8.52 1.31 C19.81 1.64 29.06 4.9 39.5 9.12 C39.5 9.78 39.5 10.45 39.5 11.12 C40.28 11.25 41.07 11.37 41.88 11.5 C44.5 12.12 44.5 12.12 46.5 14.12 C47.1 14.23 47.7 14.33 48.31 14.44 C50.91 15.25 52.11 16.64 53.97 18.56 C55.7 20.33 57.48 22.03 59.28 23.73 C66.75 30.91 73.44 37.4 77.5 47.12 C77.88 47.96 78.26 48.8 78.66 49.66 C79.33 51.15 80 52.65 80.64 54.15 C81.47 56.13 81.47 56.13 82.52 57.97 C83.58 60.29 83.88 62.1 84.1 64.64 C84.22 65.9 84.22 65.9 84.34 67.18 C84.41 68.05 84.49 68.92 84.56 69.81 C84.72 71.55 84.87 73.28 85.04 75.01 C85.13 76.16 85.13 76.16 85.23 77.33 C85.32 79.14 85.32 79.14 86.5 80.12 C86.6 81.79 86.63 83.46 86.62 85.12 C86.63 86.03 86.63 86.94 86.63 87.88 C86.5 90.12 86.5 90.12 85.5 91.12 C85.42 93.12 85.36 95.12 85.31 97.12 C84.93 103.29 83.67 108.62 81.62 114.44 C81.37 115.18 81.11 115.93 80.85 116.7 C80.07 118.8 80.07 118.8 78.5 122.12 C77.51 122.46 76.52 122.78 75.5 123.12 C75.46 124.12 75.42 125.11 75.38 126.12 C74.8 130.39 72.67 132.98 69.97 136.23 C68.44 138.06 68.44 138.06 67.55 140.14 C64.83 145.3 58.62 149.57 53.5 152.12 C52.84 152.12 52.18 152.12 51.5 152.12 C51.13 153.08 51.13 153.08 50.75 154.06 C49.5 156.12 49.5 156.12 47.38 156.88 C46.76 156.96 46.14 157.04 45.5 157.12 C45.5 157.78 45.5 158.44 45.5 159.12 C35.52 164.51 25.84 168.2 14.5 169.12 C14.17 169.46 13.84 169.78 13.5 170.12 C9.13 170.38 4.75 170.31 0.38 170.31 C-0.85 170.32 -2.07 170.34 -3.34 170.35 C-9.48 170.36 -14.71 170.22 -20.5 168.12 C-22.18 167.69 -22.18 167.69 -23.9 167.24 C-28.17 165.92 -32.09 164.17 -36.12 162.25 C-37.23 161.74 -37.23 161.74 -38.36 161.22 C-42.53 159.26 -45.98 157.16 -49.5 154.12 C-50.76 153.24 -52.03 152.36 -53.31 151.5 C-54.89 150.32 -54.89 150.32 -56.5 149.12 C-56.5 148.47 -56.5 147.81 -56.5 147.12 C-57.82 146.47 -59.14 145.81 -60.5 145.12 C-60.5 144.47 -60.5 143.81 -60.5 143.12 C-61.49 142.79 -62.48 142.47 -63.5 142.12 C-64.48 140.48 -65.44 138.82 -66.34 137.12 C-67.53 135.08 -68.87 133.38 -70.38 131.56 C-76.69 123.38 -81.4 111.6 -82.06 101.31 C-82.02 97.91 -82.02 97.91 -83.5 95.12 C-83.75 91.55 -83.69 87.96 -83.69 84.38 C-83.7 83.37 -83.71 82.37 -83.72 81.34 C-83.73 80.36 -83.73 79.39 -83.73 78.39 C-83.73 77.5 -83.74 76.61 -83.74 75.7 C-83.47 72.85 -82.63 70.74 -81.5 68.12 C-80.93 65.01 -80.5 61.9 -80.06 58.77 C-79.5 56.12 -79.5 56.12 -77.5 54.12 C-77.25 53.13 -77 52.14 -76.75 51.12 C-74.44 42.51 -68.53 35.47 -62.5 29.12 C-61.74 28.32 -60.97 27.52 -60.19 26.69 C-44.03 11.28 -28.1 2.91 -5.65 1.37 C-2.98 1.07 -2.8 0.14 0 0 Z M-34.5 55.12 C-35.39 55.94 -36.28 56.75 -37.2 57.59 C-39.71 60.35 -40.9 62.72 -42.25 66.19 C-42.66 67.21 -43.06 68.23 -43.48 69.29 C-47.74 81.19 -45.85 93.51 -41.5 105.12 C-40.53 107.14 -39.53 109.14 -38.5 111.12 C-38.04 112.18 -38.04 112.18 -37.56 113.25 C-36.2 115.65 -34.57 117.31 -32.5 119.12 C-31.84 119.12 -31.18 119.12 -30.5 119.12 C-30.5 119.78 -30.5 120.44 -30.5 121.12 C-28.53 122.59 -28.53 122.59 -26 124 C-25.16 124.49 -24.33 124.98 -23.47 125.49 C-22.49 126.03 -21.51 126.57 -20.5 127.12 C-19.94 127.48 -19.39 127.83 -18.81 128.2 C-12.68 131.8 -6.91 131.66 0.06 131.5 C1.16 131.5 2.26 131.5 3.39 131.5 C11.44 131.41 17.6 130.61 24.56 126.31 C25.76 125.59 25.76 125.59 26.97 124.86 C32.49 121.08 36.37 117.39 40.19 111.88 C40.93 110.82 41.68 109.76 42.45 108.67 C47.12 101.12 47.98 93.74 47.88 85 C47.89 84.05 47.9 83.1 47.91 82.12 C47.89 76.31 47.19 72.28 44.5 67.12 C44.15 66.37 43.79 65.61 43.43 64.82 C36.39 51.4 26.42 43.82 12.27 39.09 C-6.87 34.21 -21.17 42.37 -34.5 55.12 Z " fill="#707171" transform="translate(180.5,756.875)"/>
<path d="M0 0 C1.22 -0 1.22 -0 2.47 -0.01 C4.2 -0.02 5.93 -0.02 7.65 -0.02 C10.3 -0.02 12.95 -0.04 15.6 -0.06 C17.27 -0.06 18.95 -0.06 20.62 -0.06 C21.42 -0.07 22.22 -0.08 23.04 -0.08 C28.65 -0.06 28.65 -0.06 30.88 2.17 C31.05 4.89 31.11 7.51 31.07 10.24 C31.07 11.03 31.07 11.83 31.07 12.65 C31.05 15.2 31.03 17.75 31 20.29 C30.99 22.02 30.98 23.74 30.98 25.47 C30.95 29.7 30.92 33.93 30.88 38.17 C27.14 40.59 23.43 40.46 19.12 40.43 C18.38 40.44 17.63 40.44 16.87 40.44 C15.3 40.44 13.73 40.44 12.16 40.43 C9.76 40.42 7.35 40.43 4.95 40.44 C3.42 40.44 1.9 40.44 0.37 40.43 C-0.71 40.44 -0.71 40.44 -1.81 40.45 C-6.89 40.4 -6.89 40.4 -9.12 38.17 C-9.31 35.38 -9.38 32.7 -9.35 29.91 C-9.35 29.1 -9.35 28.28 -9.35 27.44 C-9.35 25.72 -9.34 23.99 -9.33 22.26 C-9.31 19.61 -9.31 16.96 -9.31 14.31 C-9.3 12.64 -9.3 10.96 -9.29 9.29 C-9.29 8.49 -9.29 7.69 -9.29 6.87 C-9.22 -0.99 -7.12 0.01 0 0 Z " fill="#FD0244" transform="translate(501.12109375,359.83203125)"/>
<path d="M0 0 C194.37 0 388.74 0 589 0 C589 0.33 589 0.66 589 1 C588.3 1.01 587.6 1.02 586.88 1.03 C580.3 1.13 573.73 1.23 567.15 1.34 C563.77 1.39 560.38 1.45 557 1.5 C553.12 1.55 549.23 1.62 545.35 1.68 C543.52 1.71 543.52 1.71 541.65 1.73 C539.97 1.76 539.97 1.76 538.25 1.79 C537.26 1.81 536.27 1.83 535.25 1.84 C533.03 1.75 533.03 1.75 532 3 C529.54 3.1 527.11 3.13 524.65 3.13 C523.87 3.13 523.09 3.13 522.28 3.13 C519.63 3.13 516.98 3.13 514.32 3.13 C512.41 3.13 510.51 3.13 508.6 3.13 C503.33 3.14 498.06 3.13 492.78 3.13 C487.11 3.13 481.44 3.13 475.76 3.13 C464.63 3.14 453.51 3.14 442.38 3.14 C433.34 3.13 424.3 3.13 415.26 3.13 C413.98 3.13 412.69 3.13 411.37 3.13 C408.76 3.13 406.15 3.13 403.55 3.14 C379.76 3.14 355.97 3.14 332.18 3.13 C310.45 3.13 288.72 3.13 266.99 3.13 C242.59 3.14 218.2 3.14 193.8 3.13 C191.2 3.13 188.61 3.13 186.01 3.13 C184.73 3.13 183.45 3.13 182.13 3.13 C173.1 3.13 164.06 3.13 155.03 3.14 C144.03 3.14 133.03 3.14 122.02 3.13 C116.41 3.13 110.79 3.13 105.17 3.13 C100.03 3.14 94.9 3.13 89.76 3.13 C87.89 3.13 86.03 3.13 84.16 3.13 C81.64 3.13 79.12 3.13 76.6 3.13 C75.5 3.13 75.5 3.13 74.37 3.13 C71.3 3.12 68.94 2.98 66 2 C63.87 1.88 61.73 1.82 59.6 1.79 C58.96 1.78 58.31 1.77 57.65 1.76 C55.52 1.73 53.4 1.71 51.27 1.68 C49.79 1.66 48.32 1.64 46.84 1.62 C42.96 1.57 39.08 1.52 35.2 1.47 C31.24 1.42 27.28 1.36 23.31 1.31 C15.54 1.2 7.77 1.1 0 1 C0 0.67 0 0.34 0 0 Z " fill="#787878" transform="translate(218,492)"/>
<path d="M0 0 C0.79 -0 1.59 -0.01 2.4 -0.01 C4.08 -0.02 5.76 -0.02 7.44 -0.02 C10.02 -0.02 12.6 -0.04 15.17 -0.06 C16.8 -0.06 18.43 -0.06 20.06 -0.06 C20.84 -0.07 21.61 -0.08 22.41 -0.08 C27.87 -0.06 27.87 -0.06 30.1 2.17 C30.29 4.71 30.35 7.15 30.33 9.7 C30.33 10.44 30.33 11.18 30.33 11.95 C30.32 13.53 30.32 15.1 30.3 16.68 C30.29 19.09 30.28 21.5 30.28 23.92 C30.28 25.45 30.27 26.98 30.27 28.51 C30.26 29.23 30.26 29.95 30.26 30.7 C30.23 33.79 30.08 36.21 29.1 39.17 C2.26 40.64 2.26 40.64 -7.9 40.17 C-9.75 38.33 -9.03 35.74 -9.04 33.29 C-9.04 32.46 -9.04 31.64 -9.04 30.79 C-9.04 29.95 -9.04 29.11 -9.04 28.25 C-9.04 26.47 -9.04 24.69 -9.03 22.91 C-9.03 20.18 -9.03 17.45 -9.04 14.71 C-9.04 12.99 -9.04 11.27 -9.04 9.54 C-9.04 8.72 -9.04 7.9 -9.04 7.05 C-9.01 -0.84 -7.19 0.01 0 0 Z " fill="#FD0245" transform="translate(435.90234375,359.83203125)"/>
<path d="M0 0 C0.78 0 1.56 0 2.36 0.01 C3.16 0.01 3.95 0 4.77 0 C6.46 0 8.14 0 9.82 0.01 C12.41 0.01 15 0.01 17.59 0 C19.22 0 20.85 0 22.49 0.01 C23.27 0 24.04 0 24.85 0 C30.31 0.02 30.31 0.02 31.42 1.14 C31.51 3.95 31.54 6.74 31.52 9.55 C31.52 10.3 31.52 11.04 31.52 11.81 C31.51 14.61 31.5 17.4 31.49 20.2 C31.47 26.45 31.44 32.7 31.42 39.14 C18.88 39.14 6.34 39.14 -6.58 39.14 C-6.6 32.89 -6.62 26.64 -6.64 20.2 C-6.65 18.23 -6.66 16.25 -6.67 14.22 C-6.67 12.66 -6.67 11.11 -6.67 9.55 C-6.68 8.73 -6.68 7.92 -6.69 7.08 C-6.69 5.1 -6.64 3.12 -6.58 1.14 C-4.79 -0.65 -2.38 0.01 0 0 Z " fill="#FD0447" transform="translate(565.576416015625,359.8610534667969)"/>
<path d="M0 0 C0.71 0.01 1.42 0.01 2.15 0.02 C3.24 0.02 3.24 0.02 4.35 0.02 C5.89 0.03 7.43 0.03 8.96 0.05 C11.32 0.06 13.69 0.07 16.05 0.07 C17.54 0.07 19.03 0.08 20.52 0.08 C21.23 0.09 21.94 0.09 22.67 0.09 C27.65 0.14 27.65 0.14 28.77 1.25 C28.86 4.14 28.88 7 28.87 9.88 C28.86 10.75 28.86 11.61 28.86 12.5 C28.86 15.27 28.84 18.04 28.83 20.81 C28.83 22.69 28.82 24.56 28.82 26.44 C28.81 31.04 28.79 35.65 28.77 40.25 C28.44 40.25 28.11 40.25 27.77 40.25 C26.86 35.62 26.63 31.15 26.67 26.45 C26.67 25.72 26.67 25 26.67 24.25 C26.68 21.96 26.69 19.67 26.71 17.38 C26.71 15.81 26.71 14.25 26.72 12.69 C26.73 8.88 26.75 5.06 26.77 1.25 C17.2 1.25 7.63 1.25 -2.23 1.25 C-1.9 3.23 -1.57 5.21 -1.23 7.25 C-1.15 9.16 -1.12 11.06 -1.13 12.96 C-1.13 14.64 -1.13 14.64 -1.14 16.34 C-1.15 17.55 -1.15 18.76 -1.16 20 C-1.17 21.93 -1.17 21.93 -1.18 23.89 C-1.19 27.4 -1.21 30.91 -1.23 34.42 C-1.25 36.61 -1.26 38.8 -1.27 40.99 C-1.31 47.85 -1.35 54.71 -1.4 61.57 C-1.46 69.49 -1.5 77.41 -1.53 85.33 C-1.56 91.45 -1.6 97.58 -1.64 103.7 C-1.67 107.36 -1.69 111.02 -1.7 114.67 C-1.71 118.75 -1.75 122.82 -1.78 126.89 C-1.78 128.1 -1.78 129.32 -1.78 130.57 C-1.8 131.67 -1.81 132.78 -1.83 133.92 C-1.83 134.88 -1.84 135.85 -1.84 136.84 C-2.3 139.7 -3.17 140.33 -5.23 142.25 C-5.48 145.04 -5.56 147.59 -5.48 150.38 C-5.47 151.17 -5.46 151.95 -5.45 152.77 C-5.3 160.94 -4.81 169.1 -4.23 177.25 C-3.9 177.25 -3.57 177.25 -3.23 177.25 C-3.21 181.22 -3.19 185.19 -3.18 189.16 C-3.17 190.51 -3.17 191.86 -3.16 193.21 C-3.14 195.15 -3.14 197.09 -3.13 199.03 C-3.13 200.2 -3.12 201.37 -3.12 202.57 C-3.23 205.25 -3.23 205.25 -4.23 206.25 C-4.33 208.16 -4.36 210.06 -4.37 211.97 C-4.37 213.13 -4.37 214.29 -4.37 215.48 C-4.37 216.71 -4.36 217.93 -4.36 219.19 C-4.36 220.41 -4.37 221.63 -4.37 222.88 C-4.37 224.05 -4.37 225.21 -4.37 226.4 C-4.36 227.48 -4.36 228.55 -4.36 229.65 C-4.41 232.24 -4.41 232.24 -3.23 234.25 C-4.55 233.59 -5.87 232.93 -7.23 232.25 C-7.28 202.99 -7.31 173.72 -7.33 144.45 C-7.34 141 -7.34 137.55 -7.34 134.1 C-7.34 133.41 -7.34 132.72 -7.34 132.01 C-7.35 120.87 -7.37 109.73 -7.39 98.59 C-7.41 87.17 -7.42 75.74 -7.42 64.32 C-7.42 57.9 -7.43 51.48 -7.44 45.06 C-7.46 39.02 -7.46 32.99 -7.46 26.95 C-7.46 24.73 -7.46 22.51 -7.47 20.29 C-7.48 17.27 -7.48 14.25 -7.47 11.22 C-7.48 10.34 -7.48 9.45 -7.49 8.53 C-7.46 1.88 -6.89 0.03 0 0 Z " fill="#6F6F6F" transform="translate(71.23231506347656,165.7477569580078)"/>
<path d="M0 0 C99.66 0 199.32 0 302 0 C302 0.33 302 0.66 302 1 C301.14 1 300.28 1.01 299.39 1.01 C278.44 1.12 257.48 1.22 236.52 1.34 C226.38 1.39 216.25 1.45 206.11 1.5 C197.27 1.54 188.43 1.59 179.6 1.64 C174.92 1.66 170.24 1.69 165.57 1.71 C161.16 1.73 156.75 1.75 152.34 1.78 C150.73 1.79 149.12 1.8 147.51 1.8 C139.45 1.83 131.48 2.02 123.46 2.78 C120.6 3.04 117.78 3.13 114.91 3.13 C113.88 3.13 112.85 3.14 111.79 3.14 C110.72 3.14 109.66 3.13 108.56 3.13 C107.43 3.13 106.3 3.13 105.13 3.14 C102.77 3.14 100.41 3.13 98.04 3.13 C94.42 3.12 90.79 3.13 87.16 3.14 C84.86 3.14 82.55 3.13 80.25 3.13 C79.16 3.13 78.08 3.14 76.96 3.14 C75.96 3.14 74.96 3.13 73.92 3.13 C73.04 3.13 72.16 3.13 71.25 3.13 C69 3 69 3 66 2 C63.87 1.88 61.73 1.82 59.6 1.79 C58.96 1.78 58.31 1.77 57.65 1.76 C55.52 1.73 53.4 1.71 51.27 1.68 C49.79 1.66 48.32 1.64 46.84 1.62 C42.96 1.57 39.08 1.52 35.2 1.47 C31.24 1.42 27.28 1.36 23.31 1.31 C15.54 1.2 7.77 1.1 0 1 C0 0.67 0 0.34 0 0 Z " fill="#959595" transform="translate(218,492)"/>
<path d="M0 0 C94.38 0 188.76 0 286 0 C286 0.33 286 0.66 286 1 C285.3 1.01 284.6 1.02 283.88 1.03 C277.3 1.13 270.73 1.23 264.15 1.34 C260.77 1.39 257.38 1.45 254 1.5 C250.12 1.55 246.23 1.62 242.35 1.68 C240.52 1.71 240.52 1.71 238.65 1.73 C237.53 1.75 236.41 1.77 235.25 1.79 C234.26 1.81 233.27 1.83 232.25 1.84 C230.03 1.75 230.03 1.75 229 3 C226.56 3.1 224.16 3.14 221.72 3.13 C220.96 3.13 220.21 3.13 219.43 3.14 C217.8 3.14 216.17 3.13 214.54 3.13 C212.16 3.13 209.77 3.13 207.39 3.14 C199.52 3.14 191.67 3.01 183.8 2.65 C165.82 1.84 147.84 1.78 129.84 1.7 C125.26 1.67 120.68 1.65 116.09 1.62 C107.46 1.57 98.83 1.53 90.19 1.48 C80.35 1.43 70.5 1.38 60.65 1.32 C40.43 1.21 20.22 1.1 0 1 C0 0.67 0 0.34 0 0 Z " fill="#898989" transform="translate(521,492)"/>
<path d="M0 0 C0.84 -0 1.69 -0.01 2.55 -0.01 C3.94 -0.01 3.94 -0.01 5.36 -0 C6.33 -0 7.31 -0.01 8.31 -0.01 C11.54 -0.01 14.77 -0.01 18 -0.01 C20.24 -0.01 22.48 -0.01 24.72 -0.01 C29.41 -0.01 34.1 -0.01 38.79 -0 C44.82 0 50.85 -0 56.88 -0.01 C61.5 -0.01 66.12 -0.01 70.73 -0.01 C72.96 -0.01 75.18 -0.01 77.41 -0.01 C80.51 -0.01 83.61 -0.01 86.71 -0 C87.64 -0 88.57 -0.01 89.52 -0.01 C95.86 0.01 95.86 0.01 96.97 1.13 C97.11 3.8 97.01 6.45 96.97 9.13 C95.98 8.14 95.98 8.14 94.97 7.13 C94.97 5.81 94.97 4.49 94.97 3.13 C93.75 3.13 92.52 3.13 91.26 3.13 C79.76 3.15 68.25 3.17 56.74 3.18 C50.82 3.18 44.91 3.19 38.99 3.2 C33.29 3.21 27.58 3.22 21.87 3.22 C19.69 3.22 17.51 3.23 15.33 3.23 C12.28 3.24 9.24 3.24 6.19 3.24 C5.28 3.24 4.37 3.25 3.44 3.25 C-2.8 3.24 -2.8 3.24 -5.03 2.13 C-4.96 3.04 -4.89 3.95 -4.81 4.89 C-4.56 8.29 -4.31 11.7 -4.07 15.1 C-3.96 16.57 -3.85 18.04 -3.73 19.51 C-3.57 21.62 -3.42 23.74 -3.27 25.86 C-3.18 27.13 -3.08 28.4 -2.99 29.71 C-3.03 33.08 -3.55 35.14 -5.03 38.13 C-5.36 38.13 -5.69 38.13 -6.03 38.13 C-6.03 25.92 -6.03 13.71 -6.03 1.13 C-3.76 -0.01 -2.52 0 0 0 Z " fill="#818182" transform="translate(862.0301666259766,755.8730163574219)"/>
<path d="M0 0 C0.66 0 1.32 0 2 0 C2 0.99 2 1.98 2 3 C2.76 3.14 3.53 3.29 4.31 3.44 C7 4 7 4 10 5 C10 6.98 10 8.96 10 11 C10.66 11.33 11.32 11.66 12 12 C11.55 12.33 11.09 12.66 10.62 13 C6.16 18.5 6.47 27.23 6 34 C7.65 34 9.3 34 11 34 C11 34.33 11 34.66 11 35 C9.35 35 7.7 35 6 35 C6 35.99 6 36.98 6 38 C-8.04 38.13 -21.99 37.85 -36 37 C-36 36.67 -36 36.34 -36 36 C-41.28 35.67 -46.56 35.34 -52 35 C-52 34.67 -52 34.34 -52 34 C-34.31 33.9 -16.66 33.8 1 35 C0.97 34.37 0.94 33.73 0.91 33.08 C-0.19 9.82 -0.19 9.82 0 0 Z " fill="#787877" transform="translate(972,954)"/>
<path d="M0 0 C0.71 0.01 1.42 0.01 2.15 0.02 C3.24 0.02 3.24 0.02 4.35 0.02 C5.89 0.03 7.43 0.03 8.96 0.05 C11.32 0.06 13.69 0.07 16.05 0.07 C17.54 0.07 19.03 0.08 20.52 0.08 C21.23 0.09 21.94 0.09 22.67 0.09 C27.65 0.14 27.65 0.14 28.77 1.25 C28.86 4.14 28.88 7 28.87 9.88 C28.86 10.75 28.86 11.61 28.86 12.5 C28.86 15.27 28.84 18.04 28.83 20.81 C28.83 22.69 28.82 24.56 28.82 26.44 C28.81 31.04 28.79 35.65 28.77 40.25 C28.44 40.25 28.11 40.25 27.77 40.25 C26.86 35.62 26.63 31.15 26.67 26.45 C26.67 25.72 26.67 25 26.67 24.25 C26.68 21.96 26.69 19.67 26.71 17.38 C26.71 15.81 26.71 14.25 26.72 12.69 C26.73 8.88 26.75 5.06 26.77 1.25 C16.54 1.25 6.31 1.25 -4.23 1.25 C-4.23 1.91 -4.23 2.57 -4.23 3.25 C-4.89 3.25 -5.55 3.25 -6.23 3.25 C-6.09 4.55 -5.94 5.85 -5.79 7.19 C-5.71 7.92 -5.63 8.65 -5.55 9.4 C-5.41 11.26 -5.41 11.26 -4.23 12.25 C-4.13 14.36 -4.1 16.48 -4.1 18.59 C-4.1 19.88 -4.1 21.17 -4.1 22.5 C-4.1 23.18 -4.1 23.86 -4.1 24.55 C-4.11 26.61 -4.1 28.67 -4.1 30.73 C-4.1 32.02 -4.1 33.32 -4.1 34.65 C-4.1 35.84 -4.1 37.04 -4.1 38.27 C-4.23 41.25 -4.23 41.25 -5.23 44.25 C-5.35 46.85 -5.42 49.43 -5.44 52.03 C-5.45 52.82 -5.46 53.61 -5.47 54.42 C-5.5 57.04 -5.52 59.65 -5.55 62.26 C-5.57 64.08 -5.59 65.89 -5.61 67.7 C-5.67 72.47 -5.72 77.24 -5.76 82.01 C-5.81 86.87 -5.87 91.74 -5.93 96.61 C-6.03 106.15 -6.13 115.7 -6.23 125.25 C-6.56 125.25 -6.89 125.25 -7.23 125.25 C-7.28 109.25 -7.31 93.25 -7.34 77.24 C-7.35 69.81 -7.36 62.38 -7.38 54.95 C-7.4 48.48 -7.42 42.01 -7.42 35.53 C-7.42 32.1 -7.43 28.67 -7.44 25.24 C-7.46 21.42 -7.46 17.59 -7.46 13.77 C-7.47 12.63 -7.47 11.48 -7.48 10.31 C-7.48 9.27 -7.48 8.23 -7.47 7.16 C-7.47 6.26 -7.48 5.35 -7.48 4.42 C-6.95 -0.25 -4.01 0.02 0 0 Z " fill="#B8B0B2" transform="translate(71.23231506347656,165.7477569580078)"/>
<path d="M0 0 C0.33 0 0.66 0 1 0 C1.66 14.52 2.32 29.04 3 44 C3.33 44 3.66 44 4 44 C4.02 47.97 4.04 51.94 4.05 55.91 C4.06 57.26 4.07 58.61 4.08 59.96 C4.09 61.9 4.09 63.84 4.1 65.78 C4.1 66.95 4.11 68.11 4.11 69.32 C4 72 4 72 3 73 C2.9 74.9 2.87 76.81 2.87 78.71 C2.87 79.88 2.86 81.04 2.86 82.23 C2.87 83.46 2.87 84.68 2.88 85.94 C2.87 87.16 2.87 88.38 2.86 89.63 C2.86 90.79 2.87 91.96 2.87 93.15 C2.87 94.22 2.87 95.3 2.87 96.4 C2.82 98.98 2.82 98.98 4 101 C2.68 100.34 1.36 99.68 0 99 C0 66.33 0 33.66 0 0 Z " fill="#ABABAC" transform="translate(64,299)"/>
<path d="M0 0 C1.22 -0 1.22 -0 2.47 -0.01 C4.2 -0.02 5.93 -0.02 7.65 -0.02 C10.3 -0.02 12.95 -0.04 15.6 -0.06 C17.27 -0.06 18.95 -0.06 20.62 -0.06 C21.42 -0.07 22.22 -0.08 23.04 -0.08 C28.65 -0.06 28.65 -0.06 30.88 2.17 C31.05 4.89 31.11 7.51 31.07 10.24 C31.07 11.03 31.07 11.83 31.07 12.65 C31.05 15.2 31.03 17.75 31 20.29 C30.99 22.02 30.98 23.74 30.98 25.47 C30.95 29.7 30.92 33.93 30.88 38.17 C27.09 40.3 24.22 40.33 19.88 40.17 C19.88 39.51 19.88 38.85 19.88 38.17 C22.85 38.17 25.82 38.17 28.88 38.17 C28.55 37.51 28.22 36.85 27.88 36.17 C27.8 34.72 27.77 33.27 27.78 31.82 C27.78 30.97 27.79 30.11 27.79 29.24 C27.8 27.9 27.8 27.9 27.82 26.54 C27.82 25.65 27.83 24.75 27.83 23.82 C27.84 21.61 27.86 19.39 27.88 17.17 C28.21 17.17 28.54 17.17 28.88 17.17 C28.88 12.22 28.88 7.27 28.88 2.17 C17 2.17 5.12 2.17 -7.12 2.17 C-7.45 14.05 -7.78 25.93 -8.12 38.17 C-8.45 38.17 -8.78 38.17 -9.12 38.17 C-9.15 32.92 -9.16 27.67 -9.18 22.41 C-9.18 20.63 -9.19 18.84 -9.2 17.05 C-9.21 14.49 -9.21 11.92 -9.22 9.36 C-9.22 8.56 -9.23 7.75 -9.23 6.92 C-9.23 5 -9.18 3.09 -9.12 1.17 C-7.08 -0.88 -2.81 0 0 0 Z " fill="#FC376A" transform="translate(501.12109375,359.83203125)"/>
<path d="M0 0 C0.79 -0 1.59 -0.01 2.4 -0.01 C4.08 -0.02 5.76 -0.02 7.44 -0.02 C10.02 -0.02 12.6 -0.04 15.17 -0.06 C16.8 -0.06 18.43 -0.06 20.06 -0.06 C20.84 -0.07 21.61 -0.08 22.41 -0.08 C27.87 -0.06 27.87 -0.06 30.1 2.17 C30.22 5.29 30.22 5.29 30.1 8.17 C29.97 7.53 29.85 6.89 29.72 6.23 C29.52 5.55 29.31 4.87 29.1 4.17 C26.04 2.64 22.82 2.93 19.46 2.85 C18.8 2.83 18.13 2.81 17.45 2.8 C14.95 2.73 12.46 2.67 9.97 2.61 C4.4 2.46 -1.16 2.32 -6.9 2.17 C-6.9 13.72 -6.9 25.27 -6.9 37.17 C-2.28 37.17 2.34 37.17 7.1 37.17 C7.43 38.16 7.76 39.15 8.1 40.17 C5.45 40.19 2.81 40.21 0.16 40.23 C-0.59 40.24 -1.35 40.25 -2.13 40.26 C-4.05 40.26 -5.98 40.22 -7.9 40.17 C-9.75 38.33 -9.03 35.74 -9.04 33.29 C-9.04 32.46 -9.04 31.64 -9.04 30.79 C-9.04 29.95 -9.04 29.11 -9.04 28.25 C-9.04 26.47 -9.04 24.69 -9.03 22.91 C-9.03 20.18 -9.03 17.45 -9.04 14.71 C-9.04 12.99 -9.04 11.27 -9.04 9.54 C-9.04 8.72 -9.04 7.9 -9.04 7.05 C-9.01 -0.84 -7.19 0.01 0 0 Z " fill="#FC1C61" transform="translate(435.90234375,359.83203125)"/>
<path d="M0 0 C0.99 0 1.98 0 3 0 C3.5 2.48 3.5 2.48 4 5 C5.98 5 7.96 5 10 5 C10 5.33 10 5.66 10 6 C8.35 6 6.7 6 5 6 C5 6.99 5 7.98 5 9 C-9.04 9.13 -22.99 8.85 -37 8 C-37 7.67 -37 7.34 -37 7 C-42.28 6.67 -47.56 6.34 -53 6 C-53 5.67 -53 5.34 -53 5 C-35.31 4.9 -17.66 4.8 0 6 C0 4.02 0 2.04 0 0 Z " fill="#8E8E8D" transform="translate(973,983)"/>
<path d="M0 0 C9.24 0 18.48 0 28 0 C27.67 0.99 27.34 1.98 27 3 C18.09 3 9.18 3 0 3 C0 2.01 0 1.02 0 0 Z " fill="#888888" transform="translate(169,988)"/>
<path d="M0 0 C4.59 -0.02 9.18 -0.04 13.77 -0.05 C15.33 -0.06 16.89 -0.07 18.45 -0.08 C20.7 -0.09 22.95 -0.09 25.2 -0.1 C26.23 -0.11 26.23 -0.11 27.29 -0.11 C31.3 -0.11 35.07 0.23 39 1 C38.34 1.33 37.68 1.66 37 2 C36.67 2.66 36.34 3.32 36 4 C29.4 3.67 22.8 3.34 16 3 C16 2.67 16 2.34 16 2 C10.72 1.67 5.44 1.34 0 1 C0 0.67 0 0.34 0 0 Z " fill="#ADADAD" transform="translate(920,988)"/>
<path d="M0 0 C0.33 0 0.66 0 1 0 C1.06 0.64 1.12 1.28 1.18 1.93 C1.27 2.76 1.35 3.59 1.44 4.44 C1.52 5.26 1.6 6.08 1.68 6.93 C1.79 8.99 1.79 8.99 3 10 C3.22 14.1 3.19 18.2 3.19 22.3 C3.19 24.36 3.21 26.42 3.22 28.48 C3.23 29.77 3.23 31.06 3.23 32.4 C3.23 33.59 3.24 34.78 3.24 36.01 C3 39 3 39 1 42 C0.83 37.63 0.66 33.25 0.5 28.88 C0.45 27.66 0.4 26.44 0.36 25.18 C0.04 16.78 -0.06 8.41 0 0 Z " fill="#717171" transform="translate(64,168)"/>
<path d="M0 0 C0.33 0 0.66 0 1 0 C1.04 1.16 1.04 1.16 1.08 2.34 C1.19 5.83 1.31 9.32 1.44 12.81 C1.48 14.03 1.52 15.24 1.56 16.49 C1.6 17.66 1.64 18.82 1.68 20.02 C1.72 21.09 1.76 22.17 1.79 23.27 C1.9 26.09 1.9 26.09 3 29 C1.68 28.34 0.36 27.68 -1 27 C-1.03 22.69 -1.05 18.38 -1.06 14.06 C-1.07 12.83 -1.08 11.6 -1.09 10.33 C-1.09 9.16 -1.09 7.99 -1.1 6.79 C-1.1 5.7 -1.11 4.62 -1.11 3.5 C-1 1 -1 1 0 0 Z " fill="#757676" transform="translate(65,371)"/>
<path d="M0 0 C0.66 0 1.32 0 2 0 C2 0.99 2 1.98 2 3 C3.65 3.33 5.3 3.66 7 4 C7 6.31 7 8.62 7 11 C5.35 11 3.7 11 2 11 C2 11.99 2 12.98 2 14 C2.99 14 3.98 14 5 14 C5 14.66 5 15.32 5 16 C3.68 16.33 2.36 16.66 1 17 C0.1 13.16 -0.11 9.62 -0.06 5.69 C-0.05 4.62 -0.04 3.55 -0.04 2.45 C-0.02 1.64 -0.01 0.83 0 0 Z " fill="#9C9C9C" transform="translate(972,954)"/>
<path d="M0 0 C9.57 0 19.14 0 29 0 C29 0.99 29 1.98 29 3 C24.73 2.89 20.46 2.76 16.19 2.62 C14.37 2.58 14.37 2.58 12.51 2.53 C11.34 2.49 10.18 2.45 8.98 2.41 C7.37 2.37 7.37 2.37 5.73 2.32 C3 2 3 2 0 0 Z " fill="#858585" transform="translate(979,904)"/>
<path d="M0 0 C0.99 0 1.98 0 3 0 C3 1.98 3 3.96 3 6 C3.66 6.33 4.32 6.66 5 7 C4.55 7.33 4.09 7.66 3.62 8 C1.16 11.04 0.81 14.19 0 18 C-0.33 18 -0.66 18 -1 18 C-1 16.02 -1 14.04 -1 12 C-1.66 11.67 -2.32 11.34 -3 11 C-2.67 10.34 -2.34 9.68 -2 9 C-2.99 9 -3.98 9 -5 9 C-5 8.01 -5 7.02 -5 6 C-3.35 6 -1.7 6 0 6 C0 4.02 0 2.04 0 0 Z " fill="#8B8B8B" transform="translate(979,959)"/>
<path d="M0 0 C0.33 0 0.66 0 1 0 C1 1.98 1 3.96 1 6 C-2.73 7.24 -6.06 6.94 -9.95 6.66 C-10.94 6.59 -10.94 6.59 -11.95 6.52 C-14.05 6.37 -16.15 6.22 -18.25 6.06 C-19.68 5.96 -21.1 5.86 -22.53 5.76 C-26.02 5.51 -29.51 5.26 -33 5 C-33 4.67 -33 4.34 -33 4 C-22.11 4 -11.22 4 0 4 C0 2.68 0 1.36 0 0 Z " fill="#888888" transform="translate(329,852)"/>
<path d="M0 0 C0 0.33 0 0.66 0 1 C-11.39 1.11 -22.65 0.95 -34 0 C-34 -0.33 -34 -0.66 -34 -1 C-22.38 -2.72 -11.55 -1.61 0 0 Z " fill="#FC0086" transform="translate(111,35)"/>
<path d="M0 0 C5.28 0 10.56 0 16 0 C16.33 0.99 16.66 1.98 17 3 C11.72 3 6.44 3 1 3 C0.67 2.01 0.34 1.02 0 0 Z " fill="#FC3E77" transform="translate(427,397)"/>
<path d="M0 0 C0.7 0 1.39 0.01 2.11 0.01 C3.83 0.03 5.54 0.04 7.25 0.06 C7.25 0.72 7.25 1.38 7.25 2.06 C1.18 2.83 -4.64 3.16 -10.75 3.06 C-11.08 2.4 -11.41 1.74 -11.75 1.06 C-7.88 -0.2 -4.02 -0.05 0 0 Z " fill="#FB3E70" transform="translate(504.75,396.9375)"/>
<path d="M0 0 C0.66 0.33 1.32 0.66 2 1 C1.84 1.7 1.68 2.4 1.52 3.13 C0.98 6.1 0.79 8.93 0.68 11.96 C0.64 13.07 0.6 14.18 0.56 15.33 C0.52 16.48 0.48 17.63 0.44 18.81 C0.39 19.98 0.35 21.15 0.31 22.36 C0.2 25.24 0.1 28.12 0 31 C-0.33 31 -0.66 31 -1 31 C-1 22.09 -1 13.18 -1 4 C-2.32 3.67 -3.64 3.34 -5 3 C-3.35 2.67 -1.7 2.34 0 2 C0 1.34 0 0.68 0 0 Z " fill="#858585" transform="translate(889,610)"/>
<path d="M0 0 C0.72 0.48 0.72 0.48 1.45 0.96 C5.16 2.47 8.78 2.47 12.75 2.62 C13.94 2.68 13.94 2.68 15.15 2.74 C17.1 2.84 19.05 2.92 21 3 C21 3.33 21 3.66 21 4 C14.07 4 7.14 4 0 4 C-0.33 3.01 -0.66 2.02 -1 1 C-0.67 0.67 -0.34 0.34 0 0 Z " fill="#919292" transform="translate(500,32)"/>
<path d="M0 0 C0.99 0 1.98 0 3 0 C3 0.99 3 1.98 3 3 C2.34 3 1.68 3 1 3 C1 3.66 1 4.32 1 5 C0.34 5 -0.32 5 -1 5 C-1 5.66 -1 6.32 -1 7 C-2.65 7.33 -4.3 7.66 -6 8 C-5.34 6.68 -4.68 5.36 -4 4 C-3.34 4 -2.68 4 -2 4 C-1.34 2.68 -0.68 1.36 0 0 Z " fill="#868786" transform="translate(26,736)"/>
<path d="M0 0 C0.33 0 0.66 0 1 0 C1 4.62 1 9.24 1 14 C1.66 14 2.32 14 3 14 C3.33 15.98 3.66 17.96 4 20 C2.68 19.34 1.36 18.68 0 18 C0 12.06 0 6.12 0 0 Z " fill="#C3C3C3" transform="translate(64,380)"/>
<path d="M0 0 C0.6 0.16 1.2 0.33 1.81 0.5 C4.11 1.11 4.11 1.11 7 1 C6.67 1.99 6.34 2.98 6 4 C6.66 4.33 7.32 4.66 8 5 C8.33 4.01 8.66 3.02 9 2 C9 2.66 9 3.32 9 4 C9.99 4.33 10.98 4.66 12 5 C10.02 5.66 8.04 6.32 6 7 C5.75 6.38 5.5 5.76 5.25 5.12 C3.79 2.65 2.62 2.05 0 1 C0 0.67 0 0.34 0 0 Z " fill="#878888" transform="translate(72,993)"/>
<path d="M0 0 C1.32 0 2.64 0 4 0 C4.66 1.32 5.32 2.64 6 4 C6.99 3.67 7.98 3.34 9 3 C10.12 7.75 10.12 7.75 9 10 C8.75 9.38 8.51 8.76 8.25 8.12 C6.79 5.65 5.62 5.05 3 4 C3 3.34 3 2.68 3 2 C2.01 1.67 1.02 1.34 0 1 C0 0.67 0 0.34 0 0 Z " fill="#898989" transform="translate(41,962)"/>
<path d="M0 0 C1.32 0 2.64 0 4 0 C4 2.31 4 4.62 4 7 C2.68 6.67 1.36 6.34 0 6 C0 4.02 0 2.04 0 0 Z " fill="#B0B0B0" transform="translate(975,958)"/>
<path d="M0 0 C0.66 0.99 1.32 1.98 2 3 C0.02 5.31 -1.96 7.62 -4 10 C-5.32 9.67 -6.64 9.34 -8 9 C-7.38 8.75 -6.76 8.51 -6.12 8.25 C-3.65 6.79 -3.05 5.62 -2 3 C-1.34 3 -0.68 3 0 3 C0 2.01 0 1.02 0 0 Z " fill="#838485" transform="translate(448,25)"/>
<path d="M0 0 C0.33 0.66 0.66 1.32 1 2 C1.66 2.33 2.32 2.66 3 3 C2.34 3 1.68 3 1 3 C0.34 4.32 -0.32 5.64 -1 7 C-1.66 7 -2.32 7 -3 7 C-3.33 7.99 -3.66 8.98 -4 10 C-4.33 10 -4.66 10 -5 10 C-5 8.35 -5 6.7 -5 5 C-4.01 5 -3.02 5 -2 5 C-2 4.34 -2 3.68 -2 3 C-1.34 3 -0.68 3 0 3 C0 2.01 0 1.02 0 0 Z " fill="#838384" transform="translate(79,921)"/>
<path d="M0 0 C0.66 0.33 1.32 0.66 2 1 C2 1.33 2 1.66 2 2 C2.66 2.33 3.32 2.66 4 3 C2.68 3.33 1.36 3.66 0 4 C0 4.66 0 5.32 0 6 C-1.98 6.33 -3.96 6.66 -6 7 C-5.34 6.01 -4.68 5.02 -4 4 C-3.34 4 -2.68 4 -2 4 C-1.34 2.68 -0.68 1.36 0 0 Z " fill="#878887" transform="translate(290,752)"/>
<path d="M0 0 C0.33 0 0.66 0 1 0 C1 2.97 1 5.94 1 9 C0.01 9.33 -0.98 9.66 -2 10 C-2 10.66 -2 11.32 -2 12 C-2.66 12 -3.32 12 -4 12 C-3.67 10.68 -3.34 9.36 -3 8 C-2.34 8 -1.68 8 -1 8 C-0.67 5.36 -0.34 2.72 0 0 Z " fill="#848687" transform="translate(981,788)"/>
<path d="M0 0 C2.31 0.33 4.62 0.66 7 1 C6.67 2.65 6.34 4.3 6 6 C5.34 5.67 4.68 5.34 4 5 C4 4.34 4 3.68 4 3 C2.68 2.34 1.36 1.68 0 1 C0 0.67 0 0.34 0 0 Z " fill="#8A8A8A" transform="translate(20,941)"/>
<path d="M0 0 C0.33 0 0.66 0 1 0 C1.17 1.42 1.34 2.83 1.5 4.25 C1.59 5.04 1.69 5.83 1.78 6.64 C2 9 2 9 2 13 C1.01 13.5 1.01 13.5 0 14 C0 9.38 0 4.76 0 0 Z " fill="#A69F9F" transform="translate(64,168)"/>
<path d="M0 0 C0.33 0 0.66 0 1 0 C1 1.65 1 3.3 1 5 C-0.65 4.67 -2.3 4.34 -4 4 C-4.33 4.99 -4.66 5.98 -5 7 C-5.33 5.68 -5.66 4.36 -6 3 C-4.35 3 -2.7 3 -1 3 C-0.67 2.01 -0.34 1.02 0 0 Z " fill="#848483" transform="translate(865,649)"/>
<path d="M0 0 C1.32 0 2.64 0 4 0 C4.66 2.31 5.32 4.62 6 7 C5.34 6.67 4.68 6.34 4 6 C4 5.34 4 4.68 4 4 C2.68 3.34 1.36 2.68 0 2 C0 1.34 0 0.68 0 0 Z " fill="#838383" transform="translate(288,928)"/>
<path d="M0 0 C2.5 1.69 2.5 1.69 5 4 C5.31 6.75 5.31 6.75 5 9 C3 7.19 3 7.19 1 5 C1 4.01 1 3.02 1 2 C0.34 1.67 -0.32 1.34 -1 1 C-0.67 0.67 -0.34 0.34 0 0 Z " fill="#838483" transform="translate(342,743)"/>
<path d="M0 0 C2.97 0.33 5.94 0.66 9 1 C5.56 3.29 4.01 3.18 0 3 C0 2.01 0 1.02 0 0 Z " fill="#8A8A8A" transform="translate(931,644)"/>
<path d="M0 0 C0.33 0 0.66 0 1 0 C1.2 2.05 1.39 4.1 1.59 6.15 C1.72 6.76 1.86 7.37 2 8 C2.66 8.33 3.32 8.66 4 9 C2.35 9.33 0.7 9.66 -1 10 C-0.67 6.7 -0.34 3.4 0 0 Z " fill="#8C8C8C" transform="translate(926,635)"/>
<path d="M0 0 C1.49 0.99 1.49 0.99 3 2 C3 2.66 3 3.32 3 4 C4.32 4.66 5.64 5.32 7 6 C6.34 6.66 5.68 7.32 5 8 C5 7.34 5 6.68 5 6 C2.52 5.01 2.52 5.01 0 4 C0 2.68 0 1.36 0 0 Z " fill="#868686" transform="translate(569,20)"/>
<path d="M0 0 C0.66 1.32 1.32 2.64 2 4 C1.34 4 0.68 4 0 4 C0 4.66 0 5.32 0 6 C-1.32 5.34 -2.64 4.68 -4 4 C-3.01 3.67 -2.02 3.34 -1 3 C-0.67 2.01 -0.34 1.02 0 0 Z " fill="#868787" transform="translate(97,945)"/>
</svg>
