<?xml version="1.0" encoding="UTF-8"?>
<!-- Generator: https://ezgif.com/png-to-svg -->
<svg version="1.1" xmlns="http://www.w3.org/2000/svg" width="1024" height="1024">
<path d="M0 0 C1.26 -0 2.52 -0 3.82 -0 C7.29 -0.01 10.76 -0.01 14.24 -0 C18.02 -0 21.81 -0 25.6 -0.01 C32.23 -0.01 38.86 -0.01 45.49 -0.01 C55.35 -0 65.2 -0 75.06 -0.01 C92.67 -0.01 110.28 -0.01 127.89 -0.01 C143.3 -0.01 158.71 -0.01 174.12 -0.01 C175.66 -0.01 175.66 -0.01 177.22 -0.01 C181.37 -0.01 185.52 -0.01 189.68 -0.01 C228.61 -0.01 267.55 -0.01 306.49 -0 C341.07 0 375.66 0 410.24 -0 C449.1 -0.01 487.97 -0.01 526.84 -0.01 C530.98 -0.01 535.13 -0.01 539.27 -0.01 C540.29 -0.01 541.31 -0.01 542.36 -0.01 C557.76 -0.01 573.16 -0.01 588.56 -0.01 C606.07 -0.01 623.59 -0.01 641.1 -0.01 C650.9 -0 660.69 -0 670.49 -0.01 C677.04 -0.01 683.59 -0.01 690.14 -0 C693.87 -0 697.59 -0 701.32 -0 C740.5 -0.04 740.5 -0.04 749.89 3.75 C750.54 4.01 751.19 4.27 751.86 4.54 C758.42 7.23 764.63 10.58 770.76 14.13 C770.76 14.79 770.76 15.45 770.76 16.13 C771.64 16.53 771.64 16.53 772.53 16.93 C779.62 20.72 786.07 27.69 790.76 34.13 C790.76 35.12 790.76 36.11 790.76 37.13 C791.42 37.13 792.08 37.13 792.76 37.13 C804.96 53.51 806.21 71.99 806.12 91.58 C806.12 93.75 806.13 95.93 806.13 98.1 C806.14 104.05 806.13 109.99 806.11 115.94 C806.1 122.36 806.1 128.78 806.1 135.2 C806.11 146.31 806.1 157.43 806.08 168.54 C806.06 180.2 806.05 191.85 806.05 203.5 C806.05 204.23 806.05 204.95 806.05 205.7 C806.05 209.39 806.04 213.07 806.04 216.76 C806.04 242.83 806.02 268.91 805.99 294.98 C805.96 320.31 805.94 345.64 805.93 370.96 C805.93 371.74 805.93 372.53 805.93 373.33 C805.92 381.18 805.92 389.02 805.91 396.87 C805.91 412.85 805.9 428.83 805.89 444.81 C805.89 445.54 805.89 446.28 805.89 447.03 C805.86 496.06 805.81 545.09 805.76 594.13 C827.21 593.8 848.66 593.47 870.76 593.13 C871.28 616.31 871.28 616.31 871.4 626.26 C871.47 633.03 871.57 639.79 871.74 646.56 C871.89 652.02 871.96 657.47 872 662.94 C872.02 665.01 872.07 667.08 872.14 669.16 C872.72 687.08 872.72 687.08 866.32 694.02 C863.6 696.6 860.75 698.88 857.76 701.13 C854.42 703.79 851.26 706.46 848.51 709.75 C841.66 717.77 834.49 725.49 827.2 733.12 C824.59 735.85 822.02 738.6 819.5 741.41 C817.02 744.16 814.49 746.84 811.9 749.49 C810.95 750.49 810.01 751.51 809.11 752.56 C804.27 758.11 799.72 761.24 792.38 761.76 C790.26 761.82 788.13 761.87 786.01 761.89 C784.83 761.91 783.65 761.94 782.44 761.97 C778.55 762.05 774.66 762.09 770.76 762.13 C769.45 762.14 768.14 762.15 766.79 762.17 C757.21 762.26 747.63 762.26 738.06 762.25 C733.73 762.25 729.41 762.26 725.08 762.26 C717.53 762.26 709.98 762.26 702.42 762.26 C691.19 762.25 679.96 762.26 668.73 762.26 C648.67 762.26 628.61 762.26 608.55 762.26 C591.01 762.26 573.47 762.26 555.92 762.26 C554.17 762.26 554.17 762.26 552.39 762.26 C547.66 762.26 542.93 762.26 538.19 762.26 C493.86 762.26 449.53 762.26 405.2 762.26 C365.82 762.25 326.44 762.25 287.05 762.26 C242.77 762.26 198.49 762.26 154.21 762.26 C149.49 762.26 144.78 762.26 140.06 762.26 C138.32 762.26 138.32 762.26 136.54 762.26 C118.99 762.26 101.45 762.26 83.9 762.26 C63.97 762.26 44.04 762.26 24.1 762.26 C12.94 762.26 1.79 762.26 -9.37 762.26 C-16.82 762.26 -24.27 762.26 -31.71 762.26 C-35.96 762.25 -40.21 762.25 -44.45 762.26 C-48.32 762.26 -52.18 762.26 -56.04 762.25 C-57.43 762.25 -58.82 762.25 -60.21 762.26 C-78.52 762.29 -78.52 762.29 -82.8 759.39 C-83.51 758.66 -84.22 757.92 -84.96 757.16 C-85.74 756.36 -86.53 755.56 -87.34 754.74 C-88.13 753.9 -88.92 753.05 -89.74 752.19 C-90.56 751.35 -91.38 750.51 -92.23 749.65 C-98.24 743.45 -98.24 743.45 -98.24 741.13 C-99.23 740.8 -100.22 740.47 -101.24 740.13 C-102.43 738.7 -103.63 737.26 -104.78 735.8 C-106.32 734.04 -107.94 732.61 -109.74 731.13 C-113 728.42 -115.52 725.38 -118.24 722.13 C-119.39 721.1 -120.55 720.11 -121.74 719.13 C-125 716.42 -127.52 713.38 -130.24 710.13 C-131.39 709.1 -132.55 708.11 -133.74 707.13 C-137 704.42 -139.52 701.38 -142.24 698.13 C-144.05 696.5 -145.89 694.95 -147.78 693.42 C-149.24 692.13 -149.24 692.13 -150.24 690.13 C-151.23 689.8 -152.22 689.47 -153.24 689.13 C-153.24 657.45 -153.24 625.77 -153.24 593.13 C-132.78 593.13 -112.32 593.13 -91.24 593.13 C-90.43 537.05 -90.1 480.98 -90.17 424.89 C-90.18 414.19 -90.18 403.49 -90.19 392.78 C-90.19 373.66 -90.2 354.54 -90.22 335.42 C-90.22 333.73 -90.22 333.73 -90.22 332 C-90.22 325.13 -90.23 318.26 -90.24 311.39 C-90.24 301 -90.25 290.61 -90.26 280.22 C-90.26 279.08 -90.26 277.94 -90.26 276.76 C-90.27 257.63 -90.28 238.5 -90.29 219.37 C-90.3 207.69 -90.3 196 -90.32 184.32 C-90.32 176.32 -90.33 168.33 -90.33 160.33 C-90.33 155.75 -90.34 151.18 -90.34 146.6 C-90.36 135.95 -90.34 125.31 -90.26 114.66 C-90.24 112.92 -90.23 111.19 -90.22 109.45 C-90.18 103.92 -90.12 98.4 -90.02 92.87 C-90 91.13 -89.98 89.39 -89.96 87.65 C-89.8 68.82 -86.65 51.69 -75.24 36.13 C-74.75 35.45 -74.26 34.78 -73.75 34.09 C-67.7 26.01 -60.87 18.48 -52.24 13.13 C-51.25 13.13 -50.26 13.13 -49.24 13.13 C-49.24 12.47 -49.24 11.81 -49.24 11.13 C-32.75 1.56 -18.88 -0.04 0 0 Z M-25.43 41.5 C-27.18 42.38 -27.18 42.38 -28.97 43.27 C-39.95 49.49 -47.04 60.81 -50.81 72.67 C-53.04 81.11 -52.72 89.72 -52.74 98.39 C-52.76 100.36 -52.78 102.32 -52.8 104.29 C-52.85 109.69 -52.88 115.1 -52.9 120.5 C-52.92 125.15 -52.96 129.8 -52.99 134.45 C-53.41 193.33 -53.39 252.22 -53.37 311.11 C-53.36 322.71 -53.36 334.31 -53.37 345.92 C-53.37 359.73 -53.38 373.54 -53.37 387.36 C-53.37 388.84 -53.37 390.33 -53.37 391.82 C-53.37 392.55 -53.37 393.28 -53.37 394.04 C-53.37 398.31 -53.37 402.59 -53.37 406.86 C-53.37 408.93 -53.37 411.01 -53.38 413.08 C-53.38 415.56 -53.38 418.04 -53.38 420.52 C-53.38 424.66 -53.37 428.79 -53.37 432.93 C-53.37 433.99 -53.36 435.04 -53.36 436.13 C-53.32 456.07 -53.1 476 -52.77 495.94 C-52.7 499.59 -52.65 503.24 -52.59 506.9 C-52.47 513.97 -52.36 521.05 -52.24 528.13 C26.12 528.14 104.47 528.16 182.82 528.17 C183.98 528.17 185.14 528.17 186.33 528.17 C211.51 528.17 236.69 528.17 261.87 528.18 C274.21 528.18 286.56 528.18 298.9 528.18 C300.13 528.18 301.36 528.18 302.63 528.18 C342.49 528.19 382.35 528.19 422.21 528.2 C463.16 528.21 504.1 528.22 545.05 528.22 C550.82 528.22 556.6 528.22 562.37 528.22 C564.08 528.22 564.08 528.22 565.82 528.22 C584.16 528.22 602.5 528.23 620.84 528.23 C639.25 528.24 657.67 528.24 676.08 528.24 C687.04 528.24 697.99 528.24 708.95 528.25 C716.25 528.25 723.55 528.25 730.86 528.25 C735.03 528.25 739.2 528.25 743.37 528.25 C747.16 528.25 750.94 528.25 754.73 528.25 C756.75 528.25 758.77 528.25 760.79 528.26 C761.97 528.25 763.15 528.25 764.37 528.25 C765.39 528.25 766.42 528.25 767.48 528.25 C769.73 528.38 769.73 528.38 770.76 527.13 C770.86 524.8 770.9 522.51 770.89 520.18 C770.89 519.44 770.89 518.71 770.9 517.95 C770.9 515.44 770.9 512.93 770.9 510.43 C770.9 508.62 770.9 506.82 770.9 505.02 C770.91 500.04 770.91 495.06 770.91 490.09 C770.91 484.73 770.91 479.37 770.92 474.01 C770.93 463.49 770.93 452.98 770.93 442.47 C770.93 433.92 770.93 425.38 770.94 416.83 C770.94 392.61 770.95 368.39 770.95 344.17 C770.95 342.86 770.95 341.55 770.95 340.2 C770.95 338.89 770.95 337.59 770.95 336.24 C770.95 315.05 770.96 293.85 770.97 272.66 C770.99 250.91 770.99 229.16 770.99 207.41 C770.99 195.2 770.99 182.99 771 170.77 C771.01 160.36 771.02 149.96 771.01 139.55 C771.01 134.25 771.01 128.94 771.01 123.63 C771.02 118.77 771.02 113.9 771.01 109.04 C771.01 107.28 771.01 105.53 771.02 103.77 C771.08 83 768.78 65.4 754.76 49.13 C742.22 38.57 730.29 35.97 714.41 36 C712.54 35.99 712.54 35.99 710.63 35.99 C707.15 35.99 703.68 35.99 700.21 35.99 C696.43 35.99 692.65 35.99 688.87 35.99 C682.25 35.98 675.63 35.98 669.01 35.98 C659.16 35.98 649.32 35.98 639.47 35.97 C620.86 35.96 602.26 35.96 583.65 35.96 C569.28 35.96 554.92 35.96 540.55 35.95 C536.42 35.95 532.29 35.95 528.15 35.95 C527.12 35.95 526.1 35.95 525.04 35.95 C496.13 35.94 467.23 35.94 438.32 35.94 C437.23 35.94 436.14 35.94 435.02 35.94 C429.5 35.94 423.97 35.94 418.45 35.94 C417.35 35.94 416.25 35.94 415.12 35.94 C412.9 35.94 410.68 35.94 408.46 35.94 C373.93 35.94 339.4 35.93 304.86 35.92 C266.08 35.9 227.29 35.9 188.51 35.9 C184.37 35.9 180.24 35.9 176.11 35.9 C174.58 35.9 174.58 35.9 173.02 35.9 C156.63 35.9 140.23 35.89 123.84 35.88 C107.37 35.87 90.9 35.87 74.43 35.88 C64.64 35.88 54.85 35.88 45.06 35.87 C38.52 35.87 31.99 35.87 25.45 35.87 C21.72 35.88 18 35.88 14.27 35.87 C10.26 35.86 6.25 35.87 2.24 35.88 C0.5 35.87 0.5 35.87 -1.28 35.86 C-10.36 35.9 -17.24 37.34 -25.43 41.5 Z M-52.24 564.13 C-52.24 574.03 -52.24 583.93 -52.24 594.13 C56.66 594.13 165.56 594.13 277.76 594.13 C277.76 604.69 277.76 615.25 277.76 626.13 C331.22 626.13 384.68 626.13 439.76 626.13 C440.09 615.57 440.42 605.01 440.76 594.13 C549.33 594.13 657.9 594.13 769.76 594.13 C769.76 584.23 769.76 574.33 769.76 564.13 C498.5 564.13 227.24 564.13 -52.24 564.13 Z M-118.24 630.13 C-120.75 665.26 -120.75 665.26 -104.45 691.44 C-103.95 691.92 -103.46 692.39 -102.95 692.88 C-102.4 693.44 -101.85 693.99 -101.28 694.56 C-99.53 696.3 -97.75 698.02 -95.97 699.73 C-95.37 700.32 -94.78 700.91 -94.16 701.52 C-67.77 727.66 -41.76 732.22 -5.64 732.08 C0.09 732.02 5.82 731.86 11.55 731.69 C21.78 731.41 32.01 731.47 42.25 731.52 C61.13 731.62 80.01 731.46 98.88 731.15 C117.54 730.85 136.19 730.66 154.84 730.62 C156.01 730.61 157.17 730.61 158.38 730.61 C164.3 730.59 170.23 730.58 176.16 730.57 C217.98 730.49 259.79 730.15 301.6 729.66 C342.17 729.18 382.74 728.84 423.31 728.68 C425.19 728.67 425.19 728.67 427.11 728.66 C438.45 728.61 449.79 728.57 461.12 728.52 C505.67 728.34 550.22 728.07 594.76 727.77 C597.1 727.75 599.44 727.74 601.78 727.72 C629.84 727.53 657.91 727.31 685.97 726.99 C688.04 726.97 690.11 726.95 692.18 726.92 C693.7 726.91 693.7 726.91 695.26 726.89 C702.31 726.81 709.36 726.75 716.41 726.7 C724.81 726.64 733.22 726.55 741.62 726.44 C745.86 726.38 750.09 726.33 754.32 726.31 C758.17 726.3 762.02 726.25 765.87 726.17 C767.25 726.15 768.64 726.14 770.03 726.15 C777.37 726.37 777.37 726.37 783.87 723.56 C785.38 721.82 786.57 720.09 787.76 718.13 C789.7 716.34 789.7 716.34 791.32 715.06 C793.63 713.16 795.32 711.46 797.26 709.13 C799.68 706.22 802.18 704.02 805.07 701.63 C807.01 699.98 807.01 699.98 809.26 697.13 C811.68 694.22 814.18 692.02 817.07 689.63 C819.01 687.98 819.01 687.98 821.26 685.13 C823.64 682.28 826.03 680.1 828.92 677.81 C831.45 675.5 833.57 672.76 835.76 670.13 C835.76 656.93 835.76 643.73 835.76 630.13 C716.96 630.13 598.16 630.13 475.76 630.13 C475.43 641.02 475.1 651.91 474.76 663.13 C398.2 663.46 321.64 663.79 242.76 664.13 C242.76 652.91 242.76 641.69 242.76 630.13 C123.63 630.13 4.5 630.13 -118.24 630.13 Z " fill="#8E8F8F" transform="translate(153.237624168396,130.87415885925293)"/>
<path d="M0 0 C1.06 -0 2.12 -0.01 3.21 -0.01 C4.35 -0.01 5.5 -0.01 6.68 -0 C7.85 -0 9.02 -0.01 10.23 -0.01 C12.71 -0.01 15.18 -0.01 17.66 -0 C21.47 0 25.28 -0 29.09 -0.01 C31.5 -0.01 33.9 -0.01 36.3 -0 C37.45 -0.01 38.6 -0.01 39.78 -0.01 C41.36 -0 41.36 -0 42.98 0 C43.91 0 44.84 0 45.8 0 C47.92 0.13 47.92 0.13 48.92 1.13 C50.59 1.46 52.27 1.74 53.95 2 C54.99 2.16 56.03 2.32 57.1 2.49 C59.29 2.83 61.47 3.16 63.65 3.49 C69.28 4.38 74.54 5.49 79.9 7.42 C82.96 8.49 86.09 9.23 89.24 10 C99.01 12.52 107.99 16.5 116.92 21.13 C118.42 21.88 119.92 22.63 121.42 23.38 C122.58 23.96 123.73 24.53 124.92 25.13 C124.92 25.79 124.92 26.45 124.92 27.13 C125.94 27.24 125.94 27.24 126.99 27.36 C130.79 28.36 133.7 30.33 136.92 32.5 C138.13 33.3 139.34 34.1 140.55 34.9 C141.12 35.29 141.69 35.67 142.28 36.06 C143.77 37.03 145.31 37.92 146.86 38.79 C147.54 39.23 148.22 39.68 148.92 40.13 C148.92 40.79 148.92 41.45 148.92 42.13 C149.5 42.41 150.07 42.69 150.66 42.97 C152.89 44.11 155.03 45.33 157.17 46.63 C158.23 47.26 158.23 47.26 159.31 47.91 C159.85 48.31 160.38 48.72 160.92 49.13 C160.92 49.79 160.92 50.45 160.92 51.13 C162.24 51.79 163.56 52.45 164.92 53.13 C164.92 53.79 164.92 54.45 164.92 55.13 C166.24 55.79 167.56 56.45 168.92 57.13 C168.92 57.79 168.92 58.45 168.92 59.13 C170.24 59.79 171.56 60.45 172.92 61.13 C172.92 61.79 172.92 62.45 172.92 63.13 C173.58 63.13 174.24 63.13 174.92 63.13 C174.92 63.79 174.92 64.45 174.92 65.13 C175.58 65.13 176.24 65.13 176.92 65.13 C176.92 65.79 176.92 66.45 176.92 67.13 C178.24 67.79 179.56 68.45 180.92 69.13 C180.92 69.79 180.92 70.45 180.92 71.13 C182.24 71.79 183.56 72.45 184.92 73.13 C184.92 73.79 184.92 74.45 184.92 75.13 C185.91 75.46 186.9 75.79 187.92 76.13 C189.83 78.42 189.83 78.42 191.86 81.32 C192.57 82.32 193.28 83.33 194.01 84.36 C196.02 87.26 198.01 90.16 199.92 93.13 C200.4 93.83 200.87 94.54 201.36 95.27 C207.24 104.17 212.07 113.63 216.92 123.13 C217.3 123.86 217.67 124.6 218.06 125.35 C220.34 129.86 222.22 134.37 223.92 139.13 C224.4 140.38 224.88 141.63 225.36 142.88 C230 155.38 233.78 167.87 234.71 181.24 C234.82 183.22 234.82 183.22 235.92 185.13 C236.17 187.82 236.35 190.49 236.49 193.19 C236.53 194.02 236.57 194.86 236.61 195.71 C237.27 210.34 237.26 225.01 236.49 239.63 C236.45 240.38 236.41 241.14 236.37 241.91 C236.05 247 236.05 247 234.92 248.13 C234.65 249.63 234.43 251.13 234.24 252.65 C234.06 254.03 234.06 254.03 233.87 255.44 C233.62 257.38 233.37 259.33 233.12 261.27 C232.93 262.66 232.93 262.66 232.74 264.08 C232.63 264.93 232.52 265.78 232.41 266.65 C231.88 269.33 230.98 271.62 229.92 274.13 C229.35 276.08 228.78 278.04 228.23 280 C225.99 287.98 223.38 295.58 219.92 303.13 C219.59 303.87 219.25 304.61 218.91 305.38 C217.76 307.9 216.59 310.42 215.42 312.94 C215.06 313.74 214.69 314.54 214.31 315.37 C211.94 320.39 209.22 324.67 205.92 329.13 C205.16 330.49 204.43 331.86 203.74 333.25 C196.58 346.43 185.55 357.72 174.92 368.13 C172.41 370.63 169.91 373.14 167.42 375.66 C166.6 376.5 165.77 377.33 164.92 378.19 C164.1 379.03 163.27 379.87 162.42 380.73 C155.76 387.13 155.76 387.13 152.92 387.13 C152.92 387.79 152.92 388.45 152.92 389.13 C150.8 390.65 150.8 390.65 147.92 392.38 C144.49 394.46 141.24 396.62 138.07 399.06 C134.09 402.07 129.98 404.6 125.61 407 C124.46 407.64 124.46 407.64 123.29 408.29 C114.78 412.9 105.93 416.62 96.92 420.13 C95.84 420.55 95.84 420.55 94.74 420.98 C91.42 422.26 88.17 423.45 84.67 424.13 C81.05 424.88 77.45 425.73 73.86 426.63 C72.83 426.89 71.81 427.14 70.75 427.41 C68.53 427.97 66.32 428.58 64.11 429.19 C50.77 432.42 37.33 432.44 23.68 432.39 C20.43 432.38 17.18 432.39 13.93 432.4 C2.85 432.41 -8.19 432.41 -19.08 430.13 C-19.41 429.8 -19.74 429.47 -20.08 429.13 C-21.8 428.9 -23.53 428.7 -25.26 428.5 C-54.79 424.15 -83.18 409.33 -106.86 391.73 C-108.97 390.11 -108.97 390.11 -111.08 389.13 C-111.08 388.47 -111.08 387.81 -111.08 387.13 C-111.63 387.07 -112.19 387.01 -112.76 386.94 C-116.04 385.79 -117.66 383.61 -120.08 381.13 C-122.05 379.27 -124.07 377.45 -126.08 375.63 C-131.95 370.31 -137.51 364.75 -142.89 358.94 C-143.64 358.14 -143.64 358.14 -144.41 357.33 C-148.08 353.36 -148.08 353.36 -148.08 351.13 C-149.07 350.8 -150.06 350.47 -151.08 350.13 C-152.14 348.5 -153.13 346.83 -154.08 345.13 C-155.5 343.06 -156.94 341 -158.39 338.94 C-162.21 333.47 -165.77 327.92 -169.08 322.13 C-169.64 321.17 -170.2 320.2 -170.78 319.21 C-171.33 318.23 -171.88 317.26 -172.45 316.25 C-172.95 315.37 -173.46 314.49 -173.97 313.57 C-175.08 311.13 -175.08 311.13 -175.08 307.13 C-175.74 307.13 -176.4 307.13 -177.08 307.13 C-182.56 294.38 -187.3 281.75 -190.08 268.13 C-190.26 267.23 -190.44 266.34 -190.63 265.41 C-190.96 263.75 -191.29 262.09 -191.61 260.43 C-191.9 258.97 -192.23 257.52 -192.61 256.07 C-195.72 243.93 -195.24 230.75 -195.21 218.27 C-195.2 216.13 -195.21 213.99 -195.21 211.84 C-195.22 199.1 -195.21 186.16 -192.33 173.69 C-192.15 172.91 -191.98 172.12 -191.8 171.31 C-190.24 164.43 -188.3 157.67 -186.22 150.93 C-185.26 147.74 -184.43 144.56 -183.64 141.32 C-181.98 135.15 -179.04 129.76 -176.08 124.13 C-174.95 121.82 -173.82 119.51 -172.7 117.19 C-167.4 106.6 -161.06 96.69 -154.08 87.13 C-153.55 86.39 -153.02 85.66 -152.47 84.9 C-148.3 79.3 -143.53 74.45 -138.53 69.61 C-136.08 67.26 -136.08 67.26 -134.37 64.81 C-133.95 64.25 -133.52 63.7 -133.08 63.13 C-132.42 63.13 -131.76 63.13 -131.08 63.13 C-130.75 62.14 -130.42 61.15 -130.08 60.13 C-127.64 57.44 -127.64 57.44 -125.08 55.13 C-124.42 55.13 -123.76 55.13 -123.08 55.13 C-122.42 53.81 -121.76 52.49 -121.08 51.13 C-120.42 51.13 -119.76 51.13 -119.08 51.13 C-118.8 50.26 -118.8 50.26 -118.51 49.38 C-116.77 46.65 -114.71 45.63 -111.89 44.15 C-109.82 43.05 -109.82 43.05 -107.26 40.88 C-105.08 39.13 -105.08 39.13 -103.08 39.13 C-103.08 38.47 -103.08 37.81 -103.08 37.13 C-97.33 34.13 -97.33 34.13 -95.08 34.13 C-94.75 33.14 -94.42 32.15 -94.08 31.13 C-91.85 29.66 -91.85 29.66 -89.01 28.19 C-88.02 27.67 -87.03 27.15 -86.01 26.62 C-85.04 26.13 -84.07 25.64 -83.08 25.13 C-82.3 24.73 -81.51 24.33 -80.71 23.92 C-78.84 22.98 -76.96 22.05 -75.08 21.13 C-74.43 20.76 -73.77 20.4 -73.1 20.02 C-71.08 19.13 -71.08 19.13 -67.08 19.13 C-67.08 18.47 -67.08 17.81 -67.08 17.13 C-58.84 13.74 -50.69 10.44 -42.08 8.13 C-40.88 7.8 -39.68 7.47 -38.45 7.13 C-28.75 4.49 -19.41 2.07 -9.36 1.38 C-6 1.01 -3.54 0 0 0 Z M37.92 42.13 C37.92 93.61 37.92 145.09 37.92 198.13 C57.39 198.13 76.86 198.13 96.92 198.13 C96.13 195.98 96.13 195.98 94.17 195.45 C93.06 195.14 93.06 195.14 91.92 194.82 C77.38 190.18 69.11 181.35 61.92 168.13 C61.48 167.33 61.03 166.53 60.57 165.7 C55.32 154.75 55.27 137.58 58.86 126.15 C61.85 118.39 65.84 109.85 72.92 105.13 C72.92 104.47 72.92 103.81 72.92 103.13 C75.59 101.8 78.26 100.46 80.92 99.13 C80.92 98.47 80.92 97.81 80.92 97.13 C82.24 96.47 83.56 95.81 84.92 95.13 C80.04 84.77 74.85 75.29 67.92 66.13 C67.15 65.1 66.38 64.07 65.59 63.01 C58.02 53.39 49.87 45.54 37.92 42.13 Z M-19.08 56.13 C-25.87 63.28 -31.03 70.78 -35.65 79.48 C-36.62 81.29 -37.65 83.07 -38.71 84.82 C-39.99 86.98 -40.62 88.69 -41.08 91.13 C-41.74 91.13 -42.4 91.13 -43.08 91.13 C-43.47 92.24 -43.86 93.36 -44.26 94.5 C-45.5 97.82 -46.95 100.93 -48.58 104.07 C-50.65 108.09 -52.19 112.08 -53.5 116.41 C-54.08 118.13 -54.08 118.13 -55.08 119.13 C-55.4 120.58 -55.69 122.04 -55.95 123.5 C-56.86 128.25 -58.04 132.86 -59.35 137.5 C-60.02 139.91 -60.62 142.33 -61.2 144.75 C-62.08 148.13 -62.08 148.13 -63.08 149.13 C-63.34 151.21 -63.54 153.29 -63.7 155.38 C-63.8 156.52 -63.89 157.66 -63.99 158.83 C-64.11 163.08 -64.11 163.08 -63.08 167.13 C-60.71 169.18 -60.71 169.18 -57.76 170.82 C-56.32 171.69 -56.32 171.69 -54.84 172.58 C-52.21 174.12 -52.21 174.12 -49.85 175.09 C-47.57 176.43 -47.13 177.74 -46.08 180.13 C-45.14 181.35 -44.18 182.56 -43.2 183.75 C-40.08 188.13 -40.08 188.13 -36.08 198.13 C-23.54 198.13 -11 198.13 1.92 198.13 C1.92 146.98 1.92 95.83 1.92 43.13 C-6.28 43.13 -13.4 50.62 -19.08 56.13 Z M111.92 63.13 C114.75 69.88 117.81 76.51 120.92 83.13 C121.42 84.19 121.91 85.25 122.42 86.34 C125.05 91.22 127.45 92.52 132.61 94.44 C137.51 96.39 141.37 98.61 145.4 101.99 C146.87 103.33 146.87 103.33 148.92 103.13 C149.15 103.69 149.38 104.24 149.61 104.82 C150.91 107.34 150.91 107.34 153.49 109.69 C155.92 112.13 155.92 112.13 156.92 115.13 C157.58 115.13 158.24 115.13 158.92 115.13 C159.11 116.18 159.11 116.18 159.29 117.25 C159.54 118.61 159.54 118.61 159.8 120 C160.04 121.36 160.04 121.36 160.29 122.75 C160.75 125.29 160.75 125.29 162.92 127.13 C166.64 140.51 166.17 155.87 159.68 168.21 C152.33 180.43 152.33 180.43 148.92 182.13 C148.92 182.79 148.92 183.45 148.92 184.13 C148.26 184.13 147.6 184.13 146.92 184.13 C145.34 188.34 145.34 188.34 145.92 198.13 C163.41 198.13 180.9 198.13 198.92 198.13 C197.53 184.68 197.53 184.68 194.55 171.82 C194.33 171.07 194.11 170.33 193.89 169.56 C193.25 167.41 192.59 165.27 191.92 163.13 C191.57 161.98 191.21 160.83 190.85 159.65 C186.96 147.53 181.75 134.23 173.92 124.13 C173.21 122.48 172.53 120.82 171.92 119.13 C171.26 119.13 170.6 119.13 169.92 119.13 C169.68 118.42 169.43 117.71 169.18 116.98 C163.78 104.69 152.28 94.43 142.99 85 C142.42 84.42 141.85 83.84 141.26 83.24 C139.86 81.83 138.39 80.48 136.92 79.13 C136.26 79.13 135.6 79.13 134.92 79.13 C134.92 78.47 134.92 77.81 134.92 77.13 C131.43 74.23 127.65 71.72 123.92 69.13 C123.06 68.52 122.19 67.9 121.29 67.27 C117.01 64.05 117.01 64.05 111.92 63.13 Z M-97.08 81.13 C-99.29 83.41 -101.35 85.74 -103.38 88.18 C-105.68 90.82 -108.38 92.89 -111.08 95.13 C-125.52 109.52 -125.52 109.52 -133.08 127.13 C-133.74 127.13 -134.4 127.13 -135.08 127.13 C-138.78 133.6 -142.04 140.09 -144.8 147.01 C-145.51 148.74 -146.23 150.46 -147.02 152.15 C-149.61 157.68 -151.33 163.12 -152.7 169.07 C-152.91 169.97 -153.12 170.87 -153.34 171.79 C-155.32 180.54 -156.28 189.2 -157.08 198.13 C-151.14 198.13 -145.2 198.13 -139.08 198.13 C-138.4 196.67 -137.72 195.2 -137.01 193.69 C-131.18 182.02 -121.43 170.58 -108.69 166.33 C-107.99 166.14 -107.29 165.95 -106.58 165.75 C-102.71 163.98 -102.71 163.98 -101.2 160.38 C-99.8 154.95 -99.22 149.35 -98.6 143.78 C-98.07 140.08 -97.16 136.71 -96.08 133.13 C-95.45 130.78 -94.82 128.42 -94.2 126.07 C-88.6 104.99 -88.6 104.99 -85.9 98.22 C-85.27 96.61 -84.67 94.99 -84.1 93.36 C-81.34 85.75 -77.92 78.77 -74.02 71.69 C-71.85 68.12 -71.85 68.12 -71.08 64.13 C-79.19 64.13 -90.88 75.87 -97.08 81.13 Z M96.42 135.38 C93.99 138.49 93.2 141.02 93.51 145.06 C94.22 148.63 95.49 151.79 96.92 155.13 C97.58 155.13 98.24 155.13 98.92 155.13 C99.15 155.75 99.38 156.37 99.61 157 C101.39 159.89 102.65 160.28 105.92 161.13 C111.34 161.48 115.84 161.24 120.92 159.13 C124.59 155.83 127.51 151.71 128.29 146.8 C128.44 141.3 127.86 137.94 124.41 133.6 C120.08 129.31 116.77 128.39 110.74 128.01 C104.67 128.27 100.59 131.14 96.42 135.38 Z M-100.69 204.86 C-104.18 209.78 -105.05 214.2 -104.08 220.13 C-102.11 226.44 -99.42 229.18 -93.83 232.44 C-88.43 233.79 -83.17 232.98 -78.26 230.38 C-74.32 227.59 -71.68 225.63 -70.51 220.8 C-69.74 215.38 -69.84 211.76 -73.08 207.13 C-75.45 204.42 -75.45 204.42 -78.08 202.13 C-78.65 201.53 -79.23 200.93 -79.83 200.32 C-86.84 196.61 -95.5 199.28 -100.69 204.86 Z M-157.08 235.13 C-155.75 252.31 -153.02 269.59 -145.06 285.11 C-144.09 287.11 -143.53 288.96 -143.08 291.13 C-142.42 291.13 -141.76 291.13 -141.08 291.13 C-140.85 292.11 -140.62 293.08 -140.39 294.09 C-139.05 298.78 -136.62 302.68 -134.08 306.82 C-133.18 308.3 -132.28 309.78 -131.39 311.27 C-130.99 311.91 -130.6 312.56 -130.19 313.23 C-129.08 315.13 -129.08 315.13 -128.06 317.24 C-126.93 319.42 -125.39 320.77 -123.63 322.45 C-121.56 324.69 -119.89 327.14 -118.14 329.63 C-115.07 333.93 -112.2 336.9 -108.08 340.13 C-107.1 341.23 -106.14 342.36 -105.2 343.5 C-99.46 350.41 -92.21 355.68 -84.95 360.88 C-84.18 361.44 -83.41 362.01 -82.61 362.59 C-78.56 365.51 -74.63 368.07 -70.08 370.13 C-71.47 366.48 -73.1 363.04 -74.89 359.57 C-82.74 343.95 -89.26 327.2 -93.08 310.13 C-93.77 307.25 -94.49 304.38 -95.2 301.5 C-95.37 300.8 -95.54 300.1 -95.72 299.38 C-96.63 295.66 -96.63 295.66 -98.08 292.13 C-98.21 290.53 -98.31 288.92 -98.39 287.32 C-99 280.65 -99.85 274.08 -103.08 268.13 C-106.22 265.96 -109.43 265.14 -113.08 264.13 C-116.43 262.13 -119.37 259.91 -122.33 257.38 C-124.74 254.92 -124.74 254.92 -127.08 255.13 C-127.32 254.59 -127.57 254.06 -127.83 253.5 C-129.38 250.55 -131.11 247.83 -133.08 245.13 C-133.74 245.13 -134.4 245.13 -135.08 245.13 C-135.18 244.59 -135.28 244.06 -135.39 243.5 C-136.2 240.42 -136.2 240.42 -139.08 235.13 C-145.02 235.13 -150.96 235.13 -157.08 235.13 Z M-36.08 235.13 C-37.73 238.43 -39.38 241.73 -41.08 245.13 C-42.72 247.48 -44.28 249.6 -46.14 251.75 C-46.6 252.3 -47.07 252.84 -47.54 253.41 C-52.32 258.79 -57.84 262.53 -64.08 266.13 C-62.97 279.34 -61.7 291.88 -56.75 304.29 C-55.85 306.74 -55.33 309.26 -54.73 311.8 C-50.43 327.06 -42.69 341.33 -35.08 355.13 C-34.42 355.13 -33.76 355.13 -33.08 355.13 C-32.84 355.83 -32.6 356.53 -32.35 357.25 C-30.86 360.61 -28.89 363.37 -26.64 366.25 C-26.2 366.82 -25.77 367.38 -25.32 367.96 C-18.88 376.1 -11.17 385.77 -1.08 389.13 C-0.09 389.13 0.9 389.13 1.92 389.13 C2.29 381.84 2.29 381.84 -0.08 375.13 C-2.36 373.84 -4.73 372.82 -7.13 371.75 C-10.74 369.77 -13.56 367.35 -16.58 364.57 C-17.09 364.1 -17.61 363.62 -18.14 363.14 C-20.74 360.68 -22.75 358.48 -24.08 355.13 C-24.74 355.13 -25.4 355.13 -26.08 355.13 C-26.37 354.04 -26.65 352.94 -26.95 351.82 C-27.9 348.09 -27.9 348.09 -30.08 345.13 C-32.79 338.28 -33.63 331.71 -33.58 324.38 C-33.57 323.42 -33.56 322.46 -33.56 321.47 C-33.23 308.29 -28.45 295.98 -19.32 286.26 C-15.59 282.91 -11.49 280.47 -7.08 278.13 C-7.08 277.47 -7.08 276.81 -7.08 276.13 C-6.15 276.01 -5.22 275.88 -4.26 275.75 C-0.94 275.31 -0.94 275.31 1.92 273.13 C2.19 270.22 2.27 267.53 2.22 264.62 C2.21 263.88 2.21 263.13 2.21 262.36 C2.19 259.58 2.15 256.79 2.11 254 C2.05 247.78 1.99 241.55 1.92 235.13 C-10.62 235.13 -23.16 235.13 -36.08 235.13 Z M39.92 235.13 C39.9 241.36 39.88 247.59 39.86 254 C39.85 255.97 39.84 257.94 39.83 259.96 C39.83 261.51 39.83 263.07 39.83 264.62 C39.82 265.43 39.82 266.24 39.81 267.08 C39.7 271.24 39.7 271.24 40.92 275.13 C42.81 275.81 42.81 275.81 44.99 276.25 C45.72 276.42 46.45 276.59 47.21 276.76 C48.06 276.94 48.06 276.94 48.92 277.13 C48.92 277.79 48.92 278.45 48.92 279.13 C50.84 280.69 50.84 280.69 53.24 282.19 C54.04 282.72 54.84 283.25 55.66 283.79 C57.96 285.26 57.96 285.26 60.92 286.13 C61.93 287.93 61.93 287.93 62.92 290.13 C63.89 291.56 64.87 292.97 65.86 294.38 C74.71 307.59 75.57 323.76 72.61 339.07 C71.63 343.91 70.15 347.74 67.92 352.13 C67.92 353.12 67.92 354.11 67.92 355.13 C66.44 355.62 66.44 355.62 64.92 356.13 C63.75 357.81 62.58 359.48 61.42 361.16 C55.77 368.6 48.24 372.25 39.92 376.13 C39.92 380.75 39.92 385.37 39.92 390.13 C53.29 383.9 61.39 374.97 69.92 363.13 C70.5 362.33 71.08 361.54 71.68 360.72 C75.51 355.37 78.88 349.96 81.92 344.13 C82.45 343.18 82.97 342.24 83.51 341.26 C89.29 330.37 93.08 318.83 96.92 307.13 C97.15 306.44 97.38 305.76 97.62 305.05 C101.55 293.22 103.83 281.08 105.92 268.81 C106.48 265.54 107.12 262.35 107.92 259.13 C108.25 251.21 108.58 243.29 108.92 235.13 C86.15 235.13 63.38 235.13 39.92 235.13 Z M145.92 235.13 C145.59 242.39 145.26 249.65 144.92 257.13 C143.22 273.83 143.22 273.83 141.92 275.13 C141.6 277.46 141.31 279.79 141.05 282.13 C140.42 287.32 139.48 292.06 137.64 296.96 C136.8 299.5 136.36 301.99 135.92 304.63 C135.22 308.76 134.24 312.54 132.84 316.48 C132.09 318.64 131.4 320.81 130.72 323 C130.51 323.7 130.3 324.4 130.08 325.12 C129.65 326.51 129.23 327.89 128.81 329.28 C127.45 333.71 125.78 337.88 123.92 342.13 C123.33 343.83 122.74 345.54 122.17 347.25 C120.13 353.02 117.26 358.2 114.22 363.48 C113.58 364.79 113.58 364.79 112.92 366.13 C113.25 366.79 113.58 367.45 113.92 368.13 C120.55 364.98 126.28 360.92 132.09 356.5 C133.66 355.32 135.29 354.22 136.92 353.13 C136.92 352.47 136.92 351.81 136.92 351.13 C137.51 350.87 138.09 350.61 138.69 350.34 C141.08 349.04 142.68 347.63 144.6 345.72 C145.29 345.04 145.97 344.36 146.67 343.66 C147.37 342.95 148.07 342.24 148.8 341.5 C149.49 340.82 150.19 340.13 150.9 339.42 C155.37 334.94 159.26 330.28 162.92 325.13 C163.61 324.2 164.3 323.26 165.01 322.3 C165.58 321.5 166.15 320.7 166.74 319.88 C167.32 319.07 167.9 318.26 168.51 317.43 C169.84 315.26 170.49 313.61 170.92 311.13 C171.58 311.13 172.24 311.13 172.92 311.13 C173.45 310.13 173.99 309.13 174.53 308.09 C175.25 306.75 175.96 305.41 176.67 304.07 C177.02 303.41 177.37 302.75 177.73 302.08 C179.46 298.81 181.23 295.58 183.09 292.38 C184.47 289.94 185.58 287.76 186.49 285.13 C187.33 282.69 188.26 280.39 189.32 278.03 C191.32 273.4 192.65 268.61 193.99 263.75 C194.24 262.88 194.5 262 194.76 261.1 C197.19 252.32 197.82 244.5 198.92 235.13 C181.43 235.13 163.94 235.13 145.92 235.13 Z M4.92 316.13 C3.75 322.75 3.52 330.18 7.49 335.88 C11.36 340.07 15.18 341.65 20.8 342.63 C26.75 341.68 31.4 338.81 35.42 334.38 C38 328.8 38.57 324.29 36.8 318.38 C34.37 314.18 31.88 311.27 27.67 308.82 C18.51 306.53 10.98 308.52 4.92 316.13 Z M111.92 368.13 C112.92 370.13 112.92 370.13 112.92 370.13 Z " fill="#FE475D" transform="translate(491.076416015625,196.87060546875)"/>
<path d="M0 0 C0.75 -0 1.49 -0 2.26 -0 C3.84 -0 5.42 -0 7 0 C9.43 0.01 11.85 0 14.27 -0 C15.81 -0 17.34 -0 18.88 0 C19.6 -0 20.33 -0 21.08 -0.01 C26.21 0.02 26.21 0.02 28.44 1.13 C28.44 12.68 28.44 24.23 28.44 36.13 C15.9 36.13 3.36 36.13 -9.56 36.13 C-9.56 24.58 -9.56 13.03 -9.56 1.13 C-6.52 -0.39 -3.34 -0.01 0 0 Z " fill="#8D8E8E" transform="translate(882.5625,790.8671875)"/>
<path d="M0 0 C0.75 -0 1.49 -0 2.26 -0 C3.84 -0 5.42 -0 7 0 C9.43 0.01 11.85 0 14.27 -0 C15.81 -0 17.34 -0 18.88 0 C19.6 -0 20.33 -0 21.08 -0.01 C26.21 0.02 26.21 0.02 28.44 1.13 C28.44 12.68 28.44 24.23 28.44 36.13 C23.19 36.16 17.94 36.18 12.68 36.19 C10.9 36.19 9.11 36.2 7.32 36.21 C4.76 36.22 2.19 36.23 -0.37 36.23 C-1.58 36.24 -1.58 36.24 -2.81 36.25 C-4.73 36.25 -6.64 36.19 -8.56 36.13 C-9.56 35.13 -9.56 35.13 -9.68 31.9 C-9.68 30.46 -9.67 29.03 -9.66 27.6 C-9.66 26.84 -9.66 26.09 -9.66 25.32 C-9.65 22.9 -9.64 20.49 -9.62 18.07 C-9.62 16.44 -9.62 14.8 -9.61 13.17 C-9.6 9.16 -9.58 5.15 -9.56 1.13 C-6.52 -0.39 -3.34 -0.01 0 0 Z " fill="#8D8E8E" transform="translate(750.5625,790.8671875)"/>
<path d="M0 0 C0.75 0.01 1.5 0.01 2.28 0.02 C3.05 0.02 3.82 0.02 4.62 0.02 C6.25 0.03 7.88 0.03 9.51 0.05 C12.02 0.06 14.52 0.07 17.03 0.07 C18.61 0.07 20.2 0.08 21.78 0.08 C22.91 0.09 22.91 0.09 24.06 0.09 C29.35 0.14 29.35 0.14 30.46 1.25 C30.56 3.76 30.6 6.24 30.6 8.75 C30.6 9.5 30.6 10.25 30.6 11.03 C30.6 12.62 30.6 14.21 30.59 15.8 C30.59 18.24 30.59 20.68 30.6 23.13 C30.6 24.67 30.6 26.21 30.6 27.75 C30.6 28.49 30.6 29.22 30.6 29.98 C30.58 35.14 30.58 35.14 29.46 36.25 C26.8 36.34 24.16 36.37 21.49 36.35 C20.69 36.35 19.89 36.35 19.07 36.35 C16.52 36.34 13.96 36.33 11.4 36.31 C9.67 36.31 7.94 36.31 6.21 36.3 C1.96 36.29 -2.29 36.27 -6.54 36.25 C-8.79 31.75 -7.72 25.55 -7.72 20.54 C-7.72 18.26 -7.74 15.98 -7.76 13.71 C-7.76 12.26 -7.77 10.82 -7.77 9.38 C-7.77 8.06 -7.78 6.74 -7.78 5.39 C-7.35 -0.11 -4.94 0.02 0 0 Z " fill="#8E8F8F" transform="translate(814.5372467041016,790.7477569580078)"/>
<path d="M0 0 C46.1 -0.02 92.2 -0.04 138.3 -0.05 C143.74 -0.05 149.17 -0.05 154.61 -0.05 C155.69 -0.06 156.77 -0.06 157.89 -0.06 C175.44 -0.06 192.99 -0.07 210.54 -0.08 C228.53 -0.09 246.52 -0.09 264.52 -0.09 C275.63 -0.1 286.74 -0.1 297.85 -0.11 C305.46 -0.11 313.07 -0.11 320.68 -0.11 C325.08 -0.11 329.47 -0.11 333.87 -0.12 C337.89 -0.12 341.91 -0.12 345.93 -0.12 C347.39 -0.12 348.85 -0.12 350.31 -0.12 C352.28 -0.13 354.25 -0.13 356.22 -0.12 C357.87 -0.12 357.87 -0.12 359.55 -0.12 C362 0 362 0 363 1 C363.09 4.1 363.12 7.18 363.1 10.29 C363.1 11.68 363.1 11.68 363.09 13.11 C363.09 16.09 363.08 19.08 363.06 22.06 C363.06 24.08 363.05 26.1 363.05 28.12 C363.04 33.08 363.02 38.04 363 43 C362.67 43 362.34 43 362 43 C361.67 29.47 361.34 15.94 361 2 C241.87 1.67 122.74 1.34 0 1 C0 0.67 0 0.34 0 0 Z " fill="#7E7E7E" transform="translate(628,759)"/>
<path d="M0 0 C0 0.99 0 1.98 0 3 C-0.66 2.67 -1.32 2.34 -2 2 C-2.33 3.32 -2.66 4.64 -3 6 C-3.99 6 -4.98 6 -6 6 C-6.33 6.99 -6.66 7.98 -7 9 C-7.66 9 -8.32 9 -9 9 C-8.34 7.68 -7.68 6.36 -7 5 C-6.34 5 -5.68 5 -5 5 C-4.73 4.36 -4.46 3.72 -4.19 3.06 C-3 1 -3 1 0 0 Z " fill="#FF6B7D" transform="translate(377,243)"/>
</svg>
