<?xml version="1.0" encoding="UTF-8"?>
<!-- Generator: https://ezgif.com/png-to-svg -->
<svg version="1.1" xmlns="http://www.w3.org/2000/svg" width="1024" height="1024">
<path d="M0 0 C177.21 0 354.42 0 537 0 C537.66 1.32 538.32 2.64 539 4 C540.89 5.09 540.89 5.09 543 6 C547.98 9.84 551.99 14.17 556 19 C557.68 20.53 559.4 21.98 561.16 23.41 C563.57 25.49 565.77 27.73 568 30 C570.14 32.17 572.29 34.33 574.44 36.5 C574.98 37.06 575.53 37.61 576.1 38.18 C578.68 40.78 581.27 43.28 584.1 45.59 C586.92 47.93 589.44 50.38 592 53 C594.77 55.8 597.54 58.59 600.31 61.38 C601.03 62.1 601.75 62.83 602.5 63.59 C606.57 67.68 610.74 71.57 615.12 75.34 C618.01 77.89 620.69 80.62 623.38 83.38 C626.84 87.14 626.84 87.14 631 90 C631 90.66 631 91.32 631 92 C632.32 92.66 633.64 93.32 635 94 C635 94.66 635 95.32 635 96 C636.32 96.66 637.64 97.32 639 98 C639 98.66 639 99.32 639 100 C640.32 100.66 641.64 101.32 643 102 C643 102.66 643 103.32 643 104 C644.32 104.66 645.64 105.32 647 106 C647 106.66 647 107.32 647 108 C647.58 108.26 648.16 108.53 648.75 108.8 C654.99 112.14 659.55 117.63 664 123 C665.68 124.53 667.4 125.98 669.16 127.41 C671.57 129.49 673.77 131.73 676 134 C678.1 136.13 680.21 138.25 682.31 140.38 C682.84 140.91 683.37 141.45 683.92 142.01 C686.78 144.88 689.69 147.62 692.76 150.26 C698.92 155.58 704.52 161.47 710.22 167.26 C714.74 171.82 719.29 176.22 724.16 180.39 C727.17 183.03 729.95 185.89 732.75 188.75 C736.86 193 736.86 193 741.39 196.77 C741.92 197.17 742.45 197.58 743 198 C743 198.66 743 199.32 743 200 C744.32 200.66 745.64 201.32 747 202 C747 202.66 747 203.32 747 204 C748.32 204.66 749.64 205.32 751 206 C751 206.66 751 207.32 751 208 C751.9 208.4 751.9 208.4 752.81 208.81 C755.09 210.05 756.39 210.98 758 213 C758.38 215.32 758.38 215.32 758.38 218.12 C758.39 219.18 758.4 220.25 758.41 221.34 C758.41 222.52 758.4 223.69 758.4 224.9 C758.41 226.15 758.41 227.39 758.42 228.67 C758.43 232.13 758.44 235.59 758.43 239.05 C758.43 242.78 758.45 246.51 758.46 250.23 C758.49 256.69 758.5 263.16 758.5 269.62 C758.51 278.96 758.53 288.3 758.56 297.64 C758.6 312.8 758.63 327.95 758.65 343.11 C758.67 357.83 758.7 372.56 758.74 387.28 C758.74 388.64 758.74 388.64 758.74 390.03 C758.76 394.58 758.77 399.13 758.78 403.69 C758.87 441.46 758.94 479.23 759 517 C760.13 516.04 761.26 515.08 762.39 514.12 C763.02 513.59 763.65 513.05 764.29 512.5 C766.08 510.93 767.59 509.3 769.06 507.44 C771.74 504.19 774.77 501.7 778 499 C779.02 497.85 780.02 496.68 781 495.5 C783.7 492.24 786.74 489.71 790 487 C791.02 485.85 792.02 484.68 793 483.5 C795.7 480.24 798.74 477.71 802 475 C803.02 473.85 804.02 472.68 805 471.5 C806.9 469.2 808.61 467.5 810.94 465.56 C813.3 463.59 815.02 461.89 816.96 459.57 C821.91 453.85 827.32 448.58 832.69 443.25 C833.73 442.21 834.77 441.17 835.81 440.14 C837.72 438.24 839.63 436.34 841.55 434.44 C843.11 432.88 844.64 431.3 846.14 429.68 C848 428 848 428 851 428 C851.33 427.01 851.66 426.02 852 425 C862.15 417.31 874.58 415.32 886.94 415.44 C888.11 415.41 889.28 415.39 890.49 415.37 C902.69 415.39 912.7 419.75 923 426 C923 426.66 923 427.32 923 428 C923.84 428.34 923.84 428.34 924.69 428.69 C935.12 434.61 942.21 447.8 946.14 458.78 C947.7 464.62 947.58 470.42 947.5 476.44 C947.52 477.67 947.53 478.9 947.55 480.17 C947.5 490.6 945.44 499.1 940 508 C939.3 510.19 939.3 510.19 939 512 C939.87 512.14 939.87 512.14 940.76 512.29 C949.12 514.95 955.45 526.41 959.48 533.66 C966.81 548.56 966.63 565.31 962 581 C961.65 582.28 961.65 582.28 961.3 583.58 C958.6 591.78 952.71 597.75 947 604 C946.48 604.57 945.96 605.15 945.43 605.73 C940.21 611.51 934.9 617.19 929.33 622.63 C927.84 624.11 927.84 624.11 926.19 626.44 C925.6 627.21 925.6 627.21 925 628 C924.34 628 923.68 628 923 628 C922.34 629.32 921.68 630.64 921 632 C920.34 632 919.68 632 919 632 C918.34 633.32 917.68 634.64 917 636 C916.34 636 915.68 636 915 636 C914.34 637.32 913.68 638.64 913 640 C912.34 640 911.68 640 911 640 C910.34 641.32 909.68 642.64 909 644 C908.34 644 907.68 644 907 644 C906.61 644.87 906.61 644.87 906.2 645.75 C902.86 652 897.36 656.53 892 661 C890.96 662.15 889.94 663.32 888.94 664.5 C885.11 669.01 880.93 673.12 876.71 677.26 C874.09 679.83 871.6 682.41 869.28 685.25 C867.23 687.73 865.1 689.59 862.6 691.59 C860.74 693.23 859.17 695 857.56 696.88 C846.11 710.19 846.11 710.19 836.69 711.44 C830.6 710.72 825.06 708.95 820.56 704.69 C817.21 698.92 814.87 693.78 816 687 C817.86 681.11 820.7 676.41 825 672 C825.66 672 826.32 672 827 672 C827.66 670.68 828.32 669.36 829 668 C829.66 668 830.32 668 831 668 C831.66 666.68 832.32 665.36 833 664 C833.66 664 834.32 664 835 664 C835.66 662.68 836.32 661.36 837 660 C837.66 660 838.32 660 839 660 C839.66 658.68 840.32 657.36 841 656 C841.66 656 842.32 656 843 656 C843.66 654.68 844.32 653.36 845 652 C845.66 652 846.32 652 847 652 C847.39 651.13 847.39 651.13 847.8 650.25 C851.14 644.01 856.63 639.45 862 635 C863.54 633.27 865.01 631.49 866.48 629.7 C867.97 628.03 869.51 626.65 871.25 625.25 C874.14 623.11 874.14 623.11 876 620 C876.66 620 877.32 620 878 620 C878.35 619.16 878.35 619.16 878.7 618.3 C880.34 615.39 882.41 613.44 884.81 611.12 C888.94 607.11 888.94 607.11 892.69 602.75 C894.54 600.55 896.19 598.93 898.38 597.12 C901.6 594.45 904.22 591.53 906.91 588.33 C908.54 586.52 910.17 584.85 911.93 583.17 C921.76 574.15 921.76 574.15 926.2 561.92 C925.78 555.91 923.35 549.45 919.18 545.1 C917.5 543.65 915.8 542.29 914 541 C912.31 542.66 910.62 544.33 908.94 546 C908.47 546.46 908.01 546.92 907.53 547.39 C904.86 550.04 902.33 552.76 899.88 555.62 C895.73 560.38 891.29 564.83 886.81 569.29 C885.44 570.66 884.06 572.03 882.69 573.4 C881.23 574.85 879.77 576.31 878.31 577.76 C875.26 580.8 872.21 583.85 869.16 586.89 C862.69 593.35 856.22 599.8 849.75 606.25 C842.75 613.23 835.75 620.21 828.75 627.2 C825.72 630.22 822.69 633.25 819.65 636.27 C817.32 638.59 815 640.91 812.67 643.23 C811.84 644.06 811 644.89 810.13 645.75 C809.37 646.52 808.6 647.29 807.81 648.08 C806.81 649.08 806.81 649.08 805.79 650.09 C803.94 651.98 803.94 651.98 802.39 654.24 C801.93 654.82 801.47 655.4 801 656 C800.34 656 799.68 656 799 656 C798.34 657.32 797.68 658.64 797 660 C796.34 660 795.68 660 795 660 C794.34 661.32 793.68 662.64 793 664 C792.34 664 791.68 664 791 664 C790.34 665.32 789.68 666.64 789 668 C788.34 668 787.68 668 787 668 C786.34 669.32 785.68 670.64 785 672 C784.34 672 783.68 672 783 672 C782.34 673.32 781.68 674.64 781 676 C780.34 676 779.68 676 779 676 C778.34 677.32 777.68 678.64 777 680 C776.34 680 775.68 680 775 680 C774.34 681.32 773.68 682.64 773 684 C772.34 684 771.68 684 771 684 C770.34 685.32 769.68 686.64 769 688 C768.34 688 767.68 688 767 688 C766.34 689.32 765.68 690.64 765 692 C764.34 692 763.68 692 763 692 C762.34 693.32 761.68 694.64 761 696 C760.34 696 759.68 696 759 696 C759 804.24 759 912.48 759 1024 C508.2 1024 257.4 1024 -1 1024 C-0.67 686.08 -0.34 348.16 0 0 Z M39 40 C39 351.19 39 662.38 39 983 C42.27 983.82 44.49 984.13 47.78 984.13 C48.74 984.13 49.71 984.13 50.71 984.13 C51.77 984.13 52.83 984.13 53.92 984.13 C55.05 984.13 56.18 984.13 57.35 984.13 C61.18 984.13 65 984.13 68.83 984.13 C71.59 984.13 74.35 984.13 77.11 984.13 C83.12 984.14 89.13 984.14 95.15 984.13 C104.09 984.13 113.03 984.13 121.97 984.13 C137.94 984.14 153.91 984.14 169.88 984.14 C183.86 984.13 197.84 984.13 211.82 984.13 C212.74 984.13 213.67 984.13 214.62 984.13 C218.38 984.13 222.14 984.13 225.9 984.14 C261.19 984.14 296.48 984.14 331.77 984.13 C363.13 984.13 394.5 984.13 425.86 984.13 C461.08 984.14 496.3 984.14 531.52 984.13 C535.27 984.13 539.03 984.13 542.78 984.13 C543.71 984.13 544.63 984.13 545.58 984.13 C559.55 984.13 573.52 984.13 587.49 984.14 C603.37 984.14 619.25 984.14 635.13 984.13 C644.02 984.13 652.92 984.13 661.81 984.13 C667.74 984.14 673.68 984.13 679.62 984.13 C683 984.13 686.39 984.13 689.77 984.13 C693.41 984.13 697.06 984.13 700.7 984.13 C702.28 984.13 702.28 984.13 703.9 984.13 C704.87 984.13 705.84 984.13 706.85 984.13 C707.68 984.13 708.51 984.13 709.37 984.13 C712.6 983.97 715.8 983.46 719 983 C719 902.15 719 821.3 719 738 C714.49 741.86 711.18 744.86 707.54 749.28 C705.44 751.62 703.07 753.54 700.65 755.54 C698.75 757.15 698.75 757.15 696.5 760 C694.08 762.9 691.58 765.1 688.69 767.5 C686.75 769.14 686.75 769.14 684.5 772 C682.08 774.9 679.58 777.1 676.69 779.5 C674.75 781.14 674.75 781.14 672.5 784 C670.08 786.9 667.58 789.1 664.69 791.5 C662.75 793.14 662.75 793.14 660.5 796 C658.54 798.35 656.82 800.08 654.5 802 C651.2 804.73 648.69 807.67 646 811 C644.35 812.68 642.68 814.35 641 816 C639.89 817.1 638.79 818.19 637.68 819.29 C637.08 819.88 636.48 820.48 635.86 821.09 C633.17 823.75 630.49 826.42 627.81 829.08 C626.39 830.49 624.97 831.9 623.54 833.31 C621.49 835.34 619.44 837.38 617.39 839.42 C616.43 840.36 616.43 840.36 615.45 841.33 C613.93 842.85 612.46 844.42 611 846 C611 846.66 611 847.32 611 848 C598.13 854.64 584.05 859.33 570.19 863.44 C564.41 865.15 558.71 867.08 553 869 C551 869.67 549 870.33 547 871 C546.01 871.33 545.02 871.66 544 872 C524 878.67 504 885.33 484 892 C492.26 858.69 492.26 858.69 495.18 849.09 C497.56 841.25 499.63 833.44 501.38 825.44 C503.37 816.32 505.81 807.4 508.5 798.47 C510.89 790.54 512.95 782.56 514.81 774.48 C515.02 773.58 515.22 772.68 515.44 771.75 C515.64 770.84 515.85 769.92 516.06 768.98 C518.57 761.01 522.65 755.79 528.62 750.03 C529.35 749.3 530.09 748.57 530.84 747.83 C533.18 745.52 535.53 743.23 537.88 740.94 C540.21 738.64 542.55 736.34 544.88 734.04 C546.33 732.61 547.78 731.19 549.24 729.77 C552.92 726.16 556.4 722.49 559.67 718.5 C561.85 716.04 564.48 714.1 567 712 C568.02 710.85 569.02 709.68 570 708.5 C572.7 705.24 575.74 702.71 579 700 C580.02 698.85 581.02 697.68 582 696.5 C584.7 693.24 587.74 690.71 591 688 C592.02 686.85 593.02 685.68 594 684.5 C596.7 681.24 599.74 678.71 603 676 C604.02 674.85 605.02 673.68 606 672.5 C608.7 669.24 611.74 666.71 615 664 C616.02 662.85 617.02 661.68 618 660.5 C620.7 657.24 623.74 654.71 627 652 C628.02 650.85 629.02 649.68 630 648.5 C632.7 645.24 635.74 642.71 639 640 C640.02 638.85 641.02 637.68 642 636.5 C644.7 633.24 647.74 630.71 651 628 C652.02 626.85 653.02 625.68 654 624.5 C656.7 621.24 659.74 618.71 663 616 C664.02 614.85 665.02 613.68 666 612.5 C668.7 609.24 671.74 606.71 675 604 C676.02 602.85 677.02 601.68 678 600.5 C680.7 597.24 683.74 594.71 687 592 C688.53 590.32 689.98 588.6 691.41 586.84 C693.49 584.43 695.74 582.24 698 580 C699.06 578.94 700.13 577.87 701.19 576.81 C703.44 574.56 705.69 572.31 707.94 570.06 C708.47 569.53 708.99 569 709.53 568.46 C710.8 567.2 712.1 565.96 713.4 564.72 C715.23 563.15 715.23 563.15 715 561 C716.32 560.34 717.64 559.68 719 559 C719 454.06 719 349.12 719 241 C651.68 240.67 584.36 240.34 515 240 C514.67 174 514.34 108 514 40 C357.25 40 200.5 40 39 40 Z M553 74 C553.33 115.58 553.66 157.16 554 200 C596.57 200 639.14 200 683 200 C681.2 196.39 679.79 194.52 677 191.75 C676.3 191.04 675.6 190.34 674.88 189.61 C673.16 187.78 673.16 187.78 671 188 C670.74 187.41 670.49 186.81 670.22 186.2 C668.88 183.78 667.54 182.53 665.41 180.78 C660.07 176.27 655.25 171.3 650.36 166.32 C646.34 162.25 642.23 158.4 637.89 154.67 C634.94 152.06 632.19 149.26 629.44 146.44 C626.06 143.01 622.71 139.63 619 136.56 C616 134 616 134 613.56 131.06 C609.88 126.66 605.56 123.11 601.14 119.47 C597.51 116.45 594.47 113.3 591.47 109.66 C589.22 107.12 586.64 105.14 584 103 C581.43 100.48 578.91 97.91 576.39 95.32 C575.54 94.45 574.69 93.58 573.81 92.69 C572.95 91.8 572.09 90.92 571.21 90.01 C569.25 87.78 569.25 87.78 567 88 C566.34 86.68 565.68 85.36 565 84 C564.34 84 563.68 84 563 84 C562.34 82.68 561.68 81.36 561 80 C558.36 78.02 555.72 76.04 553 74 Z " fill="#8C8C8C" transform="translate(37,0)"/>
<path d="M0 0 C1.76 -0.04 1.76 -0.04 3.55 -0.07 C15.75 -0.05 25.76 4.31 36.06 10.56 C36.06 11.22 36.06 11.88 36.06 12.56 C36.9 12.9 36.9 12.9 37.75 13.25 C48.18 19.17 55.28 32.37 59.2 43.34 C60.76 49.18 60.64 54.99 60.56 61 C60.58 62.23 60.59 63.47 60.61 64.74 C60.57 75.16 58.5 83.66 53.06 92.56 C52.37 94.75 52.37 94.75 52.06 96.56 C52.64 96.66 53.23 96.75 53.82 96.85 C62.18 99.52 68.52 110.98 72.54 118.22 C79.87 133.12 79.7 149.87 75.06 165.56 C74.83 166.41 74.6 167.26 74.36 168.14 C71.66 176.34 65.77 182.31 60.06 188.56 C59.54 189.14 59.03 189.71 58.49 190.3 C53.27 196.07 47.97 201.75 42.39 207.2 C40.9 208.67 40.9 208.67 39.25 211 C38.86 211.52 38.47 212.03 38.06 212.56 C37.4 212.56 36.74 212.56 36.06 212.56 C35.4 213.88 34.74 215.2 34.06 216.56 C33.4 216.56 32.74 216.56 32.06 216.56 C31.4 217.88 30.74 219.2 30.06 220.56 C29.4 220.56 28.74 220.56 28.06 220.56 C27.4 221.88 26.74 223.2 26.06 224.56 C25.4 224.56 24.74 224.56 24.06 224.56 C23.4 225.88 22.74 227.2 22.06 228.56 C21.4 228.56 20.74 228.56 20.06 228.56 C19.8 229.14 19.54 229.72 19.27 230.32 C15.92 236.56 10.42 241.1 5.06 245.56 C4.02 246.71 3 247.88 2 249.06 C-1.83 253.57 -6.01 257.69 -10.23 261.82 C-12.84 264.39 -15.33 266.97 -17.66 269.81 C-19.71 272.29 -21.83 274.16 -24.34 276.16 C-26.2 277.79 -27.76 279.56 -29.38 281.44 C-40.83 294.76 -40.83 294.76 -50.25 296 C-56.33 295.28 -61.88 293.52 -66.38 289.25 C-69.73 283.48 -72.07 278.34 -70.94 271.56 C-69.08 265.68 -66.23 260.97 -61.94 256.56 C-61.28 256.56 -60.62 256.56 -59.94 256.56 C-59.28 255.24 -58.62 253.92 -57.94 252.56 C-57.28 252.56 -56.62 252.56 -55.94 252.56 C-55.28 251.24 -54.62 249.92 -53.94 248.56 C-53.28 248.56 -52.62 248.56 -51.94 248.56 C-51.28 247.24 -50.62 245.92 -49.94 244.56 C-49.28 244.56 -48.62 244.56 -47.94 244.56 C-47.28 243.24 -46.62 241.92 -45.94 240.56 C-45.28 240.56 -44.62 240.56 -43.94 240.56 C-43.28 239.24 -42.62 237.92 -41.94 236.56 C-41.28 236.56 -40.62 236.56 -39.94 236.56 C-39.67 235.98 -39.41 235.4 -39.14 234.81 C-35.8 228.57 -30.3 224.01 -24.94 219.56 C-23.4 217.83 -21.93 216.05 -20.45 214.27 C-18.96 212.59 -17.43 211.22 -15.69 209.81 C-12.8 207.67 -12.8 207.67 -10.94 204.56 C-10.28 204.56 -9.62 204.56 -8.94 204.56 C-8.71 204 -8.48 203.44 -8.24 202.87 C-6.6 199.96 -4.53 198 -2.12 195.69 C2 191.67 2 191.67 5.75 187.31 C7.6 185.11 9.25 183.49 11.44 181.69 C14.66 179.01 17.28 176.09 19.97 172.89 C21.6 171.08 23.23 169.41 25 167.73 C34.82 158.71 34.82 158.71 39.27 146.48 C38.84 140.47 36.41 134.02 32.24 129.66 C30.56 128.21 28.86 126.85 27.06 125.56 C25.37 127.23 23.68 128.89 22 130.56 C21.53 131.02 21.07 131.48 20.59 131.95 C17.92 134.6 15.39 137.32 12.94 140.18 C8.79 144.95 4.35 149.4 -0.13 153.85 C-1.5 155.22 -2.87 156.59 -4.24 157.96 C-5.7 159.42 -7.16 160.87 -8.62 162.32 C-11.68 165.36 -14.73 168.41 -17.78 171.45 C-24.24 177.91 -30.72 184.36 -37.19 190.81 C-44.19 197.79 -51.19 204.77 -58.19 211.76 C-61.22 214.79 -64.25 217.81 -67.29 220.83 C-69.61 223.15 -71.94 225.47 -74.26 227.79 C-75.1 228.62 -75.94 229.46 -76.8 230.32 C-77.57 231.08 -78.34 231.85 -79.13 232.64 C-79.8 233.31 -80.46 233.97 -81.15 234.66 C-83 236.55 -83 236.55 -84.55 238.81 C-85.01 239.39 -85.47 239.97 -85.94 240.56 C-86.6 240.56 -87.26 240.56 -87.94 240.56 C-88.6 241.88 -89.26 243.2 -89.94 244.56 C-90.6 244.56 -91.26 244.56 -91.94 244.56 C-92.6 245.88 -93.26 247.2 -93.94 248.56 C-94.6 248.56 -95.26 248.56 -95.94 248.56 C-96.6 249.88 -97.26 251.2 -97.94 252.56 C-98.6 252.56 -99.26 252.56 -99.94 252.56 C-100.6 253.88 -101.26 255.2 -101.94 256.56 C-102.6 256.56 -103.26 256.56 -103.94 256.56 C-104.6 257.88 -105.26 259.2 -105.94 260.56 C-106.6 260.56 -107.26 260.56 -107.94 260.56 C-108.6 261.88 -109.26 263.2 -109.94 264.56 C-110.6 264.56 -111.26 264.56 -111.94 264.56 C-112.6 265.88 -113.26 267.2 -113.94 268.56 C-114.6 268.56 -115.26 268.56 -115.94 268.56 C-116.6 269.88 -117.26 271.2 -117.94 272.56 C-118.6 272.56 -119.26 272.56 -119.94 272.56 C-120.6 273.88 -121.26 275.2 -121.94 276.56 C-122.6 276.56 -123.26 276.56 -123.94 276.56 C-124.6 277.88 -125.26 279.2 -125.94 280.56 C-126.6 280.56 -127.26 280.56 -127.94 280.56 C-128.27 281.55 -128.6 282.54 -128.94 283.56 C-129.49 283.82 -130.05 284.08 -130.62 284.34 C-134.15 286.2 -136.42 289.11 -139.06 292.06 C-144.8 298.33 -150.68 304.43 -156.69 310.44 C-157.47 311.23 -158.26 312.02 -159.07 312.83 C-159.81 313.57 -160.54 314.3 -161.3 315.05 C-162.28 316.03 -162.28 316.03 -163.28 317.03 C-164.94 318.56 -164.94 318.56 -166.94 319.56 C-167.38 320.32 -167.83 321.07 -168.29 321.85 C-170.01 324.69 -171.86 326.65 -174.25 328.94 C-177.02 331.64 -179.66 334.33 -182.12 337.31 C-184.76 340.48 -187.77 342.92 -190.94 345.56 C-191.96 346.71 -192.96 347.88 -193.94 349.06 C-196.64 352.33 -199.68 354.85 -202.94 357.56 C-203.96 358.71 -204.96 359.88 -205.94 361.06 C-208.64 364.33 -211.68 366.85 -214.94 369.56 C-215.96 370.71 -216.96 371.88 -217.94 373.06 C-220.64 376.33 -223.68 378.85 -226.94 381.56 C-227.96 382.71 -228.96 383.88 -229.94 385.06 C-231.84 387.36 -233.54 389.07 -235.88 391 C-238.19 392.94 -239.83 394.53 -241.71 396.8 C-247.62 403.64 -254.16 409.89 -260.56 416.25 C-261.89 417.57 -263.21 418.89 -264.53 420.21 C-267.49 423.16 -270.45 426.11 -273.42 429.05 C-274.86 430.48 -276.27 431.93 -277.68 433.38 C-280.2 435.81 -282.31 436.87 -285.56 438.12 C-286.61 438.54 -287.66 438.95 -288.75 439.37 C-289.8 439.76 -290.85 440.16 -291.94 440.56 C-292.9 440.92 -293.86 441.29 -294.85 441.66 C-302.08 444.33 -309.36 446.81 -316.75 449 C-322.53 450.71 -328.23 452.64 -333.94 454.56 C-335.94 455.23 -337.94 455.9 -339.94 456.56 C-340.93 456.89 -341.92 457.22 -342.94 457.56 C-353.94 461.23 -364.94 464.9 -375.94 468.56 C-376.92 468.89 -377.9 469.22 -378.91 469.55 C-381 470.25 -383.09 470.94 -385.18 471.63 C-386.24 471.98 -387.29 472.33 -388.38 472.69 C-389.32 473 -390.27 473.31 -391.25 473.63 C-393.95 474.53 -393.95 474.53 -396.54 475.68 C-398.94 476.56 -398.94 476.56 -402.94 476.56 C-402.26 468.71 -400.19 461.22 -398.19 453.62 C-397.82 452.22 -397.46 450.81 -397.09 449.41 C-395.09 441.75 -392.98 434.13 -390.66 426.56 C-389.02 421.1 -387.78 415.57 -386.56 410 C-384.57 400.89 -382.13 391.96 -379.44 383.03 C-377.05 375.1 -374.99 367.12 -373.13 359.05 C-372.92 358.14 -372.71 357.24 -372.5 356.31 C-372.3 355.4 -372.09 354.49 -371.88 353.55 C-369.37 345.59 -365.31 340.38 -359.36 334.62 C-358.62 333.9 -357.89 333.18 -357.14 332.43 C-354.81 330.13 -352.47 327.85 -350.12 325.56 C-347.8 323.28 -345.47 320.99 -343.15 318.7 C-341.71 317.28 -340.26 315.86 -338.81 314.45 C-334.77 310.48 -330.99 306.4 -327.38 302.03 C-326.67 301.31 -326.67 301.31 -325.94 300.56 C-325.28 300.56 -324.62 300.56 -323.94 300.56 C-323.28 299.24 -322.62 297.92 -321.94 296.56 C-321.28 296.56 -320.62 296.56 -319.94 296.56 C-319.28 295.24 -318.62 293.92 -317.94 292.56 C-317.28 292.56 -316.62 292.56 -315.94 292.56 C-315.28 291.24 -314.62 289.92 -313.94 288.56 C-313.28 288.56 -312.62 288.56 -311.94 288.56 C-311.28 287.24 -310.62 285.92 -309.94 284.56 C-309.28 284.56 -308.62 284.56 -307.94 284.56 C-307.28 283.24 -306.62 281.92 -305.94 280.56 C-305.28 280.56 -304.62 280.56 -303.94 280.56 C-303.28 279.24 -302.62 277.92 -301.94 276.56 C-301.28 276.56 -300.62 276.56 -299.94 276.56 C-299.28 275.24 -298.62 273.92 -297.94 272.56 C-297.28 272.56 -296.62 272.56 -295.94 272.56 C-295.28 271.24 -294.62 269.92 -293.94 268.56 C-293.28 268.56 -292.62 268.56 -291.94 268.56 C-291.28 267.24 -290.62 265.92 -289.94 264.56 C-289.28 264.56 -288.62 264.56 -287.94 264.56 C-287.28 263.24 -286.62 261.92 -285.94 260.56 C-285.28 260.56 -284.62 260.56 -283.94 260.56 C-283.28 259.24 -282.62 257.92 -281.94 256.56 C-281.28 256.56 -280.62 256.56 -279.94 256.56 C-279.28 255.24 -278.62 253.92 -277.94 252.56 C-277.28 252.56 -276.62 252.56 -275.94 252.56 C-275.28 251.24 -274.62 249.92 -273.94 248.56 C-273.28 248.56 -272.62 248.56 -271.94 248.56 C-271.28 247.24 -270.62 245.92 -269.94 244.56 C-269.28 244.56 -268.62 244.56 -267.94 244.56 C-267.28 243.24 -266.62 241.92 -265.94 240.56 C-265.28 240.56 -264.62 240.56 -263.94 240.56 C-263.28 239.24 -262.62 237.92 -261.94 236.56 C-261.28 236.56 -260.62 236.56 -259.94 236.56 C-259.28 235.24 -258.62 233.92 -257.94 232.56 C-257.28 232.56 -256.62 232.56 -255.94 232.56 C-255.28 231.24 -254.62 229.92 -253.94 228.56 C-253.28 228.56 -252.62 228.56 -251.94 228.56 C-251.28 227.24 -250.62 225.92 -249.94 224.56 C-249.28 224.56 -248.62 224.56 -247.94 224.56 C-247.28 223.24 -246.62 221.92 -245.94 220.56 C-245.28 220.56 -244.62 220.56 -243.94 220.56 C-243.28 219.24 -242.62 217.92 -241.94 216.56 C-241.28 216.56 -240.62 216.56 -239.94 216.56 C-239.28 215.24 -238.62 213.92 -237.94 212.56 C-237.28 212.56 -236.62 212.56 -235.94 212.56 C-235.28 211.24 -234.62 209.92 -233.94 208.56 C-233.28 208.56 -232.62 208.56 -231.94 208.56 C-231.28 207.24 -230.62 205.92 -229.94 204.56 C-229.28 204.56 -228.62 204.56 -227.94 204.56 C-227.28 203.24 -226.62 201.92 -225.94 200.56 C-225.28 200.56 -224.62 200.56 -223.94 200.56 C-223.28 199.24 -222.62 197.92 -221.94 196.56 C-221.28 196.56 -220.62 196.56 -219.94 196.56 C-219.28 195.24 -218.62 193.92 -217.94 192.56 C-217.28 192.56 -216.62 192.56 -215.94 192.56 C-215.28 191.24 -214.62 189.92 -213.94 188.56 C-213.28 188.56 -212.62 188.56 -211.94 188.56 C-211.28 187.24 -210.62 185.92 -209.94 184.56 C-209.28 184.56 -208.62 184.56 -207.94 184.56 C-207.28 183.24 -206.62 181.92 -205.94 180.56 C-205.28 180.56 -204.62 180.56 -203.94 180.56 C-203.28 179.24 -202.62 177.92 -201.94 176.56 C-201.28 176.56 -200.62 176.56 -199.94 176.56 C-199.28 175.24 -198.62 173.92 -197.94 172.56 C-197.28 172.56 -196.62 172.56 -195.94 172.56 C-195.28 171.24 -194.62 169.92 -193.94 168.56 C-193.28 168.56 -192.62 168.56 -191.94 168.56 C-191.67 167.96 -191.4 167.37 -191.12 166.75 C-189.95 164.59 -188.83 163.23 -187.07 161.54 C-186.24 160.72 -186.24 160.72 -185.38 159.88 C-184.8 159.32 -184.22 158.76 -183.62 158.19 C-180.33 154.99 -177.1 151.84 -174.21 148.27 C-171.94 145.56 -171.94 145.56 -168.94 143.56 C-168.61 142.57 -168.28 141.58 -167.94 140.56 C-166.61 140.21 -165.28 139.88 -163.94 139.56 C-162.12 138.19 -162.12 138.19 -160.41 136.41 C-159.74 135.74 -159.07 135.08 -158.38 134.39 C-157.66 133.67 -156.95 132.95 -156.21 132.2 C-155.47 131.46 -154.73 130.72 -153.97 129.96 C-152.4 128.39 -150.83 126.81 -149.27 125.24 C-146.89 122.83 -144.49 120.43 -142.09 118.04 C-140.57 116.51 -139.05 114.98 -137.53 113.45 C-136.45 112.38 -136.45 112.38 -135.36 111.29 C-132 107.89 -129.28 104.76 -126.94 100.56 C-125.49 99.34 -124.04 98.12 -122.54 96.95 C-120.8 95.44 -119.4 93.84 -117.94 92.06 C-115.24 88.8 -112.2 86.28 -108.94 83.56 C-107.92 82.41 -106.92 81.25 -105.94 80.06 C-103.24 76.8 -100.2 74.28 -96.94 71.56 C-95.92 70.41 -94.92 69.25 -93.94 68.06 C-91.24 64.8 -88.2 62.28 -84.94 59.56 C-83.92 58.41 -82.92 57.25 -81.94 56.06 C-80.03 53.76 -78.33 52.06 -76 50.12 C-73.64 48.15 -71.92 46.45 -69.98 44.14 C-65.03 38.41 -59.62 33.14 -54.25 27.81 C-53.21 26.77 -52.17 25.74 -51.12 24.7 C-49.21 22.8 -47.3 20.9 -45.39 19 C-43.83 17.45 -42.29 15.86 -40.8 14.24 C-38.94 12.56 -38.94 12.56 -35.94 12.56 C-35.61 11.57 -35.28 10.58 -34.94 9.56 C-24.79 1.87 -12.36 -0.12 0 0 Z " fill="#FA4358" transform="translate(923.9375,415.4375)"/>
<path d="M0 0 C43.56 0 87.12 0 132 0 C132 45.87 132 91.74 132 139 C88.44 139 44.88 139 0 139 C-0.88 135.47 -1.11 132.98 -1.08 129.39 C-1.08 128.25 -1.07 127.11 -1.06 125.94 C-1.04 124.06 -1.04 124.06 -1.02 122.15 C-1.01 120.84 -1 119.52 -0.99 118.16 C-0.97 114.55 -0.93 110.94 -0.9 107.33 C-0.87 103.56 -0.84 99.79 -0.81 96.02 C-0.75 88.87 -0.69 81.73 -0.63 74.59 C-0.54 64.93 -0.46 55.28 -0.39 45.62 C-0.26 30.42 -0.13 15.21 0 0 Z M39 44 C39 61.16 39 78.32 39 96 C56.49 96 73.98 96 92 96 C92.84 92.65 93.1 90.5 93.02 87.14 C93 86.17 92.98 85.19 92.96 84.19 C92.93 83.17 92.91 82.16 92.88 81.11 C92.86 80.17 92.84 79.23 92.82 78.26 C92.74 74.76 92.65 71.25 92.56 67.75 C92.38 59.91 92.19 52.07 92 44 C74.51 44 57.02 44 39 44 Z " fill="#FB4257" transform="translate(128,116)"/>
<path d="M0 0 C43.56 0 87.12 0 132 0 C132 45.54 132 91.08 132 138 C128.98 139.01 126.95 139.13 123.79 139.14 C122.18 139.15 122.18 139.15 120.53 139.16 C119.34 139.16 118.16 139.16 116.94 139.16 C115.7 139.17 114.45 139.17 113.17 139.18 C109.75 139.19 106.33 139.2 102.91 139.2 C100.78 139.2 98.65 139.21 96.51 139.21 C89.84 139.23 83.17 139.24 76.5 139.24 C68.79 139.24 61.08 139.26 53.37 139.29 C47.41 139.31 41.46 139.32 35.5 139.32 C31.94 139.32 28.38 139.33 24.82 139.35 C20.86 139.37 16.89 139.36 12.93 139.36 C11.74 139.37 10.56 139.37 9.34 139.38 C8.26 139.38 7.19 139.37 6.08 139.37 C4.67 139.37 4.67 139.37 3.24 139.37 C2.5 139.25 1.76 139.13 1 139 C-1.27 135.59 -1.24 134.47 -1.2 130.48 C-1.2 129.33 -1.19 128.18 -1.19 127 C-1.17 125.74 -1.15 124.47 -1.14 123.18 C-1.12 121.83 -1.12 120.49 -1.11 119.15 C-1.08 115.51 -1.04 111.87 -1 108.23 C-0.96 104.43 -0.93 100.63 -0.9 96.82 C-0.84 89.62 -0.77 82.42 -0.7 75.21 C-0.6 65.48 -0.52 55.74 -0.43 46.01 C-0.3 30.67 -0.15 15.34 0 0 Z M39 43 C39 60.49 39 77.98 39 96 C47.37 96.02 55.75 96.04 64.38 96.06 C67.02 96.07 69.66 96.08 72.39 96.09 C74.47 96.09 76.56 96.1 78.65 96.1 C80.28 96.11 80.28 96.11 81.95 96.11 C82.99 96.11 84.02 96.11 85.09 96.11 C86.44 96.12 86.44 96.12 87.82 96.12 C90.05 96.14 90.05 96.14 92 95 C92 78.17 92 61.34 92 44 C89.52 42.76 87.87 42.88 85.09 42.89 C84.06 42.89 83.02 42.89 81.95 42.89 C80.86 42.89 79.77 42.9 78.65 42.9 C77.15 42.9 77.15 42.9 75.62 42.91 C71.87 42.91 68.12 42.92 64.38 42.94 C56 42.96 47.63 42.98 39 43 Z " fill="#FB4258" transform="translate(128,344)"/>
<path d="M0 0 C43.56 0 87.12 0 132 0 C132 45.87 132 91.74 132 139 C88.44 139 44.88 139 0 139 C-1.31 136.38 -1.11 134.49 -1.08 131.56 C-1.08 130.4 -1.07 129.25 -1.06 128.06 C-1.05 126.78 -1.04 125.51 -1.02 124.2 C-1.01 122.85 -1 121.5 -0.99 120.15 C-0.97 116.48 -0.93 112.8 -0.9 109.13 C-0.87 105.3 -0.84 101.46 -0.81 97.63 C-0.75 90.37 -0.69 83.1 -0.63 75.84 C-0.54 66.03 -0.46 56.21 -0.39 46.4 C-0.26 30.93 -0.13 15.47 0 0 Z M39 43 C39 60.49 39 77.98 39 96 C47.35 96.02 55.71 96.04 64.31 96.06 C68.27 96.08 68.27 96.08 72.3 96.09 C74.38 96.09 76.47 96.1 78.55 96.1 C79.64 96.1 80.72 96.11 81.84 96.11 C83.39 96.11 83.39 96.11 84.98 96.11 C85.88 96.12 86.78 96.12 87.7 96.12 C90.16 96.09 90.16 96.09 93 95 C93.17 77.64 92.61 60.35 92 43 C74.51 43 57.02 43 39 43 Z " fill="#FA4258" transform="translate(128,572)"/>
<path d="M0 0 C43.56 0 87.12 0 132 0 C132 44.88 132 89.76 132 136 C88.44 136 44.88 136 0 136 C-0.65 131.45 -1.12 127.73 -1.08 123.26 C-1.08 122.17 -1.07 121.08 -1.06 119.95 C-1.05 118.77 -1.04 117.58 -1.02 116.36 C-1.01 115.08 -1 113.8 -0.99 112.49 C-0.97 109.04 -0.93 105.6 -0.9 102.15 C-0.87 98.91 -0.84 95.67 -0.82 92.43 C-0.74 82.98 -0.65 73.52 -0.56 64.06 C-0.38 42.92 -0.19 21.78 0 0 Z M39 41 C39 58.16 39 75.32 39 93 C56.49 93 73.98 93 92 93 C92 75.84 92 58.68 92 41 C74.51 41 57.02 41 39 41 Z " fill="#FA4258" transform="translate(128,771)"/>
<path d="M0 0 C1.22 -0 2.43 -0.01 3.69 -0.01 C5.06 -0.01 6.42 -0 7.79 -0 C9.23 -0 10.67 -0 12.11 -0.01 C16.09 -0.01 20.06 -0.01 24.04 -0 C28.32 -0 32.6 -0.01 36.87 -0.01 C45.27 -0.01 53.66 -0.01 62.05 -0.01 C68.86 -0.01 75.68 -0.01 82.5 -0.01 C83.46 -0.01 84.43 -0.01 85.43 -0.01 C87.4 -0.01 89.36 -0.01 91.33 -0.01 C109.79 -0.01 128.26 -0.01 146.72 -0 C162.58 0 178.44 0 194.3 -0 C212.69 -0.01 231.09 -0.01 249.48 -0.01 C251.44 -0.01 253.4 -0.01 255.36 -0.01 C256.33 -0.01 257.29 -0.01 258.28 -0.01 C265.1 -0.01 271.91 -0.01 278.72 -0.01 C287.02 -0.01 295.31 -0.01 303.61 -0.01 C307.85 -0 312.08 -0 316.32 -0.01 C320.19 -0.01 324.06 -0.01 327.94 -0 C329.34 -0 330.75 -0 332.16 -0 C334.06 -0.01 335.96 -0 337.86 0 C339.45 0 339.45 0 341.07 0 C343.43 0.13 343.43 0.13 344.43 1.13 C344.43 14.99 344.43 28.85 344.43 43.13 C228.6 43.13 112.77 43.13 -6.57 43.13 C-6.57 0 -6.57 0 0 0 Z " fill="#8D8D8E" transform="translate(338.57071685791016,379.87415885925293)"/>
<path d="M0 0 C0.78 0 1.57 0.01 2.37 0.01 C3.61 0.01 3.61 0.01 4.88 0.01 C7.66 0 10.45 0.01 13.24 0.02 C15.23 0.02 17.22 0.02 19.21 0.02 C24.63 0.01 30.05 0.02 35.48 0.03 C41.13 0.03 46.79 0.03 52.45 0.04 C63.18 0.04 73.9 0.05 84.62 0.06 C96.83 0.07 109.03 0.07 121.24 0.08 C146.35 0.09 171.47 0.11 196.58 0.13 C196.58 14.32 196.58 28.51 196.58 43.13 C129.59 43.13 62.6 43.13 -6.42 43.13 C-6.42 0.02 -6.42 0.02 0 0 Z " fill="#8E8F8F" transform="translate(338.4160504937172,615.8709186911583)"/>
<path d="M0 0 C1.25 0 2.51 0 3.8 0 C4.49 0 5.19 0 5.9 0 C8.25 -0 10.59 0 12.94 0.01 C14.62 0.01 16.29 0.01 17.97 0.01 C22.53 0.01 27.09 0.01 31.65 0.02 C36.41 0.03 41.18 0.03 45.94 0.03 C54.96 0.03 63.99 0.04 73.01 0.05 C83.28 0.06 93.55 0.07 103.82 0.07 C124.95 0.08 146.09 0.1 167.22 0.12 C168.94 3.55 168.36 7.48 168.35 11.25 C168.36 12.16 168.36 13.06 168.36 13.99 C168.36 15.91 168.36 17.82 168.35 19.74 C168.35 22.68 168.35 25.62 168.36 28.56 C168.36 30.41 168.36 32.27 168.35 34.13 C168.36 35.01 168.36 35.9 168.36 36.81 C168.34 43.01 168.34 43.01 167.22 44.12 C165.03 44.22 162.84 44.25 160.65 44.25 C159.96 44.25 159.27 44.25 158.55 44.25 C156.21 44.26 153.86 44.26 151.52 44.25 C149.85 44.25 148.17 44.26 146.5 44.26 C141.94 44.26 137.38 44.26 132.83 44.26 C128.07 44.25 123.31 44.26 118.55 44.26 C110.56 44.26 102.56 44.26 94.57 44.25 C85.31 44.25 76.06 44.25 66.8 44.26 C58.87 44.26 50.94 44.26 43.01 44.26 C38.27 44.26 33.52 44.26 28.78 44.26 C24.32 44.26 19.86 44.26 15.41 44.25 C13.76 44.25 12.12 44.25 10.48 44.26 C8.25 44.26 6.02 44.26 3.79 44.25 C1.91 44.25 1.91 44.25 -0 44.25 C-2.78 44.12 -2.78 44.12 -3.78 43.12 C-3.88 40.03 -3.92 36.96 -3.91 33.87 C-3.91 32.94 -3.91 32.02 -3.91 31.06 C-3.91 29.09 -3.91 27.13 -3.91 25.16 C-3.9 22.14 -3.91 19.11 -3.91 16.09 C-3.91 14.19 -3.91 12.28 -3.91 10.37 C-3.91 9.46 -3.91 8.55 -3.92 7.61 C-3.89 0.17 -3.89 0.17 0 0 Z " fill="#8F8F90" transform="translate(335.778000831604,155.87695217132568)"/>
<path d="M0 0 C48.84 0 97.68 0 148 0 C148 13.86 148 27.72 148 42 C128.85 42.02 109.7 42.04 90.55 42.05 C81.66 42.06 72.77 42.06 63.88 42.08 C56.13 42.09 48.39 42.09 40.64 42.09 C36.54 42.1 32.43 42.1 28.33 42.11 C24.47 42.11 20.61 42.11 16.75 42.11 C15.33 42.11 13.91 42.12 12.49 42.12 C10.56 42.12 8.63 42.12 6.7 42.12 C5.62 42.12 4.53 42.12 3.42 42.12 C1 42 1 42 0 41 C0 27.47 0 13.94 0 0 Z " fill="#8D8E8E" transform="translate(332,810)"/>
<path d="M0 0 C114.18 0 228.36 0 346 0 C346.33 0.66 346.66 1.32 347 2 C345.02 2.33 343.04 2.66 341 3 C341 3.33 341 3.66 341 4 C317.9 4 294.8 4 271 4 C271 3.67 271 3.34 271 3 C242.27 1.93 213.54 1.79 184.8 1.7 C178.28 1.67 171.75 1.65 165.23 1.62 C154.33 1.58 143.43 1.54 132.53 1.5 C121.32 1.46 110.11 1.42 98.91 1.37 C98.21 1.37 97.52 1.37 96.8 1.36 C93.31 1.35 89.82 1.34 86.32 1.32 C57.55 1.21 28.77 1.1 0 1 C0 0.67 0 0.34 0 0 Z " fill="#D0D0D0" transform="translate(336,380)"/>
<path d="M0 0 C13.87 0 27.65 0 41.5 0.5 C46.28 0.66 51.07 0.83 56 1 C56 11.56 56 22.12 56 33 C55.67 33 55.34 33 55 33 C55 22.77 55 12.54 55 2 C37.51 2 20.02 2 2 2 C2 19.49 2 36.98 2 55 C28.73 54.5 28.73 54.5 56 54 C55.5 54.99 55.5 54.99 55 56 C36.85 56 18.7 56 0 56 C0 37.52 0 19.04 0 0 Z " fill="#FB6576" transform="translate(165,613)"/>
<path d="M0 0 C39.27 0 78.54 0 119 0 C119 0.33 119 0.66 119 1 C79.4 1.66 39.8 2.32 -1 3 C-0.67 2.01 -0.34 1.02 0 0 Z " fill="#9F9F9F" transform="translate(333,156)"/>
<path d="M0 0 C0.5 0.99 0.5 0.99 1 2 C0.01 3.32 -0.98 4.64 -2 6 C-1.34 6.99 -0.68 7.98 0 9 C-6.41 12.89 -6.41 12.89 -9.81 13.5 C-10.53 13.66 -11.26 13.83 -12 14 C-12.25 14.54 -12.51 15.09 -12.77 15.65 C-14.54 19.03 -17.19 21.44 -19.88 24.08 C-20.46 24.65 -21.03 25.22 -21.62 25.81 C-23.45 27.63 -25.29 29.44 -27.12 31.25 C-28.37 32.48 -29.61 33.72 -30.86 34.95 C-33.9 37.97 -36.95 40.99 -40 44 C-40.66 43.67 -41.32 43.34 -42 43 C-41.34 42.35 -40.68 41.69 -40 41.02 C-37.52 38.55 -35.04 36.08 -32.56 33.61 C-31.49 32.55 -30.42 31.49 -29.35 30.43 C-23.79 24.91 -18.28 19.41 -13.31 13.33 C-12.88 12.89 -12.44 12.45 -12 12 C-11.34 12 -10.68 12 -10 12 C-9.34 10.68 -8.68 9.36 -8 8 C-7.34 8 -6.68 8 -6 8 C-5.34 6.68 -4.68 5.36 -4 4 C-3.34 4 -2.68 4 -2 4 C-1.34 2.68 -0.68 1.36 0 0 Z " fill="#FC6072" transform="translate(610,704)"/>
<path d="M0 0 C4.22 1.56 6.26 4.55 9 8 C9.98 9.02 10.97 10.03 12 11 C8.4 10.69 7.01 10.01 4.19 7.62 C2 5 2 5 2 2 C1.34 2 0.68 2 0 2 C0 1.34 0 0.68 0 0 Z " fill="#A0A0A0" transform="translate(688,111)"/>
<path d="M0 0 C3.48 1.88 6.03 3.5 8 7 C7.67 7.99 7.34 8.98 7 10 C5.83 8.71 4.66 7.42 3.5 6.12 C2.85 5.41 2.2 4.69 1.53 3.95 C0 2 0 2 0 0 Z " fill="#9D9D9D" transform="translate(626,106)"/>
<path d="M0 0 C0.66 0.33 1.32 0.66 2 1 C2 1.66 2 2.32 2 3 C-0.88 4.92 -3.9 6.46 -7 8 C-6.02 6.85 -5.04 5.71 -4.06 4.56 C-3.52 3.92 -2.97 3.29 -2.41 2.63 C-1.63 1.73 -0.84 0.84 0 0 Z " fill="#A07578" transform="translate(793,698)"/>
<path d="M0 0 C1.49 0.99 1.49 0.99 3 2 C3 2.66 3 3.32 3 4 C4.32 4.66 5.64 5.32 7 6 C6.01 6.5 6.01 6.5 5 7 C2.38 5.81 2.38 5.81 0 4 C0 2.68 0 1.36 0 0 Z " fill="#9F9F9E" transform="translate(781,200)"/>
<path d="M0 0 C0.99 0.66 1.98 1.32 3 2 C2.34 2 1.68 2 1 2 C0.34 3.32 -0.32 4.64 -1 6 C-1.66 6 -2.32 6 -3 6 C-2.43 3.13 -2.14 2.14 0 0 Z " fill="#FB596D" transform="translate(831,658)"/>
</svg>
